<svg width="206" height="49" viewBox="0 0 206 49" fill="none" xmlns="http://www.w3.org/2000/svg">
<g clip-path="url(#clip0_577_18105)">
<path d="M56.5096 25.0165C55.0607 26.4582 53.1005 27.2692 51.056 27.2728C45.9874 27.2728 43.3545 23.7368 43.3545 19.6908C43.3545 15.6449 45.9056 11.9453 51.056 11.9453C53.1009 11.9469 55.0618 12.7582 56.5096 14.2016L55.7009 14.88C54.453 13.656 52.7707 12.9761 51.0223 12.9893C46.6372 12.9893 44.4231 16.0538 44.4231 19.6764C44.452 23.1403 46.6902 26.2096 51.0223 26.2096C51.8921 26.2137 52.7541 26.0458 53.5588 25.7156C54.3634 25.3853 55.0947 24.8992 55.7105 24.2852L56.5096 25.0165ZM60.0041 16.5012L60.0474 18.3727C60.7309 16.9294 62.2183 16.3713 63.5805 16.3713C64.3801 16.3651 65.165 16.5871 65.8428 17.0112L65.3615 17.8627C64.8229 17.5307 64.2036 17.3527 63.5709 17.3479C62.6404 17.3631 61.7531 17.7425 61.0996 18.4046C60.4462 19.0667 60.0787 19.9587 60.0763 20.8888V27.0611H59.0126V16.4772L60.0041 16.5012ZM76.6152 16.5012L69.8861 32.2328H68.779L70.9932 26.9986L66.7333 16.5012H67.8692L70.3433 22.7554L71.5756 25.8247L72.8078 22.7554L75.4552 16.5445L76.6008 16.5012H76.6152ZM79.0845 32.2328V16.5012H80.1098V19.0125C80.5518 18.1832 81.2179 17.4946 82.0323 17.0251C82.8467 16.5556 83.7766 16.3241 84.7162 16.3569C87.5706 16.4868 89.8714 18.4015 89.8714 21.8076C89.8714 25.3821 87.4647 27.3017 84.4996 27.3017C83.5948 27.3149 82.7044 27.0745 81.9293 26.6077C81.1542 26.1408 80.5256 25.4663 80.1146 24.6605V32.2328H79.0845ZM88.8028 21.8028C88.8028 18.8201 86.8775 17.372 84.4707 17.372C82.064 17.372 80.1675 19.2482 80.1675 21.8461C80.1675 24.444 82.04 26.3203 84.4707 26.3203C86.9015 26.3203 88.8028 24.7856 88.8028 21.8028ZM94.5067 13.3308V16.5012H98.1312V17.3961H94.5067V23.8234C94.5067 25.2667 94.8052 26.2288 96.4658 26.2288C97.0297 26.21 97.5823 26.0654 98.0831 25.8055L98.4682 26.657C97.8543 26.9982 97.1678 27.1879 96.4658 27.2103C94.2083 27.2103 93.4863 25.8921 93.4863 23.8042V17.3961H91.2288V16.5012H93.4863V13.4367L94.5067 13.3068V13.3308ZM99.4934 21.8461C99.4934 18.4785 101.9 16.3521 104.86 16.3521C107.821 16.3521 110.227 18.4593 110.227 21.8221C110.227 25.1849 107.821 27.2295 104.86 27.2295C101.9 27.2295 99.4934 25.1849 99.4934 21.8221M109.202 21.8221C109.202 19.0943 107.243 17.3095 104.87 17.3095C102.497 17.3095 100.538 19.0943 100.538 21.8221C100.538 22.9736 100.996 24.078 101.81 24.8922C102.625 25.7065 103.73 26.1639 104.882 26.1639C106.034 26.1639 107.139 25.7065 107.954 24.8922C108.768 24.078 109.226 22.9736 109.226 21.8221M115.151 24.4633H122.901V27.0611H112.316V12.0704H115.127L115.151 24.4633ZM130.073 24.9732C131.093 24.9868 132.087 24.6468 132.884 24.011L134.545 25.6708C133.438 26.8206 131.604 27.3787 129.986 27.3787C126.323 27.3787 124.21 25.1175 124.21 21.7547C124.21 18.5603 126.386 16.2222 129.837 16.2222C133.072 16.2222 135.204 18.0503 135.204 21.7547C135.21 22.076 135.195 22.3974 135.161 22.7169H126.838C127.05 24.0351 128.201 24.9732 130.035 24.9732M129.905 18.5026C128.499 18.5026 127.349 19.1809 126.968 20.5424H132.677C132.461 19.1809 131.397 18.5026 129.905 18.5026ZM147.373 16.9246L146.222 18.416C146.97 19.2751 147.366 20.3853 147.329 21.5238C147.329 22.842 146.814 24.6749 145.115 25.4832C146.862 26.378 147.286 27.6144 147.286 28.9759C147.286 31.8624 145.072 33.7002 141.991 33.7002C138.911 33.7002 136.624 31.8287 136.624 28.9759H139.223C139.223 30.3374 140.499 31.2322 141.991 31.2322C143.483 31.2322 144.672 30.4239 144.672 28.9759C144.672 27.5278 143.324 26.8446 141.996 26.8446C138.713 26.8446 136.629 24.8481 136.629 21.5238C136.629 18.1995 139.021 16.1597 141.996 16.1597C142.839 16.1199 143.676 16.3272 144.403 16.7562L145.466 15.4332L147.373 16.9246ZM139.238 21.5238C139.238 23.3567 140.47 24.4633 142.006 24.4633C143.541 24.4633 144.73 23.3567 144.73 21.5238C144.73 19.6908 143.498 18.541 142.006 18.541C140.513 18.541 139.238 19.6908 139.238 21.5238ZM159.854 16.5012V27.0852H157.399L157.269 25.5505C156.672 26.8254 154.968 27.4219 153.774 27.4219C150.66 27.4219 148.35 25.4976 148.35 21.7788C148.35 18.161 150.756 16.2462 153.803 16.2462C155.209 16.2462 156.614 16.8813 157.211 17.9445L157.298 16.5012H159.854ZM151.036 21.7932C151.011 22.2119 151.073 22.6311 151.219 23.0242C151.366 23.4173 151.592 23.7756 151.885 24.0762C152.178 24.3768 152.53 24.6131 152.919 24.77C153.308 24.927 153.726 25.0011 154.145 24.9876C156.191 24.9876 157.211 23.3664 157.211 21.7932C157.211 20.22 156.191 18.6036 154.145 18.6036C153.725 18.5864 153.306 18.6579 152.916 18.8132C152.525 18.9685 152.172 19.2043 151.878 19.5052C151.585 19.8061 151.358 20.1653 151.213 20.5595C151.068 20.9537 151.007 21.3741 151.036 21.7932ZM167.31 27.4219C164.244 27.4219 161.683 25.5938 161.683 21.8461C161.683 18.0984 164.244 16.2703 167.31 16.2703C168.026 16.2463 168.74 16.374 169.403 16.6451C170.067 16.9163 170.666 17.3246 171.16 17.8435L169.5 19.5898C168.913 19.0612 168.157 18.7593 167.367 18.7383C166.96 18.7277 166.555 18.8016 166.178 18.9552C165.801 19.1088 165.459 19.3388 165.175 19.6307C164.891 19.9227 164.671 20.2702 164.528 20.6515C164.385 21.0328 164.323 21.4396 164.345 21.8461C164.315 22.2492 164.371 22.654 164.509 23.0337C164.648 23.4135 164.865 23.7596 165.147 24.0492C165.429 24.3389 165.77 24.5654 166.146 24.7139C166.522 24.8624 166.925 24.9294 167.329 24.9107C167.752 24.9244 168.174 24.8521 168.569 24.6983C168.963 24.5445 169.323 24.3123 169.625 24.0158L171.358 25.6948C170.848 26.2549 170.222 26.6973 169.524 26.9913C168.826 27.2854 168.072 27.4242 167.315 27.3979M176.725 31.4872H173.875L175.829 26.8879L171.608 16.5012H174.636L176.253 21.0571L177.274 24.0543L178.381 21.1678L180.306 16.5301H183.194L176.72 31.4872H176.725Z" fill="white"/>
<path d="M16.5774 0.519576L14.5221 1.70787L10.267 4.16142L0 10.1029V30.2557L8.2117 34.9944L10.267 36.1779L14.5221 38.6363L16.5774 39.8197L17.4775 40.3441L18.9216 39.4926L20.9721 38.3091L28.7794 33.8061L34.931 30.2557V22.8565H20.356L17.4679 25.7431L11.9132 20.1721L17.4775 14.6107L20.3656 17.4972H34.9551V10.1029L32.6639 8.77988L24.688 4.16142L20.9961 2.03501L18.9456 0.846717L17.4775 0L16.5774 0.519576ZM2.296 11.4114L8.94334 7.56272L16.1972 3.36762L17.9204 5.09473C22.315 9.48708 22.7771 9.94411 28.0286 15.1976H21.309L14.5702 8.46236L12.9481 6.84109L2.296 17.4876V11.4114ZM25.256 9.19842L19.451 3.5793L25.7085 7.42802L32.6446 11.4355V15.2217H31.2584L25.256 9.19842ZM2.85436 20.1721L12.9625 10.0692L15.8506 12.9798L8.66416 20.1721L15.8554 27.3499L12.9674 30.2364L2.85436 20.1721ZM11.9469 34.5037L9.88677 33.3202L2.296 28.9327V22.8565L2.57999 23.1404L11.326 31.8818L12.9481 33.503L14.5654 31.8818L17.7567 28.697L18.9167 27.5375L21.3235 25.1321H28.0141L22.4546 30.7079L17.9204 35.235L16.1972 36.9573L11.9469 34.5037ZM26.8685 29.5389L31.2632 25.1465H32.6687V28.9327L27.1236 32.1319L19.4222 36.7552L26.8685 29.5389Z" fill="url(#paint0_linear_577_18105)"/>
<path d="M86.9888 37.5249H89.718C92.2739 37.5249 93.511 39.3579 93.511 41.1908C93.511 43.1152 92.3605 45.0395 89.718 45.0395H86.9888V37.5249ZM92.5723 41.1908C92.5852 40.8164 92.5195 40.4435 92.3795 40.096C92.2395 39.7486 92.0283 39.4342 91.7594 39.1732C91.4906 38.9122 91.1701 38.7103 90.8185 38.5806C90.4669 38.4508 90.092 38.396 89.718 38.4197H87.9274V44.087H89.718C91.7204 44.087 92.5723 42.6004 92.5723 41.2004M95.8166 38.1263C95.8239 38.2062 95.8145 38.2867 95.7889 38.3628C95.7633 38.4389 95.7222 38.5088 95.668 38.5681C95.6139 38.6273 95.548 38.6747 95.4745 38.7071C95.4011 38.7395 95.3217 38.7562 95.2414 38.7562C95.1611 38.7562 95.0817 38.7395 95.0082 38.7071C94.9347 38.6747 94.8689 38.6273 94.8147 38.5681C94.7606 38.5088 94.7194 38.4389 94.6939 38.3628C94.6683 38.2867 94.6589 38.2062 94.6662 38.1263C94.6229 37.3613 95.8166 37.3613 95.8166 38.1263ZM94.7432 45.0299H95.6385V39.7042H94.7432V45.0299ZM99.7251 47.368C100.625 47.368 101.602 47.0264 101.602 46.1316C101.602 45.2368 100.75 44.8567 99.7251 44.8567C98.0644 44.8567 96.914 43.8945 96.914 42.2588C96.914 40.5125 98.3581 39.6176 99.7251 39.6176C100.249 39.6137 100.765 39.7463 101.222 40.0025L101.771 39.3242L102.411 39.8341L101.819 40.5558C102.043 40.7781 102.218 41.044 102.335 41.3369C102.452 41.6299 102.507 41.9436 102.498 42.2588C102.513 42.7323 102.377 43.1985 102.109 43.5889C101.84 43.9794 101.453 44.2736 101.005 44.4285C101.412 44.5067 101.778 44.7238 102.041 45.0425C102.305 45.3611 102.449 45.7615 102.449 46.1749C102.449 47.5412 101.087 48.2628 99.6818 48.2628C98.103 48.2628 96.9525 47.4113 96.9525 46.0065H97.8045C97.8527 46.9687 98.7431 47.368 99.7299 47.368M99.7299 44.087C99.9779 44.0993 100.226 44.0612 100.459 43.975C100.692 43.8887 100.904 43.7561 101.084 43.5852C101.264 43.4142 101.408 43.2085 101.506 42.9805C101.604 42.7525 101.655 42.507 101.655 42.2588C101.655 41.7484 101.452 41.259 101.091 40.8981C100.73 40.5372 100.241 40.3345 99.7299 40.3345C99.2193 40.3345 98.7295 40.5372 98.3685 40.8981C98.0074 41.259 97.8045 41.7484 97.8045 42.2588C97.7938 42.5101 97.837 42.7607 97.9313 42.9939C98.0256 43.227 98.1688 43.4373 98.3513 43.6105C98.5337 43.7837 98.7511 43.9159 98.9889 43.998C99.2267 44.0802 99.4794 44.1105 99.7299 44.087ZM104.842 38.1263C104.842 38.2781 104.781 38.4237 104.674 38.5311C104.567 38.6384 104.421 38.6988 104.269 38.6988C104.117 38.6988 103.971 38.6384 103.864 38.5311C103.756 38.4237 103.696 38.2781 103.696 38.1263C103.653 37.3613 104.842 37.3613 104.842 38.1263ZM103.773 45.0299H104.668V39.7042H103.773V45.0299ZM107.783 39.7379H109.4V40.5028H107.735V43.3124C107.735 43.9523 107.951 44.3371 108.587 44.3371C108.844 44.331 109.095 44.2562 109.313 44.1206L109.569 44.8471C109.253 45.0119 108.904 45.0993 108.548 45.1021C107.398 45.1021 106.883 44.4622 106.883 43.2739V40.4692H105.819V39.7475H106.887V38.3043L107.788 38.2177L107.783 39.7379ZM114.892 45.0588V44.0966C114.685 44.4278 114.396 44.6998 114.053 44.8861C113.709 45.0724 113.324 45.1667 112.933 45.1598C112.568 45.1744 112.203 45.1126 111.863 44.9782C111.523 44.8437 111.215 44.6397 110.958 44.3793C110.702 44.1188 110.503 43.8076 110.374 43.4656C110.244 43.1236 110.188 42.7585 110.209 42.3935C110.189 42.0308 110.246 41.6681 110.376 41.3289C110.507 40.9898 110.707 40.6818 110.963 40.4249C111.22 40.1681 111.529 39.9682 111.868 39.8382C112.207 39.7083 112.57 39.6511 112.933 39.6706C113.325 39.6583 113.712 39.7503 114.057 39.9371C114.401 40.1239 114.689 40.3989 114.892 40.7338V39.7716H115.744V45.0636L114.892 45.0588ZM112.933 40.4595C112.678 40.4501 112.423 40.4934 112.185 40.5868C111.947 40.6802 111.731 40.8216 111.551 41.0022C111.37 41.1828 111.228 41.3987 111.135 41.6365C111.042 41.8742 110.998 42.1287 111.008 42.3839C110.999 42.6409 111.042 42.897 111.135 43.1368C111.228 43.3765 111.369 43.5949 111.549 43.7785C111.729 43.9621 111.945 44.1072 112.182 44.2049C112.42 44.3026 112.676 44.3508 112.933 44.3467C115.489 44.3467 115.489 40.4692 112.933 40.4692M118.3 45.0299H117.405V37.5249H118.3V45.0299ZM122.902 37.5249H123.836V45.0299H122.902V37.5249ZM125.583 39.7427H126.396L126.435 40.5942C126.638 40.2954 126.911 40.0512 127.231 39.8834C127.551 39.7155 127.907 39.6292 128.269 39.6321C129.592 39.6321 130.613 40.5269 130.613 42.1049V45.0395H129.718V42.153C129.74 41.9328 129.714 41.7103 129.641 41.5013C129.568 41.2924 129.45 41.102 129.295 40.9436C129.14 40.7853 128.953 40.6629 128.745 40.585C128.538 40.5072 128.316 40.4759 128.095 40.4932C127.875 40.4922 127.657 40.5362 127.455 40.6226C127.253 40.709 127.07 40.8358 126.918 40.9954C126.767 41.1549 126.65 41.3438 126.574 41.5503C126.498 41.7568 126.466 41.9767 126.478 42.1963V45.0491H125.631L125.583 39.7283V39.7427ZM132.957 37.5249V40.5942C133.156 40.2923 133.427 40.0457 133.747 39.8775C134.067 39.7092 134.425 39.6248 134.786 39.6321C136.273 39.6321 137 40.5942 137 42.0375V44.9241H136.153V42.0375C136.153 41.0176 135.595 40.4211 134.656 40.4211C134.435 40.4229 134.216 40.4686 134.013 40.5554C133.809 40.6422 133.625 40.7684 133.471 40.9267C133.316 41.085 133.195 41.2724 133.113 41.4779C133.032 41.6834 132.992 41.903 132.995 42.1241V44.9818H132.105V37.5249H132.957ZM143.306 44.1687C143.012 44.482 142.655 44.7297 142.258 44.8955C141.862 45.0613 141.435 45.1415 141.005 45.1309C140.633 45.1538 140.261 45.097 139.912 44.9642C139.564 44.8315 139.249 44.6258 138.986 44.3611C138.724 44.0964 138.522 43.7788 138.393 43.4295C138.263 43.0801 138.21 42.7073 138.237 42.3358C138.225 41.9747 138.287 41.6151 138.42 41.279C138.553 40.9429 138.753 40.6376 139.008 40.3819C139.263 40.1263 139.569 39.9257 139.905 39.7926C140.241 39.6594 140.6 39.5966 140.962 39.608C142.584 39.608 143.816 40.5702 143.604 42.7159H139.089C139.138 43.1792 139.367 43.6046 139.728 43.9C140.088 44.1954 140.551 44.3369 141.015 44.2938C141.323 44.2993 141.63 44.2415 141.916 44.124C142.201 44.0065 142.46 43.8318 142.675 43.6107L143.315 44.1639L143.306 44.1687ZM142.752 41.999C142.709 40.9791 141.982 40.4211 140.962 40.4211C140.508 40.4017 140.065 40.5532 139.718 40.8454C139.371 41.1376 139.147 41.5494 139.089 41.999H142.752ZM145.64 39.7427L145.722 40.551C145.883 40.2659 146.119 40.0312 146.406 39.8732C146.693 39.7151 147.017 39.64 147.344 39.6561C147.783 39.669 148.211 39.8003 148.581 40.0362L148.196 40.8059C147.928 40.5996 147.596 40.4941 147.258 40.5077C147.051 40.5006 146.845 40.5368 146.653 40.6139C146.461 40.6909 146.287 40.8072 146.142 40.9553C145.998 41.1034 145.886 41.2799 145.813 41.4738C145.741 41.6676 145.71 41.8743 145.722 42.0808V45.0299H144.832V39.7379L145.64 39.7427ZM150.454 38.1215C150.454 38.2733 150.393 38.4189 150.286 38.5263C150.179 38.6336 150.033 38.6939 149.881 38.6939C149.729 38.6939 149.583 38.6336 149.476 38.5263C149.368 38.4189 149.308 38.2733 149.308 38.1215C149.265 37.3565 150.454 37.3565 150.454 38.1215ZM149.395 45.0299H150.29V39.7042H149.395V45.0299ZM153.404 39.7379H155.022V40.5028H153.356V43.3124C153.356 43.9523 153.573 44.3371 154.208 44.3371C154.466 44.3326 154.717 44.2578 154.935 44.1206L155.19 44.8471C154.875 45.0119 154.525 45.0993 154.17 45.1021C153.019 45.1021 152.504 44.4622 152.504 43.2739V40.4692H151.44V39.7475H152.504V38.3043L153.404 38.2177V39.7379ZM160.514 45.0588V44.0966C160.307 44.4278 160.018 44.6998 159.674 44.8861C159.331 45.0724 158.945 45.1667 158.555 45.1598C158.189 45.1744 157.825 45.1126 157.485 44.9782C157.145 44.8437 156.837 44.6397 156.58 44.3793C156.323 44.1188 156.124 43.8076 155.995 43.4656C155.866 43.1236 155.81 42.7585 155.83 42.3935C155.811 42.0308 155.868 41.6681 155.998 41.3289C156.128 40.9898 156.328 40.6818 156.585 40.4249C156.842 40.1681 157.15 39.9682 157.49 39.8382C157.829 39.7083 158.192 39.6511 158.555 39.6706C158.946 39.6583 159.334 39.7503 159.678 39.9371C160.022 40.1239 160.311 40.3989 160.514 40.7338V39.7716H161.366V45.0636L160.514 45.0588ZM158.555 40.4595C158.299 40.4501 158.045 40.4934 157.807 40.5868C157.569 40.6802 157.353 40.8216 157.172 41.0022C156.992 41.1828 156.85 41.3987 156.757 41.6365C156.663 41.8742 156.62 42.1287 156.629 42.3839C156.62 42.6409 156.663 42.897 156.756 43.1368C156.849 43.3765 156.99 43.5949 157.17 43.7785C157.351 43.9621 157.566 44.1072 157.804 44.2049C158.042 44.3026 158.297 44.3508 158.555 44.3467C161.111 44.3467 161.111 40.4692 158.555 40.4692M162.988 39.7475H163.797L163.84 40.5991C164.041 40.2997 164.313 40.055 164.633 39.887C164.952 39.719 165.308 39.6331 165.669 39.6369C166.988 39.6369 168.013 40.5317 168.013 42.1097V45.0443H167.118V42.1578C167.14 41.938 167.114 41.716 167.041 41.5074C166.969 41.2988 166.851 41.1087 166.697 40.9504C166.543 40.7922 166.356 40.6696 166.149 40.5915C165.942 40.5133 165.721 40.4814 165.5 40.498C165.28 40.4971 165.062 40.5411 164.859 40.6274C164.657 40.7137 164.474 40.8405 164.322 40.9999C164.17 41.1594 164.052 41.3482 163.976 41.5547C163.9 41.7613 163.867 41.9812 163.878 42.2011V45.0539H163.026L162.988 39.7331V39.7475ZM173.89 44.3034C173.635 44.563 173.33 44.7684 172.993 44.9073C172.657 45.0462 172.295 45.1157 171.931 45.1117C171.481 45.1147 171.037 45.0063 170.638 44.796C170.24 44.5858 169.9 44.2803 169.648 43.9068C169.397 43.5333 169.242 43.1034 169.197 42.6554C169.152 42.2074 169.219 41.7553 169.392 41.3395C169.564 40.9236 169.837 40.5568 170.186 40.2719C170.534 39.987 170.948 39.7928 171.39 39.7066C171.833 39.6205 172.289 39.645 172.719 39.778C173.15 39.9111 173.54 40.1485 173.857 40.4692L173.313 41.0657C173.14 40.8906 172.933 40.7516 172.706 40.6566C172.479 40.5616 172.235 40.5127 171.989 40.5125C171.733 40.5001 171.477 40.5414 171.238 40.6337C170.999 40.7261 170.781 40.8674 170.6 41.0486C170.419 41.2298 170.277 41.4469 170.185 41.686C170.093 41.9251 170.051 42.1808 170.064 42.4368C170.046 42.69 170.082 42.9442 170.169 43.1825C170.256 43.4209 170.393 43.6381 170.57 43.8198C170.748 44.0016 170.961 44.1438 171.198 44.2371C171.434 44.3304 171.687 44.3727 171.941 44.3612C172.198 44.3658 172.452 44.3164 172.689 44.2161C172.925 44.1158 173.138 43.9669 173.313 43.7791L173.89 44.3034ZM179.642 44.1736C179.348 44.4868 178.991 44.7345 178.595 44.9003C178.198 45.0661 177.771 45.1463 177.341 45.1357C176.969 45.1586 176.596 45.1017 176.247 44.9687C175.898 44.8357 175.582 44.6297 175.32 44.3645C175.057 44.0994 174.854 43.7812 174.725 43.4313C174.595 43.0814 174.542 42.7079 174.569 42.3358C174.558 41.9745 174.62 41.6147 174.754 41.2786C174.887 40.9426 175.087 40.6373 175.343 40.3817C175.599 40.1261 175.904 39.9256 176.24 39.7925C176.577 39.6595 176.937 39.5967 177.298 39.608C178.915 39.608 180.153 40.5702 179.941 42.7159H175.426C175.474 43.1792 175.704 43.6046 176.064 43.9C176.425 44.1954 176.887 44.3369 177.351 44.2938C177.986 44.296 178.597 44.051 179.055 43.6107L179.652 44.1639L179.642 44.1736ZM179.127 42.0038C179.089 40.9839 178.362 40.4114 177.341 40.4114C176.888 40.392 176.443 40.5433 176.096 40.8354C175.748 41.1276 175.523 41.5393 175.464 41.9894L179.127 42.0038Z" fill="url(#paint1_linear_577_18105)"/>
</g>
<defs>
<linearGradient id="paint0_linear_577_18105" x1="0" y1="20.1721" x2="34.9551" y2="20.1721" gradientUnits="userSpaceOnUse">
<stop stop-color="#EE454D"/>
<stop offset="0.42" stop-color="#D73760"/>
<stop offset="1" stop-color="#AF237F"/>
</linearGradient>
<linearGradient id="paint1_linear_577_18105" x1="86.9888" y1="42.8987" x2="179.965" y2="42.8987" gradientUnits="userSpaceOnUse">
<stop stop-color="#EE454D"/>
<stop offset="0.42" stop-color="#D73760"/>
<stop offset="1" stop-color="#AF237F"/>
</linearGradient>
<clipPath id="clip0_577_18105">
<rect width="206" height="48.2629" fill="white"/>
</clipPath>
</defs>
</svg>
