<svg width="82" height="81" viewBox="0 0 82 81" fill="none" xmlns="http://www.w3.org/2000/svg">
<rect x="5.21729" y="5.06323" width="75.9418" height="75.9418" rx="37.9709" fill="url(#paint0_linear_577_18456)" fill-opacity="0.1"/>
<rect x="1.40532" y="0.526415" width="74.889" height="74.889" rx="37.4445" stroke="url(#paint1_linear_577_18456)" stroke-width="1.05283"/>
<path d="M32.9917 18.0815C33.1694 18.1538 33.347 18.2201 33.5217 18.2953C33.7914 18.3936 34.0377 18.5469 34.245 18.7454C34.4524 18.9439 34.6162 19.1834 34.7261 19.4486C34.8041 19.6573 34.9291 19.8452 35.0915 19.9977C35.2539 20.1502 35.4494 20.2632 35.6626 20.3278C36.6594 20.7621 37.443 21.5744 37.8411 22.5863C38.2392 23.5981 38.2191 24.7266 37.7854 25.7237C37.7252 25.8652 37.6559 26.0038 37.5776 26.1754L37.942 26.2928C38.4925 26.4687 38.9639 26.8321 39.274 27.3198C39.5841 27.8074 39.7134 28.3885 39.6392 28.9616C39.5651 29.5348 39.2922 30.0637 38.8682 30.4564C38.4442 30.8491 37.8958 31.0806 37.3187 31.1106C37.2142 31.0991 37.1093 31.1279 37.0254 31.1911C36.9414 31.2544 36.8848 31.3473 36.867 31.4508C36.5497 32.4001 35.9988 33.2543 35.2651 33.935C35.1367 34.0813 35.0522 34.2608 35.0212 34.4529C34.8074 35.4195 35.229 35.9585 36.0871 36.4493C37.2072 37.0816 38.4418 37.3195 39.586 37.8133C39.821 37.9218 40.0809 37.9651 40.3384 37.9386C40.5958 37.9121 40.8414 37.8168 41.0494 37.6627C42.7898 36.6179 44.5664 35.6333 46.3128 34.6005C46.6491 34.3796 47.0427 34.2619 47.445 34.2619C47.8473 34.2619 48.2409 34.3796 48.5772 34.6005C51.3474 36.2164 54.1236 37.8223 56.9059 39.4182C57.2586 39.5982 57.5516 39.8766 57.7494 40.2197C57.9471 40.5628 58.0411 40.9559 58.02 41.3513C58.0039 44.4989 58.0039 47.6445 58.02 50.7881C58.0401 51.1776 57.9474 51.5646 57.7529 51.9027C57.5585 52.2408 57.2707 52.5156 56.9239 52.6942C54.1136 54.3001 51.3143 55.916 48.526 57.542C48.2038 57.75 47.8285 57.8606 47.445 57.8606C47.0615 57.8606 46.6862 57.75 46.364 57.542C43.5697 55.916 40.7704 54.2991 37.966 52.6912C37.622 52.5202 37.336 52.2517 37.1437 51.9191C36.9515 51.5865 36.8615 51.2047 36.8851 50.8213C36.8851 50.7068 36.8851 50.5894 36.8851 50.4178H36.4183C30.6571 50.4178 24.8969 50.4178 19.1376 50.4178C18.9638 50.4356 18.7883 50.4062 18.6298 50.3325C18.4713 50.2588 18.3357 50.1437 18.2373 49.9992V42.7726C18.2614 42.6853 18.2945 42.601 18.3096 42.5136C18.4258 41.6954 18.7313 40.9155 19.2017 40.236C19.6722 39.5565 20.2946 38.996 21.0196 38.5992C21.7987 38.224 22.6038 37.905 23.4284 37.6447C24.4643 37.2532 25.5784 37.0726 26.5088 36.4101C26.843 36.1722 27.3429 36.0398 27.5145 35.7236C27.6861 35.4074 27.5898 34.8895 27.5627 34.465C27.5507 34.2699 27.472 34.085 27.3399 33.941C26.5863 33.2437 26.0226 32.366 25.7018 31.3906C25.6717 31.2973 25.6266 31.2099 25.5934 31.1317C24.115 31.0383 23.1273 30.1621 23.0039 28.8553C22.8804 27.5484 23.6754 26.5698 25.3134 26.1122C25.2893 26.0429 25.2682 25.9706 25.2411 25.9014C24.6692 24.5778 24.4066 23.1412 24.4733 21.7009C24.4705 21.1351 24.6062 20.5772 24.8686 20.0759C25.1311 19.5747 25.5122 19.1453 25.9788 18.8253C26.509 18.5292 27.0642 18.2803 27.638 18.0815H32.9917ZM38.1106 46.0246C38.1106 47.5903 38.1106 49.1561 38.1106 50.7219C38.0929 50.9072 38.1329 51.0934 38.225 51.2551C38.3172 51.4168 38.4571 51.546 38.6255 51.6252C41.4077 53.2191 44.185 54.825 46.9572 56.443C47.1004 56.541 47.2699 56.5934 47.4435 56.5934C47.617 56.5934 47.7866 56.541 47.9298 56.443C50.7161 54.825 53.5043 53.2191 56.2946 51.6252C56.4448 51.5514 56.5697 51.4348 56.6538 51.2901C56.7379 51.1455 56.7774 50.9792 56.7674 50.8122C56.7674 47.6546 56.7674 44.4969 56.7674 41.3393C56.7796 41.1719 56.7417 41.0046 56.6586 40.8588C56.5755 40.7129 56.4509 40.5951 56.3007 40.5203C53.5003 38.9144 50.702 37.2984 47.9057 35.6724C47.7671 35.5784 47.6034 35.5282 47.436 35.5282C47.2685 35.5282 47.1049 35.5784 46.9662 35.6724C44.182 37.2904 41.3937 38.8963 38.6014 40.4902C38.4457 40.5652 38.3159 40.6849 38.2285 40.8339C38.1411 40.983 38.1 41.1548 38.1106 41.3273C38.1347 42.893 38.1256 44.4588 38.1256 46.0246H38.1106ZM30.3419 49.1441C28.7762 45.4826 27.2285 41.8693 25.6717 38.2198C24.5937 38.5781 23.5639 38.9123 22.5372 39.2707C21.6249 39.5481 20.8302 40.1199 20.2773 40.8967C19.7243 41.6736 19.4443 42.6117 19.4809 43.5645C19.4809 45.2989 19.4809 47.0333 19.4809 48.7677V49.1441H30.3419ZM34.3618 24.706C33.4584 25.2028 32.6093 25.7328 31.706 26.1362C30.5185 26.6338 29.2336 26.8552 27.9481 26.7836C27.5145 26.7836 27.0809 26.7836 26.7015 26.7836C26.7015 28.0152 26.5931 29.1925 26.7226 30.3608C26.9695 32.5649 29.0411 34.2482 31.3175 34.2391C33.5939 34.2301 35.6053 32.5348 35.8613 30.3458C35.9878 29.2708 35.9275 28.1748 35.9456 27.0908C35.9387 27.0012 35.9063 26.9155 35.8523 26.8439C35.3434 26.1091 34.8315 25.3805 34.3618 24.706ZM30.3088 19.3251C29.5831 19.3251 28.8575 19.3251 28.1348 19.3251C27.5283 19.3345 26.9467 19.5679 26.502 19.9804C26.0573 20.3929 25.7809 20.9553 25.7259 21.5594C25.6301 22.8301 25.829 24.1058 26.3071 25.2871C26.3305 25.3721 26.3849 25.4452 26.4596 25.4921C26.5343 25.5389 26.6238 25.556 26.7105 25.54C27.3459 25.54 27.9812 25.54 28.6136 25.54C30.4422 25.5064 32.1988 24.8209 33.5668 23.6069C33.6961 23.4752 33.7722 23.3004 33.7806 23.1161C33.8017 22.3031 33.7806 21.4871 33.7806 20.6711C33.794 20.4925 33.7688 20.3131 33.7068 20.1451C33.6447 19.9771 33.5473 19.8243 33.4211 19.6973C33.2949 19.5702 33.1428 19.4717 32.9752 19.4086C32.8076 19.3454 32.6284 19.319 32.4497 19.3312L30.3088 19.3251ZM36.9061 38.2168C35.3434 41.8693 33.7987 45.4826 32.2389 49.135H36.882V48.6984C36.882 46.2534 36.882 43.8114 36.882 41.3664C36.8529 40.9574 36.948 40.5491 37.1549 40.195C37.3617 39.8409 37.6707 39.5576 38.0413 39.3821C38.3093 39.2436 38.5653 39.081 38.8995 38.8822L36.9061 38.2168ZM31.2874 48.1926C31.5464 47.5903 31.7331 47.0815 31.98 46.6057C32.3932 45.8851 32.5099 45.032 32.3052 44.2269C32.1456 43.6247 32.0944 42.9683 32.0041 42.348H30.5828C30.4594 43.1279 30.3359 43.8927 30.2215 44.6575C30.138 44.9241 30.1144 45.2058 30.1522 45.4826C30.4774 46.3859 30.8839 47.223 31.2874 48.1926ZM33.7264 34.9648C32.9608 35.3124 32.1297 35.4923 31.2889 35.4923C30.4481 35.4923 29.617 35.3124 28.8514 34.9648C28.6738 35.567 28.8816 35.9434 29.3573 36.2716C29.9595 36.6811 30.4985 37.1749 31.0556 37.6236C31.0838 37.6577 31.1192 37.6851 31.1593 37.704C31.1994 37.7228 31.2431 37.7326 31.2874 37.7326C31.3317 37.7326 31.3754 37.7228 31.4155 37.704C31.4556 37.6851 31.491 37.6577 31.5193 37.6236C32.0763 37.1599 32.6244 36.6811 33.2175 36.2716C33.6963 35.9404 33.895 35.564 33.7264 34.9588V34.9648ZM36.4515 25.531C37.4843 24.0074 36.5087 21.8545 35.0182 21.451C35.0182 22.0984 35.0182 22.7397 35.0182 23.3811C35.0249 23.4566 35.0508 23.5291 35.0935 23.5919C35.5451 24.2332 36.0028 24.8746 36.4515 25.525V25.531ZM32.6635 38.2891C33.5217 38.5058 34.2895 38.7046 35.0724 38.8913C35.1236 38.8914 35.1739 38.8784 35.2187 38.8537C35.2635 38.8289 35.3012 38.7931 35.3283 38.7498C35.4909 38.4155 35.6294 38.0662 35.783 37.6989L34.4521 36.8708L32.6635 38.2891ZM26.8069 37.6868C26.9635 38.0572 27.108 38.4065 27.2616 38.7407C27.2897 38.7834 27.3282 38.8183 27.3735 38.842C27.4188 38.8657 27.4694 38.8775 27.5205 38.8762C28.2914 38.6955 29.0622 38.4968 29.9294 38.274L28.1529 36.8467L26.8069 37.6868ZM30.357 39.4935L30.5828 41.0593H31.986L32.2058 39.5055C31.9202 39.3577 31.6034 39.2803 31.2818 39.2798C30.9602 39.2793 30.6431 39.3556 30.357 39.5025V39.4935ZM29.1526 43.152C29.5651 41.9867 29.3483 40.8906 29.1315 39.7645L27.8457 40.0957L29.1526 43.152ZM33.4524 43.152C33.898 42.1132 34.3226 41.1135 34.7622 40.0837L33.4976 39.7826C33.1525 40.8815 33.1316 42.0566 33.4373 43.167L33.4524 43.152ZM25.3616 29.8821V27.416C25.0467 27.4187 24.7449 27.5419 24.518 27.7604C24.2912 27.9788 24.1567 28.2758 24.1421 28.5903C24.124 29.2738 24.5907 29.7887 25.3616 29.8821ZM37.2313 27.416V29.8851C37.9962 29.7797 38.4629 29.2648 38.4358 28.5903C38.4279 28.2761 38.2976 27.9774 38.0725 27.758C37.8475 27.5386 37.5456 27.4159 37.2313 27.416Z" fill="url(#paint2_linear_577_18456)"/>
<path d="M40.923 46.0667V49.2735C40.923 49.7403 40.923 50.207 40.923 50.6737C40.9289 50.7586 40.9173 50.8438 40.8889 50.924C40.8605 51.0042 40.8158 51.0777 40.7578 51.14C40.6998 51.2022 40.6295 51.2518 40.5515 51.2857C40.4735 51.3197 40.3893 51.3372 40.3042 51.3372C40.2191 51.3372 40.1349 51.3197 40.0569 51.2857C39.9788 51.2518 39.9086 51.2022 39.8506 51.14C39.7925 51.0777 39.7479 51.0042 39.7195 50.924C39.6911 50.8438 39.6795 50.7586 39.6854 50.6737C39.6854 48.0059 39.6854 45.339 39.6854 42.6732C39.6737 42.5223 39.7192 42.3725 39.813 42.2536C39.9067 42.1348 40.0418 42.0556 40.1913 42.0318C40.5707 41.9596 40.7935 42.1764 40.926 42.5136C41.6727 44.3865 42.4215 46.2584 43.1723 48.1293C43.2235 48.2767 43.3045 48.412 43.4101 48.5268V48.1444C43.4101 45.7897 43.4101 43.434 43.4101 41.0773C43.3981 40.9481 43.3981 40.8181 43.4101 40.6889C43.4101 40.5268 43.4745 40.3713 43.5892 40.2567C43.7038 40.142 43.8593 40.0776 44.0214 40.0776C44.1835 40.0776 44.339 40.142 44.4536 40.2567C44.5682 40.3713 44.6326 40.5268 44.6326 40.6889C44.6411 40.7891 44.6411 40.8898 44.6326 40.99V51.7095C44.6326 51.8149 44.6688 51.9474 44.6326 52.0106C44.4881 52.2064 44.3315 52.4804 44.1358 52.5195C43.9401 52.5587 43.6902 52.3629 43.4944 52.2184C43.4041 52.1582 43.38 51.9926 43.3318 51.8721L41.0043 46.0637L40.923 46.0667Z" fill="url(#paint3_linear_577_18456)"/>
<path d="M47.4646 39.009V45.7388H49.4519C49.9487 45.7388 50.2318 45.9616 50.2408 46.341C50.2499 46.7204 49.9397 46.9733 49.4399 46.9763H47.4435V53.2304C47.4541 53.3456 47.4541 53.4615 47.4435 53.5767C47.4278 53.7252 47.3575 53.8626 47.2462 53.9622C47.135 54.0618 46.9906 54.1165 46.8413 54.1157C46.6908 54.1208 46.5441 54.0676 46.4319 53.9671C46.3197 53.8667 46.2506 53.7268 46.2391 53.5767C46.227 53.4485 46.227 53.3195 46.2391 53.1913V38.9427C46.2307 38.728 46.2808 38.515 46.3841 38.3265C46.4874 38.138 46.64 37.9811 46.8255 37.8726C47.011 37.764 47.2225 37.7079 47.4374 37.7103C47.6524 37.7126 47.8626 37.7733 48.0457 37.8858C48.7443 38.2833 49.4369 38.6838 50.1324 39.0903C50.5811 39.3522 50.7136 39.6925 50.4998 40.0418C50.286 40.3911 49.9427 40.4182 49.5121 40.1713L47.4646 39.009Z" fill="url(#paint4_linear_577_18456)"/>
<path d="M53.6624 42.5951V50.7251C53.6729 50.8543 53.6729 50.9842 53.6624 51.1135C53.6624 51.2756 53.598 51.4311 53.4833 51.5457C53.3687 51.6604 53.2132 51.7248 53.0511 51.7248C52.889 51.7248 52.7335 51.6604 52.6189 51.5457C52.5042 51.4311 52.4398 51.2756 52.4398 51.1135C52.4278 50.9843 52.4278 50.8543 52.4398 50.7251C52.4398 47.9067 52.4398 45.0883 52.4398 42.2669C52.4611 42.1482 52.4402 42.0257 52.3809 41.9207C52.3215 41.8157 52.2273 41.7348 52.1146 41.6918C51.9042 41.594 51.7027 41.4782 51.5124 41.3455C51.4403 41.3077 51.3766 41.2557 51.3251 41.1927C51.2736 41.1296 51.2355 41.0567 51.2129 40.9785C51.1904 40.9002 51.184 40.8182 51.1941 40.7374C51.2041 40.6566 51.2305 40.5787 51.2715 40.5084C51.3093 40.4367 51.3612 40.3733 51.424 40.3221C51.4869 40.2709 51.5594 40.2329 51.6373 40.2104C51.7152 40.1879 51.7968 40.1814 51.8773 40.1912C51.9578 40.201 52.0354 40.227 52.1056 40.2675C53.1535 40.8577 54.1943 41.4599 55.2281 42.0742C55.2989 42.1137 55.361 42.1672 55.4106 42.2313C55.4602 42.2955 55.4964 42.369 55.5169 42.4474C55.5374 42.5259 55.5419 42.6077 55.5301 42.6879C55.5182 42.7681 55.4903 42.8451 55.4479 42.9143C55.4081 42.9856 55.3542 43.0482 55.2895 43.098C55.2248 43.1479 55.1506 43.1841 55.0714 43.2044C54.9923 43.2246 54.9098 43.2286 54.8291 43.216C54.7484 43.2034 54.671 43.1745 54.6018 43.1311C54.2917 42.9624 54.0086 42.7908 53.6624 42.5951Z" fill="url(#paint5_linear_577_18456)"/>
<defs>
<linearGradient id="paint0_linear_577_18456" x1="59.176" y1="28.4845" x2="-23.0021" y2="53.1415" gradientUnits="userSpaceOnUse">
<stop stop-color="#ED434F"/>
<stop offset="1" stop-color="#B4247D"/>
</linearGradient>
<linearGradient id="paint1_linear_577_18456" x1="54.8376" y1="23.4213" x2="-27.3405" y2="48.0783" gradientUnits="userSpaceOnUse">
<stop stop-color="#ED434F"/>
<stop offset="1" stop-color="#B4247D"/>
</linearGradient>
<linearGradient id="paint2_linear_577_18456" x1="46.506" y1="30.3499" x2="3.45447" y2="43.2693" gradientUnits="userSpaceOnUse">
<stop stop-color="#ED434F"/>
<stop offset="1" stop-color="#B4247D"/>
</linearGradient>
<linearGradient id="paint3_linear_577_18456" x1="43.2114" y1="43.9164" x2="37.4376" y2="44.6075" gradientUnits="userSpaceOnUse">
<stop stop-color="#ED434F"/>
<stop offset="1" stop-color="#B4247D"/>
</linearGradient>
<linearGradient id="paint4_linear_577_18456" x1="49.3348" y1="42.7699" x2="44.2133" y2="43.1792" gradientUnits="userSpaceOnUse">
<stop stop-color="#ED434F"/>
<stop offset="1" stop-color="#B4247D"/>
</linearGradient>
<linearGradient id="paint5_linear_577_18456" x1="54.2782" y1="43.7452" x2="49.2153" y2="44.3175" gradientUnits="userSpaceOnUse">
<stop stop-color="#ED434F"/>
<stop offset="1" stop-color="#B4247D"/>
</linearGradient>
</defs>
</svg>
