<svg width="76" height="76" viewBox="0 0 76 76" fill="none" xmlns="http://www.w3.org/2000/svg">
<rect x="0.310811" y="0.309834" width="75.3159" height="75.3159" rx="37.6579" stroke="url(#paint0_linear_2607_1536)" stroke-width="0.621622"/>
<g clip-path="url(#clip0_2607_1536)">
<path d="M37.8696 49.4223L34.7326 48.8348V49.2114C34.7326 50.3035 34.7326 51.3918 34.7326 52.4802C34.7326 52.9321 34.6121 53.0488 34.1602 53.0526C33.2375 53.0526 32.3149 53.0526 31.3922 53.0526C31.2954 53.03 31.1935 53.0466 31.1088 53.0988C31.0241 53.151 30.9636 53.2346 30.9403 53.3313C30.7787 53.7404 30.4789 54.0801 30.093 54.2913C29.707 54.5025 29.2594 54.5719 28.8276 54.4874C28.3871 54.4113 27.9881 54.1808 27.7019 53.8374C27.4157 53.494 27.2611 53.0599 27.2656 52.6129C27.2701 52.1659 27.4336 51.7351 27.7266 51.3975C28.0197 51.06 28.4233 50.8377 28.8653 50.7705C29.2884 50.7001 29.7229 50.7764 30.0969 50.9866C30.4708 51.1969 30.7617 51.5285 30.9215 51.9266C30.9437 52.0149 30.9971 52.0921 31.0719 52.1441C31.1467 52.196 31.2377 52.2191 31.3282 52.209C32.1605 52.209 32.989 52.209 33.8589 52.209C33.8589 51.2902 33.8024 50.4052 33.8589 49.5315C33.9267 48.7331 33.6819 48.3151 32.9362 47.9309C30.9352 46.8627 29.3407 45.1663 28.3983 43.103C28.3669 43.0081 28.3036 42.927 28.2191 42.8735C28.1347 42.8199 28.0343 42.7973 27.9351 42.8093C26.8053 42.8093 25.6755 42.8093 24.5043 42.8093V45.6337C24.5872 45.6676 24.6926 45.7015 24.7943 45.7467C25.0888 45.877 25.345 46.0807 25.5383 46.3383C25.7317 46.5959 25.8557 46.8987 25.8986 47.2179C25.9415 47.5371 25.9018 47.862 25.7833 48.1614C25.6648 48.4609 25.4715 48.725 25.2218 48.9284C24.9721 49.1319 24.6744 49.2678 24.3572 49.3234C24.0399 49.3789 23.7138 49.3522 23.4098 49.2457C23.1059 49.1392 22.8343 48.9565 22.6211 48.7151C22.4079 48.4737 22.2602 48.1817 22.1921 47.8669C22.1052 47.4403 22.1707 46.9968 22.3771 46.6135C22.5835 46.2303 22.9178 45.9315 23.3218 45.7693C23.4283 45.7409 23.5204 45.6738 23.5803 45.5813C23.6401 45.4887 23.6634 45.3772 23.6457 45.2684C23.6457 44.3684 23.6457 43.4721 23.6457 42.5758C23.6457 42.0712 23.7511 41.962 24.252 41.962H27.8485L27.2309 38.7948H25.9881C25.3479 38.7948 24.7077 38.7948 24.0675 38.7948C23.9691 38.7796 23.8687 38.8017 23.7858 38.8567C23.7029 38.9118 23.6435 38.9958 23.6193 39.0923C23.4767 39.4454 23.2289 39.746 22.9096 39.9535C22.5903 40.161 22.2149 40.2653 21.8343 40.2522C21.3936 40.2513 20.9673 40.0959 20.6294 39.8131C20.2915 39.5303 20.0635 39.1379 19.9851 38.7042C19.9067 38.2706 19.9829 37.8232 20.2004 37.44C20.4178 37.0568 20.7628 36.7619 21.1753 36.6068C21.6253 36.4256 22.128 36.425 22.5784 36.6054C23.0288 36.7857 23.3923 37.1329 23.593 37.5746C23.6258 37.6936 23.702 37.796 23.8066 37.8615C23.9112 37.927 24.0365 37.951 24.1579 37.9286C25.1596 37.9286 26.1576 37.9286 27.1706 37.9286C27.1956 37.9318 27.2209 37.9318 27.2459 37.9286L27.8183 34.7916H24.2445C23.7398 34.7916 23.6306 34.6824 23.6306 34.1853C23.6306 33.1723 23.6306 32.1592 23.6306 31.1236C23.3372 31.0572 23.0647 30.9193 22.8374 30.7222C22.6101 30.5251 22.435 30.2749 22.3276 29.9938C22.1974 29.5834 22.1741 29.1466 22.2598 28.7247C22.3604 28.2951 22.6157 27.9175 22.9768 27.664C23.338 27.4105 23.7799 27.2988 24.2181 27.3502C24.6437 27.3842 25.0451 27.5619 25.3565 27.8541C25.6678 28.1463 25.8706 28.5356 25.9316 28.9582C26.0785 29.8658 25.555 30.6453 24.5081 31.0822V33.9104H26.4664C26.9672 33.9104 27.4681 33.9104 27.9727 33.9104C28.0488 33.9031 28.1222 33.8787 28.1875 33.8389C28.2527 33.7991 28.3081 33.745 28.3493 33.6807C29.446 31.3406 31.3217 29.4543 33.6555 28.3444C33.7422 28.2992 33.8627 28.1937 33.8627 28.1146C33.8627 26.9284 33.8627 25.7383 33.8627 24.5332H31.0382C30.9508 24.8588 30.7802 25.156 30.5431 25.3957C30.3061 25.6354 30.0108 25.8092 29.6862 25.9003C29.4518 25.9792 29.2042 26.0111 28.9574 25.9943C28.7107 25.9774 28.4696 25.9122 28.2481 25.8022C27.8007 25.5801 27.4598 25.1893 27.3005 24.7159C27.1412 24.2425 27.1765 23.7251 27.3986 23.2777C27.6207 22.8303 28.0115 22.4895 28.4849 22.3302C28.9296 22.1432 29.4297 22.1374 29.8785 22.314C30.3274 22.4906 30.6895 22.8356 30.8876 23.2754C30.923 23.4055 31.0054 23.5178 31.1187 23.5908C31.232 23.6638 31.3683 23.6923 31.5014 23.6708C32.3714 23.6445 33.245 23.6708 34.115 23.6708C34.6234 23.6708 34.7288 23.7763 34.7326 24.2772V27.836L37.8922 27.2447V26.6911C37.8922 25.8061 37.8922 24.9211 37.8922 24.055C37.9011 23.971 37.8793 23.8866 37.8308 23.8174C37.7824 23.7482 37.7106 23.6988 37.6286 23.6784C37.2097 23.5101 36.8653 23.1971 36.6579 22.7962C36.4505 22.3952 36.3941 21.9332 36.4988 21.4941C36.5904 21.0744 36.8228 20.6986 37.1575 20.4291C37.4921 20.1596 37.9088 20.0127 38.3385 20.0127C38.7681 20.0127 39.1848 20.1596 39.5195 20.4291C39.8541 20.6986 40.0865 21.0744 40.1781 21.4941C40.2778 21.9368 40.2166 22.4005 40.0054 22.8022C39.7943 23.2038 39.4469 23.5171 39.0257 23.6859C38.9278 23.7311 38.7847 23.8403 38.7847 23.9194C38.7847 25.0492 38.7847 26.179 38.7847 27.2635L41.9443 27.8473V25.9266C41.9443 25.3655 41.9443 24.7969 41.9443 24.2357C41.9443 23.8064 42.0686 23.6897 42.4979 23.6897H45.6011C46.1358 22.4846 46.9191 22.0101 47.8681 22.2586C48.2946 22.3507 48.6758 22.5881 48.9467 22.9301C49.2175 23.272 49.3612 23.6975 49.3532 24.1337C49.3452 24.5699 49.186 24.9897 48.9028 25.3216C48.6195 25.6534 48.2299 25.8766 47.8004 25.953C46.8815 26.1375 46.0906 25.648 45.6086 24.5182H42.7804V25.3166C42.7804 26.2015 42.7804 27.0865 42.7804 27.9527C42.7854 28.0285 42.8081 28.102 42.8467 28.1674C42.8853 28.2328 42.9387 28.2883 43.0026 28.3293C45.3409 29.4423 47.2203 31.3324 48.3201 33.6769C48.3442 33.7297 48.3802 33.7762 48.4253 33.8128C48.4703 33.8494 48.5233 33.8751 48.5799 33.8878C49.7586 33.8878 50.9336 33.8878 52.1349 33.8878V31.0897C51.0353 30.6001 50.5382 29.8131 50.734 28.8716C50.8085 28.44 51.031 28.0479 51.3634 27.7627C51.6958 27.4775 52.1172 27.3171 52.5551 27.309C52.993 27.301 53.4199 27.4459 53.7625 27.7187C54.1051 27.9915 54.3419 28.3752 54.4322 28.8038C54.6656 29.7679 54.1911 30.5474 53.0162 31.1085V34.1213C53.0162 34.6485 52.9107 34.7502 52.3835 34.754H48.8435L49.4272 37.9136H50.5834C51.2499 37.9136 51.9165 37.9136 52.5831 37.9136C52.6321 37.924 52.6827 37.9245 52.7319 37.9151C52.7811 37.9058 52.8279 37.8867 52.8696 37.859C52.9114 37.8313 52.9472 37.7955 52.9749 37.7538C53.0027 37.7121 53.0218 37.6653 53.0312 37.6161C53.1728 37.263 53.4198 36.9621 53.7385 36.7546C54.0573 36.547 54.4324 36.4428 54.8125 36.4562C55.2503 36.4598 55.6732 36.6159 56.0083 36.8976C56.3435 37.1794 56.57 37.569 56.6489 37.9997C56.7278 38.4303 56.6542 38.875 56.4407 39.2573C56.2272 39.6395 55.8871 39.9354 55.4791 40.094C55.0306 40.2827 54.5261 40.2877 54.0739 40.1081C53.6218 39.9286 53.2582 39.5787 53.0614 39.1337C53.0325 39.011 52.9581 38.9039 52.8532 38.834C52.7483 38.7641 52.6208 38.7366 52.4965 38.7571C51.4608 38.7571 50.4252 38.7571 49.4197 38.7571L48.8285 41.9017C48.9339 41.9017 49.0657 41.9017 49.205 41.9017H52.4362C52.9145 41.9017 53.0275 42.0147 53.0275 42.4892C53.0275 43.5135 53.0275 44.5378 53.0275 45.5509C54.2024 46.1195 54.6769 46.8953 54.4435 47.8556C54.3537 48.2883 54.1147 48.6756 53.7682 48.9499C53.4217 49.2241 52.9898 49.3677 52.5481 49.3556C52.1063 49.3434 51.683 49.1764 51.352 48.8836C51.0211 48.5908 50.8036 48.1909 50.7378 47.7539C50.5608 46.8275 51.0654 46.0517 52.1726 45.5622V42.8168H51.1671C50.3461 42.8168 49.5252 42.8168 48.7042 42.8168C48.6119 42.806 48.5187 42.8264 48.4395 42.8749C48.3603 42.9234 48.2996 42.9971 48.2673 43.0842C47.1761 45.3705 45.3319 47.2121 43.044 48.3C42.9815 48.3313 42.9266 48.3758 42.883 48.4304C42.8395 48.485 42.8083 48.5485 42.7917 48.6163C42.7728 49.7913 42.7917 50.97 42.7917 52.1751H45.6086C46.1584 51.0454 46.9229 50.5633 47.8983 50.7968C48.3216 50.894 48.6984 51.1345 48.9647 51.4777C49.231 51.8209 49.3705 52.2455 49.3594 52.6798C49.3552 53.1106 49.2034 53.527 48.9292 53.8594C48.6551 54.1918 48.2752 54.4201 47.8531 54.5063C46.8965 54.6908 46.1245 54.205 45.6199 53.0714H42.7164C41.9632 53.0714 41.9217 53.0338 41.9217 52.258V48.8687L38.7621 49.4561V49.8327C38.7621 50.7554 38.7621 51.678 38.7621 52.6007C38.7479 52.7168 38.7748 52.8342 38.8381 52.9326C38.9013 53.0309 38.9971 53.104 39.1086 53.1392C39.5009 53.308 39.8221 53.6083 40.0166 53.9885C40.2112 54.3687 40.267 54.8049 40.1744 55.2218C40.0896 55.6304 39.8715 55.9993 39.5543 56.2705C39.2371 56.5417 38.8389 56.6998 38.422 56.7201C38.0052 56.7403 37.5935 56.6216 37.2515 56.3824C36.9095 56.1432 36.6567 55.7972 36.5327 55.3988C36.3813 54.9573 36.4028 54.4749 36.5928 54.0486C36.7829 53.6224 37.1274 53.284 37.557 53.1016C37.6707 53.069 37.7685 52.9957 37.8317 52.8957C37.8949 52.7957 37.9191 52.676 37.8997 52.5593C37.8809 51.5236 37.8997 50.4842 37.8809 49.4448C37.8785 49.4367 37.8747 49.4291 37.8696 49.4223ZM38.3441 28.1862C32.8873 28.0845 28.0631 32.7053 28.1761 38.5538C28.233 41.2505 29.3589 43.8142 31.306 45.6808C33.2532 47.5474 35.862 48.5641 38.5588 48.5071C41.2555 48.4502 43.8191 47.3243 45.6858 45.3772C47.5524 43.4301 48.569 40.8212 48.5121 38.1245C48.4617 35.4646 47.367 32.9314 45.4645 31.0719C43.562 29.2123 41.0044 28.1758 38.3441 28.1862ZM46.4484 24.07C46.4444 24.2048 46.4672 24.339 46.5156 24.4649C46.5639 24.5908 46.6368 24.7058 46.7301 24.8032C46.8233 24.9006 46.935 24.9786 47.0586 25.0324C47.1822 25.0863 47.3153 25.115 47.4501 25.117C47.7134 25.1072 47.9631 24.9972 48.1478 24.8093C48.3326 24.6214 48.4384 24.37 48.4437 24.1065C48.449 23.8431 48.3534 23.5876 48.1763 23.3925C47.9993 23.1973 47.7543 23.0773 47.4915 23.057C47.3559 23.0524 47.2207 23.0753 47.094 23.1242C46.9674 23.1731 46.8519 23.2471 46.7545 23.3417C46.6571 23.4362 46.5798 23.5495 46.5272 23.6746C46.4746 23.7998 46.4478 23.9343 46.4484 24.07ZM46.4484 52.6195C46.4439 52.7539 46.4662 52.8879 46.5142 53.0136C46.5622 53.1392 46.6348 53.254 46.7278 53.3512C46.8208 53.4483 46.9322 53.526 47.0556 53.5795C47.179 53.633 47.3119 53.6613 47.4464 53.6627C47.5809 53.6647 47.7145 53.6402 47.8395 53.5905C47.9646 53.5409 48.0786 53.4671 48.1751 53.3734C48.2716 53.2796 48.3487 53.1678 48.402 53.0443C48.4553 52.9208 48.4838 52.7879 48.4858 52.6534C48.4899 52.3832 48.3882 52.122 48.2025 51.9257C48.0167 51.7294 47.7616 51.6135 47.4915 51.6027C47.3558 51.5992 47.2208 51.6229 47.0943 51.6724C46.9679 51.7219 46.8527 51.7963 46.7555 51.8911C46.6582 51.9858 46.581 52.0991 46.5282 52.2242C46.4755 52.3493 46.4483 52.4837 46.4484 52.6195ZM30.2059 24.1002C30.2105 23.9657 30.1881 23.8318 30.1401 23.7061C30.0921 23.5805 30.0195 23.4657 29.9265 23.3685C29.8336 23.2713 29.7221 23.1937 29.5987 23.1402C29.4753 23.0867 29.3425 23.0584 29.208 23.057C29.0732 23.0545 28.9392 23.0788 28.8139 23.1286C28.6887 23.1783 28.5745 23.2525 28.4781 23.3468C28.3818 23.441 28.3051 23.5535 28.2526 23.6777C28.2001 23.8019 28.1728 23.9352 28.1723 24.07C28.1693 24.3415 28.2729 24.6033 28.461 24.7991C28.649 24.9949 28.9065 25.1091 29.1778 25.117C29.3126 25.1195 29.4465 25.095 29.5716 25.0449C29.6968 24.9949 29.8106 24.9202 29.9064 24.8255C30.0022 24.7307 30.0781 24.6177 30.1296 24.4931C30.181 24.3685 30.207 24.2349 30.2059 24.1002ZM52.5756 30.2424C52.7101 30.2479 52.8445 30.2266 52.9707 30.1796C53.097 30.1325 53.2126 30.0608 53.3108 29.9686C53.409 29.8764 53.4878 29.7655 53.5426 29.6424C53.5974 29.5194 53.6271 29.3866 53.63 29.2519C53.633 29.1174 53.6095 28.9836 53.5607 28.8582C53.512 28.7328 53.4391 28.6182 53.346 28.5209C53.253 28.4237 53.1417 28.3458 53.0186 28.2916C52.8954 28.2374 52.7628 28.208 52.6283 28.205C52.3561 28.1989 52.0925 28.3002 51.8945 28.4869C51.6964 28.6737 51.5799 28.9309 51.57 29.203C51.5671 29.3375 51.5908 29.4712 51.6398 29.5964C51.6889 29.7217 51.7623 29.8359 51.8558 29.9326C51.9493 30.0293 52.0611 30.1064 52.1846 30.1596C52.3082 30.2128 52.4411 30.2409 52.5756 30.2424ZM30.2059 52.6459C30.21 52.5113 30.1871 52.3772 30.1387 52.2516C30.0903 52.1259 30.0173 52.0112 29.924 51.914C29.8308 51.8169 29.7191 51.7393 29.5955 51.6859C29.4719 51.6324 29.3389 51.6042 29.2042 51.6027C28.9321 51.6037 28.6714 51.7117 28.4783 51.9034C28.2852 52.095 28.1753 52.355 28.1723 52.6271C28.1699 52.7615 28.1941 52.8952 28.2436 53.0202C28.2931 53.1453 28.3669 53.2593 28.4608 53.3556C28.5546 53.4519 28.6667 53.5286 28.7904 53.5813C28.9142 53.6341 29.0471 53.6617 29.1816 53.6627C29.3162 53.6652 29.4499 53.6407 29.5748 53.5906C29.6998 53.5405 29.8133 53.4658 29.9089 53.371C30.0044 53.2762 30.0799 53.1631 30.1309 53.0386C30.182 52.914 30.2075 52.7805 30.2059 52.6459ZM24.0298 30.2424C24.1645 30.2469 24.2987 30.2247 24.4247 30.1771C24.5508 30.1295 24.6661 30.0574 24.7642 29.9649C24.8622 29.8725 24.941 29.7616 24.9959 29.6386C25.0508 29.5156 25.0809 29.3829 25.0843 29.2482C25.0853 28.9757 24.9794 28.7138 24.7892 28.5187C24.599 28.3236 24.3399 28.2109 24.0675 28.205C23.9321 28.2 23.797 28.2221 23.6703 28.27C23.5435 28.3179 23.4276 28.3906 23.3294 28.4839C23.2312 28.5773 23.1526 28.6893 23.0982 28.8134C23.0439 28.9375 23.0149 29.0713 23.013 29.2068C23.009 29.3423 23.0323 29.4772 23.0817 29.6035C23.1312 29.7297 23.2056 29.8447 23.3006 29.9414C23.3956 30.0381 23.5091 30.1147 23.6345 30.1664C23.7598 30.2181 23.8943 30.244 24.0298 30.2424ZM24.06 48.5147C24.3304 48.5108 24.5887 48.4016 24.78 48.2103C24.9712 48.0191 25.0804 47.7608 25.0843 47.4903C25.0819 47.3558 25.0528 47.2231 24.9987 47.1C24.9446 46.9768 24.8666 46.8655 24.7692 46.7727C24.6718 46.6799 24.557 46.6073 24.4314 46.5592C24.3058 46.5111 24.1718 46.4884 24.0374 46.4924C23.9042 46.4894 23.7718 46.5129 23.6479 46.5617C23.524 46.6104 23.4111 46.6834 23.3157 46.7763C23.2203 46.8693 23.1444 46.9803 23.0925 47.1029C23.0405 47.2255 23.0135 47.3572 23.013 47.4903C23.012 47.6271 23.0385 47.7626 23.091 47.8889C23.1435 48.0151 23.221 48.1295 23.3187 48.2251C23.4164 48.3207 23.5325 48.3957 23.6598 48.4454C23.7872 48.4952 23.9233 48.5187 24.06 48.5147ZM52.6019 46.4811C52.4676 46.4786 52.3342 46.5028 52.2093 46.5524C52.0845 46.6019 51.9707 46.6758 51.8747 46.7697C51.7787 46.8636 51.7023 46.9757 51.65 47.0994C51.5977 47.2231 51.5705 47.356 51.57 47.4903C51.573 47.7624 51.6829 48.0223 51.876 48.214C52.0691 48.4057 52.3298 48.5137 52.6019 48.5147C52.7367 48.5152 52.8703 48.489 52.9951 48.4378C53.1198 48.3865 53.2331 48.3111 53.3287 48.216C53.4242 48.1208 53.5 48.0077 53.5517 47.8832C53.6034 47.7587 53.63 47.6252 53.63 47.4903C53.6305 47.356 53.6042 47.223 53.5525 47.0991C53.5008 46.9752 53.4247 46.8628 53.3289 46.7688C53.2331 46.6747 53.1194 46.6008 52.9945 46.5514C52.8697 46.5019 52.7362 46.478 52.6019 46.4811ZM38.3253 22.9064C38.4608 22.9106 38.5957 22.8869 38.7216 22.8369C38.8476 22.7868 38.962 22.7115 39.0576 22.6155C39.1533 22.5194 39.2283 22.4048 39.2778 22.2786C39.3274 22.1525 39.3506 22.0175 39.3458 21.882C39.3656 21.7377 39.3542 21.5907 39.3124 21.4512C39.2707 21.3116 39.1995 21.1825 39.1037 21.0728C39.0079 20.963 38.8897 20.875 38.7571 20.8147C38.6244 20.7544 38.4804 20.7232 38.3347 20.7232C38.189 20.7232 38.045 20.7544 37.9123 20.8147C37.7797 20.875 37.6615 20.963 37.5657 21.0728C37.4699 21.1825 37.3987 21.3116 37.357 21.4512C37.3152 21.5907 37.3038 21.7377 37.3235 21.882C37.319 22.0159 37.3416 22.1493 37.39 22.2741C37.4384 22.399 37.5117 22.5127 37.6053 22.6085C37.6989 22.7042 37.811 22.78 37.9348 22.8312C38.0585 22.8824 38.1914 22.908 38.3253 22.9064ZM22.9 38.3655C22.9053 38.2302 22.8826 38.0953 22.8335 37.9692C22.7843 37.843 22.7097 37.7283 22.6144 37.6322C22.519 37.5362 22.4049 37.4607 22.2791 37.4107C22.1533 37.3606 22.0186 37.3369 21.8832 37.3412C21.7443 37.3327 21.605 37.3528 21.4741 37.4001C21.3431 37.4475 21.2233 37.5212 21.1219 37.6166C21.0205 37.712 20.9397 37.8272 20.8844 37.955C20.8292 38.0828 20.8007 38.2206 20.8007 38.3598C20.8007 38.4991 20.8292 38.6369 20.8844 38.7647C20.9397 38.8925 21.0205 39.0077 21.1219 39.1031C21.2233 39.1985 21.3431 39.2722 21.4741 39.3195C21.605 39.3669 21.7443 39.387 21.8832 39.3785C22.0174 39.3821 22.151 39.3584 22.2757 39.3088C22.4005 39.2593 22.5138 39.1848 22.6089 39.0901C22.704 38.9953 22.7789 38.8823 22.8289 38.7577C22.879 38.6331 22.9032 38.4997 22.9 38.3655ZM39.3458 54.8188C39.3301 54.5594 39.2159 54.3157 39.0266 54.1376C38.8373 53.9594 38.5871 53.8602 38.3272 53.8602C38.0672 53.8602 37.8171 53.9594 37.6278 54.1376C37.4385 54.3157 37.3243 54.5594 37.3085 54.8188C37.3 54.9578 37.3201 55.0971 37.3675 55.228C37.4148 55.3589 37.4885 55.4788 37.5839 55.5802C37.6794 55.6816 37.7945 55.7624 37.9223 55.8176C38.0502 55.8729 38.1879 55.9014 38.3272 55.9014C38.4664 55.9014 38.6042 55.8729 38.732 55.8176C38.8598 55.7624 38.975 55.6816 39.0704 55.5802C39.1658 55.4788 39.2395 55.3589 39.2869 55.228C39.3342 55.0971 39.3543 54.9578 39.3458 54.8188ZM53.7505 38.3278C53.7429 38.4621 53.7626 38.5966 53.8084 38.723C53.8542 38.8495 53.9252 38.9653 54.0171 39.0636C54.109 39.1618 54.2198 39.2403 54.343 39.2945C54.4661 39.3486 54.5989 39.3772 54.7334 39.3785C54.8714 39.3901 55.0103 39.3734 55.1417 39.3295C55.2731 39.2857 55.3941 39.2155 55.4975 39.1234C55.6009 39.0312 55.6845 38.919 55.7431 38.7935C55.8017 38.6681 55.8342 38.532 55.8385 38.3936C55.8429 38.2551 55.819 38.1173 55.7684 37.9884C55.7177 37.8595 55.6414 37.7422 55.544 37.6438C55.4466 37.5453 55.3302 37.4677 55.2019 37.4157C55.0735 37.3637 54.9359 37.3383 54.7974 37.3412C54.663 37.3335 54.5284 37.3533 54.4019 37.3994C54.2754 37.4455 54.1596 37.5169 54.0617 37.6092C53.9637 37.7015 53.8855 37.8129 53.8321 37.9365C53.7786 38.06 53.7508 38.1932 53.7505 38.3278Z" fill="#EC3290"/>
<path d="M42.031 36.814H42.9951C43.0642 36.8017 43.1354 36.8065 43.2023 36.8278C43.2692 36.8492 43.3299 36.8865 43.3792 36.9365C43.4285 36.9865 43.4649 37.0478 43.4852 37.115C43.5056 37.1823 43.5092 37.2534 43.496 37.3224C43.496 39.0773 43.5185 40.8323 43.496 42.5947C43.4701 43.231 43.2016 43.8333 42.7458 44.278C42.2899 44.7227 41.6811 44.976 41.0443 44.9861C39.2405 45.0162 37.4328 45.02 35.6252 44.9861C34.977 44.9734 34.3593 44.7087 33.903 44.2482C33.4468 43.7877 33.1878 43.1676 33.1811 42.5194C33.1472 40.7908 33.1811 39.0585 33.1811 37.3299C33.1811 36.9797 33.343 36.8065 33.6932 36.8102C34.0435 36.814 34.2807 36.8102 34.6498 36.8102C34.6498 36.283 34.6272 35.7746 34.6498 35.27C34.6553 34.588 34.8566 33.9219 35.2298 33.3511C35.603 32.7802 36.1324 32.3287 36.7549 32.0501C37.3069 31.7888 37.915 31.6684 38.5249 31.6997C39.1348 31.7309 39.7274 31.9129 40.2497 32.2293C40.7721 32.5457 41.2078 32.9866 41.518 33.5126C41.8282 34.0387 42.0032 34.6334 42.0272 35.2436C42.0461 35.752 42.031 36.2642 42.031 36.814ZM34.0284 37.699C34.0284 37.8157 34.0284 37.9137 34.0284 38.0153C34.0284 39.4502 34.0284 40.885 34.0284 42.3198C34.0185 42.5548 34.0571 42.7893 34.1419 43.0087C34.2267 43.228 34.3558 43.4275 34.5212 43.5947C34.6867 43.7619 34.8848 43.8932 35.1033 43.9803C35.3217 44.0674 35.5558 44.1085 35.7909 44.1011C37.483 44.1011 39.1739 44.1011 40.8636 44.1011C41.1021 44.1104 41.3399 44.0697 41.5617 43.9818C41.7836 43.8938 41.9847 43.7605 42.152 43.5903C42.3194 43.4201 42.4493 43.2168 42.5335 42.9935C42.6177 42.7702 42.6544 42.5317 42.6411 42.2934C42.6411 41.19 42.6411 40.0904 42.6411 38.9869V37.699H34.0284ZM41.1837 36.8027C41.1837 36.2943 41.1837 35.8085 41.1837 35.3265C41.1649 34.6417 40.8985 33.9869 40.4338 33.4835C39.9692 32.9801 39.3378 32.6622 38.6567 32.5886C37.9626 32.4975 37.2597 32.6714 36.688 33.0755C36.1164 33.4796 35.7181 34.0844 35.5724 34.7691C35.4842 35.4433 35.4439 36.1228 35.4519 36.8027H41.1837Z" fill="#EC3290"/>
<path d="M38.3329 41.3142H37.2972C37.0186 41.3142 36.8114 41.1862 36.8077 40.8886C36.8039 40.5911 37.0073 40.4593 37.2859 40.4556C37.9751 40.4556 38.668 40.4556 39.3572 40.4556C39.6321 40.4556 39.8392 40.5874 39.843 40.8811C39.8468 41.1749 39.6472 41.3067 39.3647 41.3104C39.022 41.318 38.6756 41.3142 38.3329 41.3142Z" fill="#EC3290"/>
</g>
<defs>
<linearGradient id="paint0_linear_2607_1536" x1="53.9556" y1="23.419" x2="-28.2178" y2="48.0746" gradientUnits="userSpaceOnUse">
<stop stop-color="#ED434F"/>
<stop offset="1" stop-color="#B4247D"/>
</linearGradient>
<clipPath id="clip0_2607_1536">
<rect width="36.65" height="36.7216" fill="white" transform="translate(20 19.999)"/>
</clipPath>
</defs>
</svg>
