<svg width="81" height="81" viewBox="0 0 81 81" fill="none" xmlns="http://www.w3.org/2000/svg">
<rect x="4.66846" y="5.06201" width="75.9398" height="75.9398" rx="37.9699" fill="url(#paint0_linear_577_18506)" fill-opacity="0.1"/>
<rect x="0.85454" y="0.526415" width="74.887" height="74.887" rx="37.4435" stroke="url(#paint1_linear_577_18506)" stroke-width="1.05283"/>
<path d="M32.589 53.378H26.3608C25.7112 53.3744 25.5669 53.2121 25.6716 52.5842C25.8808 51.332 26.1082 50.0799 26.3211 48.8277C26.3247 48.7501 26.3446 48.6741 26.3796 48.6047C26.4146 48.5353 26.4639 48.4741 26.5242 48.425C26.5845 48.376 26.6544 48.3402 26.7295 48.3201C26.8046 48.2999 26.883 48.2959 26.9598 48.3081C27.7031 48.3081 28.4501 48.3081 29.1934 48.3081C29.9368 48.3081 30.1172 48.0664 30.1244 47.3266C30.1677 42.46 30.2074 37.5897 30.2435 32.7159C30.2435 31.6333 29.8827 31.2725 28.8001 31.2075C28.0423 31.1714 27.2809 31.157 26.5232 31.1426C25.9711 31.1426 25.8448 31.0091 25.8448 30.4461C25.8448 29.4069 25.8448 28.3677 25.8448 27.3284C25.8448 26.7258 25.9747 26.6067 26.5845 26.6067H32.2642C32.4014 26.6067 32.5385 26.6067 32.7334 26.5851V21.6667C32.7334 21.1218 32.8777 20.9775 33.419 20.9739H36.4645C37.0166 20.9739 37.1537 21.111 37.1574 21.6595C37.1574 23.056 37.1574 24.4525 37.1574 25.8453V26.383H38.8966C38.8966 26.2206 38.9183 26.0582 38.9183 25.8958C38.9183 24.5174 38.9183 23.1366 38.9183 21.7533C38.9183 21.1687 39.0482 21.0316 39.64 21.0316C40.66 21.0316 41.6836 21.0316 42.7108 21.0316C43.234 21.0316 43.3712 21.1723 43.3712 21.7028C43.3712 23.1462 43.3712 24.5896 43.3712 26.033V26.6392C44.2007 26.5945 45.0322 26.6005 45.861 26.6572C48.672 26.9964 50.6819 28.512 51.7248 31.1281C52.7676 33.7443 52.3094 36.2378 50.5232 38.4498C50.4366 38.558 50.3391 38.659 50.2237 38.789C50.3211 38.8719 50.4077 38.9513 50.4979 39.0235C53.1465 41.1092 54.3446 43.8336 53.6553 47.1354C52.9336 50.4985 50.6531 52.494 47.3657 53.2698C46.1136 53.5585 44.7821 53.4863 43.483 53.5765L43.1871 53.5982V58.3758C43.1871 59.0145 43.0536 59.1516 42.433 59.1516C41.4551 59.1516 40.4808 59.1516 39.5029 59.1516C38.9002 59.1516 38.7559 59.0145 38.7559 58.4299C38.7559 56.9865 38.7559 55.5756 38.7559 54.1503V53.5801H36.9878V54.0925C36.9878 55.507 36.9878 56.918 36.9878 58.3289C36.9878 58.9604 36.8867 59.0506 36.2661 59.0506H33.2927C32.7117 59.0506 32.5926 58.9243 32.5926 58.3289C32.5926 56.8855 32.5926 55.4132 32.5926 53.9554L32.589 53.378ZM26.6639 52.429H32.7983C33.4045 52.429 33.5453 52.5661 33.5453 53.1507C33.5453 54.623 33.5453 56.0988 33.5453 57.5711V58.0727H35.999V57.5458C35.999 56.1024 35.999 54.6915 35.999 53.2662C35.999 52.7538 36.1542 52.6058 36.6666 52.6022H38.9002C39.5642 52.6022 39.6833 52.7177 39.6833 53.3853C39.6833 54.7962 39.6833 56.2107 39.6833 57.6216C39.6833 57.784 39.6833 57.9464 39.7049 58.116H42.1731C42.1731 57.9464 42.1948 57.8093 42.1948 57.6721V53.3997C42.1948 52.7069 42.2814 52.6419 42.9634 52.6022C44.3563 52.5264 45.778 52.6022 47.1276 52.3027C49.8809 51.7145 51.8511 50.0582 52.6089 47.3122C53.3306 44.6527 52.5511 42.318 50.6098 40.3875C50.1801 40.0086 49.7216 39.6635 49.2385 39.3555C48.838 39.0668 48.8019 38.7962 49.1556 38.4498L49.3252 38.291C51.0753 36.5192 51.7068 34.4191 51.0031 32.023C50.7209 30.9058 50.1154 29.8966 49.2623 29.1219C48.4093 28.3471 47.3466 27.8413 46.2074 27.6676C45.2007 27.4764 44.1398 27.563 43.1041 27.5305C42.5159 27.5124 42.3824 27.4006 42.3824 26.8088C42.3824 25.3654 42.3824 23.922 42.3824 22.4786C42.3824 22.3126 42.3824 22.1502 42.3824 21.9879H39.8637V22.5291C39.8637 23.8967 39.8637 25.2608 39.8637 26.6248C39.8637 27.2129 39.7266 27.3465 39.142 27.3465C38.3842 27.3465 37.624 27.3465 36.8615 27.3465C36.3202 27.3465 36.1758 27.1985 36.1758 26.6536C36.1758 25.2571 36.1758 23.8607 36.1758 22.4642V21.977H33.6499V26.7691C33.6499 27.4295 33.5308 27.5449 32.8596 27.5485H27.3495C27.1727 27.5485 26.9886 27.5666 26.8154 27.5738V30.1466C27.5155 30.1791 28.1939 30.1863 28.8687 30.2441C30.543 30.3848 31.2286 31.1498 31.2106 32.8458C31.1673 37.6378 31.1204 42.4311 31.0698 47.2256C31.0698 48.6401 30.4744 49.2283 29.0599 49.2535C28.4573 49.2535 27.8547 49.2535 27.2232 49.2535L26.6639 52.429Z" fill="url(#paint2_linear_577_18506)"/>
<path d="M36.1935 45.0819C36.1935 43.9055 36.1935 42.7255 36.1935 41.5492C36.1935 40.9538 36.3379 40.8094 36.9333 40.8094C38.7375 40.8094 40.5418 40.7878 42.346 40.8094C43.3885 40.7999 44.3984 41.1728 45.1845 41.8576C45.9705 42.5425 46.4783 43.4917 46.6117 44.5257C46.745 45.5597 46.4947 46.6067 45.9081 47.4686C45.3216 48.3305 44.4394 48.9475 43.4285 49.2028C43.0535 49.298 42.668 49.3465 42.281 49.3471C40.4985 49.3471 38.7195 49.3471 36.9369 49.3471C36.3379 49.3471 36.2152 49.21 36.2152 48.6254C36.1899 47.4382 36.1935 46.2618 36.1935 45.0819ZM37.1859 48.3584C39.102 48.3584 40.9784 48.463 42.8404 48.3295C44.5616 48.2032 45.7524 46.6443 45.6838 44.9339C45.6517 44.111 45.3102 43.3305 44.7275 42.7484C44.1448 42.1664 43.3639 41.8257 42.5409 41.7945C40.8377 41.7404 39.1308 41.7765 37.4276 41.7945C37.3459 41.8017 37.265 41.8162 37.1859 41.8378V48.3584Z" fill="url(#paint3_linear_577_18506)"/>
<path d="M36.1938 34.44C36.1938 33.3864 36.1938 32.3291 36.1938 31.2754C36.1938 30.7017 36.3381 30.5537 36.9155 30.5537C38.3588 30.5537 39.7698 30.5537 41.1987 30.5537C42.2132 30.5664 43.1826 30.9745 43.9007 31.6912C44.6188 32.4079 45.0287 33.3766 45.0433 34.391C45.0579 35.4054 44.676 36.3855 43.9788 37.1226C43.2816 37.8596 42.3243 38.2954 41.3106 38.3372C39.8239 38.3805 38.3336 38.3372 36.8433 38.3372C36.3706 38.3372 36.2082 38.1676 36.2046 37.6841C36.1902 36.6124 36.1938 35.5262 36.1938 34.44ZM37.1717 37.3268C38.7341 37.3268 40.2497 37.3449 41.7653 37.3268C42.0734 37.2938 42.3698 37.1901 42.6313 37.0237C43.201 36.7138 43.6517 36.2236 43.9129 35.6301C44.1741 35.0365 44.231 34.373 44.0747 33.7436C43.9112 33.0994 43.5359 32.5289 43.009 32.1238C42.4822 31.7187 41.8344 31.5025 41.1699 31.51C39.9321 31.4883 38.6908 31.51 37.4495 31.51C37.3548 31.5158 37.2607 31.529 37.1681 31.5497L37.1717 37.3268Z" fill="url(#paint4_linear_577_18506)"/>
<defs>
<linearGradient id="paint0_linear_577_18506" x1="58.6257" y1="28.4827" x2="-23.5502" y2="53.139" gradientUnits="userSpaceOnUse">
<stop stop-color="#ED434F"/>
<stop offset="1" stop-color="#B4247D"/>
</linearGradient>
<linearGradient id="paint1_linear_577_18506" x1="54.2854" y1="23.4207" x2="-27.8905" y2="48.077" gradientUnits="userSpaceOnUse">
<stop stop-color="#ED434F"/>
<stop offset="1" stop-color="#B4247D"/>
</linearGradient>
<linearGradient id="paint2_linear_577_18506" x1="45.6819" y1="32.7483" x2="13.9699" y2="39.7781" gradientUnits="userSpaceOnUse">
<stop stop-color="#ED434F"/>
<stop offset="1" stop-color="#B4247D"/>
</linearGradient>
<linearGradient id="paint3_linear_577_18506" x1="43.6207" y1="43.4359" x2="32.7539" y2="47.4235" gradientUnits="userSpaceOnUse">
<stop stop-color="#ED434F"/>
<stop offset="1" stop-color="#B4247D"/>
</linearGradient>
<linearGradient id="paint4_linear_577_18506" x1="42.4818" y1="32.9602" x2="33.1261" y2="36.1442" gradientUnits="userSpaceOnUse">
<stop stop-color="#ED434F"/>
<stop offset="1" stop-color="#B4247D"/>
</linearGradient>
</defs>
</svg>
