<svg width="81" height="81" viewBox="0 0 81 81" fill="none" xmlns="http://www.w3.org/2000/svg">
<rect x="4.65869" y="5.0625" width="75.9398" height="75.9398" rx="37.9699" fill="url(#paint0_linear_577_18491)" fill-opacity="0.1"/>
<rect x="0.844774" y="0.526415" width="74.887" height="74.887" rx="37.4435" stroke="url(#paint1_linear_577_18491)" stroke-width="1.05283"/>
<path d="M32.5817 53.378H26.3534C25.7039 53.3744 25.5596 53.2121 25.6642 52.5842C25.8735 51.332 26.1009 50.0799 26.3138 48.8277C26.3174 48.7501 26.3373 48.6741 26.3723 48.6047C26.4073 48.5353 26.4565 48.4741 26.5168 48.425C26.5771 48.376 26.6471 48.3402 26.7222 48.3201C26.7972 48.2999 26.8757 48.2959 26.9525 48.3081C27.6958 48.3081 28.4428 48.3081 29.1861 48.3081C29.9295 48.3081 30.1099 48.0664 30.1171 47.3266C30.1604 42.46 30.2001 37.5897 30.2362 32.7159C30.2362 31.6333 29.8753 31.2725 28.7928 31.2075C28.035 31.1714 27.2736 31.157 26.5158 31.1426C25.9637 31.1426 25.8374 31.0091 25.8374 30.4461C25.8374 29.4069 25.8374 28.3677 25.8374 27.3284C25.8374 26.7258 25.9673 26.6067 26.5772 26.6067H32.2569C32.394 26.6067 32.5312 26.6067 32.726 26.5851V21.6667C32.726 21.1218 32.8704 20.9775 33.4116 20.9739H36.4572C37.0093 20.9739 37.1464 21.111 37.15 21.6595C37.15 23.056 37.15 24.4525 37.15 25.8453V26.383H38.8893C38.8893 26.2206 38.911 26.0582 38.911 25.8958C38.911 24.5174 38.911 23.1366 38.911 21.7533C38.911 21.1687 39.0409 21.0316 39.6327 21.0316C40.6527 21.0316 41.6763 21.0316 42.7035 21.0316C43.2267 21.0316 43.3638 21.1723 43.3638 21.7028C43.3638 23.1462 43.3638 24.5896 43.3638 26.033V26.6392C44.1934 26.5945 45.0249 26.6005 45.8537 26.6572C48.6647 26.9964 50.6746 28.512 51.7175 31.1281C52.7603 33.7443 52.302 36.2378 50.5158 38.4498C50.4292 38.558 50.3318 38.659 50.2163 38.789C50.3138 38.8719 50.4004 38.9513 50.4906 39.0235C53.1392 41.1092 54.3372 43.8336 53.648 47.1354C52.9263 50.4985 50.6458 52.494 47.3584 53.2698C46.1063 53.5585 44.7747 53.4863 43.4757 53.5765L43.1798 53.5982V58.3758C43.1798 59.0145 43.0463 59.1516 42.4256 59.1516C41.4477 59.1516 40.4734 59.1516 39.4955 59.1516C38.8929 59.1516 38.7486 59.0145 38.7486 58.4299C38.7486 56.9865 38.7486 55.5756 38.7486 54.1503V53.5801H36.9804V54.0925C36.9804 55.507 36.9804 56.918 36.9804 58.3289C36.9804 58.9604 36.8794 59.0506 36.2587 59.0506H33.2853C32.7044 59.0506 32.5853 58.9243 32.5853 58.3289C32.5853 56.8855 32.5853 55.4132 32.5853 53.9554L32.5817 53.378ZM26.6566 52.429H32.791C33.3972 52.429 33.5379 52.5661 33.5379 53.1507C33.5379 54.623 33.5379 56.0988 33.5379 57.5711V58.0727H35.9917V57.5458C35.9917 56.1024 35.9917 54.6915 35.9917 53.2662C35.9917 52.7538 36.1469 52.6058 36.6593 52.6022H38.8929C39.5569 52.6022 39.676 52.7177 39.676 53.3853C39.676 54.7962 39.676 56.2107 39.676 57.6216C39.676 57.784 39.676 57.9464 39.6976 58.116H42.1658C42.1658 57.9464 42.1875 57.8093 42.1875 57.6721V53.3997C42.1875 52.7069 42.2741 52.6419 42.9561 52.6022C44.3489 52.5264 45.7707 52.6022 47.1203 52.3027C49.8735 51.7145 51.8438 50.0582 52.6015 47.3122C53.3232 44.6527 52.5438 42.318 50.6024 40.3875C50.1728 40.0086 49.7143 39.6635 49.2312 39.3555C48.8307 39.0668 48.7946 38.7962 49.1482 38.4498L49.3178 38.291C51.0679 36.5192 51.6994 34.4191 50.9958 32.023C50.7136 30.9058 50.108 29.8966 49.255 29.1219C48.4019 28.3471 47.3393 27.8413 46.2001 27.6676C45.1933 27.4764 44.1324 27.563 43.0968 27.5305C42.5086 27.5124 42.3751 27.4006 42.3751 26.8088C42.3751 25.3654 42.3751 23.922 42.3751 22.4786C42.3751 22.3126 42.3751 22.1502 42.3751 21.9879H39.8564V22.5291C39.8564 23.8967 39.8564 25.2608 39.8564 26.6248C39.8564 27.2129 39.7193 27.3465 39.1347 27.3465C38.3769 27.3465 37.6167 27.3465 36.8541 27.3465C36.3129 27.3465 36.1685 27.1985 36.1685 26.6536C36.1685 25.2571 36.1685 23.8607 36.1685 22.4642V21.977H33.6426V26.7691C33.6426 27.4295 33.5235 27.5449 32.8523 27.5485H27.3422C27.1654 27.5485 26.9813 27.5666 26.8081 27.5738V30.1466C27.5082 30.1791 28.1866 30.1863 28.8613 30.2441C30.5357 30.3848 31.2213 31.1498 31.2032 32.8458C31.1599 37.6378 31.113 42.4311 31.0625 47.2256C31.0625 48.6401 30.4671 49.2283 29.0526 49.2535C28.45 49.2535 27.8474 49.2535 27.2159 49.2535L26.6566 52.429Z" fill="url(#paint2_linear_577_18491)"/>
<path d="M36.1862 45.0819C36.1862 43.9055 36.1862 42.7255 36.1862 41.5492C36.1862 40.9538 36.3306 40.8094 36.926 40.8094C38.7302 40.8094 40.5344 40.7878 42.3387 40.8094C43.3812 40.7999 44.3911 41.1728 45.1771 41.8576C45.9632 42.5425 46.471 43.4917 46.6043 44.5257C46.7377 45.5597 46.4874 46.6067 45.9008 47.4686C45.3142 48.3305 44.432 48.9475 43.4212 49.2028C43.0461 49.298 42.6607 49.3465 42.2737 49.3471C40.4911 49.3471 38.7122 49.3471 36.9296 49.3471C36.3306 49.3471 36.2079 49.21 36.2079 48.6254C36.1826 47.4382 36.1862 46.2618 36.1862 45.0819ZM37.1785 48.3584C39.0947 48.3584 40.9711 48.463 42.833 48.3295C44.5543 48.2032 45.7451 46.6443 45.6765 44.9339C45.6444 44.111 45.3028 43.3305 44.7201 42.7484C44.1374 42.1664 43.3565 41.8257 42.5335 41.7945C40.8303 41.7404 39.1235 41.7765 37.4203 41.7945C37.3386 41.8017 37.2577 41.8162 37.1785 41.8378V48.3584Z" fill="url(#paint3_linear_577_18491)"/>
<path d="M36.1864 34.4405C36.1864 33.3869 36.1864 32.3296 36.1864 31.2759C36.1864 30.7021 36.3308 30.5542 36.9081 30.5542C38.3515 30.5542 39.7624 30.5542 41.1914 30.5542C42.2059 30.5668 43.1753 30.975 43.8934 31.6917C44.6115 32.4084 45.0214 33.3771 45.036 34.3915C45.0506 35.4059 44.6686 36.386 43.9714 37.123C43.2743 37.8601 42.3169 38.2959 41.3033 38.3377C39.8166 38.381 38.3263 38.3377 36.836 38.3377C36.3633 38.3377 36.2009 38.1681 36.1973 37.6846C36.1828 36.6128 36.1864 35.5267 36.1864 34.4405ZM37.1643 37.3273C38.7268 37.3273 40.2424 37.3454 41.7579 37.3273C42.0661 37.2943 42.3625 37.1905 42.624 37.0242C43.1936 36.7143 43.6444 36.2241 43.9056 35.6305C44.1668 35.037 44.2237 34.3735 44.0674 33.7441C43.9039 33.0999 43.5286 32.5294 43.0017 32.1243C42.4749 31.7192 41.8271 31.503 41.1625 31.5104C39.9248 31.4888 38.6835 31.5104 37.4422 31.5104C37.3475 31.5163 37.2534 31.5295 37.1607 31.5501L37.1643 37.3273Z" fill="url(#paint4_linear_577_18491)"/>
<defs>
<linearGradient id="paint0_linear_577_18491" x1="58.6159" y1="28.4832" x2="-23.5599" y2="53.1395" gradientUnits="userSpaceOnUse">
<stop stop-color="#ED434F"/>
<stop offset="1" stop-color="#B4247D"/>
</linearGradient>
<linearGradient id="paint1_linear_577_18491" x1="54.2756" y1="23.4207" x2="-27.9003" y2="48.077" gradientUnits="userSpaceOnUse">
<stop stop-color="#ED434F"/>
<stop offset="1" stop-color="#B4247D"/>
</linearGradient>
<linearGradient id="paint2_linear_577_18491" x1="45.6746" y1="32.7483" x2="13.9626" y2="39.7781" gradientUnits="userSpaceOnUse">
<stop stop-color="#ED434F"/>
<stop offset="1" stop-color="#B4247D"/>
</linearGradient>
<linearGradient id="paint3_linear_577_18491" x1="43.6134" y1="43.4359" x2="32.7466" y2="47.4235" gradientUnits="userSpaceOnUse">
<stop stop-color="#ED434F"/>
<stop offset="1" stop-color="#B4247D"/>
</linearGradient>
<linearGradient id="paint4_linear_577_18491" x1="42.4745" y1="32.9607" x2="33.1187" y2="36.1447" gradientUnits="userSpaceOnUse">
<stop stop-color="#ED434F"/>
<stop offset="1" stop-color="#B4247D"/>
</linearGradient>
</defs>
</svg>
