<svg width="91" height="92" viewBox="0 0 91 92" fill="none" xmlns="http://www.w3.org/2000/svg">
<g filter="url(#filter0_d_577_20219)">
<path d="M74.5 45C74.5 61.8524 61.0609 75.5 44.5 75.5C27.9391 75.5 14.5 61.8524 14.5 45C14.5 28.1476 27.9391 14.5 44.5 14.5C61.0609 14.5 74.5 28.1476 74.5 45Z" stroke="white" shape-rendering="crispEdges"/>
</g>
<path d="M43.6442 62.7849C43.2113 62.6682 42.7629 62.5941 42.3489 62.4273C40.3511 61.6251 39.2863 60.0753 39.1046 57.9197C39.0417 57.1884 39.1284 56.4516 39.359 55.7565C39.5897 55.0615 39.9593 54.4233 40.4441 53.8828C40.929 53.3424 41.5185 52.9115 42.1751 52.6176C42.8316 52.3238 43.5407 52.1735 44.2571 52.1763C47.9633 52.1763 50.4447 56.0031 49.0336 59.5695C48.3159 61.3842 46.9545 62.3958 45.087 62.7191C45.0127 62.7369 44.9396 62.7595 44.8682 62.7867L43.6442 62.7849ZM47.3694 57.5278C47.3649 55.7159 46.0244 54.3319 44.2653 54.3236C42.5062 54.3153 41.1358 55.7178 41.1412 57.5399C41.1412 59.262 42.5821 60.7071 44.2788 60.6895C45.9755 60.6719 47.374 59.2379 47.3694 57.5278Z" fill="white"/>
<path d="M54.5198 50.8719L49.9096 49.0998C48.1153 48.4097 46.3227 47.7103 44.5229 47.0378C44.3462 46.9795 44.1556 46.9824 43.9806 47.0461C40.7757 48.2652 37.5751 49.492 34.3788 50.7265C34.2766 50.7654 34.1718 50.7978 34 50.8571L44.2545 27.2129L54.5198 50.8719ZM44.2545 32.4523L37.9033 47.098C39.9824 46.3013 41.9648 45.5435 43.9462 44.7737C44.0424 44.731 44.1459 44.7084 44.2507 44.7073C44.3555 44.7062 44.4594 44.7266 44.5564 44.7673C45.8626 45.2795 47.1779 45.7779 48.4841 46.28L50.6039 47.0915L44.2545 32.4523Z" fill="white"/>
<defs>
<filter id="filter0_d_577_20219" x="0" y="0" width="91" height="92" filterUnits="userSpaceOnUse" color-interpolation-filters="sRGB">
<feFlood flood-opacity="0" result="BackgroundImageFix"/>
<feColorMatrix in="SourceAlpha" type="matrix" values="0 0 0 0 0 0 0 0 0 0 0 0 0 0 0 0 0 0 127 0" result="hardAlpha"/>
<feOffset dx="1" dy="1"/>
<feGaussianBlur stdDeviation="7.5"/>
<feComposite in2="hardAlpha" operator="out"/>
<feColorMatrix type="matrix" values="0 0 0 0 0.282353 0 0 0 0 0.729412 0 0 0 0 0.921569 0 0 0 0.24 0"/>
<feBlend mode="normal" in2="BackgroundImageFix" result="effect1_dropShadow_577_20219"/>
<feBlend mode="normal" in="SourceGraphic" in2="effect1_dropShadow_577_20219" result="shape"/>
</filter>
</defs>
</svg>
