<svg width="124" height="39" viewBox="0 0 124 39" fill="none" xmlns="http://www.w3.org/2000/svg">
<path d="M118.666 38.393H4.76939C2.13437 38.393 -0.00195312 36.2156 -0.00195312 33.5281V4.98307C-0.00195312 2.29554 2.13437 0.118164 4.76939 0.118164H118.666C121.302 0.118164 123.437 2.29554 123.437 4.98307V33.5281C123.437 36.2156 121.302 38.393 118.666 38.393Z" fill="black"/>
<path d="M40.8984 14.4379C41.4399 14.4379 41.9172 14.3288 42.3312 14.1098C42.7443 13.89 43.0627 13.5838 43.2866 13.1911C43.5096 12.7975 43.6215 12.347 43.6215 11.841C43.6215 11.3342 43.5096 10.8836 43.2866 10.491C43.0627 10.0974 42.7443 9.79202 42.3312 9.57218C41.9172 9.35319 41.4399 9.24327 40.8984 9.24327H39.0378V14.4379H40.8984ZM38.6099 8.85059H40.9313C41.5403 8.85059 42.081 8.97812 42.5533 9.23488C43.0249 9.49079 43.3927 9.84488 43.6552 10.298C43.9178 10.7511 44.0494 11.2654 44.0494 11.841C44.0494 12.4158 43.9178 12.9301 43.6552 13.3832C43.3927 13.8363 43.0249 14.1904 42.5533 14.4463C42.081 14.7031 41.5403 14.8306 40.9313 14.8306H38.6099V8.85059Z" fill="white"/>
<path d="M48.0085 14.2409C48.2743 14.0815 48.4834 13.86 48.6372 13.5747C48.7911 13.2894 48.8677 12.9656 48.8677 12.6006C48.8677 12.2364 48.7911 11.9109 48.6372 11.6264C48.4834 11.342 48.2743 11.1196 48.0085 10.9594C47.7435 10.7999 47.4432 10.7211 47.1074 10.7211C46.7725 10.7211 46.4721 10.7999 46.2071 10.9594C45.9413 11.1196 45.7323 11.342 45.5784 11.6264C45.4245 11.9109 45.348 12.2364 45.348 12.6006C45.348 12.9656 45.4245 13.2894 45.5784 13.5747C45.7323 13.86 45.9413 14.0815 46.2071 14.2409C46.4721 14.4004 46.7725 14.4801 47.1074 14.4801C47.4432 14.4801 47.7435 14.4004 48.0085 14.2409ZM45.9891 14.5749C45.6566 14.3802 45.3957 14.1117 45.2056 13.7669C45.0155 13.4229 44.9209 13.0335 44.9209 12.6006C44.9209 12.1676 45.0155 11.7791 45.2056 11.4334C45.3957 11.0894 45.6566 10.8201 45.9891 10.6271C46.3215 10.4333 46.6943 10.3359 47.1074 10.3359C47.5214 10.3359 47.8941 10.4333 48.2266 10.6271C48.5591 10.8201 48.8199 11.0894 49.01 11.4334C49.2001 11.7791 49.2948 12.1676 49.2948 12.6006C49.2948 13.0335 49.2001 13.4229 49.01 13.7669C48.8199 14.1117 48.5591 14.3802 48.2266 14.5749C47.8941 14.7679 47.5214 14.8644 47.1074 14.8644C46.6943 14.8644 46.3215 14.7679 45.9891 14.5749Z" fill="white"/>
<path d="M56.7202 10.3701L55.0612 14.8298H54.667L53.1923 10.9591L51.7086 14.8298H51.3234L49.6636 10.3701H50.066L51.5242 14.3523L53.0162 10.3701H53.3766L54.8596 14.3439L56.3342 10.3701H56.7202Z" fill="white"/>
<path d="M61.1287 10.8234C61.4463 11.1482 61.6052 11.6155 61.6052 12.2247V14.83H61.1863V12.2591C61.1863 11.7573 61.0629 11.3764 60.8143 11.1138C60.565 10.852 60.2177 10.7211 59.7709 10.7211C59.2565 10.7211 58.8516 10.878 58.5554 11.1901C58.2591 11.5039 58.111 11.9251 58.111 12.4554V14.83H57.6921V10.3703H58.0945V11.3361C58.2451 11.0223 58.4698 10.7773 58.7694 10.6011C59.0681 10.4249 59.4211 10.3359 59.8293 10.3359C60.3765 10.3359 60.8094 10.4979 61.1287 10.8234Z" fill="white"/>
<path d="M63.7511 8.49023H63.3323V14.8302H63.7511V8.49023Z" fill="white"/>
<path d="M68.1291 14.2409C68.3949 14.0815 68.604 13.86 68.7579 13.5747C68.9117 13.2894 68.9883 12.9656 68.9883 12.6006C68.9883 12.2364 68.9117 11.9109 68.7579 11.6264C68.604 11.342 68.3949 11.1196 68.1291 10.9594C67.8642 10.7999 67.5638 10.7211 67.2288 10.7211C66.8939 10.7211 66.5927 10.7999 66.3277 10.9594C66.0628 11.1196 65.8529 11.342 65.699 11.6264C65.546 11.9109 65.4686 12.2364 65.4686 12.6006C65.4686 12.9656 65.546 13.2894 65.699 13.5747C65.8529 13.86 66.0628 14.0815 66.3277 14.2409C66.5927 14.4004 66.8939 14.4801 67.2288 14.4801C67.5638 14.4801 67.8642 14.4004 68.1291 14.2409ZM66.1097 14.5749C65.7772 14.3802 65.5163 14.1117 65.3262 13.7669C65.137 13.4229 65.0415 13.0335 65.0415 12.6006C65.0415 12.1676 65.137 11.7791 65.3262 11.4334C65.5163 11.0894 65.7772 10.8201 66.1097 10.6271C66.4421 10.4333 66.8149 10.3359 67.2288 10.3359C67.642 10.3359 68.0147 10.4333 68.3472 10.6271C68.6797 10.8201 68.9414 11.0894 69.1315 11.4334C69.3207 11.7791 69.4162 12.1676 69.4162 12.6006C69.4162 13.0335 69.3207 13.4229 69.1315 13.7669C68.9414 14.1117 68.6797 14.3802 68.3472 14.5749C68.0147 14.7679 67.642 14.8644 67.2288 14.8644C66.8149 14.8644 66.4421 14.7679 66.1097 14.5749Z" fill="white"/>
<path d="M72.8642 14.2577C73.1185 14.0874 73.3094 13.8399 73.4386 13.5143V12.6778H71.9467C71.5163 12.6778 71.2052 12.7575 71.0118 12.9169C70.8193 13.0763 70.7238 13.2953 70.7238 13.5747C70.7238 13.865 70.8291 14.095 71.0415 14.2628C71.2538 14.4306 71.5533 14.5145 71.9384 14.5145C72.3022 14.5145 72.61 14.4289 72.8642 14.2577ZM73.4222 10.7588C73.7119 11.0408 73.8575 11.4553 73.8575 12.0023V14.83H73.4551V14.0362C73.3152 14.298 73.1119 14.5019 72.8437 14.6471C72.5754 14.7922 72.2545 14.8644 71.88 14.8644C71.3937 14.8644 71.0094 14.7486 70.7279 14.5145C70.4457 14.2812 70.3049 13.9733 70.3049 13.5915C70.3049 13.2215 70.4341 12.9211 70.6942 12.6904C70.9542 12.4596 71.369 12.3438 71.9384 12.3438H73.4386V11.9855C73.4386 11.5694 73.3284 11.253 73.1078 11.0366C72.8865 10.8201 72.5639 10.7127 72.1392 10.7127C71.8496 10.7127 71.5714 10.763 71.3056 10.8662C71.0398 10.9678 70.8152 11.1054 70.6308 11.2757L70.4218 10.9678C70.639 10.7689 70.9024 10.6137 71.2093 10.5021C71.5163 10.3913 71.8381 10.3359 72.173 10.3359C72.7153 10.3359 73.1309 10.4777 73.4222 10.7588Z" fill="white"/>
<path d="M78.2027 14.2412C78.4677 14.0818 78.6775 13.8603 78.8306 13.575C78.9853 13.2897 79.061 12.9658 79.061 12.6008C79.061 12.2367 78.9853 11.9111 78.8306 11.6267C78.6775 11.3422 78.4677 11.1199 78.2027 10.9596C77.9369 10.8002 77.6374 10.7213 77.3016 10.7213C76.9667 10.7213 76.6663 10.8002 76.4005 10.9596C76.1347 11.1199 75.9257 11.3422 75.7726 11.6267C75.6187 11.9111 75.5422 12.2367 75.5422 12.6008C75.5422 12.9658 75.6187 13.2897 75.7726 13.575C75.9257 13.8603 76.1347 14.0818 76.4005 14.2412C76.6663 14.4006 76.9667 14.4803 77.3016 14.4803C77.6374 14.4803 77.9369 14.4006 78.2027 14.2412ZM79.4807 8.49023V14.8302H79.0701V13.7797C78.8964 14.1279 78.6537 14.3947 78.341 14.5835C78.0282 14.7715 77.6736 14.8646 77.2761 14.8646C76.8687 14.8646 76.5001 14.7681 76.1701 14.5751C75.8409 14.3805 75.5825 14.1136 75.3957 13.7713C75.2081 13.4298 75.1143 13.0388 75.1143 12.6008C75.1143 12.162 75.2081 11.771 75.3957 11.4253C75.5825 11.0813 75.8409 10.8136 76.1701 10.6223C76.5001 10.4318 76.8687 10.3362 77.2761 10.3362C77.6678 10.3362 78.0184 10.4302 78.3286 10.6181C78.638 10.8061 78.8825 11.0687 79.061 11.4051V8.49023H79.4807Z" fill="white"/>
<path d="M86.013 14.2409C86.278 14.0815 86.4879 13.86 86.6417 13.5747C86.7948 13.2894 86.8713 12.9656 86.8713 12.6006C86.8713 12.2364 86.7948 11.9109 86.6417 11.6264C86.4879 11.342 86.278 11.1196 86.013 10.9594C85.748 10.7999 85.4477 10.7211 85.1119 10.7211C84.777 10.7211 84.4766 10.7999 84.2108 10.9594C83.9458 11.1196 83.7368 11.342 83.5821 11.6264C83.429 11.9109 83.3517 12.2364 83.3517 12.6006C83.3517 12.9656 83.429 13.2894 83.5821 13.5747C83.7368 13.86 83.9458 14.0815 84.2108 14.2409C84.4766 14.4004 84.777 14.4801 85.1119 14.4801C85.4477 14.4801 85.748 14.4004 86.013 14.2409ZM83.9927 14.5749C83.6611 14.3802 83.3994 14.1117 83.2101 13.7669C83.02 13.4229 82.9246 13.0335 82.9246 12.6006C82.9246 12.1676 83.02 11.7791 83.2101 11.4334C83.3994 11.0894 83.6611 10.8201 83.9927 10.6271C84.326 10.4333 84.698 10.3359 85.1119 10.3359C85.5258 10.3359 85.8986 10.4333 86.2303 10.6271C86.5636 10.8201 86.8244 11.0894 87.0145 11.4334C87.2038 11.7791 87.2993 12.1676 87.2993 12.6006C87.2993 13.0335 87.2038 13.4229 87.0145 13.7669C86.8244 14.1117 86.5636 14.3802 86.2303 14.5749C85.8986 14.7679 85.5258 14.8644 85.1119 14.8644C84.698 14.8644 84.326 14.7679 83.9927 14.5749Z" fill="white"/>
<path d="M92.0338 10.8234C92.3531 11.1482 92.5119 11.6155 92.5119 12.2247V14.83H92.093V12.2591C92.093 11.7573 91.9688 11.3764 91.7202 11.1138C91.4717 10.852 91.1236 10.7211 90.676 10.7211C90.1624 10.7211 89.7584 10.878 89.4613 11.1901C89.165 11.5039 89.0178 11.9251 89.0178 12.4554V14.83H88.5989V10.3703H89.0005V11.3361C89.1511 11.0223 89.3757 10.7773 89.6753 10.6011C89.9748 10.4249 90.3279 10.3359 90.7352 10.3359C91.2833 10.3359 91.7161 10.4979 92.0338 10.8234Z" fill="white"/>
<path d="M98.5619 14.5487C98.4565 14.6511 98.3232 14.7291 98.1644 14.7836C98.0047 14.8373 97.8385 14.8642 97.6657 14.8642C97.2855 14.8642 96.9917 14.7576 96.7851 14.5445C96.5786 14.3305 96.4757 14.0327 96.4757 13.6517V10.7368H95.6709V10.3702H96.4757V9.396H96.8946V10.3702H98.2853V10.7368H96.8946V13.6089C96.8946 13.8993 96.9629 14.1199 97.1003 14.271C97.2369 14.4212 97.4394 14.4975 97.7076 14.4975C97.9809 14.4975 98.2072 14.4144 98.3866 14.2491L98.5619 14.5487Z" fill="white"/>
<path d="M103.163 10.8237C103.481 11.1484 103.641 11.6158 103.641 12.2249V14.8302H103.221V12.2593C103.221 11.7576 103.097 11.3766 102.849 11.114C102.6 10.8522 102.253 10.7213 101.806 10.7213C101.292 10.7213 100.887 10.8782 100.591 11.1903C100.293 11.5042 100.146 11.9254 100.146 12.4557V14.8302H99.7273V8.49023H100.146V11.3019C100.297 10.994 100.52 10.7566 100.817 10.5887C101.113 10.4209 101.462 10.3362 101.864 10.3362C102.412 10.3362 102.845 10.4981 103.163 10.8237Z" fill="white"/>
<path d="M106.163 10.9216C105.916 11.0609 105.72 11.2572 105.573 11.5106C105.424 11.7649 105.339 12.051 105.317 12.3698H108.668C108.652 12.051 108.568 11.7657 108.417 11.5157C108.267 11.2648 108.068 11.0684 107.822 10.9258C107.576 10.7832 107.3 10.7127 106.993 10.7127C106.685 10.7127 106.409 10.7815 106.163 10.9216ZM109.071 12.7029H105.308C105.319 13.0503 105.406 13.3599 105.568 13.6301C105.73 13.9011 105.949 14.1101 106.226 14.2577C106.502 14.4062 106.813 14.4801 107.161 14.4801C107.445 14.4801 107.709 14.4272 107.952 14.3223C108.195 14.2166 108.398 14.0614 108.561 13.8567L108.803 14.1386C108.612 14.3718 108.374 14.5522 108.087 14.6764C107.799 14.8023 107.487 14.8644 107.152 14.8644C106.716 14.8644 106.327 14.7679 105.987 14.5749C105.647 14.3802 105.38 14.1134 105.187 13.7711C104.994 13.4296 104.898 13.0386 104.898 12.6006C104.898 12.1676 104.988 11.7791 105.17 11.4334C105.352 11.0894 105.602 10.8201 105.92 10.6271C106.238 10.4333 106.595 10.3359 106.993 10.3359C107.39 10.3359 107.745 10.4316 108.061 10.6221C108.376 10.8134 108.626 11.0793 108.807 11.4208C108.988 11.7632 109.079 12.15 109.079 12.583L109.071 12.7029Z" fill="white"/>
<path d="M44.1985 26.5637L42.3083 22.0966L40.4328 26.5637H44.1985ZM44.8149 28.0539H39.8024L38.8141 30.4192H36.895L41.4063 20.1978H43.239L47.7651 30.4192H45.8172L44.8149 28.0539Z" fill="white"/>
<path d="M54.5311 28.2863C54.9557 27.8383 55.1688 27.2492 55.1688 26.5193C55.1688 25.7893 54.9557 25.2002 54.5311 24.753C54.1064 24.305 53.565 24.0809 52.9058 24.0809C52.4762 24.0809 52.0894 24.1808 51.7463 24.3805C51.4023 24.5802 51.1299 24.8646 50.9299 25.2346C50.7291 25.6047 50.6287 26.0326 50.6287 26.5193C50.6287 27.0067 50.7291 27.4347 50.9299 27.8047C51.1299 28.1747 51.4023 28.4592 51.7463 28.6589C52.0894 28.8586 52.4762 28.9584 52.9058 28.9584C53.565 28.9584 54.1064 28.7344 54.5311 28.2863ZM55.1047 23.0304C55.6914 23.361 56.1522 23.8284 56.4864 24.4308C56.8205 25.0349 56.9875 25.7314 56.9875 26.5193C56.9875 27.308 56.8205 28.0069 56.4864 28.6152C56.1522 29.2227 55.6914 29.6926 55.1047 30.024C54.5171 30.3546 53.8513 30.5208 53.1066 30.5208C52.0755 30.5208 51.2591 30.17 50.6576 29.4686V33.2511H48.8677V22.6201H50.572V23.6429C50.8674 23.2729 51.2328 22.996 51.6673 22.8106C52.1018 22.626 52.5816 22.5337 53.1066 22.5337C53.8513 22.5337 54.5171 22.699 55.1047 23.0304Z" fill="white"/>
<path d="M64.3551 28.2863C64.7798 27.8383 64.9929 27.2492 64.9929 26.5193C64.9929 25.7893 64.7798 25.2002 64.3551 24.753C63.9305 24.305 63.3882 24.0809 62.7299 24.0809C62.3003 24.0809 61.9135 24.1808 61.5703 24.3805C61.2264 24.5802 60.954 24.8646 60.7532 25.2346C60.5532 25.6047 60.4536 26.0326 60.4536 26.5193C60.4536 27.0067 60.5532 27.4347 60.7532 27.8047C60.954 28.1747 61.2264 28.4592 61.5703 28.6589C61.9135 28.8586 62.3003 28.9584 62.7299 28.9584C63.3882 28.9584 63.9305 28.7344 64.3551 28.2863ZM64.9287 23.0304C65.5155 23.361 65.9763 23.8284 66.3104 24.4308C66.6445 25.0349 66.8116 25.7314 66.8116 26.5193C66.8116 27.308 66.6445 28.0069 66.3104 28.6152C65.9763 29.2227 65.5155 29.6926 64.9287 30.024C64.3412 30.3546 63.6754 30.5208 62.9307 30.5208C61.8995 30.5208 61.0832 30.17 60.4816 29.4686V33.2511H58.6909V22.6201H60.396V23.6429C60.6923 23.2729 61.0568 22.996 61.4913 22.8106C61.9259 22.626 62.4056 22.5337 62.9307 22.5337C63.6754 22.5337 64.3412 22.699 64.9287 23.0304Z" fill="white"/>
<path d="M73.5063 30.2301C72.7854 30.0061 72.2151 29.7091 71.7954 29.339L72.4398 27.8639C72.8496 28.1954 73.354 28.4656 73.9507 28.6745C74.5473 28.8842 75.1464 28.9883 75.7479 28.9883C76.4927 28.9883 77.0482 28.8666 77.4168 28.6233C77.7839 28.38 77.9674 28.0586 77.9674 27.6592C77.9674 27.3681 77.8653 27.1272 77.6596 26.9368C77.4547 26.7471 77.1947 26.5986 76.8795 26.4912C76.5643 26.3847 76.1339 26.263 75.5908 26.1262C74.8263 25.9416 74.2082 25.7571 73.7359 25.5716C73.2627 25.387 72.857 25.0967 72.5188 24.7032C72.1789 24.3088 72.0102 23.7752 72.0102 23.1039C72.0102 22.5401 72.16 22.0257 72.4612 21.5634C72.7624 21.1011 73.2158 20.7344 73.8215 20.4609C74.428 20.189 75.1702 20.0522 76.0483 20.0522C76.6597 20.0522 77.2605 20.1303 77.853 20.2863C78.4447 20.4416 78.9557 20.6656 79.3853 20.9576L78.7985 22.4318C78.3591 22.1692 77.9007 21.9695 77.4234 21.8336C76.9461 21.6968 76.4828 21.6297 76.0343 21.6297C75.2986 21.6297 74.753 21.7555 74.3942 22.0089C74.0362 22.2623 73.8577 22.598 73.8577 23.0167C73.8577 23.3078 73.9597 23.547 74.1654 23.7315C74.3704 23.917 74.6304 24.063 74.9464 24.1704C75.2608 24.2769 75.6903 24.3994 76.2351 24.5354C76.9799 24.7099 77.5905 24.8928 78.0678 25.0833C78.5451 25.2729 78.9533 25.5615 79.2923 25.9517C79.6313 26.341 79.8009 26.8671 79.8009 27.5283C79.8009 28.093 79.6503 28.604 79.3499 29.0613C79.0487 29.5194 78.5928 29.8836 77.9822 30.1563C77.3708 30.429 76.626 30.5649 75.7479 30.5649C74.9744 30.5649 74.2272 30.4533 73.5063 30.2301Z" fill="white"/>
<path d="M86.0733 29.9956C85.8634 30.1709 85.6075 30.3027 85.3071 30.3899C85.0067 30.478 84.6891 30.5217 84.355 30.5217C83.5139 30.5217 82.8655 30.2976 82.4071 29.8504C81.9487 29.4024 81.72 28.7496 81.72 27.8929V24.1406H80.4592V22.6798H81.72V20.8984H83.5107V22.6798H85.5573V24.1406H83.5107V27.8493C83.5107 28.2294 83.6003 28.518 83.7814 28.7185C83.9633 28.9182 84.2258 29.0172 84.5698 29.0172C84.9705 29.0172 85.3046 28.9107 85.5721 28.6967L86.0733 29.9956Z" fill="white"/>
<path d="M92.3603 28.2863C92.7899 27.8383 93.0047 27.2492 93.0047 26.5193C93.0047 25.7893 92.7899 25.2002 92.3603 24.753C91.9308 24.305 91.386 24.0809 90.7277 24.0809C90.0685 24.0809 89.527 24.305 89.1024 24.753C88.6769 25.2002 88.4646 25.7893 88.4646 26.5193C88.4646 27.2492 88.6769 27.8383 89.1024 28.2863C89.527 28.7344 90.0685 28.9584 90.7277 28.9584C91.386 28.9584 91.9308 28.7344 92.3603 28.2863ZM88.6374 30.0098C88.0161 29.6683 87.5322 29.1942 87.1833 28.5859C86.8352 27.9775 86.6599 27.2887 86.6599 26.5193C86.6599 25.7507 86.8352 25.0643 87.1833 24.4602C87.5322 23.8569 88.0161 23.3853 88.6374 23.0438C89.2579 22.704 89.9549 22.5337 90.7277 22.5337C91.5111 22.5337 92.213 22.704 92.8335 23.0438C93.4532 23.3853 93.9379 23.8569 94.286 24.4602C94.6349 25.0643 94.8094 25.7507 94.8094 26.5193C94.8094 27.2887 94.6349 27.9775 94.286 28.5859C93.9379 29.1942 93.4532 29.6683 92.8335 30.0098C92.213 30.3496 91.5111 30.5208 90.7277 30.5208C89.9549 30.5208 89.2579 30.3496 88.6374 30.0098Z" fill="white"/>
<path d="M100.953 22.5337V24.2706C100.8 24.2412 100.662 24.2269 100.538 24.2269C99.8399 24.2269 99.2967 24.4333 98.905 24.8478C98.5133 25.2615 98.3175 25.8572 98.3175 26.6367V30.4184H96.5276V22.6201H98.2319V23.7596C98.747 22.9423 99.6539 22.5337 100.953 22.5337Z" fill="white"/>
<path d="M104.269 24.5114C103.872 24.8579 103.631 25.3169 103.546 25.8916H107.885C107.808 25.3269 107.574 24.8688 107.183 24.5189C106.791 24.169 106.305 23.9928 105.722 23.9928C105.15 23.9928 104.665 24.1665 104.269 24.5114ZM109.56 27.1041H103.56C103.664 27.678 103.939 28.1328 104.383 28.4692C104.827 28.8049 105.378 28.9727 106.037 28.9727C106.877 28.9727 107.57 28.6908 108.114 28.1252L109.073 29.2496C108.73 29.6683 108.295 29.9854 107.77 30.1994C107.245 30.4134 106.653 30.5208 105.994 30.5208C105.154 30.5208 104.414 30.3496 103.774 30.0098C103.135 29.6683 102.64 29.1942 102.292 28.5859C101.943 27.9775 101.77 27.2887 101.77 26.5193C101.77 25.7607 101.938 25.0769 102.278 24.4677C102.617 23.8594 103.087 23.3853 103.688 23.0438C104.29 22.704 104.969 22.5337 105.722 22.5337C106.467 22.5337 107.133 22.7007 107.72 23.0371C108.307 23.3728 108.766 23.8452 109.095 24.4535C109.425 25.0618 109.589 25.7658 109.589 26.5629C109.589 26.6896 109.579 26.87 109.56 27.1041Z" fill="white"/>
<path d="M14.5936 27.6804L14.5969 27.6812L13.4045 29.7873C12.9691 30.5558 12.0055 30.8193 11.2517 30.3754C10.4979 29.9316 10.2395 28.949 10.6748 28.1804L11.5529 26.629L11.6368 26.4805C11.7874 26.2598 12.1594 25.8789 12.9025 25.9502C12.9025 25.9502 14.6512 26.144 14.7771 27.0704C14.7779 27.0704 14.7944 27.3758 14.5936 27.6804ZM31.5048 22.3028H27.7868C27.5333 22.2852 27.4222 22.1929 27.3794 22.1392L27.3762 22.1341L23.3965 15.1053L23.3915 15.1095L23.1529 14.7604C22.7612 14.1504 22.1399 15.7103 22.1399 15.7103C21.3984 17.4488 22.2452 19.4248 22.5406 20.0222L28.0691 29.7847C28.5044 30.5533 29.468 30.8168 30.2218 30.3729C30.9757 29.9299 31.2341 28.9465 30.7987 28.1779L29.4162 25.7371C29.3899 25.6775 29.343 25.5173 29.626 25.5164H31.5048C32.3746 25.5164 33.0807 24.7973 33.0807 23.9096C33.0807 23.0219 32.3746 22.3028 31.5048 22.3028ZM24.2828 24.4869C24.2828 24.4869 24.4811 25.5164 23.7133 25.5164H22.9455H9.96873C9.09807 25.5164 8.39282 24.7973 8.39282 23.9096C8.39282 23.0219 9.09807 22.3028 9.96873 22.3028H13.5024C14.0727 22.2684 14.2085 21.9328 14.2085 21.9328L14.2109 21.9344L18.8235 13.7888H18.8226C18.9066 13.6311 18.8366 13.4825 18.8243 13.459L17.301 10.769C16.8657 10.0004 17.1241 9.01703 17.8779 8.57401C18.6317 8.13014 19.5954 8.39361 20.0307 9.16219L20.7376 10.4099L21.4428 9.16387C21.8773 8.39529 22.8418 8.13182 23.5956 8.57569C24.3494 9.01955 24.6078 10.0021 24.1725 10.7707L17.7536 22.1065C17.7257 22.1753 17.7174 22.2835 17.9256 22.3028H21.763L21.7638 22.3406C21.7638 22.3406 23.9808 22.3758 24.2828 24.4869Z" fill="#198DEE"/>
</svg>
