<svg width="81" height="81" viewBox="0 0 81 81" fill="none" xmlns="http://www.w3.org/2000/svg">
<rect x="4.43604" y="5.06323" width="75.9418" height="75.9418" rx="37.9709" fill="url(#paint0_linear_577_18472)" fill-opacity="0.1"/>
<rect x="0.624071" y="0.526415" width="74.889" height="74.889" rx="37.4445" stroke="url(#paint1_linear_577_18472)" stroke-width="1.05283"/>
<path d="M54.4398 21.6978C54.6463 21.7581 54.8529 21.8153 55.0563 21.8821C55.8697 22.1424 56.5766 22.6595 57.0712 23.3557C57.5657 24.0519 57.8211 24.8897 57.799 25.7434C57.799 30.5656 57.799 35.3889 57.799 40.2132V48.3713C57.799 50.8598 56.1241 52.5251 53.6294 52.5282H50.5911V52.9827C50.5911 54.2794 50.5911 55.5792 50.5911 56.8758C50.6092 57.0656 50.5686 57.2563 50.4748 57.4223C50.3811 57.5882 50.2386 57.7214 50.0667 57.8038C46.6937 59.6895 43.3282 61.5826 39.97 63.4831C39.8123 63.5896 39.6264 63.6466 39.4361 63.6466C39.2458 63.6466 39.0598 63.5896 38.9022 63.4831C35.544 61.5762 32.1784 59.6831 28.8054 57.8038C28.6335 57.7221 28.4908 57.5896 28.3964 57.4243C28.3021 57.2589 28.2607 57.0686 28.2779 56.879C28.2938 55.4489 28.2779 54.0188 28.2779 52.5314C27.6423 52.5314 27.0066 52.5314 26.371 52.5314C25.6073 52.5552 24.8429 52.5148 24.086 52.4107C23.2244 52.2198 22.4546 51.7386 21.9056 51.0478C21.3565 50.357 21.0615 49.4984 21.07 48.616C21.07 46.3469 21.07 44.0809 21.07 41.8118V26.0295C21.07 23.6936 22.1156 22.3334 24.3752 21.7486C24.3974 21.7486 24.4165 21.7168 24.4356 21.6978H54.4398ZM49.2818 51.5716C49.2818 49.9476 49.2818 48.3205 49.2818 46.6965C49.2949 46.5914 49.2742 46.4849 49.2228 46.3923C49.1714 46.2998 49.0919 46.226 48.9957 46.1816C45.9003 44.4528 42.8091 42.7143 39.7221 40.9664C39.6395 40.9105 39.5421 40.8807 39.4424 40.8807C39.3427 40.8807 39.2453 40.9105 39.1628 40.9664C36.0737 42.7143 32.9814 44.4549 29.886 46.188C29.7898 46.2317 29.71 46.3048 29.658 46.3967C29.6061 46.4887 29.5846 46.5947 29.5968 46.6997C29.5968 49.9222 29.5968 53.1458 29.5968 56.3705C29.5843 56.4832 29.6085 56.597 29.6657 56.6949C29.723 56.7927 29.8102 56.8696 29.9146 56.914C32.9973 58.6365 36.0769 60.3685 39.1532 62.1101C39.2413 62.1701 39.3454 62.2022 39.452 62.2022C39.5585 62.2022 39.6626 62.1701 39.7507 62.1101C42.8229 60.3728 45.9024 58.6407 48.9894 56.914C49.0937 56.8686 49.1807 56.7911 49.2379 56.6928C49.2951 56.5944 49.3193 56.4804 49.3072 56.3674C49.2754 54.772 49.2818 53.1607 49.2818 51.5716ZM25.0108 45.2949V44.7737C25.0108 40.7026 25.0585 36.6283 24.9886 32.5572C24.9606 32.0705 25.0356 31.5833 25.2087 31.1275C25.3818 30.6718 25.6491 30.2576 25.9931 29.9121C26.3371 29.5666 26.7501 29.2975 27.2051 29.1225C27.6601 28.9474 28.147 28.8703 28.6338 28.8961C31.5704 28.966 34.5101 28.8961 37.4466 28.9183C37.566 28.9266 37.6854 28.9044 37.7939 28.8538C37.9023 28.8032 37.996 28.7259 38.0663 28.6291C38.9498 27.5486 39.8556 26.4903 40.7359 25.4097C40.8455 25.2628 40.9902 25.1456 41.1567 25.069C41.3233 24.9924 41.5064 24.9587 41.6893 24.9712C44.5496 24.9712 47.4099 24.9712 50.2956 24.9712C52.5202 24.9712 53.8741 26.3219 53.8741 28.5401C53.8741 33.9662 53.8741 39.3901 53.8741 44.8119V45.2854H56.4992V25.8992C56.4992 24.0877 55.4313 23.0167 53.6389 23.0167H25.2555C23.4567 23.0167 22.3953 24.094 22.3953 25.9055V45.2918L25.0108 45.2949ZM52.5329 45.3108C52.5329 45.2123 52.5552 45.1742 52.5552 45.1329C52.5552 41.691 52.5552 38.2492 52.5552 34.8073C52.557 34.5466 52.5063 34.2882 52.4061 34.0476C52.3059 33.8069 52.1583 33.5889 51.972 33.4065C51.7858 33.2241 51.5647 33.0811 51.322 32.9859C51.0793 32.8908 50.8199 32.8455 50.5593 32.8528C48.5911 32.8528 46.6238 32.8528 44.6577 32.8528C44.4656 32.8646 44.2851 32.9486 44.1523 33.088C43.2371 34.1473 42.3345 35.2268 41.4446 36.3264C41.3322 36.4808 41.1827 36.6045 41.01 36.6861C40.8373 36.7677 40.6469 36.8047 40.4562 36.7936C36.4794 36.7809 32.5047 36.7809 28.5321 36.7936C27.0893 36.7936 26.3075 37.5754 26.3075 39.0183V45.314C27.0035 45.314 27.6581 45.3331 28.3065 45.314C28.6008 45.3056 28.8896 45.2318 29.1518 45.0979C32.3204 43.3245 35.4794 41.5607 38.613 39.7619C38.8553 39.5942 39.143 39.5044 39.4377 39.5044C39.7324 39.5044 40.0201 39.5942 40.2624 39.7619C43.4087 41.5702 46.5804 43.3373 49.7426 45.1138C49.887 45.2144 50.052 45.2817 50.2256 45.3108C50.9884 45.3235 51.7511 45.3108 52.5329 45.3108ZM26.3583 32.8433C27.062 32.3566 27.9107 32.1245 28.7641 32.1854C32.0852 32.1854 35.4063 32.1854 38.7242 32.1854C38.8505 32.1968 38.9776 32.1757 39.0933 32.1239C39.2091 32.0722 39.3096 31.9916 39.3852 31.8898C40.2815 30.7902 41.1999 29.7065 42.1057 28.6101C42.1953 28.4903 42.3127 28.3941 42.4478 28.3299C42.5829 28.2657 42.7316 28.2353 42.8811 28.2414C45.449 28.2414 48.0169 28.2192 50.5848 28.2668C51.1473 28.2668 51.7034 28.556 52.2596 28.7181C52.3688 28.7594 52.475 28.8083 52.5774 28.8643V28.5719C52.5774 27.0422 51.8168 26.2774 50.2956 26.2774C47.5624 26.2774 44.8293 26.2774 42.0961 26.2774C41.9835 26.2682 41.8704 26.2879 41.7675 26.3346C41.6647 26.3813 41.5754 26.4535 41.5082 26.5443C40.6279 27.6249 39.7189 28.68 38.8418 29.7637C38.7288 29.9157 38.5801 30.0376 38.4088 30.1185C38.2375 30.1994 38.049 30.2369 37.8598 30.2277C34.7453 30.2118 31.6307 30.2277 28.513 30.2277C28.3085 30.2213 28.1039 30.2373 27.9029 30.2754C26.7683 30.5201 26.2058 31.4449 26.3583 32.8433ZM26.3583 36.1167C27.0551 35.6478 27.8881 35.4242 28.726 35.4811C32.5111 35.4811 36.293 35.4811 40.0781 35.4811C40.1912 35.4908 40.3049 35.4714 40.4084 35.4246C40.5119 35.3779 40.6017 35.3054 40.6692 35.2141C41.559 34.124 42.4743 33.0562 43.361 31.9629C43.4653 31.8217 43.6028 31.7084 43.7614 31.633C43.9199 31.5576 44.0946 31.5225 44.2699 31.5307C46.3357 31.5307 48.4014 31.5307 50.4608 31.5307C51.1055 31.5208 51.7399 31.6926 52.2914 32.0265C52.3763 32.0722 52.4644 32.1115 52.5552 32.1441V31.8263C52.5552 30.3548 51.7829 29.5762 50.3083 29.5762C48.001 29.5762 45.6905 29.5762 43.3833 29.5762C43.27 29.5683 43.1566 29.5889 43.0533 29.6361C42.9501 29.6833 42.8603 29.7555 42.7921 29.8463C41.9182 30.9142 41.0092 31.9693 40.1384 33.053C40.0246 33.2047 39.8752 33.3261 39.7034 33.4064C39.5316 33.4868 39.3426 33.5237 39.1532 33.5138C35.6288 33.5138 32.1043 33.5138 28.5798 33.5138C26.9844 33.5043 26.1549 34.4577 26.3615 36.1167H26.3583ZM22.3857 46.6456C22.3857 47.2812 22.3857 47.9169 22.3857 48.5525C22.3793 48.9052 22.444 49.2557 22.576 49.5829C22.708 49.9101 22.9047 50.2073 23.1542 50.4568C23.4036 50.7063 23.7009 50.9029 24.0281 51.035C24.3553 51.167 24.7057 51.2317 25.0585 51.2252C26.0119 51.2252 26.9971 51.2252 27.9664 51.2252C28.0681 51.2252 28.173 51.2062 28.2683 51.1966V46.6456H22.3857ZM50.6261 51.2062C51.8179 51.2062 52.9779 51.2507 54.122 51.2062C54.6813 51.1793 55.2143 50.9605 55.6311 50.5865C56.048 50.2126 56.3231 49.7063 56.4102 49.1531C56.4749 48.3241 56.4824 47.4916 56.4324 46.6615H50.6261V51.2062Z" fill="url(#paint2_linear_577_18472)"/>
<path d="M41.8784 56.0942C43.0003 55.4586 44.1031 54.8229 45.1741 54.1873C45.2253 54.1413 45.2662 54.0849 45.2941 54.0219C45.3221 53.9589 45.3364 53.8907 45.3361 53.8219C45.3361 53.2085 45.3361 52.5919 45.3361 51.9786C45.3361 51.4987 45.5936 51.2063 45.994 51.2063C46.3944 51.2063 46.6296 51.5019 46.6455 51.9849C46.6455 52.7636 46.6455 53.5422 46.6455 54.3208C46.6615 54.4914 46.625 54.6629 46.5409 54.8122C46.4569 54.9616 46.3293 55.0817 46.1752 55.1566C44.8912 55.8812 43.6136 56.6154 42.3424 57.359C42.1669 57.4693 42.0345 57.6365 41.9674 57.8326C41.8451 58.2646 41.6139 58.6579 41.2959 58.9749C40.978 59.2919 40.584 59.522 40.1517 59.643C39.7193 59.7641 39.2631 59.7721 38.8268 59.6663C38.3905 59.5605 37.9886 59.3444 37.6598 59.0388C37.3309 58.7332 37.086 58.3482 36.9486 57.9208C36.8112 57.4933 36.7858 57.0378 36.8749 56.5978C36.9641 56.1577 37.1647 55.7479 37.4576 55.4077C37.7505 55.0674 38.1259 54.8081 38.5478 54.6545C39.1177 54.4469 39.7422 54.445 40.3133 54.6493C40.8844 54.8536 41.3661 55.2512 41.675 55.7732C41.7417 55.8654 41.7958 55.9607 41.8784 56.0942ZM40.7502 57.108C40.7482 56.8471 40.6684 56.5927 40.5211 56.3773C40.3739 56.1619 40.1657 55.9953 39.9233 55.8988C39.6809 55.8022 39.4153 55.7801 39.1602 55.8353C38.9052 55.8904 38.6724 56.0203 38.4916 56.2084C38.3107 56.3965 38.19 56.6342 38.1449 56.8912C38.0998 57.1482 38.1323 57.4128 38.2383 57.6512C38.3442 57.8897 38.5189 58.0911 38.7399 58.2298C38.9608 58.3686 39.2182 58.4383 39.479 58.4301C39.8204 58.4161 40.1433 58.2708 40.3802 58.0245C40.6171 57.7781 40.7497 57.4497 40.7502 57.108Z" fill="url(#paint3_linear_577_18472)"/>
<path d="M37.01 46.989C35.8818 47.6246 34.7853 48.2603 33.7111 48.8959C33.6597 48.9419 33.6184 48.9982 33.5899 49.0612C33.5614 49.1241 33.5465 49.1923 33.5459 49.2614C33.5459 49.8747 33.5459 50.4881 33.5459 51.1046C33.5459 51.5845 33.2853 51.8769 32.888 51.8769C32.4908 51.8769 32.2524 51.5782 32.2524 51.0951C32.2524 50.3165 32.2524 49.5378 32.2524 48.7592C32.2409 48.589 32.2812 48.4192 32.368 48.2723C32.4548 48.1254 32.584 48.0082 32.7387 47.9361C34.0226 47.2136 35.3012 46.4816 36.5746 45.7401C36.7415 45.6399 36.8685 45.4849 36.9337 45.3015C37.049 44.8622 37.2763 44.4603 37.5933 44.1352C37.9104 43.81 38.3064 43.5727 38.7426 43.4464C39.1789 43.32 39.6404 43.3091 40.0822 43.4145C40.5239 43.5199 40.9307 43.7381 41.2629 44.0478C41.5951 44.3575 41.8413 44.7481 41.9773 45.1814C42.1134 45.6147 42.1347 46.0759 42.0392 46.5199C41.9437 46.9639 41.7346 47.3755 41.4325 47.7145C41.1303 48.0536 40.7453 48.3084 40.3152 48.4541C39.7414 48.6524 39.1165 48.6444 38.548 48.4315C37.9795 48.2186 37.5031 47.8141 37.2007 47.2878C37.1244 47.202 37.0799 47.1225 37.01 46.989ZM40.7538 45.9657C40.7537 45.7054 40.6763 45.451 40.5314 45.2349C40.3865 45.0187 40.1805 44.8505 39.9398 44.7516C39.699 44.6528 39.4343 44.6277 39.1792 44.6797C38.9242 44.7316 38.6904 44.8582 38.5075 45.0434C38.3246 45.2285 38.2008 45.4639 38.152 45.7195C38.1031 45.9752 38.1314 46.2395 38.2332 46.4791C38.335 46.7186 38.5057 46.9225 38.7236 47.0648C38.9415 47.2071 39.1968 47.2814 39.4571 47.2782C39.8019 47.2724 40.1308 47.1318 40.3731 46.8864C40.6155 46.6411 40.7521 46.3106 40.7538 45.9657Z" fill="url(#paint4_linear_577_18472)"/>
<path d="M45.9811 49.9C45.8526 49.8956 45.7283 49.8533 45.6239 49.7783C45.5194 49.7034 45.4394 49.5993 45.394 49.479C45.3486 49.3587 45.3398 49.2277 45.3687 49.1024C45.3976 48.9772 45.463 48.8632 45.5565 48.775C45.65 48.6868 45.7675 48.6282 45.8943 48.6066C46.021 48.5851 46.1513 48.6015 46.2687 48.6538C46.3861 48.7061 46.4855 48.792 46.5542 48.9007C46.6229 49.0093 46.6579 49.1359 46.6549 49.2644C46.6491 49.4378 46.575 49.6019 46.4488 49.7209C46.3226 49.8399 46.1545 49.9043 45.9811 49.9Z" fill="url(#paint5_linear_577_18472)"/>
<path d="M33.534 53.8442C33.5333 53.9743 33.4938 54.1013 33.4206 54.2089C33.3474 54.3165 33.2438 54.3999 33.123 54.4483C33.0022 54.4968 32.8697 54.5081 32.7425 54.4809C32.6152 54.4537 32.4989 54.3892 32.4085 54.2956C32.318 54.202 32.2576 54.0836 32.2347 53.9555C32.2119 53.8273 32.2278 53.6953 32.2804 53.5762C32.333 53.4572 32.4199 53.3565 32.5299 53.287C32.64 53.2176 32.7683 53.1825 32.8984 53.1863C33.0687 53.1929 33.2299 53.265 33.3483 53.3875C33.4668 53.5101 33.5333 53.6737 33.534 53.8442Z" fill="url(#paint6_linear_577_18472)"/>
<path d="M26.0057 24.9807C26.1997 24.9826 26.3887 25.0419 26.549 25.1511C26.7093 25.2602 26.8337 25.4145 26.9065 25.5942C26.9792 25.774 26.9971 25.9713 26.9579 26.1613C26.9187 26.3512 26.8241 26.5253 26.6861 26.6616C26.5481 26.7978 26.3728 26.8902 26.1823 26.9269C25.9919 26.9637 25.7948 26.9432 25.616 26.8681C25.4372 26.7931 25.2846 26.6667 25.1775 26.505C25.0704 26.3433 25.0135 26.1535 25.0142 25.9596C25.0167 25.6985 25.1224 25.4491 25.3081 25.2657C25.4939 25.0823 25.7447 24.9799 26.0057 24.9807Z" fill="url(#paint7_linear_577_18472)"/>
<path d="M29.275 24.9807C29.4689 24.9807 29.6586 25.0382 29.8199 25.1458C29.9813 25.2534 30.1071 25.4064 30.1816 25.5855C30.2562 25.7646 30.276 25.9617 30.2386 26.152C30.2012 26.3423 30.1083 26.5173 29.9716 26.6549C29.8349 26.7925 29.6605 26.8865 29.4704 26.9251C29.2804 26.9637 29.0831 26.9452 28.9036 26.8718C28.724 26.7985 28.5702 26.6736 28.4616 26.5129C28.3529 26.3523 28.2942 26.163 28.293 25.9691C28.293 25.7081 28.3962 25.4576 28.5802 25.2724C28.7642 25.0873 29.014 24.9824 29.275 24.9807Z" fill="url(#paint8_linear_577_18472)"/>
<defs>
<linearGradient id="paint0_linear_577_18472" x1="58.3947" y1="28.4845" x2="-23.7833" y2="53.1415" gradientUnits="userSpaceOnUse">
<stop stop-color="#ED434F"/>
<stop offset="1" stop-color="#B4247D"/>
</linearGradient>
<linearGradient id="paint1_linear_577_18472" x1="54.0563" y1="23.4213" x2="-28.1217" y2="48.0783" gradientUnits="userSpaceOnUse">
<stop stop-color="#ED434F"/>
<stop offset="1" stop-color="#B4247D"/>
</linearGradient>
<linearGradient id="paint2_linear_577_18472" x1="47.1678" y1="34.6352" x2="6.6401" y2="45.2826" gradientUnits="userSpaceOnUse">
<stop stop-color="#ED434F"/>
<stop offset="1" stop-color="#B4247D"/>
</linearGradient>
<linearGradient id="paint3_linear_577_18472" x1="43.8047" y1="53.8382" x2="33.45" y2="57.4157" gradientUnits="userSpaceOnUse">
<stop stop-color="#ED434F"/>
<stop offset="1" stop-color="#B4247D"/>
</linearGradient>
<linearGradient id="paint4_linear_577_18472" x1="39.2473" y1="45.9748" x2="28.8752" y2="49.5658" gradientUnits="userSpaceOnUse">
<stop stop-color="#ED434F"/>
<stop offset="1" stop-color="#B4247D"/>
</linearGradient>
<linearGradient id="paint5_linear_577_18472" x1="46.2779" y1="48.9992" x2="44.8679" y2="49.4223" gradientUnits="userSpaceOnUse">
<stop stop-color="#ED434F"/>
<stop offset="1" stop-color="#B4247D"/>
</linearGradient>
<linearGradient id="paint6_linear_577_18472" x1="33.1549" y1="53.5899" x2="31.7381" y2="54.015" gradientUnits="userSpaceOnUse">
<stop stop-color="#ED434F"/>
<stop offset="1" stop-color="#B4247D"/>
</linearGradient>
<linearGradient id="paint7_linear_577_18472" x1="26.4097" y1="25.5864" x2="24.2843" y2="26.2241" gradientUnits="userSpaceOnUse">
<stop stop-color="#ED434F"/>
<stop offset="1" stop-color="#B4247D"/>
</linearGradient>
<linearGradient id="paint8_linear_577_18472" x1="29.6885" y1="25.5864" x2="27.5631" y2="26.2241" gradientUnits="userSpaceOnUse">
<stop stop-color="#ED434F"/>
<stop offset="1" stop-color="#B4247D"/>
</linearGradient>
</defs>
</svg>
