<svg width="124" height="39" viewBox="0 0 124 39" fill="none" xmlns="http://www.w3.org/2000/svg">
<path d="M119.227 38.393H5.32994C2.69492 38.393 0.558594 36.2148 0.558594 33.5281V4.98307C0.558594 2.29638 2.69492 0.118164 5.32994 0.118164H119.227C121.863 0.118164 123.998 2.29638 123.998 4.98307V33.5281C123.998 36.2148 121.863 38.393 119.227 38.393Z" fill="black"/>
<path d="M41.013 23.2378H42.7345V27.2192C42.2309 27.6287 41.6425 27.9425 40.971 28.1615C40.2987 28.3796 39.6082 28.4895 38.8997 28.4895C37.9006 28.4895 37.0003 28.268 36.198 27.8258C35.3956 27.3837 34.7661 26.772 34.3085 25.9917C33.8518 25.2122 33.623 24.332 33.623 23.352C33.623 22.3719 33.8518 21.4917 34.3085 20.7123C34.7661 19.9319 35.3981 19.3202 36.2054 18.8781C37.0119 18.4359 37.9196 18.2144 38.9276 18.2144C39.7481 18.2144 40.4953 18.3528 41.1668 18.6289C41.8384 18.9049 42.4029 19.3085 42.8604 19.8413L41.7124 20.9833C40.966 20.2222 40.0658 19.8413 39.0116 19.8413C38.3212 19.8413 37.7072 19.989 37.1707 20.2835C36.6341 20.5788 36.2145 20.9925 35.9116 21.5253C35.608 22.0581 35.4565 22.6673 35.4565 23.352C35.4565 24.0182 35.608 24.6173 35.9116 25.1501C36.2145 25.6829 36.6341 26.1016 37.1707 26.4061C37.7072 26.7107 38.3162 26.8626 38.9976 26.8626C39.7621 26.8626 40.4344 26.6914 41.013 26.3491V23.2378Z" fill="white"/>
<path d="M49.9137 26.2642C50.3342 25.8262 50.544 25.2506 50.544 24.5374C50.544 23.8233 50.3342 23.2477 49.9137 22.8106C49.494 22.3726 48.9624 22.1536 48.3188 22.1536C47.6745 22.1536 47.1453 22.3726 46.7298 22.8106C46.315 23.2477 46.1068 23.8233 46.1068 24.5374C46.1068 25.2506 46.315 25.8262 46.7298 26.2642C47.1453 26.7013 47.6745 26.9203 48.3188 26.9203C48.9624 26.9203 49.494 26.7013 49.9137 26.2642ZM46.2747 27.9473C45.6682 27.6151 45.195 27.1511 44.8543 26.5562C44.5136 25.9621 44.3433 25.2883 44.3433 24.5374C44.3433 23.7856 44.5136 23.1152 44.8543 22.5253C45.195 21.9354 45.6682 21.474 46.2747 21.1408C46.8812 20.8077 47.5626 20.6416 48.3188 20.6416C49.0833 20.6416 49.7688 20.8077 50.3762 21.1408C50.9827 21.474 51.4558 21.9354 51.7965 22.5253C52.1372 23.1152 52.3076 23.7856 52.3076 24.5374C52.3076 25.2883 52.1372 25.9621 51.7965 26.5562C51.4558 27.1511 50.9827 27.6151 50.3762 27.9473C49.7688 28.2805 49.0833 28.4474 48.3188 28.4474C47.5626 28.4474 46.8812 28.2805 46.2747 27.9473Z" fill="white"/>
<path d="M58.9413 26.2642C59.361 25.8262 59.5708 25.2506 59.5708 24.5374C59.5708 23.8233 59.361 23.2477 58.9413 22.8106C58.5216 22.3726 57.9891 22.1536 57.3456 22.1536C56.7021 22.1536 56.1721 22.3726 55.7573 22.8106C55.3418 23.2477 55.1344 23.8233 55.1344 24.5374C55.1344 25.2506 55.3418 25.8262 55.7573 26.2642C56.1721 26.7013 56.7021 26.9203 57.3456 26.9203C57.9891 26.9203 58.5216 26.7013 58.9413 26.2642ZM55.3023 27.9473C54.6958 27.6151 54.2226 27.1511 53.8819 26.5562C53.5412 25.9621 53.3708 25.2883 53.3708 24.5374C53.3708 23.7856 53.5412 23.1152 53.8819 22.5253C54.2226 21.9354 54.6958 21.474 55.3023 21.1408C55.9088 20.8077 56.5893 20.6416 57.3456 20.6416C58.1109 20.6416 58.7972 20.8077 59.4029 21.1408C60.0094 21.474 60.4826 21.9354 60.8241 22.5253C61.164 23.1152 61.3343 23.7856 61.3343 24.5374C61.3343 25.2883 61.164 25.9621 60.8241 26.5562C60.4826 27.1511 60.0094 27.6151 59.4029 27.9473C58.7972 28.2805 58.1109 28.4474 57.3456 28.4474C56.5893 28.4474 55.9088 28.2805 55.3023 27.9473Z" fill="white"/>
<path d="M68.0735 25.8858C68.4981 25.4813 68.7104 24.9561 68.7104 24.3092C68.7104 23.6715 68.4981 23.1529 68.0735 22.7535C67.6488 22.3533 67.1049 22.1536 66.4424 22.1536C65.7709 22.1536 65.2228 22.3533 64.799 22.7535C64.3744 23.1529 64.1621 23.6715 64.1621 24.3092C64.1621 24.9561 64.3744 25.4813 64.799 25.8858C65.2228 26.2902 65.7709 26.4924 66.4424 26.4924C67.1049 26.4924 67.6488 26.2902 68.0735 25.8858ZM70.432 20.7272V27.1913C70.432 29.8738 69.0889 31.2155 66.4013 31.2155C65.6828 31.2155 65.0015 31.1232 64.3579 30.9369C63.7144 30.7515 63.182 30.483 62.7623 30.1314L63.5457 28.7898C63.8724 29.0658 64.2855 29.2865 64.785 29.4535C65.2837 29.6196 65.7898 29.7027 66.3033 29.7027C67.1238 29.7027 67.7262 29.5122 68.1088 29.1321C68.4907 28.7512 68.6824 28.1714 68.6824 27.391V26.9916C68.3837 27.3248 68.02 27.5765 67.5904 27.7476C67.1616 27.9188 66.6901 28.0044 66.1774 28.0044C65.4681 28.0044 64.827 27.85 64.2526 27.5412C63.679 27.2316 63.2264 26.797 62.8948 26.2357C62.5639 25.6743 62.3977 25.0316 62.3977 24.3092C62.3977 23.5859 62.5639 22.9457 62.8948 22.3894C63.2264 21.8331 63.679 21.4026 64.2526 21.0981C64.827 20.7935 65.4681 20.6416 66.1774 20.6416C66.7181 20.6416 67.2102 20.7314 67.6538 20.9126C68.0965 21.093 68.4676 21.3691 68.7664 21.7399V20.7272H70.432Z" fill="white"/>
<path d="M74.4758 17.7603H72.7271V28.3484H74.4758V17.7603Z" fill="white"/>
<path d="M78.5979 22.5748C78.2111 22.913 77.9757 23.3619 77.891 23.9232H82.1315C82.0575 23.3719 81.8295 22.9247 81.446 22.5824C81.0634 22.2392 80.5877 22.068 80.0191 22.068C79.4587 22.068 78.9847 22.2375 78.5979 22.5748ZM83.77 25.1079H77.905C78.0078 25.6693 78.2761 26.114 78.7106 26.4421C79.1443 26.7701 79.6825 26.9346 80.326 26.9346C81.1481 26.9346 81.8246 26.6585 82.3562 26.1064L83.2935 27.2056C82.9586 27.6151 82.5331 27.9239 82.0204 28.1336C81.5069 28.3425 80.9284 28.4474 80.2841 28.4474C79.4636 28.4474 78.7403 28.2805 78.1148 27.9473C77.4902 27.6151 77.0072 27.1511 76.6673 26.5562C76.3258 25.9621 76.1562 25.2883 76.1562 24.5374C76.1562 23.7948 76.3208 23.1269 76.6533 22.532C76.9833 21.938 77.4433 21.474 78.0317 21.1408C78.6193 20.8077 79.2817 20.6416 80.0191 20.6416C80.7466 20.6416 81.3967 20.8052 81.9711 21.1333C82.5447 21.4614 82.9923 21.9237 83.3149 22.5178C83.6359 23.1126 83.798 23.7998 83.798 24.5802C83.798 24.7035 83.7881 24.8797 83.77 25.1079Z" fill="white"/>
<path d="M95.2604 23.3809C95.6702 23.0386 95.876 22.5486 95.876 21.9109C95.876 21.274 95.6702 20.784 95.2604 20.4408C94.849 20.0985 94.2474 19.9273 93.4549 19.9273H91.3268V23.8944H93.4549C94.2474 23.8944 94.849 23.7232 95.2604 23.3809ZM95.7567 18.7862C96.3862 19.0715 96.8693 19.4801 97.2058 20.0129C97.5408 20.5457 97.7095 21.1784 97.7095 21.9109C97.7095 22.6341 97.5408 23.2643 97.2058 23.8021C96.8693 24.3391 96.3862 24.7511 95.7567 25.0364C95.1271 25.3217 94.3873 25.4643 93.538 25.4643H91.3268V28.3473H89.5073V18.3574H93.538C94.3873 18.3574 95.1271 18.5001 95.7567 18.7862Z" fill="white"/>
<path d="M101.251 17.7603H99.501V28.3484H101.251V17.7603Z" fill="white"/>
<path d="M107.331 26.8415C107.672 26.6376 107.912 26.3447 108.052 25.9638V25.0794H106.246C105.239 25.0794 104.735 25.4176 104.735 26.0922C104.735 26.416 104.861 26.6728 105.112 26.8633C105.364 27.0537 105.715 27.1486 106.163 27.1486C106.601 27.1486 106.99 27.0462 107.331 26.8415ZM108.926 21.4479C109.51 21.9849 109.801 22.7963 109.801 23.8804V28.3476H108.15V27.4196C107.935 27.7527 107.63 28.0069 107.233 28.1831C106.837 28.3593 106.358 28.4474 105.798 28.4474C105.239 28.4474 104.749 28.3493 104.329 28.1546C103.909 27.9599 103.584 27.6889 103.356 27.3415C103.128 26.9942 103.013 26.6015 103.013 26.1635C103.013 25.4788 103.263 24.9292 103.762 24.5156C104.261 24.1019 105.047 23.8947 106.121 23.8947H108.052V23.7805C108.052 23.2477 107.896 22.8391 107.583 22.5538C107.27 22.2677 106.806 22.1251 106.191 22.1251C105.771 22.1251 105.358 22.1922 104.952 22.3248C104.545 22.4582 104.203 22.6445 103.923 22.8819L103.237 21.583C103.629 21.2785 104.1 21.046 104.652 20.8841C105.201 20.7222 105.784 20.6416 106.4 20.6416C107.501 20.6416 108.343 20.9101 108.926 21.4479Z" fill="white"/>
<path d="M118.899 20.7275L115.399 28.9613C115.073 29.7886 114.677 30.3718 114.21 30.7091C113.743 31.0472 113.179 31.2159 112.517 31.2159C112.144 31.2159 111.775 31.1538 111.41 31.0304C111.048 30.9071 110.748 30.7351 110.515 30.5169L111.215 29.2038C111.383 29.3657 111.582 29.4941 111.81 29.5889C112.038 29.6846 112.269 29.7315 112.503 29.7315C112.81 29.7315 113.065 29.651 113.265 29.4891C113.466 29.3271 113.651 29.0561 113.818 28.676L113.944 28.3765L110.684 20.7275H112.503L114.854 26.3644L117.219 20.7275H118.899Z" fill="white"/>
<path d="M30.2605 18.7667L25.5575 15.9995L21.6897 19.8122L25.225 23.296L30.2605 20.3324C30.5378 20.1697 30.7041 19.8768 30.7041 19.5496C30.7041 19.2232 30.5378 18.9304 30.2605 18.7667Z" fill="#FFD109"/>
<path d="M24.7592 15.5296L19.5838 12.483L8.24219 6.55664L21.0527 19.1837L24.7592 15.5296Z" fill="#06EF79"/>
<path d="M8.42993 32.8804L19.6037 26.605L24.4269 23.7656L21.0528 20.4404L8.42993 32.8804Z" fill="#F93646"/>
<path d="M7.48524 7.06836L7.4729 32.5684L20.4151 19.8121L7.48524 7.06836Z" fill="#05D5FB"/>
<path d="M38.5829 10.299H37.2876V9.71248H39.2264V12.7684H38.5829V10.299ZM36.7543 12.8111C36.3593 12.8111 35.9906 12.7239 35.6491 12.5477C35.3076 12.3723 35.0105 12.1365 34.7562 11.8404C34.502 11.5442 34.3045 11.2102 34.1637 10.8385C34.0222 10.4676 33.9514 10.0833 33.9514 9.68647C33.9514 9.27197 34.0222 8.87929 34.1637 8.50842C34.3045 8.13672 34.5003 7.8078 34.7521 7.52C35.0031 7.2322 35.2994 7.00566 35.6409 6.84204C35.9824 6.67842 36.3535 6.59619 36.7543 6.59619C37.3353 6.59619 37.8151 6.71953 38.1936 6.96706C38.5713 7.21458 38.8569 7.53678 39.0486 7.9345L38.4644 8.34816C38.2891 7.99156 38.0496 7.72725 37.7451 7.5544C37.4398 7.38156 37.1041 7.29513 36.737 7.29513C36.4326 7.29513 36.156 7.36142 35.9075 7.49399C35.659 7.62656 35.4459 7.80612 35.2681 8.03351C35.0904 8.2609 34.9554 8.51849 34.8616 8.80629C34.7686 9.09409 34.7225 9.3928 34.7225 9.70409C34.7225 10.0322 34.7743 10.3409 34.8789 10.6313C34.9834 10.9224 35.1315 11.1783 35.3232 11.3998C35.515 11.6214 35.738 11.7959 35.9923 11.9226C36.2466 12.0493 36.5198 12.1122 36.8136 12.1122C37.1575 12.1122 37.4851 12.0233 37.7953 11.8445C38.1056 11.6658 38.3994 11.3931 38.6759 11.0248V11.8269C38.1344 12.4831 37.4933 12.8111 36.7543 12.8111Z" fill="white"/>
<path d="M44.4669 12.079V12.7695H40.386V6.64014H44.3904V7.33069H41.148V9.31676H43.9674V9.96368H41.148V12.079H44.4669Z" fill="white"/>
<path d="M49.843 7.33069H47.7684V12.7695H47.0064V7.33069H44.9326V6.64014H49.843V7.33069Z" fill="white"/>
<path d="M53.357 6.64014H52.595V12.7695H53.357V6.64014Z" fill="white"/>
<path d="M55.5574 8.07326V12.7695H54.7954V6.64014H55.4389L59.1133 11.4312V6.64937H59.8762V12.7695H59.1816L55.5574 8.07326Z" fill="white"/>
<path d="M63.8377 9.70409C63.8377 10.0145 63.8871 10.3149 63.9859 10.6061C64.0846 10.8964 64.2237 11.154 64.4047 11.378C64.5858 11.6029 64.803 11.7816 65.0573 11.9133C65.3108 12.0459 65.593 12.1122 65.9033 12.1122C66.2251 12.1122 66.5131 12.0434 66.7674 11.905C67.0208 11.7665 67.2373 11.5828 67.415 11.3529C67.5919 11.1221 67.7285 10.8637 67.8207 10.5759C67.9145 10.2881 67.9614 9.99692 67.9614 9.70409C67.9614 9.3928 67.9112 9.09409 67.8125 8.80629C67.7137 8.51849 67.5722 8.2609 67.3895 8.03351C67.206 7.80612 66.9887 7.6274 66.7369 7.49819C66.4859 7.36897 66.2078 7.30352 65.9033 7.30352C65.5815 7.30352 65.2943 7.37149 65.04 7.50658C64.7858 7.64167 64.5701 7.82458 64.3924 8.05449C64.2138 8.28523 64.0772 8.54282 63.9809 8.82727C63.8855 9.11255 63.8377 9.40454 63.8377 9.70409ZM65.8951 12.8111C65.4721 12.8111 65.0878 12.7247 64.7438 12.5527C64.3998 12.3799 64.1019 12.1449 63.8501 11.8487C63.5991 11.5526 63.4057 11.2186 63.2707 10.8477C63.135 10.476 63.0667 10.0951 63.0667 9.70409C63.0667 9.29546 63.1391 8.9053 63.2839 8.53443C63.4271 8.16273 63.6271 7.83213 63.8846 7.54098C64.1414 7.25066 64.4409 7.02076 64.7857 6.85043C65.1297 6.68094 65.5058 6.59619 65.9123 6.59619C66.3353 6.59619 66.7188 6.68513 67.0636 6.86385C67.4076 7.04174 67.7039 7.28087 67.9524 7.58042C68.2009 7.87912 68.3927 8.21307 68.5276 8.58142C68.6634 8.94977 68.7309 9.32651 68.7309 9.71248C68.7309 10.1211 68.6601 10.5113 68.5194 10.8821C68.3787 11.253 68.1795 11.5844 67.9228 11.8748C67.666 12.1651 67.3648 12.3941 67.0208 12.5611C66.676 12.7281 66.3016 12.8111 65.8951 12.8111Z" fill="white"/>
<path d="M70.5513 8.07326V12.7695H69.7893V6.64014H70.4337L74.1072 11.4312V6.64937H74.8693V12.7695H74.1755L70.5513 8.07326Z" fill="white"/>
</svg>
