<svg width="81" height="81" viewBox="0 0 81 81" fill="none" xmlns="http://www.w3.org/2000/svg">
<rect x="4.33887" y="5.06226" width="75.9375" height="75.9375" rx="37.9688" fill="url(#paint0_linear_577_18556)" fill-opacity="0.1"/>
<rect x="0.310811" y="0.310567" width="75.3159" height="75.3159" rx="37.6579" stroke="url(#paint1_linear_577_18556)" stroke-width="0.621622"/>
<g clip-path="url(#clip0_577_18556)">
<path d="M31.704 35.7334C31.0336 35.7334 30.3235 35.7334 29.6133 35.7334C28.7181 35.8042 27.8189 35.6621 26.9891 35.3189C26.1445 34.9293 25.4428 34.2857 24.9819 33.4778C24.521 32.6699 24.3241 31.7383 24.4186 30.813C24.5131 29.8878 24.8944 29.0151 25.5091 28.3172C26.1237 27.6192 26.9411 27.1307 27.847 26.9199C28.0849 26.8659 28.1606 26.7794 28.1751 26.5414C28.285 25.0698 28.8504 23.6689 29.7929 22.5332C30.7354 21.3976 32.0081 20.5837 33.4343 20.2044C34.8684 19.8532 36.3769 19.9643 37.7441 20.5217C39.1114 21.0791 40.2675 22.0543 41.0474 23.308L41.2745 23.6685C42.5866 22.7313 43.996 22.4754 45.4848 23.0918C46.9735 23.7082 47.8062 24.8941 48.0765 26.4874C48.2892 26.5378 48.5163 26.5811 48.7362 26.6424C49.8514 26.934 50.82 27.6264 51.4568 28.5873C52.0937 29.5481 52.354 30.71 52.188 31.8507C52.0221 32.9914 51.4415 34.0309 50.5573 34.7705C49.6731 35.5101 48.5473 35.8978 47.3952 35.8596C46.5878 35.8596 45.7803 35.8596 44.9657 35.8596V40.3113C44.9657 42.0416 43.8302 43.1951 42.0819 43.2131C39.5539 43.2275 37.0306 43.2275 34.5121 43.2131C32.8287 43.2131 31.7185 42.0596 31.7149 40.369V35.7334H31.704ZM28.2147 28.041C28.1299 28.0496 28.0457 28.0629 27.9624 28.0806C27.2322 28.2917 26.5954 28.7443 26.156 29.3644C25.7166 29.9846 25.5007 30.7355 25.5436 31.4943C25.5906 32.2797 25.9194 33.0217 26.4698 33.584C27.0201 34.1462 27.7549 34.4909 28.5391 34.5547C29.7287 34.6123 30.9182 34.5835 32.1078 34.5799C32.2389 34.5487 32.3619 34.4897 32.4682 34.4069C32.9008 34.1162 33.3537 33.8572 33.8236 33.6319C34.4941 33.3723 35.2042 33.2065 35.8963 33.0083C36.8211 32.7438 37.7837 32.6366 38.744 32.691C38.8954 32.691 39.0504 32.691 39.227 32.7127C39.227 31.8908 39.227 31.1194 39.227 30.348C39.229 30.1312 39.146 29.9222 38.9957 29.7659C38.8454 29.6095 38.6399 29.5183 38.4232 29.5117C38.2104 29.5326 38.0134 29.6336 37.8722 29.7942C37.731 29.9548 37.6561 30.1631 37.6626 30.3768C37.6626 30.7085 37.6626 31.0401 37.6626 31.3717C37.6626 31.8151 37.4679 32.0062 37.0354 32.0134C36.2856 32.0134 35.5394 32.0134 34.7897 32.0134C34.3715 32.0134 34.1877 31.8187 34.1733 31.397C34.1588 30.9752 34.1733 30.5643 34.1733 30.1461C34.1889 29.4323 34.3821 28.7335 34.7356 28.1131C35.1993 27.2782 35.9264 26.6202 36.8033 26.2418C37.6802 25.8634 38.6577 25.7858 39.5833 26.0213C40.5089 26.2567 41.3306 26.7918 41.9201 27.5432C42.5097 28.2946 42.834 29.2199 42.8425 30.175C42.8425 31.2167 42.8425 32.2621 42.8425 33.3038C42.8325 33.3912 42.8524 33.4793 42.8988 33.5539C42.9453 33.6285 43.0157 33.6852 43.0985 33.7148C43.5058 33.9274 43.8735 34.2122 44.2592 34.4645C44.355 34.5482 44.4703 34.6064 44.5944 34.634C45.6362 34.6664 46.6815 34.7169 47.7197 34.688C48.6214 34.6381 49.4697 34.2447 50.0904 33.5887C50.711 32.9327 51.0569 32.0639 51.0569 31.1609C51.0569 30.2578 50.711 29.389 50.0904 28.733C49.4697 28.077 48.6214 27.6836 47.7197 27.6337C47.1141 27.6048 46.9987 27.457 46.9519 26.8551C46.933 26.2877 46.7536 25.7373 46.4346 25.2677C46.1156 24.7982 45.67 24.4286 45.1495 24.202C44.6522 23.9521 44.0931 23.8514 43.5399 23.9122C42.9866 23.973 42.4627 24.1925 42.0315 24.5444C41.9386 24.5851 41.8644 24.6592 41.8237 24.752C41.783 24.8449 41.7786 24.9496 41.8116 25.0455C41.8314 25.1077 41.8383 25.1733 41.832 25.2383C41.8257 25.3033 41.8063 25.3663 41.775 25.4236C41.7437 25.4809 41.701 25.5312 41.6497 25.5715C41.5984 25.6119 41.5394 25.6414 41.4764 25.6583C41.1159 25.8169 40.8491 25.6583 40.6833 25.1464C40.3023 23.9483 39.5445 22.9054 38.5228 22.1727C37.5011 21.4401 36.2702 21.0569 35.0131 21.0803C33.752 21.1389 32.5426 21.5994 31.562 22.3946C30.5813 23.1898 29.8808 24.2778 29.5629 25.4997C29.3356 26.3429 29.3036 27.2268 29.4691 28.0843C29.4909 28.1748 29.4926 28.2689 29.4741 28.3602C29.4555 28.4514 29.4173 28.5375 29.362 28.6123C29.3067 28.6872 29.2357 28.7491 29.1539 28.7936C29.0722 28.8381 28.9817 28.8642 28.8888 28.8701C28.5932 28.9169 28.3409 28.7043 28.2616 28.3366C28.2435 28.2537 28.2327 28.1672 28.2147 28.041ZM38.3331 42.0092C39.6308 42.0092 40.932 42.0092 42.2297 42.0092C42.4285 42.0164 42.6268 41.9842 42.813 41.9144C42.9993 41.8446 43.1699 41.7386 43.315 41.6025C43.4601 41.4665 43.5768 41.303 43.6585 41.1216C43.7401 40.9403 43.785 40.7445 43.7906 40.5457C43.8194 39.1038 43.8158 37.6619 43.7906 36.22C43.7881 35.8978 43.6778 35.5857 43.4772 35.3335C43.2766 35.0813 42.9973 34.9035 42.6839 34.8286C42.0423 34.6268 41.3898 34.4682 40.7482 34.2519C39.6859 33.8583 38.5406 33.7429 37.4211 33.9166C36.2021 34.1576 34.9984 34.4705 33.8164 34.8539C33.1279 35.0737 32.8467 35.6685 32.8503 36.3931C32.8503 37.7052 32.8503 39.0173 32.8503 40.3258C32.8503 41.4072 33.4595 42.0019 34.5445 42.0055C35.8062 42.0128 37.0714 42.0092 38.3331 42.0092ZM36.4983 30.8599C36.4983 30.6364 36.4983 30.4525 36.4983 30.2687C36.5247 29.7681 36.7436 29.2971 37.1092 28.9541C37.4748 28.6111 37.9589 28.4227 38.4601 28.4283C38.9614 28.4339 39.4411 28.633 39.799 28.9841C40.1569 29.3351 40.3653 29.8109 40.3805 30.3119C40.3805 31.1771 40.3805 32.0458 40.3805 32.9109L41.6854 33.2714C41.6854 32.1539 41.7431 31.1086 41.6854 30.0488C41.6624 29.5907 41.5399 29.143 41.3266 28.737C41.1132 28.3309 40.814 27.9761 40.4498 27.6973C40.0855 27.4185 39.665 27.2222 39.2173 27.1222C38.7696 27.0222 38.3055 27.0209 37.8572 27.1182C36.1703 27.439 34.9519 29.281 35.3664 30.8599H36.4983Z" fill="url(#paint2_linear_577_18556)"/>
<path d="M26.3874 55.9954C25.223 55.9954 24.0587 55.9954 22.8944 55.9954C22.4174 56.0298 21.9449 55.883 21.5714 55.5843C21.1979 55.2856 20.9508 54.857 20.8794 54.3841C20.6127 53.2775 20.3603 52.1708 20.072 51.0678C19.9704 50.7119 19.9743 50.3341 20.083 49.9803C20.1918 49.6265 20.4008 49.3119 20.6847 49.0744C20.7814 48.9876 20.8462 48.8708 20.8686 48.7428C21.0236 46.9404 22.0293 45.7797 23.7199 45.2571C25.5792 44.6521 27.5891 44.6978 29.4189 45.3868C30.131 45.6264 30.7535 46.0766 31.2041 46.6778C31.6547 47.279 31.9121 48.0029 31.9422 48.7536C31.9657 48.902 32.035 49.0394 32.1404 49.1465C32.3735 49.3594 32.5475 49.629 32.6454 49.929C32.7433 50.2291 32.7618 50.5494 32.6992 50.8587C32.4108 52.1708 32.0972 53.4829 31.7511 54.7842C31.6368 55.1513 31.4029 55.4696 31.0867 55.6884C30.7706 55.9073 30.3903 56.014 30.0065 55.9918C28.7917 56.0026 27.5913 55.9954 26.3874 55.9954ZM26.4054 49.7845H26.1278C24.7689 49.7845 23.4063 49.7845 22.0437 49.7845C21.3696 49.7845 21.0885 50.145 21.2471 50.8047C21.5138 51.8861 21.7698 52.9963 22.0401 54.0921C22.1699 54.6256 22.4006 54.8131 22.9485 54.8131H29.92C30.2624 54.8131 30.5724 54.7266 30.6661 54.3481C30.9473 53.209 31.214 52.0627 31.4808 50.92C31.661 50.1522 31.3835 49.799 30.6012 49.7954L26.4054 49.7845ZM30.731 48.6058C30.7353 48.5506 30.7353 48.4952 30.731 48.44C30.6312 47.9306 30.3867 47.4608 30.0268 47.0868C29.6669 46.7128 29.2068 46.4505 28.7016 46.3313C27.2323 45.9022 25.6719 45.896 24.1993 46.3132C23.5312 46.4663 22.938 46.849 22.5231 47.3946C22.253 47.7397 22.098 48.1608 22.0798 48.5986L30.731 48.6058Z" fill="url(#paint3_linear_577_18556)"/>
<path d="M50.279 55.9955C49.1291 55.9955 47.9756 55.9955 46.8221 55.9955C46.3454 56.0137 45.8782 55.8582 45.5076 55.5578C45.1369 55.2575 44.888 54.8327 44.8071 54.3625C44.5548 53.2379 44.306 52.1168 44.0609 50.9921C43.9797 50.6625 43.9877 50.3171 44.0839 49.9915C44.1802 49.6659 44.3614 49.3718 44.6088 49.1393C44.7121 49.0437 44.7816 48.9173 44.8071 48.7789C44.8481 48.0179 45.1243 47.2885 45.5976 46.6913C46.0709 46.094 46.7179 45.6584 47.4493 45.4445C49.3043 44.784 51.3318 44.7929 53.1808 45.4698C53.8784 45.6877 54.4945 46.11 54.9495 46.6819C55.4045 47.2539 55.6774 47.9492 55.7329 48.6779C55.7594 48.8281 55.8371 48.9643 55.9528 49.0636C56.2315 49.2793 56.4419 49.5711 56.5583 49.9037C56.6747 50.2364 56.6923 50.5957 56.6088 50.9381C56.3457 52.1348 56.0681 53.3244 55.7545 54.5103C55.6493 54.9499 55.3942 55.3391 55.033 55.6108C54.6717 55.8826 54.2271 56.0199 53.7756 55.9991C52.5968 55.9991 51.4325 55.9955 50.279 55.9955ZM50.3403 49.7846H46.0651C45.3838 49.7846 45.0594 50.2027 45.2108 50.866C45.4511 51.9282 45.6914 52.9915 45.9318 54.0561C46.0723 54.687 46.2922 54.8636 46.9519 54.8636H53.6061C54.2586 54.8636 54.4965 54.687 54.6479 54.0669C54.9074 53.0216 55.1634 51.9726 55.4157 50.9273C55.5887 50.2063 55.2571 49.781 54.5217 49.781L50.3403 49.7846ZM45.9822 48.6095H54.5145C54.4757 48.2031 54.3325 47.8136 54.0988 47.4788C53.8652 47.1441 53.5489 46.8755 53.1808 46.699C52.4742 46.3523 51.7004 46.1641 50.9134 46.1475C49.7275 46.079 48.556 46.1258 47.4565 46.6485C47.0625 46.8203 46.7196 47.0912 46.4612 47.4349C46.2029 47.7785 46.0378 48.1832 45.9822 48.6095Z" fill="url(#paint4_linear_577_18556)"/>
<path d="M23.1973 40.7081C23.2065 39.8485 23.5506 39.0264 24.1564 38.4166C24.7622 37.8067 25.582 37.4572 26.4415 37.4422C27.3052 37.436 28.1361 37.7732 28.7513 38.3796C29.3664 38.9859 29.7155 39.8119 29.7217 40.6756C29.728 41.5394 29.3908 42.3702 28.7844 42.9854C28.178 43.6006 27.3521 43.9497 26.4883 43.9559C25.6241 43.9523 24.7956 43.6103 24.1804 43.0032C23.5653 42.3961 23.2123 41.5722 23.1973 40.7081ZM28.5538 40.7081C28.5588 40.2918 28.4402 39.8833 28.213 39.5344C27.9859 39.1855 27.6603 38.9118 27.2776 38.7479C26.8949 38.5839 26.4722 38.5372 26.0629 38.6135C25.6536 38.6899 25.2761 38.8858 24.9782 39.1767C24.6803 39.4675 24.4754 39.8402 24.3892 40.2475C24.3031 40.6549 24.3397 41.0786 24.4944 41.4652C24.6491 41.8517 24.9149 42.1837 25.2583 42.4191C25.6017 42.6546 26.0071 42.783 26.4235 42.788C26.9782 42.7929 27.5125 42.5794 27.9111 42.1936C28.3097 41.8078 28.5406 41.2807 28.5538 40.7261V40.7081Z" fill="url(#paint5_linear_577_18556)"/>
<path d="M47.0781 40.8773C47.0781 40.2356 47.2684 39.6084 47.6249 39.0749C47.9814 38.5414 48.488 38.1256 49.0808 37.88C49.6736 37.6345 50.3259 37.5702 50.9553 37.6954C51.5846 37.8206 52.1626 38.1296 52.6164 38.5833C53.0701 39.037 53.379 39.615 53.5042 40.2444C53.6294 40.8737 53.5652 41.526 53.3196 42.1188C53.0741 42.7116 52.6582 43.2183 52.1247 43.5747C51.5912 43.9312 50.964 44.1215 50.3223 44.1215C49.4619 44.1215 48.6367 43.7797 48.0283 43.1713C47.4199 42.5629 47.0781 41.7377 47.0781 40.8773ZM50.2791 42.9752C50.557 42.9811 50.8333 42.9322 51.0923 42.8314C51.3512 42.7305 51.5878 42.5796 51.7885 42.3873C51.9892 42.195 52.15 41.9651 52.2618 41.7106C52.3736 41.4562 52.4342 41.1822 52.4401 40.9043C52.446 40.6264 52.3971 40.3501 52.2963 40.0911C52.1954 39.8322 52.0445 39.5956 51.8522 39.3949C51.6599 39.1942 51.43 39.0334 51.1755 38.9216C50.9211 38.8098 50.6471 38.7492 50.3692 38.7433C50.0913 38.7374 49.815 38.7863 49.556 38.8871C49.297 38.988 49.0605 39.1389 48.8598 39.3312C48.6591 39.5235 48.4983 39.7534 48.3865 40.0079C48.2747 40.2623 48.2141 40.5363 48.2082 40.8142C48.2023 41.0921 48.2511 41.3684 48.352 41.6274C48.4529 41.8863 48.6038 42.1229 48.7961 42.3236C48.9884 42.5243 49.2183 42.6851 49.4728 42.7969C49.7272 42.9087 50.0012 42.9693 50.2791 42.9752Z" fill="url(#paint6_linear_577_18556)"/>
<path d="M38.3585 44.3452C40.3469 44.3468 42.2565 45.1225 43.6827 46.508C43.8701 46.6883 44.0215 46.9154 43.8773 47.1569C43.762 47.3315 43.5882 47.4593 43.3871 47.5173C43.2984 47.519 43.2103 47.5022 43.1284 47.4681C43.0465 47.434 42.9725 47.3832 42.9113 47.3191C41.705 46.1484 40.0915 45.4915 38.4105 45.4868C36.7295 45.482 35.1123 46.1299 33.8995 47.2938C33.5787 47.6039 33.2399 47.6147 33.002 47.3479C32.7641 47.0812 32.8109 46.7784 33.1245 46.4792C34.5282 45.1188 36.4038 44.3541 38.3585 44.3452Z" fill="url(#paint7_linear_577_18556)"/>
<path d="M38.384 48.3752C37.505 48.3708 36.6558 48.6933 36.0013 49.28C35.8881 49.3954 35.755 49.4894 35.6084 49.5575C35.4889 49.612 35.353 49.6184 35.2288 49.5755C35.1047 49.5325 35.0018 49.4435 34.9415 49.3268C34.8623 49.2174 34.8278 49.0818 34.8452 48.9478C34.8627 48.8138 34.9306 48.6915 35.0352 48.6059C35.698 47.9231 36.5575 47.4644 37.4936 47.2938C38.2361 47.1441 39.0039 47.1782 39.7301 47.393C40.4564 47.6079 41.1192 47.9971 41.6607 48.5266C42.0211 48.851 42.0211 49.2187 41.6931 49.471C41.4516 49.6585 41.1776 49.6188 40.8748 49.3413C40.201 48.7089 39.308 48.3626 38.384 48.3752Z" fill="url(#paint8_linear_577_18556)"/>
<path d="M38.4593 50.0836C38.9326 50.0866 39.3858 50.2756 39.7209 50.6099C39.7788 50.6559 39.8266 50.7132 39.8614 50.7784C39.8963 50.8435 39.9174 50.9151 39.9235 50.9888C39.9295 51.0624 39.9205 51.1365 39.8968 51.2065C39.8731 51.2765 39.8354 51.3409 39.7858 51.3957C39.7403 51.4539 39.6835 51.5022 39.6187 51.5378C39.554 51.5733 39.4827 51.5952 39.4092 51.6023C39.3357 51.6094 39.2615 51.6015 39.1911 51.5789C39.1208 51.5564 39.0558 51.5199 39 51.4714C38.5278 51.1434 38.3079 51.1434 37.8429 51.4714C37.7277 51.567 37.5792 51.613 37.4302 51.5991C37.2811 51.5852 37.1437 51.5127 37.0481 51.3975C36.9525 51.2823 36.9065 51.1339 36.9204 50.9848C36.9343 50.8358 37.0068 50.6983 37.122 50.6027C37.2987 50.431 37.5082 50.2965 37.7379 50.2073C37.9676 50.1182 38.213 50.0761 38.4593 50.0836Z" fill="url(#paint9_linear_577_18556)"/>
<path d="M38.2216 41.2089C37.8287 41.2089 37.4358 41.2089 37.0465 41.2089C36.951 41.2179 36.8547 41.2023 36.7669 41.1636C36.6791 41.1249 36.6026 41.0644 36.5448 40.9878C36.487 40.9112 36.4497 40.821 36.4366 40.726C36.4235 40.6309 36.4349 40.5341 36.4698 40.4447C36.5743 39.9797 36.6932 39.5147 36.7798 39.046C36.8014 38.9093 36.7719 38.7694 36.6969 38.6531C36.4239 38.2736 36.2996 37.8072 36.3474 37.3422C36.3953 36.8772 36.6119 36.4459 36.9564 36.1299C37.2853 35.7963 37.7281 35.5994 38.1961 35.5787C38.6641 35.558 39.1226 35.715 39.4797 36.0181C39.8517 36.3093 40.1051 36.7259 40.1926 37.1902C40.2802 37.6544 40.1959 38.1347 39.9555 38.5414C39.857 38.7425 39.8182 38.9677 39.8437 39.1902C39.8798 39.63 39.9915 40.059 40.0384 40.4987C40.0961 41.007 39.8906 41.2197 39.3751 41.2377C38.9966 41.2377 38.6182 41.2377 38.2361 41.2377L38.2216 41.2089ZM38.7443 40.059C38.7552 40.0322 38.7637 40.0044 38.7695 39.9761C38.7155 39.6156 38.6758 39.2551 38.5965 38.9271C38.5522 38.7884 38.5493 38.6398 38.5884 38.4995C38.6275 38.3592 38.7067 38.2334 38.8164 38.1377C38.9011 38.065 38.9685 37.9743 39.0137 37.8723C39.0589 37.7702 39.0807 37.6593 39.0776 37.5478C39.0745 37.4362 39.0465 37.3267 38.9957 37.2274C38.9449 37.128 38.8726 37.0412 38.784 36.9734C38.7121 36.9003 38.6254 36.8434 38.5298 36.8065C38.4341 36.7696 38.3317 36.7535 38.2294 36.7593C38.1271 36.7651 38.0271 36.7927 37.9363 36.8402C37.8454 36.8876 37.7658 36.9539 37.7026 37.0346C37.6236 37.109 37.5623 37.2002 37.5235 37.3014C37.4846 37.4027 37.4691 37.5115 37.4781 37.6196C37.4871 37.7277 37.5204 37.8324 37.5755 37.9258C37.6306 38.0193 37.7061 38.0991 37.7963 38.1593C37.9054 38.2481 37.9842 38.3688 38.0216 38.5044C38.0591 38.6401 38.0534 38.784 38.0054 38.9163C37.9044 39.2767 37.8143 39.6625 37.7134 40.059H38.7443Z" fill="url(#paint10_linear_577_18556)"/>
<path d="M26.4305 51.778C26.7116 51.778 26.9928 51.778 27.274 51.778C27.3504 51.7698 27.4278 51.778 27.5009 51.8019C27.574 51.8258 27.6412 51.8649 27.6981 51.9167C27.7549 51.9684 27.8002 52.0317 27.8309 52.1022C27.8615 52.1727 27.8769 52.249 27.8759 52.3259C27.8759 52.6864 27.6777 52.899 27.274 52.9098C26.7116 52.9098 26.1493 52.9098 25.5906 52.9098C25.1796 52.9098 24.9706 52.6972 24.9742 52.3439C24.9778 51.9906 25.1868 51.7852 25.5906 51.778C25.8717 51.7744 26.1529 51.778 26.4305 51.778Z" fill="url(#paint11_linear_577_18556)"/>
<path d="M50.33 52.971C50.0236 52.971 49.7172 52.971 49.4144 52.971C49.3364 52.9803 49.2573 52.9718 49.1831 52.9461C49.1089 52.9204 49.0415 52.8782 48.986 52.8226C48.9305 52.7671 48.8883 52.6997 48.8626 52.6255C48.8369 52.5513 48.8283 52.4723 48.8376 52.3943C48.8309 52.3203 48.8406 52.2458 48.866 52.176C48.8914 52.1063 48.9319 52.043 48.9845 51.9906C49.0372 51.9383 49.1008 51.8982 49.1707 51.8733C49.2407 51.8484 49.3152 51.8392 49.3891 51.8464C49.9875 51.8464 50.5883 51.8464 51.1915 51.8464C51.2653 51.8396 51.3397 51.8492 51.4093 51.8746C51.4789 51.9 51.5421 51.9406 51.5941 51.9933C51.6462 52.0461 51.6859 52.1097 51.7104 52.1797C51.7349 52.2497 51.7436 52.3242 51.7358 52.3979C51.7436 52.4712 51.7355 52.5454 51.7122 52.6153C51.6889 52.6853 51.6508 52.7494 51.6006 52.8034C51.5504 52.8574 51.4891 52.8999 51.421 52.9282C51.353 52.9565 51.2796 52.9699 51.2059 52.9674H50.33V52.971Z" fill="url(#paint12_linear_577_18556)"/>
</g>
<defs>
<linearGradient id="paint0_linear_577_18556" x1="58.2945" y1="28.4822" x2="-23.8789" y2="53.1378" gradientUnits="userSpaceOnUse">
<stop stop-color="#ED434F"/>
<stop offset="1" stop-color="#B4247D"/>
</linearGradient>
<linearGradient id="paint1_linear_577_18556" x1="53.9556" y1="23.4197" x2="-28.2178" y2="48.0753" gradientUnits="userSpaceOnUse">
<stop stop-color="#ED434F"/>
<stop offset="1" stop-color="#B4247D"/>
</linearGradient>
<linearGradient id="paint2_linear_577_18556" x1="38.3162" y1="20.0034" x2="38.3162" y2="43.2239" gradientUnits="userSpaceOnUse">
<stop stop-color="#ED434F"/>
<stop offset="1" stop-color="#B4247D"/>
</linearGradient>
<linearGradient id="paint3_linear_577_18556" x1="26.367" y1="44.8345" x2="26.367" y2="56.0003" gradientUnits="userSpaceOnUse">
<stop stop-color="#ED434F"/>
<stop offset="1" stop-color="#B4247D"/>
</linearGradient>
<linearGradient id="paint4_linear_577_18556" x1="50.333" y1="44.9556" x2="50.333" y2="56.0011" gradientUnits="userSpaceOnUse">
<stop stop-color="#ED434F"/>
<stop offset="1" stop-color="#B4247D"/>
</linearGradient>
<linearGradient id="paint5_linear_577_18556" x1="26.4595" y1="37.4421" x2="26.4595" y2="43.9559" gradientUnits="userSpaceOnUse">
<stop stop-color="#ED434F"/>
<stop offset="1" stop-color="#B4247D"/>
</linearGradient>
<linearGradient id="paint6_linear_577_18556" x1="50.3223" y1="37.6331" x2="50.3223" y2="44.1215" gradientUnits="userSpaceOnUse">
<stop stop-color="#ED434F"/>
<stop offset="1" stop-color="#B4247D"/>
</linearGradient>
<linearGradient id="paint7_linear_577_18556" x1="38.3931" y1="44.3452" x2="38.3931" y2="47.5378" gradientUnits="userSpaceOnUse">
<stop stop-color="#ED434F"/>
<stop offset="1" stop-color="#B4247D"/>
</linearGradient>
<linearGradient id="paint8_linear_577_18556" x1="38.388" y1="47.2021" x2="38.388" y2="49.6036" gradientUnits="userSpaceOnUse">
<stop stop-color="#ED434F"/>
<stop offset="1" stop-color="#B4247D"/>
</linearGradient>
<linearGradient id="paint9_linear_577_18556" x1="38.4216" y1="50.0828" x2="38.4216" y2="51.6048" gradientUnits="userSpaceOnUse">
<stop stop-color="#ED434F"/>
<stop offset="1" stop-color="#B4247D"/>
</linearGradient>
<linearGradient id="paint10_linear_577_18556" x1="38.2819" y1="35.5769" x2="38.2819" y2="41.2377" gradientUnits="userSpaceOnUse">
<stop stop-color="#ED434F"/>
<stop offset="1" stop-color="#B4247D"/>
</linearGradient>
<linearGradient id="paint11_linear_577_18556" x1="26.4251" y1="51.7749" x2="26.4251" y2="52.9098" gradientUnits="userSpaceOnUse">
<stop stop-color="#ED434F"/>
<stop offset="1" stop-color="#B4247D"/>
</linearGradient>
<linearGradient id="paint12_linear_577_18556" x1="50.2863" y1="51.844" x2="50.2863" y2="52.9747" gradientUnits="userSpaceOnUse">
<stop stop-color="#ED434F"/>
<stop offset="1" stop-color="#B4247D"/>
</linearGradient>
<clipPath id="clip0_577_18556">
<rect width="36.6524" height="36" fill="white" transform="translate(20 19.999)"/>
</clipPath>
</defs>
</svg>
