<svg width="81" height="81" viewBox="0 0 81 81" fill="none" xmlns="http://www.w3.org/2000/svg">
<rect x="4.33887" y="5.06226" width="75.9375" height="75.9375" rx="37.9688" fill="url(#paint0_linear_577_18541)" fill-opacity="0.1"/>
<rect x="0.310811" y="0.310567" width="75.3159" height="75.3159" rx="37.6579" stroke="url(#paint1_linear_577_18541)" stroke-width="0.621622"/>
<g clip-path="url(#clip0_577_18541)">
<path d="M31.1593 40.7379C29.7325 40.7379 28.3238 40.6612 26.9298 40.7561C26.1543 40.8424 25.4364 41.2068 24.909 41.7818C24.3816 42.3568 24.0805 43.1035 24.0615 43.8835C24.0104 45.9454 24.0615 48.0072 24.0615 50.0034C24.587 50.2698 25.0833 50.507 25.565 50.777C25.7522 50.876 25.9107 51.0219 26.0248 51.2003C26.2875 51.6638 26.6817 51.6966 27.1524 51.693C29.488 51.693 31.8235 51.693 34.159 51.693C34.3314 51.6766 34.5049 51.7111 34.6579 51.7921C34.811 51.8732 34.9369 51.9973 35.0203 52.1491C35.2027 52.4593 35.4144 52.7513 35.6187 53.0469C35.7055 53.162 35.7524 53.3023 35.7524 53.4465C35.7524 53.5906 35.7055 53.7309 35.6187 53.8461C35.3487 54.2475 35.1042 54.6671 34.8013 55.043C34.6575 55.2033 34.4604 55.3057 34.2466 55.3313C33.8396 55.3844 33.4275 55.3844 33.0205 55.3313C32.7311 55.239 32.4523 55.1167 32.1884 54.9664C32.0789 54.9226 31.9001 54.8642 31.8235 54.9153C31.0717 55.532 30.3638 55.4955 29.6339 54.7876C28.8493 55.6415 27.8385 55.2802 26.9116 55.3313C26.763 55.3233 26.6148 55.3524 26.4803 55.4161C26.3458 55.4799 26.2294 55.5761 26.1416 55.6962C25.6929 56.2759 25.0692 56.6955 24.3632 56.8927C23.6572 57.0899 22.9064 57.0543 22.2222 56.791C21.5416 56.5334 20.9593 56.0679 20.5582 55.4606C20.1571 54.8533 19.9576 54.135 19.9879 53.4079C20.0182 52.6807 20.2768 51.9815 20.727 51.4097C21.1772 50.8379 21.7962 50.4224 22.4959 50.2223L22.8609 50.1128V49.6348C22.8609 47.8321 22.8609 46.033 22.8609 44.2302C22.8609 41.4896 24.8205 39.5518 27.5648 39.5409C28.7946 39.5409 30.0244 39.5409 31.2542 39.5409C31.3609 39.5478 31.467 39.5212 31.5579 39.465C31.6488 39.4087 31.72 39.3256 31.7615 39.2271C32.1264 38.6286 32.5278 38.0556 32.9292 37.4499H27.5429C26.93 37.4689 26.3196 37.3627 25.7491 37.1379C25.1786 36.9131 24.66 36.5743 24.2248 36.1422C23.7897 35.7102 23.4472 35.1939 23.2184 34.625C22.9895 34.0561 22.879 33.4466 22.8937 32.8335C22.8937 31.0089 22.8937 29.1843 22.8937 27.3596V26.8998C22.1627 26.7566 21.4921 26.3953 20.9705 25.8634C20.6666 25.5209 20.4337 25.1214 20.2855 24.6882C20.1373 24.2549 20.0766 23.7965 20.1071 23.3396C20.1376 22.8827 20.2585 22.4364 20.463 22.0266C20.6674 21.6169 20.9513 21.2518 21.298 20.9527C21.6447 20.6536 22.0475 20.4264 22.4828 20.2843C22.9181 20.1422 23.3773 20.088 23.8338 20.1249C24.2902 20.1618 24.7347 20.289 25.1416 20.4992C25.5484 20.7094 25.9094 20.9983 26.2036 21.3493C26.2781 21.4587 26.38 21.5466 26.4991 21.6042C26.6182 21.6619 26.7504 21.6872 26.8824 21.6777C29.2763 21.6777 31.6739 21.6777 34.0714 21.6777C34.2751 21.6591 34.4796 21.7016 34.659 21.7997C34.8384 21.8979 34.9845 22.0472 35.0786 22.2287C35.2418 22.5069 35.4196 22.7761 35.6114 23.0352C35.7053 23.1529 35.7564 23.2989 35.7564 23.4494C35.7564 23.5999 35.7053 23.746 35.6114 23.8636C35.3669 24.2285 35.1261 24.5935 34.8816 24.9584C34.8185 25.0664 34.726 25.1543 34.6148 25.2118C34.5037 25.2693 34.3786 25.294 34.2539 25.2832C33.9562 25.2631 33.6575 25.2631 33.3598 25.2832C33.1504 25.3105 32.9375 25.292 32.7359 25.229C32.5343 25.166 32.3487 25.0599 32.1921 24.9183C32.0169 24.7504 31.8673 24.7978 31.7031 24.9183C31.5519 25.068 31.3646 25.1759 31.1593 25.2316C30.9539 25.2872 30.7377 25.2887 30.5317 25.2357C30.237 25.1027 29.9579 24.9375 29.6996 24.7431C29.6844 24.7372 29.6674 24.7372 29.6522 24.7431C29.4475 24.9513 29.1959 25.1074 28.9184 25.1982C28.6409 25.289 28.3456 25.3119 28.0574 25.2649C27.5992 25.2412 27.1399 25.2412 26.6817 25.2649C26.5632 25.2625 26.4482 25.3056 26.3605 25.3854C25.8185 26.1788 24.9838 26.7248 24.0396 26.9035V29.5236C24.0396 30.6184 24.0396 31.7314 24.0396 32.8372C24.0396 34.7786 25.3752 36.2274 27.3239 36.2894C29.2726 36.3514 31.2725 36.3076 33.2467 36.3076C33.3084 36.3006 33.3695 36.2883 33.4292 36.2711V35.8697C33.4292 34.4794 33.4292 33.0853 33.4292 31.695C33.4535 30.4875 33.9079 29.3284 34.7106 28.426C35.5132 27.5237 36.6115 26.9373 37.8079 26.7723C39.0042 26.6074 40.2202 26.8747 41.2371 27.5262C42.254 28.1777 43.005 29.1707 43.3552 30.3265C43.4923 30.8408 43.5622 31.3707 43.5632 31.903C43.5924 33.2204 43.5632 34.5377 43.5632 35.8515V36.2784C43.7055 36.2784 43.815 36.304 43.9281 36.304C45.7528 36.304 47.5555 36.304 49.3692 36.304C51.1829 36.304 52.4237 35.3333 52.8251 33.7495C52.8974 33.473 52.9354 33.1887 52.9382 32.9029C52.9382 30.9651 52.9382 29.0273 52.9382 27.0932C52.9382 27.0312 52.9382 26.9691 52.9382 26.8925C52.0009 26.709 51.1728 26.1653 50.6319 25.3781C50.5898 25.3374 50.5401 25.3055 50.4856 25.2842C50.4311 25.2629 50.3729 25.2526 50.3144 25.254C49.8911 25.254 49.4714 25.2357 49.0481 25.254C48.4167 25.2759 47.7891 25.2978 47.3877 24.6555L46.9278 25.0204C46.7514 25.1789 46.5256 25.2713 46.2887 25.2819C46.0518 25.2925 45.8186 25.2208 45.6287 25.0788C45.2638 24.7978 44.9645 24.7139 44.5996 25.0788C44.4405 25.1946 44.249 25.2572 44.0522 25.2576C43.6188 25.296 43.1828 25.296 42.7494 25.2576C42.5131 25.2226 42.2964 25.1065 42.1363 24.9292C41.8566 24.6127 41.6221 24.259 41.4393 23.8782C41.3899 23.7629 41.3645 23.6387 41.3645 23.5133C41.3645 23.3878 41.3899 23.2637 41.4393 23.1484C41.6584 22.7573 41.9022 22.3807 42.1692 22.0207C42.248 21.9169 42.3532 21.836 42.4739 21.7866C42.5945 21.7372 42.7262 21.721 42.8553 21.7397C45.2747 21.7397 47.6978 21.7397 50.121 21.7397C50.2458 21.7506 50.3712 21.7267 50.4833 21.6706C50.5953 21.6146 50.6897 21.5286 50.7559 21.4222C51.0825 20.9788 51.5103 20.6198 52.0038 20.3752C52.4972 20.1306 53.042 20.0074 53.5927 20.016C54.1433 20.0247 54.684 20.1647 55.1695 20.4247C55.6551 20.6846 56.0715 21.0567 56.3841 21.5102C56.6966 21.9637 56.8963 22.4853 56.9664 23.0315C57.0365 23.5778 56.9751 24.1329 56.7872 24.6506C56.5993 25.1683 56.2903 25.6336 55.8862 26.0077C55.482 26.3818 54.9943 26.6539 54.4636 26.8013L54.0987 26.9035V27.3414C54.0987 29.1295 54.0987 30.9177 54.0987 32.7058C54.0987 35.5194 52.1573 37.4499 49.3546 37.4499H44.0084C44.3889 37.9337 44.7352 38.4434 45.0448 38.9753C45.1225 39.1757 45.2669 39.3432 45.4537 39.4496C45.6405 39.556 45.8583 39.5947 46.0703 39.5591C47.249 39.519 48.4313 39.5372 49.6101 39.5591C50.7642 39.56 51.8734 40.0064 52.7063 40.8054C53.5392 41.6043 54.0315 42.6939 54.0804 43.847C54.1461 45.7593 54.0804 47.6715 54.1023 49.5837C54.1023 49.7443 54.1023 49.9048 54.1023 50.0837L54.4672 50.1968C55.1754 50.3951 55.802 50.8137 56.2564 51.3919C56.7107 51.9701 56.9692 52.678 56.9944 53.4129C57.0196 54.1479 56.8102 54.8718 56.3965 55.4798C55.9829 56.0878 55.3864 56.5483 54.6935 56.7947C54.0052 57.0433 53.2552 57.0648 52.5538 56.8559C51.8523 56.6471 51.2363 56.2189 50.7961 55.6342C50.7291 55.5255 50.6322 55.4385 50.517 55.3835C50.4018 55.3285 50.2731 55.3078 50.1465 55.324C49.8765 55.3459 49.6028 55.324 49.3291 55.324C48.6211 55.324 47.8949 55.4298 47.3767 54.7803L46.9388 55.0868C46.7348 55.242 46.4878 55.3303 46.2316 55.3394C45.9755 55.3486 45.7228 55.2782 45.5083 55.1379C45.293 55.0138 45.0923 54.7474 44.7784 55.0102C44.0924 55.6014 43.2676 55.3751 42.494 55.3386C42.129 55.3386 41.162 53.8789 41.2605 53.514C41.3516 53.2592 41.4821 53.0203 41.6473 52.806C42.4027 51.6893 42.0926 51.8426 43.472 51.839C45.6956 51.839 47.918 51.839 50.1392 51.839C50.2475 51.8503 50.3567 51.8302 50.4538 51.781C50.5509 51.7318 50.6317 51.6556 50.6866 51.5616C50.9486 51.1785 51.2848 50.8519 51.6753 50.6012C52.0658 50.3504 52.5027 50.1806 52.9601 50.1019V49.0254C52.9601 47.4343 52.9601 45.8468 52.9601 44.2558C52.9601 42.2085 51.6281 40.7889 49.5882 40.7087C48.3474 40.6612 47.1067 40.7087 45.8294 40.7087C46.4826 43.6281 45.8294 46.1826 43.6398 48.2663C42.8787 49.0063 41.9638 49.5694 40.9603 49.9156C39.9568 50.2619 38.8894 50.3828 37.8338 50.2698C36.7305 50.1696 35.6622 49.8299 34.7036 49.2744C33.745 48.7189 32.9191 47.9609 32.2836 47.0534C31.6482 46.1458 31.2183 45.1105 31.0241 44.0198C30.8299 42.929 30.8761 41.809 31.1593 40.7379ZM38.4871 36.3076C37.2173 36.3084 35.9763 36.6856 34.9211 37.3917C33.8658 38.0978 33.0436 39.101 32.5585 40.2745C32.0735 41.4479 31.9473 42.7388 32.196 43.9839C32.4447 45.2291 33.057 46.3725 33.9556 47.2696C34.8542 48.1666 35.9987 48.777 37.2442 49.0236C38.4898 49.2702 39.7805 49.1418 40.9531 48.6547C42.1257 48.1676 43.1275 47.3438 43.8318 46.2873C44.5361 45.2308 44.9112 43.9891 44.9098 42.7194C44.9059 41.0182 44.2277 39.3879 43.0237 38.186C41.8197 36.9841 40.1883 36.3086 38.4871 36.3076ZM34.5604 36.2383C34.8064 36.0977 35.0626 35.9757 35.3268 35.8734C35.626 35.7785 35.6917 35.5997 35.6698 35.3187C35.6552 34.1777 35.6552 33.0342 35.6698 31.8884C35.67 31.5911 35.7105 31.2952 35.7903 31.0089C35.9798 30.3588 36.3967 29.7984 36.9648 29.4299C37.533 29.0614 38.2146 28.9093 38.8855 29.0013C39.5564 29.0933 40.172 29.4233 40.62 29.9311C41.068 30.4389 41.3186 31.0908 41.3262 31.7679C41.3262 32.9868 41.3262 34.202 41.3262 35.4172C41.3262 35.5267 41.3517 35.6946 41.4247 35.7384C41.7313 35.9172 42.0597 36.0595 42.41 36.2274C42.41 36.1215 42.41 36.0522 42.41 35.9829C42.41 34.4684 42.483 32.9467 42.3626 31.4395C42.278 30.444 41.8143 29.5189 41.0673 28.8554C40.3203 28.1919 39.347 27.8406 38.3484 27.8742C37.3373 27.9233 36.383 28.356 35.6799 29.0842C34.9768 29.8124 34.5778 30.7813 34.5641 31.7935C34.5422 32.7241 34.5641 33.6546 34.5641 34.5888L34.5604 36.2383ZM23.463 25.7612C23.7642 25.7651 24.0631 25.7092 24.3426 25.5967C24.622 25.4842 24.8763 25.3174 25.0908 25.106C25.3053 24.8945 25.4757 24.6426 25.5922 24.3648C25.7087 24.0871 25.7689 23.7889 25.7693 23.4877C25.7718 23.1829 25.7141 22.8807 25.5997 22.5982C25.4853 22.3156 25.3163 22.0584 25.1025 21.8412C24.8887 21.624 24.6341 21.451 24.3535 21.3322C24.0728 21.2133 23.7714 21.1509 23.4667 21.1486C22.8513 21.1562 22.2636 21.4053 21.8301 21.8422C21.3967 22.279 21.1522 22.8687 21.1494 23.4841C21.1561 24.0923 21.4032 24.6731 21.8367 25.0997C22.2701 25.5263 22.8548 25.7642 23.463 25.7612ZM53.5184 25.7612C53.8228 25.7646 54.1248 25.7075 54.4069 25.5933C54.6891 25.479 54.9457 25.3099 55.1619 25.0957C55.3782 24.8815 55.5497 24.6264 55.6667 24.3454C55.7836 24.0644 55.8435 23.7629 55.843 23.4585C55.8345 22.8495 55.5888 22.2678 55.1581 21.8371C54.7274 21.4064 54.1457 21.1607 53.5367 21.1522C53.2321 21.1522 52.9305 21.2124 52.6493 21.3294C52.3681 21.4464 52.1128 21.6179 51.8981 21.8339C51.6834 22.05 51.5135 22.3064 51.3983 22.5883C51.2831 22.8703 51.2248 23.1722 51.2267 23.4768C51.2252 23.7778 51.2836 24.0761 51.3983 24.3544C51.5131 24.6327 51.6819 24.8855 51.8951 25.098C52.1083 25.3105 52.3616 25.4786 52.6403 25.5924C52.9189 25.7063 53.2174 25.7637 53.5184 25.7612ZM23.4849 51.2368C23.1807 51.2325 22.8786 51.2885 22.5961 51.4016C22.3137 51.5147 22.0564 51.6826 21.8393 51.8957C21.6221 52.1088 21.4493 52.3628 21.3309 52.6431C21.2125 52.9234 21.1508 53.2243 21.1494 53.5286C21.155 54.1376 21.3979 54.7205 21.8266 55.1533C22.2552 55.586 22.8358 55.8345 23.4448 55.8459C24.0597 55.8468 24.6499 55.6037 25.0857 55.1699C25.5215 54.7362 25.7674 54.1471 25.7693 53.5322C25.7723 53.2309 25.7152 52.932 25.6016 52.6529C25.4879 52.3738 25.32 52.1201 25.1074 51.9065C24.8948 51.693 24.6419 51.5238 24.3634 51.4088C24.0848 51.2938 23.7862 51.2354 23.4849 51.2368ZM53.5476 51.2368C53.2431 51.2299 52.9403 51.2844 52.6573 51.397C52.3743 51.5096 52.1168 51.678 51.9003 51.8922C51.6837 52.1064 51.5125 52.362 51.3967 52.6437C51.281 52.9255 51.2232 53.2276 51.2267 53.5322C51.2238 53.9892 51.3566 54.4368 51.6081 54.8184C51.8597 55.1999 52.2188 55.4983 52.64 55.6757C53.0612 55.8531 53.5256 55.9015 53.9743 55.8149C54.4231 55.7283 54.836 55.5106 55.161 55.1892C55.4859 54.8678 55.7082 54.4573 55.7998 54.0095C55.8914 53.5618 55.848 53.0969 55.6753 52.6738C55.5026 52.2507 55.2082 51.8883 54.8295 51.6325C54.4508 51.3767 54.0047 51.239 53.5476 51.2368ZM36.8485 35.2202H40.1329C40.1329 34.0013 40.173 32.7496 40.1329 31.5015C40.1 30.6805 39.403 30.1294 38.5199 30.1221C37.6368 30.1148 36.9033 30.6659 36.8668 31.4979C36.8084 32.7496 36.8485 34.0013 36.8485 35.2202ZM26.9079 54.1562C27.7217 54.1125 28.5683 54.3679 29.2654 53.6855C29.3216 53.6343 29.3878 53.5951 29.4597 53.5704C29.5317 53.5456 29.6079 53.5359 29.6838 53.5417C29.7597 53.5475 29.8336 53.5688 29.9009 53.6042C29.9683 53.6395 30.0277 53.6883 30.0755 53.7475C30.528 54.2037 30.9623 54.1708 31.4148 53.7694L31.4476 53.7512C31.5737 53.6373 31.7375 53.5743 31.9074 53.5743C32.0773 53.5743 32.2412 53.6373 32.3672 53.7512C32.7434 54.0399 33.2172 54.1707 33.6883 54.1161C33.9985 54.0833 34.4181 53.7512 34.4181 53.4738C34.3775 53.3049 34.2855 53.1528 34.1548 53.0384C34.024 52.9241 33.8611 52.8531 33.6883 52.8352H27.251C27.1342 52.8352 27.0137 52.8352 26.9079 52.8352V54.1562ZM26.9079 22.8382V24.1081C27.1451 24.1081 27.3568 24.1081 27.5648 24.1081C27.8807 24.1676 28.2064 24.1484 28.5131 24.0523C28.8198 23.9562 29.0982 23.7861 29.3237 23.5571C29.4179 23.4582 29.547 23.4001 29.6835 23.3954C29.8199 23.3906 29.9528 23.4395 30.0536 23.5315C30.3127 23.7213 30.5791 23.8965 30.8382 24.0862L31.0207 23.995C31.922 23.4841 31.8928 23.2104 32.9949 23.995C33.2613 24.1847 33.7649 24.1264 34.1298 24.0461C34.2722 24.0169 34.4546 23.5899 34.4072 23.3965C34.3889 23.2362 34.3106 23.0888 34.1881 22.9839C34.0655 22.879 33.9078 22.8243 33.7467 22.8309C31.6009 22.8564 29.4515 22.8309 27.302 22.8309L26.9079 22.8382ZM50.0808 53.0177H43.7895C43.5468 52.9814 43.2996 52.9888 43.0596 53.0396C42.848 53.1235 42.5414 53.4045 42.5633 53.5322C42.5908 53.6634 42.6492 53.7861 42.7336 53.8902C42.818 53.9942 42.926 54.0767 43.0487 54.1307C43.2866 54.1961 43.5364 54.2067 43.779 54.1619C44.0217 54.117 44.2511 54.0178 44.45 53.8716C44.5244 53.7956 44.6133 53.7352 44.7113 53.6939C44.8094 53.6527 44.9147 53.6315 45.0211 53.6315C45.1275 53.6315 45.2328 53.6527 45.3309 53.6939C45.4289 53.7352 45.5178 53.7956 45.5922 53.8716C46.0155 54.2365 46.3841 54.211 46.8111 53.8461C47.238 53.4811 47.3877 53.5432 47.8402 53.8461C48.0336 53.9774 48.2306 54.1818 48.4386 54.211C48.9897 54.2621 49.5334 54.211 50.0808 54.211V53.0177ZM50.0808 22.9184C49.9421 22.9184 49.8071 22.9184 49.6757 22.9184C47.5409 22.9184 45.4024 22.9184 43.2676 22.9184C43.1202 22.9052 42.9727 22.9439 42.8508 23.0279C42.7288 23.1118 42.6401 23.2358 42.5998 23.3783C42.5524 23.5133 42.6728 23.7213 42.7312 23.8892C42.7896 24.057 42.9793 24.141 43.2019 24.1592C43.4349 24.1887 43.6714 24.1678 43.8955 24.0979C44.1197 24.028 44.3262 23.9108 44.5011 23.7541C44.6325 23.6291 44.8049 23.5561 44.9862 23.5487C45.1674 23.5414 45.3452 23.6001 45.4864 23.714C46.1797 24.1373 46.1834 24.1264 46.8257 23.6483C47.2125 23.3637 47.3585 23.3637 47.7526 23.6483C47.9715 23.8089 48.1795 24.0789 48.4167 24.1081C48.9705 24.1482 49.5262 24.1555 50.0808 24.13V22.9184Z" fill="url(#paint2_linear_577_18541)"/>
<path d="M36.0567 39.851C35.9237 39.848 35.7909 39.8382 35.6589 39.8218C35.5872 39.8173 35.5172 39.7983 35.453 39.766C35.3888 39.7337 35.3318 39.6888 35.2854 39.6339C35.2391 39.579 35.2043 39.5153 35.1832 39.4466C35.1621 39.378 35.1551 39.3057 35.1626 39.2343C35.1571 39.1651 35.1658 39.0955 35.1881 39.0298C35.2104 38.9641 35.2458 38.9036 35.2923 38.8521C35.3387 38.8005 35.3952 38.7589 35.4582 38.7299C35.5212 38.7009 35.5895 38.685 35.6589 38.6833C35.9764 38.6577 36.2975 38.6833 36.615 38.6833C36.7427 38.176 36.4216 37.4243 37.2354 37.4243C38.0492 37.4243 37.7426 38.1541 37.8521 38.6468H38.7389C38.7389 38.4351 38.7389 38.2307 38.7389 38.0227C38.7308 37.9451 38.7389 37.8666 38.7628 37.7923C38.7867 37.718 38.8258 37.6494 38.8777 37.5911C38.9295 37.5327 38.9929 37.4858 39.0639 37.4533C39.1349 37.4208 39.2119 37.4035 39.2899 37.4024C39.3681 37.3922 39.4475 37.3997 39.5224 37.4244C39.5972 37.4491 39.6656 37.4903 39.7223 37.5449C39.7791 37.5996 39.8229 37.6663 39.8503 37.7402C39.8778 37.8141 39.8883 37.8932 39.8811 37.9716C39.8337 38.5081 40.0344 38.7307 40.5307 38.9533C40.8293 39.0988 41.092 39.3084 41.3002 39.5672C41.5084 39.826 41.6568 40.1276 41.7349 40.4505C41.813 40.7733 41.8189 41.1094 41.752 41.4348C41.6851 41.7601 41.5472 42.0667 41.3481 42.3325C41.2605 42.453 41.1657 42.5661 41.1146 42.6318C41.3656 43.0169 41.5795 43.425 41.7532 43.8506C41.8371 44.1336 41.8642 44.4304 41.8331 44.7239C41.8019 45.0174 41.7131 45.3018 41.5717 45.5609C41.4303 45.8199 41.2391 46.0485 41.0091 46.2335C40.7791 46.4184 40.5148 46.5561 40.2314 46.6387C39.9395 46.7299 39.8665 46.854 39.8884 47.1313C39.9006 47.2527 39.9006 47.3749 39.8884 47.4962C39.893 47.5753 39.8811 47.6544 39.8534 47.7286C39.8257 47.8028 39.7828 47.8703 39.7275 47.927C39.6723 47.9837 39.6057 48.0282 39.5323 48.0577C39.4588 48.0872 39.38 48.1011 39.3009 48.0984C39.2227 48.1001 39.1449 48.0855 39.0727 48.0554C39.0005 48.0254 38.9353 47.9806 38.8813 47.9239C38.8274 47.8672 38.7859 47.7999 38.7595 47.7263C38.7331 47.6526 38.7223 47.5743 38.7279 47.4962C38.7279 47.2736 38.7279 47.051 38.7279 46.7992H37.8083C37.8083 47.0401 37.8083 47.2736 37.8083 47.5035C37.8083 47.6574 37.7472 47.805 37.6384 47.9138C37.5296 48.0227 37.382 48.0838 37.2281 48.0838C37.0742 48.0838 36.9266 48.0227 36.8178 47.9138C36.709 47.805 36.6479 47.6574 36.6479 47.5035C36.6479 47.2809 36.6479 47.0547 36.6479 46.7737H35.918C35.4655 46.7737 35.2429 46.5912 35.2283 46.2263C35.2137 45.8614 35.3998 45.668 35.8596 45.6132L36.0603 45.584L36.0567 39.851ZM37.2536 42.1318C38.0638 42.1318 38.8338 42.1574 39.6001 42.1318C39.8889 42.1096 40.1584 41.9786 40.3542 41.7651C40.55 41.5517 40.6575 41.2719 40.6548 40.9823C40.6488 40.69 40.5327 40.4107 40.3297 40.2003C40.1268 39.9899 39.8519 39.8639 39.56 39.8474C39.195 39.8474 38.863 39.8474 38.5163 39.8474H37.239L37.2536 42.1318ZM37.2536 45.5877C38.1112 45.5877 38.9286 45.6169 39.7424 45.5877C40.0239 45.5528 40.2809 45.4101 40.4593 45.1896C40.6376 44.969 40.7234 44.6879 40.6985 44.4053C40.6928 44.1188 40.5749 43.8459 40.3703 43.6453C40.1656 43.4447 39.8904 43.3324 39.6038 43.3324C39.1695 43.3324 38.7352 43.3324 38.301 43.3324H37.239L37.2536 45.5877Z" fill="url(#paint3_linear_577_18541)"/>
</g>
<defs>
<linearGradient id="paint0_linear_577_18541" x1="58.2945" y1="28.4822" x2="-23.8789" y2="53.1378" gradientUnits="userSpaceOnUse">
<stop stop-color="#ED434F"/>
<stop offset="1" stop-color="#B4247D"/>
</linearGradient>
<linearGradient id="paint1_linear_577_18541" x1="53.9556" y1="23.4197" x2="-28.2178" y2="48.0753" gradientUnits="userSpaceOnUse">
<stop stop-color="#ED434F"/>
<stop offset="1" stop-color="#B4247D"/>
</linearGradient>
<linearGradient id="paint2_linear_577_18541" x1="38.4907" y1="20.0156" x2="38.4907" y2="57.0184" gradientUnits="userSpaceOnUse">
<stop stop-color="#ED434F"/>
<stop offset="1" stop-color="#B4247D"/>
</linearGradient>
<linearGradient id="paint3_linear_577_18541" x1="38.5026" y1="37.3979" x2="38.5026" y2="48.0987" gradientUnits="userSpaceOnUse">
<stop stop-color="#ED434F"/>
<stop offset="1" stop-color="#B4247D"/>
</linearGradient>
<clipPath id="clip0_577_18541">
<rect width="36.9891" height="37" fill="white" transform="translate(20 19.999)"/>
</clipPath>
</defs>
</svg>
