<svg width="232" height="73" viewBox="0 0 332 73" fill="none" xmlns="http://www.w3.org/2000/svg">
<g clip-path="url(#clip0_577_19332)">
<path d="M75.7579 7.57983C76.945 7.24443 78.1913 7.40555 79.4079 7.36609C80.6641 7.28718 81.8511 7.77055 83.0941 7.85605C85.4617 8.4315 87.6451 9.80929 89.1314 11.7494C90.2363 13.3705 90.9794 15.304 90.7361 17.2967C87.8654 17.2836 84.9947 17.3197 82.1241 17.2737C82.0123 16.6358 82.0978 15.8762 81.5881 15.3895C80.9502 14.7056 80.2432 13.8605 79.2172 13.8933C78.3162 13.8605 77.3199 13.7289 76.5175 14.2353C75.3601 14.8075 74.8833 16.2774 75.1891 17.4842C75.8434 18.862 77.264 19.6183 78.6418 20.0918C80.1807 20.8152 81.8807 21.0947 83.4295 21.7984C84.6593 22.3804 86.001 22.7388 87.142 23.4984C88.944 24.6263 90.5388 26.3001 91.0649 28.4111C91.2392 29.7034 91.2326 31.0188 91.157 32.3209C91.1406 33.6691 90.4467 34.8693 89.8121 36.0137C88.3291 38.2563 85.9319 39.8412 83.3046 40.3969C80.9863 41.0776 78.5234 40.8474 76.146 40.6995C73.8277 40.1536 71.4338 39.3842 69.645 37.74C67.6852 36.0202 66.4915 33.3863 66.7184 30.7623C69.4938 30.7458 72.2691 30.7129 75.0444 30.7787C75.2022 32.3439 76.2775 33.9388 77.8855 34.2676C78.8654 34.3728 79.8782 34.3925 80.8482 34.192C82.0616 33.577 83.1434 32.2683 82.8409 30.828C82.5713 29.8646 81.8742 29.0491 80.9798 28.6051C79.8552 27.8916 78.5366 27.6384 77.2903 27.2142C76.2939 26.8722 75.314 26.4809 74.3045 26.1718C71.8054 25.4813 69.4148 24.0838 67.8956 21.9398C67.3728 21.0684 66.8335 20.1378 66.7974 19.0987C66.6888 17.5203 66.656 15.9156 66.9157 14.3504C67.4945 12.7326 68.3166 11.1147 69.7009 10.0362C70.9143 9.17137 72.2066 8.3756 73.6502 7.96456C74.3374 7.76727 75.0674 7.78371 75.7547 7.58312L75.7579 7.57983Z" fill="#010000"/>
<path d="M118.68 7.69809C120.153 7.28377 121.705 7.4153 123.215 7.46463C124.201 7.73427 125.227 7.76057 126.227 7.94143C129.837 8.99697 133.254 11.1968 135.174 14.5049C135.931 15.8563 136.739 17.29 136.809 18.8717L136.67 19.0164C133.836 19.0262 130.998 19.0821 128.167 18.9835C127.467 17.6419 126.368 16.514 125.109 15.6919C122.613 14.449 119.446 14.4062 117.076 15.9649C116.332 16.5107 115.688 17.1782 115.086 17.8721C114.09 19.0131 113.761 20.5389 113.35 21.9594C113.146 23.3142 113.228 24.692 113.287 26.0533C113.314 27.0332 113.758 27.9309 114.146 28.8122C114.682 29.9368 115.336 31.0614 116.359 31.8111C117.26 32.4852 118.289 32.985 119.364 33.3139C120.775 33.5112 122.228 33.498 123.632 33.2711C124.55 32.9028 125.405 32.3866 126.227 31.8407C127.026 31.3146 127.453 30.4366 127.989 29.677C128.203 29.2758 128.719 29.4337 129.088 29.3876C131.656 29.414 134.227 29.3646 136.799 29.4139C136.749 30.0223 136.733 30.6602 136.447 31.2225C135.931 32.3471 135.391 33.4717 134.717 34.5141C132.794 37.171 129.956 39.0881 126.845 40.0812C126.072 40.3837 125.224 40.3376 124.428 40.5382C123.123 40.9098 121.748 40.7618 120.41 40.7849C119.374 40.821 118.397 40.4429 117.381 40.3376C111.564 39.2525 106.757 34.399 105.484 28.6544C105.405 27.4771 104.945 26.3558 105.011 25.1688C105.05 23.7614 104.873 22.3178 105.277 20.9466C105.465 20.2035 105.409 19.4077 105.711 18.6876C106.211 17.3591 106.701 16.0109 107.461 14.8041C109.253 11.8348 112.123 9.55927 115.402 8.43138C116.431 7.92827 117.552 7.78359 118.684 7.70138L118.68 7.69809Z" fill="#010000"/>
<path d="M197.49 9.82903C199.759 8.28024 202.468 7.29047 205.24 7.37268C206.779 7.41214 208.364 7.22799 209.86 7.68835C212.544 8.23092 215.148 9.62187 216.749 11.8941C217.742 13.5053 218.472 15.3698 218.272 17.2902C215.411 17.2902 212.55 17.3132 209.693 17.2737C209.578 16.2839 209.209 15.2613 208.387 14.6365C207.059 13.581 205.089 13.6007 203.672 14.4688C202.195 15.3665 202.324 17.7472 203.57 18.7929C205.089 19.8715 206.894 20.4107 208.66 20.95C209.936 21.611 211.37 21.8444 212.639 22.5284C214.691 23.2847 216.588 24.6132 217.769 26.4842C218.906 28.5723 218.913 31.0648 218.551 33.36C217.844 35.4152 216.628 37.3816 214.796 38.6114C213.547 39.4565 212.198 40.249 210.673 40.4298C208.92 40.9691 207.062 40.831 205.25 40.8113C204.073 40.8409 202.965 40.4134 201.811 40.2523C200.393 39.7722 198.963 39.2033 197.782 38.2596C196.615 37.2435 195.415 36.1452 194.866 34.6556C194.392 33.4291 194.054 32.1236 193.988 30.8083C196.849 30.6834 199.719 30.7425 202.583 30.7787C202.659 32.4064 203.803 33.9815 205.457 34.2775C206.358 34.3728 207.295 34.3958 208.187 34.1887C209.291 33.7415 210.479 32.7616 210.41 31.4561C210.521 30.3677 209.624 29.5588 208.864 28.9307C206.753 27.4608 204.139 27.155 201.801 26.2047C200.173 25.5306 198.388 25.0275 197.099 23.7648C196.52 23.1893 195.905 22.6336 195.425 21.9661C194.685 20.8908 194.419 19.5887 194.119 18.3424C193.968 17.402 193.981 16.422 194.238 15.5013C194.412 14.7812 194.392 14.0084 194.744 13.3409C195.398 11.9993 196.263 10.707 197.496 9.83232L197.49 9.82903Z" fill="#010000"/>
<path d="M88.4686 7.87887C92.3882 7.71446 96.3144 7.85257 100.241 7.80653C103.101 7.85257 105.969 7.71117 108.826 7.88216C108.81 8.52995 108.876 9.18761 108.767 9.82883C108.396 10.3878 107.869 10.812 107.406 11.2921C106.534 12.1405 105.969 13.2289 105.364 14.268C102.49 14.3897 99.6093 14.268 96.7353 14.3272C96.6991 16.4876 96.6991 18.6513 96.7353 20.815C98.7971 20.8512 100.865 20.8051 102.927 20.8314C102.832 22.8669 102.825 24.9023 102.888 26.9378C100.849 26.9937 98.8069 26.9345 96.7682 26.9608C96.663 28.24 96.732 29.5257 96.7156 30.8081C96.732 31.9327 96.6268 33.0704 96.8438 34.1852C99.4251 34.1622 102.006 34.1852 104.591 34.1655C104.903 34.1885 105.305 34.0931 105.505 34.4186C106.081 35.0927 106.472 35.9017 107.08 36.5527C107.524 37.0657 108.073 37.4866 108.481 38.0292C108.711 38.8052 108.567 39.6339 108.563 40.4329C102.608 40.4954 96.6498 40.4329 90.6947 40.4625C90.0667 40.4691 89.4386 40.4625 88.8138 40.4165C89.1229 39.749 89.7872 39.3708 90.2705 38.8447C91.9245 37.3091 92.7368 35.1125 93.2629 32.9685C93.4372 31.0449 93.5753 29.0127 92.8453 27.1811C91.9081 24.2118 89.3531 22.0382 86.5745 20.8183C85.7031 20.4467 84.8251 20.0916 83.957 19.7134C84.23 19.5589 84.5226 19.48 84.835 19.4734C87.63 19.4504 90.4317 19.5063 93.2234 19.4536C93.2826 16.4218 92.6841 13.3045 91.0269 10.7232C90.3462 9.62824 89.2446 8.90153 88.4718 7.88545L88.4686 7.87887Z" fill="#010000"/>
<path d="M134.441 7.81279C139.459 7.81608 144.481 7.77004 149.498 7.8391C152.159 8.08572 154.865 9.00315 156.858 10.8446C158.285 12.229 159.275 14.0704 159.636 16.0236C159.781 17.6053 159.797 19.2133 159.547 20.7851C159.113 21.7584 158.742 22.7679 158.196 23.6854C156.861 25.4742 155.016 27.0361 152.77 27.4669C152.728 28.2331 153.323 28.7954 153.665 29.4267C155.697 32.955 157.716 36.4932 159.827 39.9821C159.945 40.1926 160.011 40.426 160.09 40.6562C157.101 40.699 154.109 40.6661 151.116 40.6727C150.541 39.9657 150.205 39.114 149.755 38.3314C148.509 36.2335 147.453 34.0303 146.204 31.9324C145.474 30.6927 144.957 29.3182 144.037 28.2002C143.481 28.1903 142.928 28.2002 142.376 28.2364C142.376 32.2974 142.406 36.3617 142.363 40.4227C139.722 40.4754 137.079 40.4688 134.438 40.4227C134.415 39.6171 134.323 38.795 134.487 37.9993C136.513 36.0066 138.009 33.4845 138.815 30.765C138.983 29.4727 139.877 28.3251 139.663 26.9835C137.92 26.9934 136.178 27.0328 134.438 26.9736C134.395 25.0566 134.389 23.1362 134.441 21.2191C136.197 21.1665 137.957 21.2257 139.719 21.1961C139.736 20.2458 139.305 19.381 139.068 18.4767C138.496 15.2969 136.589 12.5315 134.471 10.1639C134.339 9.38788 134.412 8.59211 134.445 7.8095M142.386 14.7018C142.396 17.2929 142.36 19.8874 142.406 22.4786C143.971 22.5279 145.536 22.4786 147.101 22.5082C148.538 22.5805 150.265 22.1859 150.998 20.8147C151.679 19.8709 151.491 18.6444 151.471 17.5527C151.471 16.3623 150.432 15.5468 149.564 14.8958C148.713 14.5867 147.779 14.6656 146.888 14.6393C145.388 14.6754 143.882 14.5735 142.389 14.705L142.386 14.7018Z" fill="#010000"/>
<path d="M157.086 7.86571C161.706 7.73747 166.333 7.83283 170.956 7.81639C170.972 9.98008 170.972 12.1438 170.956 14.3075C169.065 14.3436 167.178 14.2877 165.29 14.3272C165.254 16.4876 165.254 18.6513 165.29 20.815C168.884 20.8906 172.492 20.7163 176.082 20.9005C176.059 22.8768 176.066 24.8497 176.082 26.826C175.04 27.0299 173.975 26.9444 172.922 26.9542C170.39 26.9575 167.858 26.9444 165.33 26.9542C165.221 28.2334 165.29 29.5191 165.277 30.8015C165.294 31.9261 165.188 33.0606 165.405 34.1786C169.312 34.172 173.218 34.1358 177.125 34.195C177.171 36.2699 177.171 38.3481 177.125 40.4263C172.613 40.4921 168.102 40.4263 163.59 40.4625C163.117 40.4263 162.423 40.5677 162.216 40.0054C160.835 37.4899 159.375 35.0237 157.928 32.5509C157.635 31.9919 157.102 31.4954 157.142 30.8213C157.125 29.8315 157.132 28.845 157.165 27.8585C158.007 27.0266 158.947 26.2834 159.634 25.3101C160.927 23.4949 161.897 21.3411 161.9 19.0821C161.936 17.8555 161.923 16.6191 161.755 15.3992C160.992 12.7554 159.73 9.96693 157.217 8.56941C157.175 8.33594 157.135 8.09918 157.096 7.869L157.086 7.86571Z" fill="#010000"/>
<path d="M173.14 7.8128C178.704 7.79307 184.271 7.8128 189.835 7.80294C192.091 7.85555 194.36 7.68785 196.612 7.90159C195.853 8.58226 194.893 9.05578 194.357 9.95677C193.331 11.2326 192.696 12.7452 192.167 14.2809C191.348 14.3105 190.526 14.3039 189.707 14.3861C189.723 23.0639 189.75 31.745 189.694 40.4228C187.066 40.4655 184.436 40.4721 181.812 40.4228C181.789 31.7219 181.822 23.0178 181.795 14.3203C178.908 14.2907 176.021 14.3335 173.134 14.3039C173.117 12.1402 173.117 9.9765 173.134 7.8128H173.14Z" fill="#010000"/>
<path d="M25.7271 12.7289C26.2565 12.604 26.8057 12.6237 27.345 12.6237C28.5912 12.6533 29.8671 12.5316 31.0838 12.8868C32.9548 13.0643 34.7436 13.6595 36.5686 14.064C39.7517 15.3398 42.892 16.8787 45.4733 19.174C46.8182 20.4334 48.1368 21.729 49.3535 23.11C51.4317 25.6716 52.9706 28.6278 54.1149 31.7089C54.2695 32.7579 54.6345 33.7477 54.96 34.7473C55.2165 35.9673 55.0587 37.2497 55.4237 38.4565C55.542 39.7093 55.5289 40.9885 55.4335 42.2446C55.1869 43.116 55.1672 44.0203 55.1113 44.918C54.1577 50.7678 51.3067 56.3415 46.9728 60.4124C45.2102 62.2538 43.0433 63.6678 40.8171 64.8877C38.7685 65.9367 36.6574 66.91 34.3918 67.3901C33.2869 67.7782 32.0867 67.6433 30.972 68.0018C29.045 68.2286 27.0951 68.1168 25.1615 68.0971C23.9712 68.1201 22.8565 67.6532 21.676 67.5973C17.5163 66.5878 13.5177 64.7727 10.2031 62.0401C8.65106 60.6294 7.1516 59.1497 5.78038 57.5614C4.25461 55.5194 2.87682 53.3327 1.9857 50.9323C1.41353 49.755 1.20308 48.4562 0.726281 47.2428C0.407317 46.4635 0.505966 45.5987 0.292227 44.7963C-0.0497549 43.7079 0.0324523 42.5537 0.00614603 41.4324C0.0423172 39.6962 -0.15498 37.9205 0.338263 36.2303C0.4402 34.4809 0.926867 32.7842 1.49574 31.1335C2.47565 28.6607 3.66601 26.2569 5.23124 24.0998C6.29993 22.3866 7.84214 21.068 9.24295 19.6409C12.9094 16.4809 17.3584 14.1396 22.1297 13.2222C23.3004 12.8572 24.5565 13.0808 25.7271 12.7322M21.8075 16.6025C18.0917 17.5364 14.5305 19.2726 11.6533 21.8276C10.6503 22.6069 9.67371 23.4487 8.97988 24.5273C8.96673 24.547 8.93714 24.5832 8.92069 24.6029C6.58601 27.0955 5.08984 30.2423 4.00799 33.4484C3.82056 34.527 3.472 35.5694 3.36349 36.6611C2.85709 38.4992 3.08727 40.4262 3.05439 42.3071C3.00178 43.4251 3.41939 44.4741 3.52461 45.5723C3.67588 46.5227 4.12308 47.3908 4.38286 48.3115C4.91885 50.1003 5.81984 51.7477 6.72083 53.3722C7.22723 54.3356 8.01313 55.1018 8.63133 55.9864C9.26268 56.8742 10.0815 57.5976 10.8443 58.3671C13.5079 61.1358 17.0888 62.7734 20.6138 64.1314C21.5017 64.2301 22.327 64.605 23.2182 64.6707C24.2408 64.7233 25.2175 65.1409 26.25 65.085C27.733 65.0291 29.2357 65.2133 30.699 64.9404C31.5112 64.6806 32.3662 64.6806 33.1981 64.5622C36.003 63.8256 38.7027 62.6714 41.1361 61.0898C42.356 60.2315 43.6615 59.4489 44.6479 58.3112C47.7784 55.4175 49.8928 51.5636 51.2541 47.5585C51.652 46.572 51.7046 45.4967 51.9973 44.4773C52.2439 42.0243 52.211 39.5449 52.0663 37.0853C51.9151 35.1123 51.1522 33.2741 50.5734 31.4031C47.4989 23.6954 40.36 17.6219 32.1294 16.2441C29.8441 15.8068 27.4864 15.9482 25.1714 16.0073C24.0139 15.9843 22.9189 16.3855 21.7976 16.6025H21.8075Z" fill="#010000"/>
<path d="M26.1063 20.6012C26.0734 19.9337 26.6719 19.3549 27.3394 19.4108C28.053 19.2958 29.0855 19.5029 29.1085 20.3973C29.2137 23.7021 29.0427 27.0199 29.2039 30.328C29.365 31.0086 29.6609 31.8439 30.4205 32.0445C31.213 32.3042 31.9529 32.6922 32.7421 32.9619C33.0282 32.8271 33.2419 32.5837 33.4754 32.3733C35.695 30.1142 37.9573 27.8913 40.1835 25.6356C40.7392 25.024 41.7027 24.9023 42.4425 25.2213C43.0246 25.6816 42.9456 26.4577 42.9062 27.1186C42.8733 27.6546 42.4228 28.0262 42.0874 28.4043C39.9697 30.3839 37.9704 32.4884 35.8988 34.5172C35.8791 34.5337 35.8462 34.5699 35.8265 34.5896C35.5897 34.8461 35.3431 35.096 35.1524 35.3886C35.3365 36.1647 35.8758 36.7927 36.2013 37.5096C36.5302 38.2166 37.0826 39.0354 37.9639 38.986C41.216 39.0222 44.4714 38.9334 47.7235 39.0222C48.71 39.0649 48.8251 40.2356 48.6903 40.9952C48.6738 41.6824 47.9405 42.0803 47.319 42.0277C44.1294 42.0277 40.9398 42.031 37.7468 42.0178C37.3424 42.0178 36.9412 42.0606 36.5433 42.1165C36.2342 43.0701 35.8758 44.0072 35.3727 44.8754C35.182 45.191 35.0504 45.6876 35.3661 45.9704C37.7995 48.384 40.2163 50.8173 42.6431 53.2342C43.1692 53.6847 43.1133 54.4772 42.9456 55.0822C42.7319 55.9832 41.4955 56.1279 40.8115 55.7333C38.0494 53.1914 35.5733 50.3536 32.8078 47.8184C31.8575 48.6306 30.3909 48.5418 29.6018 49.5612C29.319 50.301 29.4965 51.1198 29.2927 51.8761C29.1841 52.2839 29.1217 52.7048 29.125 53.129C29.125 55.5228 29.1545 57.92 29.1217 60.3106C29.1973 61.0636 28.5265 61.7147 27.7735 61.6127C26.9185 61.7377 26.0932 60.9189 26.0964 60.087C26.0603 56.5521 26.1458 53.0172 26.057 49.4822C25.1987 48.9627 24.2418 48.6437 23.3244 48.2524C22.9298 48.1242 22.384 47.894 22.0847 48.3116C19.7073 50.7121 17.3134 53.0928 14.9261 55.4867C14.0712 56.4271 12.4336 55.776 12.2034 54.6186C12.0785 53.8261 12.6868 53.1849 13.1702 52.6357C15.3865 50.4391 17.5863 48.2195 19.8027 46.0263C20.217 45.727 20.0032 45.1812 19.8651 44.7931C19.464 43.8757 19.1713 42.9024 18.632 42.054C15.0971 41.9685 11.5622 42.054 8.0273 42.0178C7.39923 42.077 6.96189 41.5509 6.59689 41.1201C6.4259 40.4427 6.4259 39.5812 7.06054 39.1406C7.43869 39.0058 7.84315 38.9959 8.24103 38.9827C11.6904 38.9762 15.1366 39.0025 18.586 38.9762C19.362 37.8516 19.4377 36.385 20.3123 35.313C17.8198 32.7153 15.1826 30.2458 12.6967 27.6381C12.1673 27.1581 12.0752 26.3853 12.3054 25.7342C12.9071 24.8299 14.4329 24.8628 15.0938 25.6816C17.5074 28.1413 20.0164 30.5088 22.3577 33.0408C23.5941 32.5903 24.7745 32.005 26.0109 31.5611C26.1622 30.5154 26.0767 29.4599 26.0899 28.4076C26.0997 25.8033 26.0734 23.1957 26.0997 20.5946M23.7585 36.2633C23.7585 36.2633 23.7091 36.3127 23.696 36.3258C23.3474 36.6809 23.0022 37.0459 22.7391 37.4701C21.8315 38.8085 21.9729 40.5348 22.1538 42.0606C22.5714 43.4713 23.4527 44.8425 24.837 45.464C26.0405 46.194 27.5104 46.1479 28.8586 46.0164C30.5948 45.7829 31.9923 44.5104 32.8868 43.0668C33.5017 42.0507 33.5115 40.8209 33.4326 39.67C33.403 38.8019 32.9624 38.0258 32.5382 37.2958C30.7954 34.3561 26.0866 33.6294 23.7618 36.26L23.7585 36.2633Z" fill="#010000"/>
<path d="M125.856 21.0581C126.981 19.8382 128.786 19.6836 130.322 20.0355C131.719 20.5221 132.847 21.7487 133.16 23.2021C133.248 24.0899 133.308 25.0632 132.851 25.8722C132.19 27.2006 130.845 28.3088 129.302 28.2956C128.043 28.4206 126.718 28.0622 125.843 27.1118C125.472 26.6745 125.182 26.178 124.847 25.7143C124.248 25.6979 123.64 25.7373 123.058 25.6025C122.726 25.3691 122.443 25.0797 122.15 24.8035C121.733 25.2342 121.305 25.813 120.628 25.711C119.931 25.836 119.52 25.2178 119.102 24.7837C118.645 25.1487 118.244 25.7439 117.586 25.7045C116.537 25.8393 116.047 24.7246 115.429 24.0899C116.054 23.4651 116.531 22.3636 117.58 22.4984C120.006 22.4819 122.44 22.5346 124.867 22.4787C125.195 22.0084 125.501 21.5185 125.853 21.0581M127.872 20.6701C126.718 21.0252 126.09 22.1137 125.317 22.9489C124.995 23.0607 124.65 23.0409 124.321 23.0541C122.147 23.0508 119.977 23.0377 117.8 23.0475C117.09 22.9587 116.745 23.6887 116.281 24.0899C116.718 24.4549 117.08 25.1191 117.724 25.0797C118.191 24.7969 118.487 24.1392 119.099 24.1853C119.789 24.2214 120.059 25.2145 120.779 25.1126C121.279 24.8758 121.568 24.251 122.15 24.1853C122.772 24.1129 123.022 24.8298 123.528 25.0501C124.13 25.1323 124.742 25.1126 125.347 25.1718C125.702 25.6913 125.981 26.2766 126.429 26.7304C127.04 27.1612 127.721 27.536 128.454 27.7103C129.681 27.9767 130.822 27.2368 131.67 26.4345C132.929 24.9186 132.706 22.1893 130.927 21.1568C130.026 20.6273 128.885 20.1275 127.872 20.6701Z" fill="#010000"/>
<path d="M128.434 24.0768C128.295 22.8864 129.88 22.5872 130.693 23.0936C131.307 23.5473 131.077 24.4089 130.952 25.0402C130.495 25.1915 130.051 25.6979 129.552 25.4184C128.996 25.1783 128.272 24.7969 128.434 24.0735M129.292 23.7709C129.312 24.0768 129.335 24.3826 129.358 24.6917C129.624 24.6818 129.894 24.6785 130.163 24.6752C130.189 24.376 130.216 24.0768 130.242 23.7742C129.923 23.7709 129.607 23.7709 129.292 23.7742V23.7709Z" fill="#010000"/>
<path d="M126.753 25.1653C127.585 25.8197 128.565 26.2274 129.496 26.7174C128.924 26.8851 128.276 27.0232 127.714 26.7535C127.352 26.5266 127.036 26.2406 126.717 25.9676C126.727 25.7013 126.74 25.4349 126.753 25.1686V25.1653Z" fill="#010000"/>
<path d="M69.7538 52.0307C70.9047 52.0076 72.072 51.9123 73.2163 52.1194C73.5813 53.78 74.4001 55.2959 74.821 56.9434C75.3932 58.1041 75.7615 59.3405 76.1363 60.5736C76.6592 61.6719 76.84 62.8984 77.4155 63.9737C77.935 65.22 78.2277 66.5452 78.6848 67.8144C78.8163 68.0972 79.0498 68.3175 79.2504 68.5576C79.3227 67.5185 79.76 66.578 80.1382 65.6277C80.7334 63.4279 81.7034 61.3595 82.4104 59.1958C82.5715 58.2883 83.1799 57.5451 83.3476 56.6408C83.706 55.1052 84.607 53.7373 84.7681 52.149C85.896 51.886 87.0666 52.0175 88.2142 52.0175C88.2011 53.0171 87.7078 53.9083 87.3757 54.8257C86.1623 57.9594 85.0443 61.1293 83.8375 64.2631C83.5186 65.6014 82.7787 66.7852 82.4203 68.1104C82.0586 69.4257 81.3055 70.6029 81.026 71.9478C79.7831 72.053 78.5302 72.0465 77.2872 71.984C76.6559 71.2474 76.4487 70.2346 76.0739 69.3501C75.7681 68.0775 75.1071 66.9398 74.7092 65.7001C74.2686 64.102 73.5419 62.6091 73.0158 61.0406C72.5587 59.5707 71.7826 58.2192 71.4045 56.723C70.7896 55.1808 70.0892 53.6551 69.7505 52.0208L69.7538 52.0307Z" fill="#010000"/>
<path d="M101.81 52.3201C102.051 51.7545 102.79 52.034 103.274 51.9551C104.099 52.0274 105.013 51.8005 105.789 52.1063C106.361 52.9942 106.401 54.0924 106.832 55.046C107.42 56.3548 107.703 57.772 108.351 59.0545C108.722 60.6657 109.505 62.1356 109.916 63.7304C110.1 64.2697 110.426 64.7531 110.577 65.3088C110.903 66.657 111.593 67.8802 111.922 69.2252C112.08 70.2116 112.856 70.9778 112.866 72.0005C111.718 72.0366 110.567 72.0498 109.42 71.9807C109.321 71.1981 108.913 70.524 108.607 69.8105C108.42 69.1265 108.45 68.357 107.973 67.7849C105.286 67.7684 102.596 67.7849 99.9098 67.775C99.7027 68.0085 99.4593 68.2288 99.3706 68.5412C98.9529 69.6428 98.4926 70.7509 98.3545 71.9314C97.1279 72.0925 95.885 72.0333 94.6519 71.961C95.2766 70.7016 95.7008 69.3567 96.0888 68.0085C96.7169 66.8411 96.9372 65.5225 97.4897 64.319C97.9533 62.6617 98.6142 61.0768 99.1996 59.4622C99.7816 58.1009 100.084 56.6409 100.666 55.2795C101.084 54.3062 101.314 53.2506 101.814 52.3135M102.981 58.1962C102.596 59.6595 101.88 61.0077 101.528 62.4776C101.34 63.3983 100.604 64.125 100.643 65.1049C102.718 65.1608 104.796 65.1411 106.868 65.1148C106.779 63.7436 106.01 62.5532 105.753 61.2149C104.974 59.528 104.428 57.7424 103.977 55.9372C103.356 56.5389 103.244 57.4103 102.981 58.1897V58.1962Z" fill="#010000"/>
<path d="M120.642 52.0269C121.671 51.9842 122.703 51.9875 123.736 52.0269C123.798 56.0189 123.756 60.0142 123.756 64.0029C123.69 65.0124 124.035 65.9759 124.226 66.9525C124.791 68.1165 125.932 68.9715 127.175 69.3069C128.517 69.4318 130.016 69.5305 131.151 68.6558C132.45 67.8633 133.052 66.3441 133.121 64.8841C133.13 60.5962 133.078 56.3116 133.144 52.0269C134.189 51.9875 135.238 51.9842 136.287 52.0269C136.34 55.5816 136.294 59.1395 136.31 62.6941C136.287 64.4139 136.448 66.2126 135.741 67.8337C134.896 69.8889 132.969 71.4344 130.829 71.9737C129.609 72.148 128.372 72.148 127.146 72.0888C124.078 72.0164 121.391 69.5305 120.714 66.6006C120.609 65.8081 120.628 65.0058 120.628 64.21C120.642 60.149 120.612 56.0847 120.642 52.0236V52.0269Z" fill="#010000"/>
<path d="M145.375 52.0269C146.404 51.9842 147.436 51.9875 148.469 52.0269C148.541 57.7913 148.472 63.559 148.502 69.3233C150.794 69.422 153.086 69.3069 155.378 69.3825C155.42 70.2572 155.42 71.1352 155.378 72.0132C152.04 72.0329 148.706 72.0296 145.371 72.0132C145.358 65.3511 145.352 58.689 145.371 52.0269H145.375Z" fill="#010000"/>
<path d="M161.782 52.0242C166.429 51.9913 171.075 51.988 175.725 52.0242C175.754 52.889 175.754 53.7506 175.688 54.6121C173.857 54.6713 172.006 54.4608 170.184 54.7337C170.184 60.4948 170.227 66.2526 170.167 72.0137C169.132 72.0334 168.099 72.0367 167.067 72.0137C167.037 66.2197 167.08 60.4225 167.047 54.6285C165.301 54.5759 163.555 54.6285 161.809 54.6088C161.72 53.7506 161.73 52.8824 161.786 52.0242H161.782Z" fill="#010000"/>
<path d="M242.768 0V73" stroke="#CCCCCC" stroke-width="2.63063" stroke-miterlimit="10"/>
<path d="M299.477 72.967C298.908 72.967 298.346 72.8684 297.807 72.6711C293.193 70.9053 277.373 64.3977 271.53 50.3995C267.157 39.9658 267.551 22.8732 268.041 16.0007C268.212 13.0281 270.961 11.9758 272.29 11.4333C278.034 9.16765 292.23 3.35067 297.139 0.674002C298.625 -0.157935 300.437 -0.157935 301.93 0.674002C306.84 3.35067 320.963 9.16765 326.655 11.407C327.983 11.9232 330.759 13.0051 330.93 15.9744C331.321 22.8535 331.788 39.9427 327.414 50.3535C321.571 64.3977 305.876 70.9118 301.217 72.6777C300.654 72.875 300.066 72.9802 299.477 72.9736V72.967ZM299.477 3.42301C299.201 3.41643 298.928 3.4822 298.691 3.62031C293.657 6.39562 279.56 12.1666 273.519 14.5506C271.754 15.2378 271.405 15.6818 271.359 16.1947C270.994 22.8239 270.52 39.3048 274.624 49.1006C279.978 61.8427 294.637 67.9622 299.01 69.534C299.349 69.659 299.724 69.659 300.062 69.534C304.383 67.9622 319.121 61.8493 324.323 49.1006C328.427 39.2785 327.983 22.8239 327.589 16.1947C327.589 15.6785 327.197 15.2378 325.428 14.5506C319.434 12.0975 305.389 6.39562 300.329 3.62031C300.066 3.46905 299.766 3.40328 299.471 3.42301H299.477Z" fill="#0066CC"/>
<path d="M299.841 46.6302L288.085 39.9155V26.473L299.841 19.7583L311.597 26.473V39.9155L299.841 46.6302ZM289.657 39.0047L299.841 44.8216L310.025 39.0047V27.374L299.841 21.557L289.657 27.374V39.0047Z" fill="#0066CC"/>
<path d="M299.841 34.0986L288.487 27.6043L289.26 26.2429L299.841 32.2901L310.426 26.2429L311.206 27.6043L299.841 34.0986Z" fill="#0066CC"/>
<path d="M300.62 33.1943H299.055V45.7326H300.62V33.1943Z" fill="#0066CC"/>
<path d="M306.728 39.2811L304.334 40.6951V37.5614C303.844 37.4364 303.548 36.953 303.548 36.2526C303.548 35.0228 304.452 33.497 305.55 32.8558C306.649 32.2146 307.546 32.6914 307.54 33.9147C307.54 34.6085 307.231 35.447 306.734 36.154L306.721 39.2746L306.728 39.2811ZM305.136 39.3338L305.935 38.8635V36.1343L306.146 35.8909C306.524 35.4273 306.747 34.865 306.747 34.3915C306.747 33.6582 306.218 33.3721 305.55 33.7568C304.889 34.1416 304.347 35.059 304.347 35.7923C304.347 36.2691 304.571 36.5716 304.942 36.5913L305.139 36.6045V39.3338H305.136Z" fill="#0066CC"/>
<path d="M310.27 54.369C310.27 56.1216 309.294 57.3087 307.659 57.3087C306.025 57.3087 305.048 56.1972 305.048 54.369C305.048 52.5407 306.025 51.4424 307.672 51.4424C309.32 51.4424 310.277 52.5538 310.277 54.369H310.27ZM306.462 54.369C306.462 55.704 306.873 56.286 307.659 56.286C308.445 56.286 308.856 55.6908 308.856 54.369C308.856 53.0471 308.445 52.4585 307.672 52.4585C306.9 52.4585 306.469 53.0536 306.469 54.369H306.462Z" fill="#3F3F45"/>
<path d="M310.839 57.1509V49.3774L312.181 49.2327V57.1509H310.839ZM315.69 57.1509H314.144L312.234 54.1191L314.091 51.6002H315.505L313.661 54.0467L315.683 57.1542L315.69 57.1476V57.1509Z" fill="#3F3F45"/>
<path d="M285.66 56.2264C285.765 56.2264 285.883 56.2066 285.975 56.1738L286.258 57.1175C285.982 57.2359 285.65 57.3082 285.301 57.3082C284.469 57.3082 283.999 56.8183 283.999 55.8942V49.3769L285.341 49.2322V55.8022C285.341 56.1047 285.433 56.2329 285.656 56.2329L285.663 56.2264H285.66Z" fill="#3F3F45"/>
<path d="M291.388 54.3685C291.388 56.1211 290.412 57.3082 288.777 57.3082C287.143 57.3082 286.167 56.1968 286.167 54.3685C286.167 52.5402 287.143 51.4419 288.791 51.4419C290.438 51.4419 291.395 52.5533 291.395 54.3685H291.388ZM287.58 54.3685C287.58 55.7035 287.992 56.2855 288.777 56.2855C289.563 56.2855 289.974 55.6904 289.974 54.3685C289.974 53.0466 289.563 52.458 288.791 52.458C288.018 52.458 287.587 53.0532 287.587 54.3685H287.58Z" fill="#3F3F45"/>
<path d="M291.958 57.1504V49.3769L293.299 49.2322V57.1504H291.958ZM296.808 57.1504H295.262L293.352 54.1186L295.21 51.5997H296.624L294.779 54.0462L296.801 57.1537L296.808 57.1471V57.1504Z" fill="#3F3F45"/>
<path d="M302.311 54.3685C302.311 56.1014 301.48 57.3082 300.118 57.3082C299.51 57.3082 299.007 57.032 298.652 56.5815L298.566 57.1504H297.382V49.3769L298.724 49.2322V52.2377C299.082 51.7477 299.615 51.4518 300.237 51.4518C301.558 51.4518 302.311 52.5238 302.311 54.3783V54.3718V54.3685ZM300.904 54.3685C300.904 52.8888 300.467 52.4514 299.826 52.4514C299.342 52.4514 298.987 52.7802 298.727 53.2044V55.6575C298.971 56.0554 299.336 56.2987 299.766 56.2987C300.44 56.2987 300.911 55.7627 300.911 54.3685H300.904Z" fill="#3F3F45"/>
<path d="M304.535 56.2264C304.64 56.2264 304.759 56.2066 304.851 56.1738L305.134 57.1175C304.857 57.2359 304.525 57.3082 304.177 57.3082C303.345 57.3082 302.875 56.8183 302.875 55.8942V49.3769L304.216 49.2322V55.8022C304.216 56.1047 304.308 56.2329 304.532 56.2329L304.538 56.2264H304.535Z" fill="#3F3F45"/>
<path d="M310.268 54.3685C310.268 56.1211 309.292 57.3082 307.657 57.3082C306.023 57.3082 305.046 56.1968 305.046 54.3685C305.046 52.5402 306.023 51.4419 307.67 51.4419C309.318 51.4419 310.275 52.5533 310.275 54.3685H310.268ZM306.46 54.3685C306.46 55.7035 306.871 56.2855 307.657 56.2855C308.443 56.2855 308.854 55.6904 308.854 54.3685C308.854 53.0466 308.443 52.458 307.67 52.458C306.898 52.458 306.467 53.0532 306.467 54.3685H306.46Z" fill="#3F3F45"/>
<path d="M280.67 18.5957C280.414 18.5563 280.206 18.4708 280.042 18.359L280.121 18.1419C280.272 18.2472 280.466 18.3261 280.696 18.3655C280.927 18.405 281.16 18.405 281.397 18.3524C281.736 18.28 281.985 18.1617 282.13 18.0005C282.281 17.8361 282.334 17.6487 282.288 17.4382C282.255 17.2738 282.183 17.1554 282.071 17.0864C281.959 17.0075 281.828 16.9614 281.686 16.9351C281.535 16.9088 281.348 16.8957 281.098 16.8891C280.821 16.8759 280.601 16.8562 280.423 16.8299C280.253 16.8036 280.095 16.7313 279.96 16.626C279.825 16.5208 279.73 16.3564 279.684 16.1426C279.651 15.9651 279.664 15.804 279.723 15.633C279.789 15.4685 279.907 15.3239 280.075 15.2022C280.243 15.0805 280.473 14.9852 280.762 14.926C280.959 14.8865 281.16 14.8734 281.364 14.8931C281.568 14.9128 281.749 14.9589 281.907 15.0312L281.854 15.2614C281.689 15.189 281.515 15.1496 281.331 15.1299C281.147 15.1101 280.973 15.1233 280.808 15.1562C280.473 15.2219 280.239 15.3403 280.095 15.508C279.95 15.6757 279.897 15.8664 279.943 16.0769C279.976 16.2413 280.049 16.3597 280.16 16.4287C280.272 16.5076 280.404 16.5537 280.545 16.58C280.696 16.6063 280.89 16.6194 281.14 16.6326C281.417 16.6458 281.637 16.6655 281.808 16.6918C281.979 16.7181 282.13 16.7904 282.265 16.8891C282.403 16.9943 282.495 17.1522 282.535 17.3593C282.567 17.5369 282.554 17.698 282.489 17.8624C282.423 18.0268 282.304 18.1715 282.124 18.2932C281.946 18.4181 281.719 18.5102 281.43 18.5694C281.167 18.622 280.907 18.6286 280.65 18.5891L280.67 18.5957Z" fill="black"/>
<path d="M286.362 13.9856L286.918 17.6126L286.655 17.652L286.392 15.9323L283.972 16.3038L284.235 18.0236L283.972 18.0631L283.416 14.4361L283.679 14.3966L283.936 16.0671L286.356 15.6955L286.099 14.0251L286.362 13.9856Z" fill="black"/>
<path d="M292.928 16.7476L292.942 16.9909L290.416 17.1619L290.173 13.5021L292.619 13.3376L292.632 13.581L290.452 13.7257L290.551 15.1659L292.501 15.0344L292.514 15.2712L290.564 15.4027L290.663 16.9022L292.922 16.7509H292.928V16.7476Z" fill="black"/>
<path d="M288.145 13.7914L288.408 13.7651L288.806 17.4118L288.537 17.4382L288.139 13.7914H288.145Z" fill="black"/>
<path d="M294.14 13.2658L294.409 13.2527L294.561 16.6758L296.668 16.5837L296.681 16.8271L294.307 16.9323L294.15 13.2724L294.143 13.2658H294.14Z" fill="black"/>
<path d="M297.659 13.1504L299.112 13.1372C299.491 13.1372 299.833 13.2095 300.125 13.3674C300.418 13.5252 300.655 13.7324 300.819 14.0152C300.984 14.2914 301.069 14.6038 301.076 14.9589C301.076 15.3108 300.997 15.6264 300.839 15.9092C300.674 16.192 300.454 16.4058 300.158 16.5702C299.862 16.728 299.53 16.8135 299.149 16.8135L297.695 16.8267L297.662 13.1602L297.656 13.1536L297.659 13.1504ZM299.119 16.5603C299.458 16.5603 299.754 16.488 300.017 16.3499C300.273 16.2118 300.467 16.021 300.605 15.781C300.743 15.5377 300.809 15.2647 300.809 14.9491C300.809 14.6334 300.73 14.367 300.592 14.1237C300.448 13.8804 300.254 13.6995 299.99 13.568C299.727 13.4364 299.435 13.3707 299.093 13.3707L297.929 13.3838L297.955 16.5636L299.119 16.5505V16.557V16.5603Z" fill="black"/>
<path d="M304.919 16.7146L304.906 16.9579L302.38 16.8461L302.545 13.1863L304.991 13.2981L304.978 13.5414L302.798 13.4428L302.732 14.8896L304.682 14.9751L304.669 15.2119L302.719 15.1264L302.653 16.6258L304.912 16.7245L304.919 16.7179V16.7146Z" fill="black"/>
<path d="M306.565 13.3972L308.011 13.5287C308.39 13.5616 308.718 13.6734 309.001 13.8576C309.284 14.0417 309.491 14.2752 309.629 14.5711C309.767 14.8671 309.82 15.186 309.787 15.5346C309.754 15.8832 309.642 16.189 309.452 16.452C309.261 16.7151 309.014 16.9091 308.705 17.0406C308.396 17.1722 308.051 17.2182 307.679 17.1853L306.232 17.0538L306.568 13.4005L306.565 13.3972ZM307.676 16.9387C308.015 16.9716 308.317 16.9321 308.587 16.8203C308.856 16.7085 309.07 16.5375 309.235 16.3172C309.399 16.087 309.491 15.8207 309.517 15.5116C309.544 15.2025 309.498 14.923 309.386 14.6665C309.274 14.41 309.083 14.2094 308.843 14.0516C308.593 13.8937 308.307 13.8017 307.972 13.7688L306.814 13.6636L306.525 16.8302L307.683 16.9354H307.676V16.9387Z" fill="black"/>
<path d="M315.572 16.6327C315.684 16.8103 315.716 17.024 315.677 17.2674C315.624 17.5765 315.473 17.7902 315.227 17.9218C314.977 18.0533 314.631 18.0796 314.187 18.0072L312.576 17.7442L313.165 14.1238L314.677 14.3737C315.069 14.4395 315.365 14.571 315.555 14.765C315.746 14.9623 315.825 15.2023 315.772 15.5049C315.739 15.7153 315.654 15.8764 315.522 16.0014C315.391 16.1263 315.227 16.2053 315.033 16.2381C315.282 16.3302 315.463 16.4618 315.575 16.636V16.6295L315.572 16.6327ZM315.056 17.7245C315.259 17.6324 315.378 17.4548 315.421 17.2016C315.463 16.9484 315.401 16.7445 315.243 16.5933C315.079 16.442 314.825 16.3368 314.47 16.2842L313.122 16.0672L312.879 17.56L314.227 17.7771C314.579 17.8363 314.855 17.8165 315.059 17.7245H315.052H315.056ZM313.392 14.3934L313.155 15.8337L314.391 16.0376C314.707 16.0902 314.96 16.0704 315.151 15.9718C315.342 15.8731 315.46 15.7087 315.496 15.4753C315.532 15.2418 315.476 15.0511 315.325 14.8998C315.174 14.7486 314.94 14.6499 314.625 14.5973L313.388 14.3934H313.392Z" fill="black"/>
<path d="M318.077 17.4613L317.814 18.6977L317.551 18.645L317.814 17.4086L316.864 14.7517L317.153 14.8109L318.005 17.1916L319.744 15.3535L320.021 15.4127L318.077 17.4613Z" fill="black"/>
</g>
<defs>
<clipPath id="clip0_577_19332">
<rect width="331.17" height="73" fill="white"/>
</clipPath>
</defs>
</svg>
