<svg width="61" height="48" viewBox="0 0 61 48" fill="none" xmlns="http://www.w3.org/2000/svg">
<path d="M37.9736 42.7126C43.4638 39.6147 46.8057 36.0741 48.888 32.6487C51.0267 29.1305 51.8197 25.7607 52.2688 23.1805L52.4427 22.181L51.5441 22.6519C49.8174 23.5567 47.5186 23.8875 45.2322 23.6725L45.2321 23.6725C39.3189 23.1184 34.6632 18.2064 34.6632 12.1042C34.6632 9.02461 35.8719 6.07238 38.0215 3.89663C40.1708 1.72109 43.0846 0.5 46.1216 0.5C49.6415 0.5 53.0166 2.13135 55.1446 4.418C58.5726 8.10345 60.4192 12.223 60.4192 18.9828C60.4192 30.7155 52.3637 41.3066 40.5059 46.6679L37.9736 42.7126ZM11.9583 0.5C15.392 0.5 18.6878 2.05235 20.8226 4.25105L20.9778 4.41791C24.4059 8.10338 26.2525 12.2229 26.2525 18.9828C26.2525 30.7155 18.197 41.3066 6.33922 46.6679L3.80691 42.7126C9.29711 39.6147 12.6391 36.0741 14.7213 32.6487C16.86 29.1305 17.6531 25.7607 18.1021 23.1805L18.276 22.181L17.3774 22.6519C15.6507 23.5567 13.352 23.8875 11.0656 23.6725L11.0654 23.6725C5.15238 23.1184 0.5 18.2066 0.5 12.1042C0.5 9.02461 1.70867 6.07238 3.8582 3.89663C6.00754 1.72109 8.92136 0.5 11.9583 0.5Z" stroke="#BCC1C2"/>
</svg>
