<svg width="252" height="55" viewBox="0 0 252 55" fill="none" xmlns="http://www.w3.org/2000/svg">
<path d="M31.0078 25.7244C30.8405 25.7133 30.6805 25.7405 30.5362 25.798C30.5332 25.7991 30.5302 25.8005 30.5271 25.8016C30.0788 25.978 29.5946 25.6399 29.5946 25.1579V25.1576C29.5946 25.1576 29.5946 23.181 29.5946 22.9526C29.5946 22.7242 29.5783 22.5254 29.1718 22.5254H27.2163V23.348C27.2223 23.4457 27.2221 23.5443 27.2157 23.6434C27.1418 24.7758 26.2322 25.6881 25.1007 25.7656C25.0475 25.7692 24.9946 25.7712 24.9426 25.7712C24.334 25.7712 23.7617 25.5342 23.3314 25.1036C22.9012 24.6734 22.6642 24.1011 22.6642 23.4925C22.6642 23.4449 22.6656 23.3973 22.6686 23.3499L22.6791 22.5273H20.7141C20.3077 22.5273 20.2914 22.7261 20.2914 22.9545C20.2914 23.183 20.2903 25.1579 20.2903 25.1579C20.2903 25.6397 19.806 25.9777 19.3575 25.8016C19.3544 25.8005 19.3514 25.7994 19.3483 25.798C19.2038 25.7405 19.044 25.7133 18.8768 25.7244C18.3413 25.759 17.9066 26.1923 17.8698 26.7278C17.8264 27.3602 18.3264 27.8868 18.9494 27.8868C19.0872 27.8868 19.219 27.861 19.3403 27.8137C19.3475 27.8109 19.355 27.8079 19.3625 27.8051C19.811 27.6356 20.2903 27.9715 20.2903 28.451C20.2903 28.451 20.2914 30.7989 20.2914 31.0279C20.2914 31.2563 20.3077 31.4554 20.7141 31.4554H22.6689V30.2593C22.6661 30.212 22.6645 30.1643 22.6645 30.1164C22.6645 28.86 23.6864 27.838 24.9428 27.838C24.9952 27.838 25.0481 27.8397 25.1009 27.8436C26.2328 27.9211 27.1423 28.8334 27.2163 29.9658C27.2229 30.0649 27.2229 30.1635 27.2168 30.2612V31.4573H29.1724C29.5788 31.4573 29.5952 31.2588 29.5952 31.0298C29.5952 30.8017 29.5952 28.4513 29.5952 28.4513C29.5952 27.9718 30.0741 27.6362 30.5227 27.8054C30.5302 27.8081 30.5376 27.8112 30.5448 27.814C30.6661 27.861 30.7979 27.887 30.9358 27.887C31.5587 27.887 32.0588 27.3604 32.0153 26.7281C31.9779 26.1923 31.5432 25.7593 31.0078 25.7244Z" stroke="#BC0F50" stroke-miterlimit="10"/>
<path d="M26.1077 23.3974C26.1187 23.2302 26.0916 23.0701 26.034 22.9259C26.0329 22.9228 26.0315 22.9198 26.0304 22.9168C25.8541 22.4685 26.1921 21.9842 26.6742 21.9842C26.6742 21.9842 28.651 21.9842 28.8795 21.9842C29.1079 21.9842 29.3067 21.9679 29.3067 21.5615V19.6059H28.4841C28.3863 19.612 28.2878 19.6117 28.1887 19.6053C27.0562 19.5314 26.1439 18.6219 26.0664 17.4903C26.0628 17.4371 26.0609 17.3843 26.0609 17.3322C26.0609 16.7236 26.2979 16.1513 26.7284 15.7211C27.1587 15.2908 27.731 15.0538 28.3395 15.0538C28.3872 15.0538 28.4348 15.0552 28.4821 15.0582L29.3047 15.0688V13.1038C29.3047 12.6973 29.1059 12.681 28.8775 12.681C28.6491 12.681 26.6742 12.6799 26.6742 12.6799C26.1924 12.6799 25.8543 12.1956 26.0304 11.7471C26.0315 11.7441 26.0326 11.741 26.034 11.738C26.0916 11.5934 26.1187 11.4337 26.1077 11.2665C26.0731 10.731 25.6398 10.2963 25.1043 10.2595C24.4719 10.216 23.9453 10.716 23.9453 11.339C23.9453 11.4769 23.971 11.6087 24.0184 11.7299C24.0212 11.7371 24.0242 11.7446 24.027 11.7521C24.1964 12.2006 23.8606 12.6799 23.381 12.6799C23.381 12.6799 21.0331 12.681 20.8042 12.681C20.5757 12.681 20.3769 12.6973 20.3769 13.1038V15.0585H21.573C21.6204 15.0558 21.668 15.0541 21.7159 15.0541C22.9723 15.0541 23.9943 16.076 23.9943 17.3325C23.9943 17.3848 23.9926 17.4377 23.9888 17.4906C23.9112 18.6224 22.9989 19.532 21.8665 19.6059C21.7674 19.6125 21.6688 19.6125 21.5711 19.6065H20.375V21.562C20.375 21.9685 20.5735 21.9848 20.8022 21.9848C21.0304 21.9848 23.3807 21.9848 23.3807 21.9848C23.8603 21.9848 24.1959 22.4638 24.0267 22.9123C24.0239 22.9198 24.0209 22.9273 24.0181 22.9345C23.971 23.0557 23.945 23.1875 23.945 23.3254C23.945 23.9484 24.4716 24.4484 25.104 24.405C25.6398 24.3673 26.0728 23.9326 26.1077 23.3974Z" stroke="#BC0F50" stroke-miterlimit="10"/>
<path d="M28.432 18.4041C28.5993 18.4151 28.7593 18.388 28.9036 18.3304C28.9066 18.3293 28.9097 18.3279 28.9127 18.3268C29.361 18.1504 29.8452 18.4885 29.8452 18.9705C29.8452 18.9705 29.8452 20.9474 29.8452 21.1758C29.8452 21.4043 29.8616 21.6031 30.268 21.6031H32.2236V20.7805C32.2175 20.6827 32.2177 20.5842 32.2241 20.485C32.298 19.3526 33.2076 18.4403 34.3392 18.3628C34.3923 18.3592 34.4452 18.3573 34.4972 18.3573C35.1058 18.3573 35.6781 18.5943 36.1084 19.0248C36.5386 19.4551 36.7756 20.0274 36.7756 20.6359C36.7756 20.6836 36.7743 20.7312 36.7712 20.7785L36.7607 21.6011H38.7257C39.1321 21.6011 39.1485 21.4023 39.1485 21.1739C39.1485 20.9455 39.1496 18.9705 39.1496 18.9705C39.1496 18.4888 39.6338 18.1507 40.0823 18.3268C40.0854 18.3279 40.0884 18.329 40.0915 18.3304C40.236 18.388 40.3958 18.4151 40.563 18.4041C41.0985 18.3694 41.5332 17.9361 41.57 17.4007C41.6135 16.7683 41.1134 16.2417 40.4905 16.2417C40.3526 16.2417 40.2208 16.2674 40.0995 16.3148C40.0923 16.3175 40.0848 16.3206 40.0774 16.3234C39.6288 16.4928 39.1496 16.1569 39.1496 15.6774C39.1496 15.6774 39.1485 13.3295 39.1485 13.1005C39.1485 12.8721 39.1321 12.6733 38.7257 12.6733H36.7709V13.8694C36.7737 13.9168 36.7754 13.9644 36.7754 14.0123C36.7754 15.2687 35.7534 16.2907 34.497 16.2907C34.4446 16.2907 34.3918 16.289 34.3389 16.2851C33.207 16.2076 32.2975 15.2953 32.2236 14.1629C32.2169 14.0638 32.2169 13.9652 32.223 13.8675V12.6714H30.2675C29.861 12.6714 29.8447 12.8699 29.8447 13.0986C29.8447 13.3267 29.8447 15.6771 29.8447 15.6771C29.8447 16.1567 29.3657 16.4922 28.9171 16.3231C28.9097 16.3203 28.9022 16.3173 28.895 16.3145C28.7737 16.2674 28.6419 16.2414 28.504 16.2414C27.8811 16.2414 27.381 16.768 27.4245 17.4004C27.4619 17.9361 27.8969 18.3692 28.432 18.4041Z" stroke="#BC0F50" stroke-miterlimit="10"/>
<path d="M37.4978 35.3562C37.598 35.2219 37.6617 35.0729 37.6916 34.9201C37.6921 34.9168 37.693 34.914 37.6935 34.9107C37.7885 34.4386 38.3353 34.2146 38.7401 34.476L38.7404 34.4765C38.7404 34.4765 40.4014 35.5478 40.5932 35.6715C40.7851 35.7958 40.9609 35.89 41.1816 35.5483L42.242 33.9051L41.5507 33.4593C41.4654 33.4114 41.3826 33.3574 41.3029 33.2984C40.3914 32.622 40.1178 31.3634 40.6666 30.3705C40.6923 30.324 40.7195 30.2786 40.7477 30.2346C41.0775 29.7232 41.5869 29.371 42.1822 29.2425C42.7769 29.1143 43.3863 29.2253 43.8977 29.5557C43.9379 29.5814 43.9769 29.6085 44.0154 29.6365L44.7009 30.0911L45.7663 28.4401C45.9867 28.0985 45.8286 27.9772 45.6368 27.8532C45.4449 27.7294 43.7859 26.6576 43.7859 26.6576C43.3811 26.3965 43.3595 25.8062 43.7507 25.5249C43.7532 25.523 43.756 25.5211 43.7587 25.5191C43.8855 25.4289 43.9949 25.3095 44.076 25.1628C44.3371 24.694 44.2089 24.0938 43.7792 23.7726C43.2717 23.3933 42.5579 23.5278 42.2201 24.0514C42.1454 24.1671 42.0955 24.292 42.0695 24.4194C42.0679 24.4271 42.0662 24.4349 42.0648 24.4424C41.9638 24.9111 41.4219 25.1318 41.0191 24.8718C41.0191 24.8718 39.0458 23.5996 38.8534 23.4755C38.6615 23.3518 38.4854 23.2573 38.265 23.599L37.2051 25.2414L38.2102 25.8899C38.2514 25.9131 38.2924 25.9378 38.3326 25.9638C39.3883 26.6452 39.6928 28.0581 39.0117 29.1135C38.9832 29.1575 38.9533 29.2007 38.9215 29.2433C38.2426 30.1526 36.9828 30.4217 35.9913 29.8702C35.9047 29.822 35.8216 29.7686 35.7427 29.7104L34.7379 29.062L33.6775 30.7052C33.4571 31.0469 33.6149 31.1679 33.8073 31.2922C33.9989 31.416 35.9736 32.6904 35.9736 32.6904C36.3764 32.9501 36.3989 33.5346 36.0135 33.8198C36.0071 33.8245 36.0007 33.8289 35.9944 33.8336C35.8889 33.9103 35.7958 34.0072 35.7211 34.1227C35.3833 34.6465 35.5544 35.3517 36.1095 35.6582C36.5786 35.9177 37.1785 35.7873 37.4978 35.3562Z" stroke="#BC0F50" stroke-miterlimit="10"/>
<path d="M37.7969 24.3923L40.0069 24.269" stroke="#BC0F50" stroke-width="0.5" stroke-miterlimit="10"/>
<path d="M37.5156 25.4275L44.1628 24.8201" stroke="#BC0F50" stroke-width="0.5" stroke-miterlimit="10"/>
<path d="M38.8633 26.5233L43.4597 26.0574" stroke="#BC0F50" stroke-width="0.5" stroke-miterlimit="10"/>
<path d="M39.3906 27.4581L44.3367 26.9785" stroke="#BC0F50" stroke-width="0.5" stroke-miterlimit="10"/>
<path d="M39.3594 28.4462L45.5356 27.8525" stroke="#BC0F50" stroke-width="0.5" stroke-miterlimit="10"/>
<path d="M38.7188 29.4412L45.5002 28.8479" stroke="#BC0F50" stroke-width="0.5" stroke-miterlimit="10"/>
<path d="M33.7891 30.4451L37.3475 30.1375" stroke="#BC0F50" stroke-width="0.5" stroke-miterlimit="10"/>
<path d="M34.2734 31.5353L40.543 30.5679" stroke="#BC0F50" stroke-width="0.5" stroke-miterlimit="10"/>
<path d="M35.3789 32.3142L40.3161 31.6409" stroke="#BC0F50" stroke-width="0.5" stroke-miterlimit="10"/>
<path d="M36.3672 33.1794L40.664 32.6099" stroke="#BC0F50" stroke-width="0.5" stroke-miterlimit="10"/>
<path d="M35.6953 34.3057L41.5097 33.5271" stroke="#BC0F50" stroke-width="0.5" stroke-miterlimit="10"/>
<path d="M39.4492 34.8941L41.716 34.5654" stroke="#BC0F50" stroke-width="0.5" stroke-miterlimit="10"/>
<path d="M39.0155 43.4605C37.7366 43.4386 35.018 43.1133 32.5122 41.0021C31.1257 41.6331 29.0494 42.3336 26.663 42.3336C23.5385 42.3339 20.7365 41.1361 18.4734 38.8516C16.6825 39.7465 14.7201 40.5157 12.7565 40.5157C10.41 40.5159 8.34919 39.4298 6.62288 37.2856C4.43004 36.3872 2.75662 34.8295 1.8745 32.8496C1.18646 31.3054 0.675358 28.7787 1.95313 25.3172C1.00955 22.2774 1.09953 19.6228 2.22253 17.4164C3.29846 15.3024 5.2734 13.709 8.10111 12.6702C9.18895 8.81389 12.3843 5.26409 17.5951 5.26409C18.2424 5.26409 18.9081 5.32168 19.5847 5.43547C21.3576 3.32514 24.1637 1.39893 27.5637 1.39893C30.0788 1.39893 32.5405 2.42198 34.8939 4.4426C36.9112 3.96112 38.8264 3.71774 40.6006 3.71774C45.5051 3.71774 51.7846 5.58498 54.3163 14.319C56.2614 15.4522 58.3797 17.5891 58.9473 20.56C59.3161 22.4898 59.1195 25.3997 56.3267 28.6638C56.7896 30.5183 57.0568 33.1948 55.8164 35.6557C54.9351 37.4041 53.4716 38.7121 51.4576 39.5541C50.7139 41.2679 49.1839 42.3001 48.01 42.8699L48.3013 52.4774L39.0155 43.4605Z" stroke="#BC0F50" stroke-miterlimit="10"/>
<path d="M46.1585 47.619L39.7904 41.4353C39.7904 41.4353 35.9142 41.9891 32.8686 38.5744C29.9152 40.3278 23.5471 42.2659 18.9324 36.3594C14.6871 38.6666 11.0878 40.0509 7.85749 35.621C4.35033 34.4213 1.67407 31.0063 4.07346 25.3766C2.22754 20.2082 3.51971 16.0554 9.7956 14.2095C10.534 9.7795 14.3181 5.99547 20.4093 7.65671C22.5321 4.42642 27.9771 0.457992 34.3452 6.64141C40.7133 4.88797 49.8501 4.51862 52.6188 15.686C55.7567 17.0704 60.0944 22.0541 54.0954 28.1454C55.2029 31.3757 55.3876 36.2672 49.8501 38.0206C49.3886 40.6047 45.9739 41.5278 45.9739 41.5278L46.1585 47.619Z" stroke="#BC0F50" stroke-miterlimit="10"/>
<path d="M67.8047 6.16675H74.5983V12.4224H81.1229V18.6108H74.7999C74.7999 18.6108 74.7999 21.4361 74.7999 23.723C74.7999 26.01 76.9523 29.3732 82.4009 28.0952C82.4009 32.9382 82.4009 34.5524 82.4009 34.5524C82.4009 34.5524 81.7957 34.7542 80.1139 34.7542C78.4322 34.7542 67.8047 33.9472 67.8047 22.983C67.8047 12.0188 67.8047 6.16675 67.8047 6.16675Z" fill="#031A86"/>
<path d="M155.668 30.756C155.668 30.756 155.769 24.8367 155.769 22.5497C155.769 20.2627 157.921 16.8996 163.37 18.1776C163.37 13.3345 163.37 11.7204 163.37 11.7204C163.37 11.7204 162.449 11.3289 160.768 11.3289C157.116 11.3289 148.773 13.1679 148.773 24.1321C148.773 35.096 148.773 34.5594 148.773 34.5594H155.567L155.668 30.756Z" fill="#031A86"/>
<path d="M89.6641 2.46729H96.525V13.7003C96.525 13.7003 98.0046 11.3461 102.579 11.3461C107.153 11.3461 113.005 15.4493 113.005 22.5794C113.005 29.7095 113.005 34.418 113.005 34.418H106.077C106.077 34.418 106.077 24.6645 106.077 22.0412C106.077 19.4178 104.126 17.669 101.166 17.669C98.2064 17.669 96.3904 20.3597 96.3904 23.1174C96.3904 25.875 96.3904 34.4853 96.3904 34.4853H89.6641V2.46729Z" fill="#031A86"/>
<path d="M126.796 25.2026C131.639 27.7587 141.931 26.0097 141.931 18.6781C141.931 14.9115 138.029 11.3464 131.774 11.3464C125.518 11.3464 119.531 15.046 119.531 22.9159C119.531 30.7857 125.181 37.5121 140.047 33.7455C140.047 30.3823 140.047 27.3553 140.047 27.3553C140.047 27.3553 128.478 30.3145 126.796 25.2026ZM131.803 17.9258C134.26 17.9258 134.909 18.9837 134.909 19.5638C134.909 20.1438 134.431 20.9969 131.428 20.9969C128.426 20.9969 127.026 20.2119 127.026 20.2119C127.026 20.2119 128.527 17.9258 131.803 17.9258Z" fill="#031A86"/>
<path d="M192.984 23.3926C192.984 14.3795 185.958 11.2827 181.059 11.2827C176.16 11.2827 168.672 13.9637 168.672 22.7456C168.672 31.5277 175.189 34.8555 179.765 34.8555C184.341 34.8555 186.005 32.1745 186.744 31.0653C187.068 32.8218 187.946 34.4858 187.946 34.4858H194.787C194.787 34.4858 192.984 32.406 192.984 23.3926ZM180.643 28.4771C177.176 28.4771 175.466 26.2123 175.466 23.2079C175.466 20.2036 177.084 17.6613 180.966 17.6613C184.849 17.6613 186.051 20.6657 186.051 23.4389C186.051 26.212 184.479 28.4771 180.643 28.4771Z" fill="#031A86"/>
<path d="M213.364 11.3757C205.507 11.3757 201.023 16.5522 201.023 21.6829C201.023 26.8137 201.023 43.6841 201.023 43.6841H208.049L208.003 32.3603C208.003 32.3603 210.499 34.8563 214.012 34.8563C220.899 34.8563 225.428 28.9863 225.428 22.9776C225.428 16.9689 221.222 11.3757 213.364 11.3757ZM212.856 28.4303C208.557 28.4303 208.026 24.5018 208.026 23.0687C208.026 19.6482 209.528 17.6608 213.272 17.6608C217.016 17.6608 218.495 20.4805 218.495 23.2074C218.495 25.9343 217.155 28.4303 212.856 28.4303Z" fill="#031A86"/>
<path d="M230.93 11.698H250.204V17.9841L238.649 28.3376H251.083V34.4385H230.145V28.1988L241.838 17.8452H231.023L230.93 11.698Z" fill="#031A86"/>
<path d="M85.1658 48.1147V51.8395C85.1658 53.0909 85.687 53.6689 86.4737 53.6689C87.3173 53.6689 87.8198 53.0906 87.8198 51.8395V48.1147H88.9855V51.7639C88.9855 53.7355 87.9713 54.6075 86.4359 54.6075C84.9574 54.6075 84 53.7827 84 51.7736V48.1147H85.1658Z" fill="#BC0F50"/>
<path d="M93.7305 54.5029V48.1147H95.0668L96.716 50.854C97.1331 51.5649 97.5121 52.3041 97.8061 52.9959H97.8252C97.7399 52.1429 97.7208 51.3183 97.7208 50.3422V48.1147H98.8013V54.5029H97.588L95.9198 51.6877C95.5121 50.9865 95.0953 50.2094 94.7825 49.4889L94.7444 49.4983C94.7919 50.3229 94.8106 51.1665 94.8106 52.2185V54.5029H93.7305Z" fill="#BC0F50"/>
<path d="M103.555 48.1147H104.72V53.5268H107.346V54.5029H103.555V48.1147Z" fill="#BC0F50"/>
<path d="M115.179 51.6689H112.771V53.5458H115.463V54.5029H111.605V48.1147H115.321V49.0718H112.771V50.7209H115.179V51.6689Z" fill="#BC0F50"/>
<path d="M121.18 52.6925L120.63 54.5029H119.426L121.473 48.1147H122.962L125.037 54.5029H123.777L123.198 52.6925H121.18ZM123.009 51.8111L122.507 50.2379C122.383 49.8492 122.279 49.413 122.184 49.0437H122.165C122.071 49.4133 121.966 49.8585 121.862 50.2379L121.369 51.8111H123.009Z" fill="#BC0F50"/>
<path d="M129.339 53.2309C129.709 53.4487 130.287 53.6384 130.884 53.6384C131.624 53.6384 132.041 53.2878 132.041 52.7666C132.041 52.2829 131.719 51.9986 130.913 51.7052C129.852 51.3259 129.178 50.7666 129.178 49.8473C129.178 48.7953 130.05 48.0085 131.444 48.0085C132.136 48.0085 132.638 48.1601 132.97 48.3307L132.695 49.269C132.458 49.1459 132.012 48.9656 131.415 48.9656C130.676 48.9656 130.363 49.3543 130.363 49.7336C130.363 50.2263 130.733 50.4538 131.586 50.7853C132.695 51.2024 133.225 51.7617 133.225 52.681C133.225 53.7143 132.448 54.6051 130.809 54.6051C130.126 54.6051 129.425 54.4154 129.074 54.1973L129.339 53.2309Z" fill="#BC0F50"/>
<path d="M138.845 48.1147V50.6737H141.547V48.1147H142.713V54.5029H141.547V51.6877H138.845V54.5029H137.68V48.1147H138.845Z" fill="#BC0F50"/>
<path d="M148.635 48.1147V54.5029H147.469V48.1147H148.635Z" fill="#BC0F50"/>
<path d="M153.383 54.5029V48.1147H154.719L156.368 50.854C156.785 51.5649 157.164 52.3041 157.458 52.9959H157.477C157.392 52.1429 157.373 51.3183 157.373 50.3422V48.1147H158.454V54.5029H157.24L155.572 51.6877C155.164 50.9865 154.747 50.2094 154.435 49.4889L154.397 49.4983C154.444 50.3229 154.463 51.1665 154.463 52.2185V54.5029H153.383Z" fill="#BC0F50"/>
<path d="M168.329 54.2073C167.922 54.3588 167.125 54.5673 166.282 54.5673C165.201 54.5673 164.376 54.2926 163.77 53.7146C163.201 53.1743 162.879 52.3307 162.879 51.364C162.888 49.3358 164.32 48.0466 166.433 48.0466C167.22 48.0466 167.836 48.2082 168.13 48.35L167.874 49.2886C167.524 49.1274 167.097 49.0137 166.424 49.0137C165.059 49.0137 164.102 49.8192 164.102 51.3074C164.102 52.7578 164.993 53.6199 166.32 53.6199C166.746 53.6199 167.05 53.563 167.201 53.4965V51.8948H166.073V50.9756H168.329V54.2073Z" fill="#BC0F50"/>
<path d="M178.32 48.2004C178.747 48.1247 179.325 48.0679 180.102 48.0679C180.955 48.0679 181.571 48.2479 181.979 48.5891C182.358 48.9018 182.605 49.4039 182.605 50.0014C182.605 50.6078 182.415 51.1012 182.064 51.4421C181.59 51.9064 180.87 52.1338 180.046 52.1338C179.828 52.1338 179.638 52.1245 179.477 52.0867V54.5035H178.321L178.32 48.2004ZM179.477 51.1671C179.628 51.2143 179.809 51.224 180.045 51.224C180.917 51.224 181.448 50.7878 181.448 50.0488C181.448 49.338 180.955 48.9681 180.149 48.9681C179.827 48.9681 179.6 48.9968 179.477 49.0252V51.1671Z" fill="#BC0F50"/>
<path d="M192.695 51.2414C192.695 53.3833 191.397 54.6062 189.643 54.6062C187.833 54.6062 186.695 53.2224 186.695 51.3551C186.695 49.3835 187.937 48 189.738 48C191.596 47.9997 192.695 49.412 192.695 51.2414ZM187.928 51.3267C187.928 52.6349 188.582 53.6679 189.701 53.6679C190.828 53.6679 191.464 52.6159 191.464 51.2792C191.464 50.0753 190.867 48.938 189.701 48.938C188.544 48.938 187.928 50.0091 187.928 51.3267Z" fill="#BC0F50"/>
<path d="M198.066 49.0908H196.246V48.1147H201.07V49.0908H199.231V54.5029H198.066V49.0908Z" fill="#BC0F50"/>
<path d="M208.812 51.6689H206.404V53.5458H209.096V54.5029H205.238V48.1147H208.954V49.0718H206.404V50.7209H208.812V51.6689Z" fill="#BC0F50"/>
<path d="M213.527 54.5029V48.1147H214.864L216.513 50.854C216.93 51.5649 217.309 52.3041 217.603 52.9959H217.622C217.537 52.1429 217.518 51.3183 217.518 50.3422V48.1147H218.598V54.5029H217.385L215.717 51.6877C215.309 50.9865 214.892 50.2094 214.579 49.4889L214.541 49.4983C214.588 50.3229 214.608 51.1665 214.608 52.2185V54.5029H213.527Z" fill="#BC0F50"/>
<path d="M224.578 49.0908H222.758V48.1147H227.582V49.0908H225.743V54.5029H224.578V49.0908Z" fill="#BC0F50"/>
<path d="M232.904 48.1147V54.5029H231.738V48.1147H232.904Z" fill="#BC0F50"/>
<path d="M238.934 52.6925L238.384 54.5029H237.18L239.227 48.1147H240.715L242.791 54.5029H241.531L240.952 52.6925H238.934ZM240.763 51.8111L240.26 50.2379C240.137 49.8492 240.033 49.413 239.938 49.0437H239.919C239.824 49.4133 239.72 49.8585 239.616 50.2379L239.123 51.8111H240.763Z" fill="#BC0F50"/>
<path d="M247.09 48.1147H248.256V53.5268H250.881V54.5029H247.09L247.09 48.1147Z" fill="#BC0F50"/>
</svg>
