<svg width="24" height="24" viewBox="0 0 24 24" fill="none" xmlns="http://www.w3.org/2000/svg">
<g id="bxs:dashboard">
<path id="Vector" d="M5.83333 13.3333H10.8333C11.0543 13.3333 11.2663 13.2455 11.4226 13.0893C11.5789 12.933 11.6667 12.721 11.6667 12.5V5.83333C11.6667 5.61232 11.5789 5.40036 11.4226 5.24408C11.2663 5.0878 11.0543 5 10.8333 5H5.83333C5.61232 5 5.40036 5.0878 5.24408 5.24408C5.0878 5.40036 5 5.61232 5 5.83333V12.5C5 12.721 5.0878 12.933 5.24408 13.0893C5.40036 13.2455 5.61232 13.3333 5.83333 13.3333ZM5 19.1667C5 19.3877 5.0878 19.5996 5.24408 19.7559C5.40036 19.9122 5.61232 20 5.83333 20H10.8333C11.0543 20 11.2663 19.9122 11.4226 19.7559C11.5789 19.5996 11.6667 19.3877 11.6667 19.1667V15.8333C11.6667 15.6123 11.5789 15.4004 11.4226 15.2441C11.2663 15.0878 11.0543 15 10.8333 15H5.83333C5.61232 15 5.40036 15.0878 5.24408 15.2441C5.0878 15.4004 5 15.6123 5 15.8333V19.1667ZM13.3333 19.1667C13.3333 19.3877 13.4211 19.5996 13.5774 19.7559C13.7337 19.9122 13.9457 20 14.1667 20H19.1667C19.3877 20 19.5996 19.9122 19.7559 19.7559C19.9122 19.5996 20 19.3877 20 19.1667V13.3333C20 13.1123 19.9122 12.9004 19.7559 12.7441C19.5996 12.5878 19.3877 12.5 19.1667 12.5H14.1667C13.9457 12.5 13.7337 12.5878 13.5774 12.7441C13.4211 12.9004 13.3333 13.1123 13.3333 13.3333V19.1667ZM14.1667 10.8333H19.1667C19.3877 10.8333 19.5996 10.7455 19.7559 10.5893C19.9122 10.433 20 10.221 20 10V5.83333C20 5.61232 19.9122 5.40036 19.7559 5.24408C19.5996 5.0878 19.3877 5 19.1667 5H14.1667C13.9457 5 13.7337 5.0878 13.5774 5.24408C13.4211 5.40036 13.3333 5.61232 13.3333 5.83333V10C13.3333 10.221 13.4211 10.433 13.5774 10.5893C13.7337 10.7455 13.9457 10.8333 14.1667 10.8333Z" fill="#E7F6FF"/>
</g>
</svg>
