<svg width="25" height="25" viewBox="0 0 25 25" fill="none" xmlns="http://www.w3.org/2000/svg">
<path d="M5.84755 8.39715C6.0425 8.20029 6.30766 8.08892 6.58472 8.08753C6.86177 8.08614 7.12804 8.19484 7.32496 8.38973L12.5229 13.5357L17.6689 8.3378C17.865 8.14648 18.1284 8.03984 18.4023 8.04085C18.6763 8.04185 18.9389 8.15042 19.1336 8.34317C19.3283 8.53592 19.4395 8.79743 19.4433 9.07137C19.447 9.34531 19.343 9.60977 19.1537 9.80778L13.2727 15.7481C13.0778 15.945 12.8126 16.0564 12.5355 16.0577C12.2585 16.0591 11.9922 15.9504 11.7953 15.7555L5.85497 9.87456C5.65811 9.6796 5.54674 9.41445 5.54535 9.13739C5.54395 8.86034 5.65266 8.59407 5.84755 8.39715Z" fill="#29B1FD"/>
</svg>
