<svg width="24" height="25" viewBox="0 0 24 25" fill="none" xmlns="http://www.w3.org/2000/svg">
<path d="M8.30592 5.92616C8.11004 6.1221 8 6.38781 8 6.66487C8 6.94193 8.11004 7.20764 8.30592 7.40358L13.4779 12.5756L8.30592 17.7476C8.11559 17.9447 8.01027 18.2086 8.01266 18.4826C8.01504 18.7565 8.12492 19.0186 8.31865 19.2123C8.51237 19.4061 8.77443 19.5159 9.04839 19.5183C9.32235 19.5207 9.58628 19.4154 9.78334 19.2251L15.6941 13.3143C15.89 13.1184 16 12.8527 16 12.5756C16 12.2986 15.89 12.0328 15.6941 11.8369L9.78334 5.92616C9.5874 5.73028 9.32169 5.62024 9.04463 5.62024C8.76757 5.62024 8.50186 5.73028 8.30592 5.92616Z" fill="#E7F6FF"/>
</svg>
