<svg width="50" height="50" viewBox="0 0 50 50" fill="none" xmlns="http://www.w3.org/2000/svg">
<circle cx="25" cy="25" r="25" transform="matrix(-1 0 0 1 50 0)" fill="#FF682D"/>
<path d="M29.634 17.366C29.8684 17.6004 30 17.9183 30 18.2497C30 18.5812 29.8684 18.8991 29.634 19.1335L23.4465 25.321L29.634 31.5085C29.8617 31.7442 29.9877 32.06 29.9849 32.3877C29.982 32.7155 29.8506 33.029 29.6188 33.2608C29.387 33.4925 29.0735 33.624 28.7458 33.6268C28.418 33.6297 28.1023 33.5037 27.8665 33.276L20.7953 26.2047C20.5609 25.9703 20.4293 25.6524 20.4293 25.321C20.4293 24.9895 20.5609 24.6716 20.7953 24.4372L27.8665 17.366C28.1009 17.1316 28.4188 17 28.7503 17C29.0817 17 29.3996 17.1316 29.634 17.366Z" fill="white"/>
</svg>
