<svg width="50" height="50" viewBox="0 0 50 50" fill="none" xmlns="http://www.w3.org/2000/svg">
<g clip-path="url(#clip0_43_1504)">
<path d="M13.1593 40.4417H2.33851C1.75726 40.4417 1.56247 40.4417 1.56247 39.3886V36.8834C1.56247 36.6762 1.48016 36.4775 1.33364 36.331C1.18713 36.1845 0.988418 36.1022 0.781217 36.1022C0.574017 36.1022 0.375303 36.1845 0.22879 36.331C0.0822772 36.4775 -3.28124e-05 36.6762 -3.28124e-05 36.8834V39.3886C-0.0589181 39.7213 -0.0414742 40.0631 0.0509828 40.388C0.14344 40.713 0.308495 41.0128 0.533696 41.2647C0.758898 41.5165 1.03836 41.714 1.35101 41.8421C1.66365 41.9702 2.00131 42.0257 2.33851 42.0042H13.1593C13.3665 42.0042 13.5653 41.9219 13.7118 41.7754C13.8583 41.6289 13.9406 41.4302 13.9406 41.223C13.9406 41.0158 13.8583 40.8171 13.7118 40.6706C13.5653 40.5241 13.3665 40.4417 13.1593 40.4417ZM0.781217 34.424C0.988418 34.424 1.18713 34.3417 1.33364 34.1952C1.48016 34.0487 1.56247 33.85 1.56247 33.6428V7.81779L25.2083 7.85841V20.8845C25.2083 21.0917 25.2906 21.2904 25.4371 21.4369C25.5836 21.5834 25.7824 21.6657 25.9896 21.6657C26.1968 21.6657 26.3955 21.5834 26.542 21.4369C26.6885 21.2904 26.7708 21.0917 26.7708 20.8845V7.85841C26.7747 7.4359 26.6106 7.02913 26.3147 6.72754C26.0188 6.42594 25.6152 6.25421 25.1927 6.25008H2.22497L5.79788 3.22925H28.5062C28.8377 3.22925 29.1557 3.36094 29.3901 3.59536C29.6245 3.82979 29.7562 4.14773 29.7562 4.47925V20.3334C29.7562 20.5406 29.8385 20.7393 29.985 20.8858C30.1316 21.0324 30.3303 21.1147 30.5375 21.1147C30.7447 21.1147 30.9434 21.0324 31.0899 20.8858C31.2364 20.7393 31.3187 20.5406 31.3187 20.3334V4.47925C31.3187 3.73333 31.0224 3.01796 30.495 2.49051C29.9675 1.96306 29.2521 1.66675 28.5062 1.66675H5.51247C5.32789 1.66664 5.14926 1.73196 5.0083 1.85112L0.367675 5.78237C0.257968 5.89489 0.172212 6.02849 0.115592 6.17508C0.0430663 6.29157 0.0031356 6.4254 -3.28124e-05 6.56258V33.6459C0.000793826 33.8526 0.0834686 34.0505 0.229892 34.1963C0.376315 34.3422 0.574557 34.424 0.781217 34.424Z" fill="#1A1A1A"/>
<path d="M28.2729 20.6051C28.4801 20.6051 28.6788 20.5228 28.8253 20.3763C28.9718 20.2298 29.0542 20.0311 29.0542 19.8239V6.29159C29.0533 5.67621 28.8088 5.08621 28.374 4.65068C27.9393 4.21515 27.3497 3.96955 26.7344 3.96763L7.20728 3.927C7.00008 3.927 6.80136 4.00931 6.65485 4.15582C6.50834 4.30234 6.42603 4.50105 6.42603 4.70825C6.42603 4.91545 6.50834 5.11417 6.65485 5.26068C6.80136 5.40719 7.00008 5.4895 7.20728 5.4895L26.7354 5.53013C26.9371 5.53068 27.1303 5.61111 27.2729 5.75382C27.4154 5.89654 27.4955 6.0899 27.4958 6.29159V19.8239C27.4958 20.0304 27.5776 20.2284 27.7232 20.3748C27.8688 20.5212 28.0664 20.604 28.2729 20.6051ZM39.0333 35.478C38.8261 35.478 38.6274 35.5604 38.4809 35.7069C38.3344 35.8534 38.2521 36.0521 38.2521 36.2593V42.7551C38.2535 42.9076 38.2178 43.0581 38.1479 43.1937C37.7083 44.0322 35.625 46.7708 27.2917 46.7708C18.9583 46.7708 16.875 44.0353 16.4302 43.1957C16.3605 43.0605 16.3247 42.9104 16.326 42.7583V36.5905C16.326 36.3833 16.2437 36.1846 16.0972 36.0381C15.9507 35.8916 15.752 35.8093 15.5448 35.8093C15.3376 35.8093 15.1389 35.8916 14.9923 36.0381C14.8458 36.1846 14.7635 36.3833 14.7635 36.5905V42.7551C14.7613 43.1605 14.8571 43.5604 15.0427 43.9207C15.7448 45.2468 18.3333 48.3333 27.2917 48.3333C36.25 48.3333 38.8375 45.2499 39.5344 43.9249C39.7214 43.5646 39.818 43.1642 39.8156 42.7583V36.2593C39.8156 36.1566 39.7954 36.0549 39.756 35.9601C39.7167 35.8652 39.6591 35.7791 39.5864 35.7065C39.5138 35.6339 39.4275 35.5764 39.3326 35.5372C39.2377 35.498 39.136 35.4779 39.0333 35.478Z" fill="#1A1A1A"/>
<path d="M49.4656 28.7907L28.7968 21.8865C28.639 21.8334 28.4682 21.8334 28.3104 21.8865L5.02808 29.3511C4.87262 29.4023 4.73713 29.5009 4.64067 29.6331C4.54421 29.7653 4.49164 29.9245 4.49038 30.0881C4.48911 30.2518 4.53921 30.4117 4.63361 30.5454C4.72802 30.6791 4.86198 30.7798 5.01663 30.8334L26.7875 38.1917C26.868 38.2189 26.9524 38.233 27.0375 38.2334C27.1269 38.2332 27.2157 38.2177 27.3 38.1876L43.2802 32.4813V36.2313C42.7415 36.394 42.2693 36.7253 41.933 37.1764C41.5968 37.6276 41.4143 38.1749 41.4125 38.7376V40.3126C41.4125 41.011 41.6899 41.6808 42.1837 42.1746C42.6776 42.6684 43.3474 42.9459 44.0458 42.9459C44.7442 42.9459 45.414 42.6684 45.9078 42.1746C46.4017 41.6808 46.6791 41.011 46.6791 40.3126V38.7355C46.6777 38.1779 46.499 37.6352 46.1689 37.1858C45.8388 36.7364 45.3743 36.4036 44.8427 36.2355V31.923L49.4791 30.2678C49.6323 30.2131 49.7646 30.1121 49.8576 29.9787C49.9506 29.8453 49.9996 29.6862 49.9979 29.5237C49.9962 29.3611 49.9438 29.2031 49.848 29.0717C49.7522 28.9403 49.6178 28.8421 49.4635 28.7907H49.4656ZM45.1125 40.3126C45.1125 40.5966 44.9996 40.8689 44.7988 41.0697C44.598 41.2706 44.3256 41.3834 44.0416 41.3834C43.7576 41.3834 43.4853 41.2706 43.2844 41.0697C43.0836 40.8689 42.9708 40.5966 42.9708 40.3126V38.7355C42.9708 38.5948 42.9985 38.4556 43.0523 38.3257C43.1061 38.1958 43.185 38.0777 43.2844 37.9783C43.3839 37.8788 43.5019 37.8 43.6318 37.7462C43.7618 37.6923 43.901 37.6646 44.0416 37.6646C44.1822 37.6646 44.3215 37.6923 44.4514 37.7462C44.5813 37.8 44.6994 37.8788 44.7988 37.9783C44.8983 38.0777 44.9771 38.1958 45.0309 38.3257C45.0848 38.4556 45.1125 38.5948 45.1125 38.7355V40.3126ZM43.95 30.5834L27.3739 28.7948C27.2706 28.7812 27.1656 28.7884 27.0652 28.816C26.9647 28.8435 26.8707 28.8909 26.7888 28.9553C26.7069 29.0197 26.6388 29.0998 26.5883 29.191C26.5378 29.2821 26.5061 29.3824 26.495 29.486C26.4839 29.5896 26.4936 29.6944 26.5236 29.7942C26.5535 29.894 26.6032 29.9867 26.6695 30.0671C26.7359 30.1474 26.8177 30.2136 26.91 30.2618C27.0024 30.3101 27.1034 30.3394 27.2072 30.348L40.5708 31.7896L27.0291 36.6271L7.76454 30.1146L28.5437 23.448L46.826 29.5553L43.95 30.5834Z" fill="#1A1A1A"/>
</g>
<defs>
<clipPath id="clip0_43_1504">
<rect width="50" height="50" fill="white"/>
</clipPath>
</defs>
</svg>
