<svg width="50" height="50" viewBox="0 0 50 50" fill="none" xmlns="http://www.w3.org/2000/svg">
<path d="M39.5093 37.0437H38.5789V37.9742H39.5093V37.0437Z" fill="black"/>
<path d="M44.1962 20.2126H43.2659V21.1431H44.1962V20.2126Z" fill="black"/>
<path d="M34.1074 20.8618H33.177V21.7922H34.1074V20.8618Z" fill="black"/>
<path d="M44.6613 41.4397H43.731V42.3701H44.6613V41.4397Z" fill="black"/>
<path d="M36.1805 42.3235H35.25V43.2539H36.1805V42.3235Z" fill="black"/>
<path d="M42.9547 10.7755C42.517 10.5375 42.245 10.0804 42.245 9.58242V8.18145C42.7765 8.09131 43.1832 7.62881 43.1832 7.07187V5.46064C43.1832 4.83945 42.6777 4.33398 42.0565 4.33398H34.2805C33.6593 4.33398 33.154 4.83945 33.154 5.46064V7.07187C33.154 7.62861 33.5602 8.09121 34.0916 8.18135V9.58242C34.0916 9.82637 34.0256 10.0662 33.9007 10.2759C33.7754 10.4861 33.5959 10.6591 33.382 10.7754C30.449 12.369 28.6269 15.4327 28.6269 18.7709V19.7244H8.18491C6.76978 19.7244 5.58755 20.7854 5.43511 22.1922L4.48901 30.917L5.45981 31.0223L6.40591 22.2975C6.50464 21.3874 7.26939 20.701 8.18491 20.701H29.563C30.4786 20.701 31.2433 21.3873 31.342 22.2975L32.2874 31.0144L33.2582 30.9091L32.719 25.9369H41.7007V34.0572H35.8312V35.0338H42.6773V22.7291H32.371L32.3128 22.1922C32.1618 20.7988 31.0005 19.7454 29.6035 19.7254V18.771C29.6035 18.3834 29.6315 18.0001 29.6852 17.6231C30.6638 17.7334 31.2212 18.1279 31.8498 18.5754C32.6166 19.1213 33.4857 19.7401 35.1506 19.7401C36.8156 19.7401 37.6847 19.1213 38.4517 18.5754C39.1931 18.0476 39.8334 17.5917 41.1863 17.5917C42.5392 17.5917 43.1794 18.0476 43.9209 18.5754C44.6086 19.065 45.3807 19.6117 46.7334 19.7196V42.7896C46.7334 43.8057 45.9072 44.6323 44.8917 44.6323H33.0147V45.6089H44.8917C46.4457 45.6089 47.71 44.3441 47.71 42.7896V18.772C47.71 15.433 45.8879 12.369 42.9547 10.7755ZM41.7007 23.7056V24.9603H32.6131L32.477 23.7056H41.7007ZM34.1306 5.46064C34.1306 5.37783 34.1979 5.31055 34.2806 5.31055H42.0566C42.1394 5.31055 42.2067 5.37783 42.2067 5.46064V7.07187C42.2067 7.15469 42.1394 7.22197 42.0566 7.22197H34.2806C34.1979 7.22197 34.1306 7.15469 34.1306 7.07187V5.46064ZM44.4874 17.7797C43.7205 17.2337 42.8513 16.6149 41.1863 16.6149C39.5213 16.6149 38.6522 17.2337 37.8852 17.7797C37.1438 18.3075 36.5036 18.7634 35.1506 18.7634C33.7978 18.7634 33.1575 18.3075 32.4161 17.7797C31.7768 17.3245 31.0647 16.8201 29.8814 16.6645C30.4501 14.5436 31.8641 12.7114 33.8486 11.6332C34.2167 11.4329 34.5249 11.1363 34.7398 10.7756C34.8184 10.6435 34.8833 10.5044 34.9341 10.3605H39.5072V9.38398H35.0682V8.19863H41.2684V9.58242C41.2684 10.4386 41.7359 11.2244 42.4884 11.6335C45.0978 13.0513 46.7217 15.7727 46.7328 18.7412C45.7027 18.6444 45.1332 18.2395 44.4874 17.7797Z" fill="black"/>
<path d="M10.3733 13.8901H9.39673V15.3597H10.3733V13.8901Z" fill="black"/>
<path d="M10.3733 16.4023H9.39673V17.8719H10.3733V16.4023Z" fill="black"/>
<path d="M9.36357 15.3928H7.89404V16.3694H9.36357V15.3928Z" fill="black"/>
<path d="M11.8758 15.3928H10.4062V16.3694H11.8758V15.3928Z" fill="black"/>
<path d="M26.7944 6.65161H25.8179V8.12114H26.7944V6.65161Z" fill="black"/>
<path d="M26.7944 9.16357H25.8179V10.6331H26.7944V9.16357Z" fill="black"/>
<path d="M25.7848 8.15405H24.3152V9.13062H25.7848V8.15405Z" fill="black"/>
<path d="M28.2968 8.15405H26.8274V9.13062H28.2968V8.15405Z" fill="black"/>
<path d="M33.8785 39.1174C34.7562 39.106 35.467 38.3893 35.467 37.5088C35.467 36.6284 34.7561 35.9118 33.8782 35.9003C33.8782 35.8976 33.8785 35.8948 33.8785 35.892C33.8785 34.623 33.3729 33.2038 32.5258 32.0958C31.579 30.857 30.3678 30.1749 29.1154 30.1749C28.7594 30.1749 28.4068 30.2319 28.0626 30.3393C27.1573 28.4859 25.589 27.3124 23.9674 27.3124C22.354 27.3124 20.7879 28.48 19.8797 30.3234C19.5519 30.2263 19.2168 30.1749 18.8785 30.1749C18.5159 30.1749 18.1571 30.2338 17.8069 30.345C16.9019 28.488 15.3326 27.3123 13.7088 27.3123C12.0994 27.3123 10.5354 28.4757 9.62734 30.3125C9.31074 30.2221 8.9875 30.1749 8.66143 30.1749C7.40879 30.1749 6.19756 30.857 5.25078 32.0958C4.404 33.2037 3.89844 34.6228 3.89844 35.892C3.89844 35.8945 3.89863 35.8969 3.89863 35.8994C3.01162 35.8999 2.29004 36.6216 2.29004 37.5087C2.29004 38.3958 3.01123 39.1174 3.89805 39.1182V41.02C3.89805 43.5742 5.97598 45.6522 8.53027 45.6522C10.4496 45.6522 12.1 44.4787 12.8019 42.8116H14.6146C15.3131 44.4859 16.9669 45.666 18.8914 45.666C20.816 45.666 22.4697 44.4859 23.1684 42.8116H24.9745C25.595 44.2854 26.957 45.3726 28.5906 45.605V45.6081C28.5971 45.6081 28.6036 45.6075 28.6101 45.6075C28.8182 45.6361 29.0303 45.6521 29.2461 45.6521C31.8003 45.6521 33.8784 43.5742 33.8784 41.0199V39.1174H33.8785ZM29.1155 31.1515C31.1548 31.1515 32.902 33.7582 32.902 35.8921C32.902 35.8945 32.9018 35.897 32.9018 35.8995H25.3294C25.3294 35.897 25.3292 35.8945 25.3292 35.8921C25.3292 33.7583 27.0764 31.1515 29.1155 31.1515ZM23.9675 28.289C25.3554 28.289 26.5307 29.4663 27.1725 30.7449C26.6413 31.0675 26.1444 31.5208 25.705 32.0958C24.8581 33.2038 24.3525 34.6229 24.3525 35.8921C24.3525 35.8945 24.3527 35.897 24.3528 35.8995H23.6413C23.6413 35.897 23.6415 35.8945 23.6415 35.8921C23.6415 34.6231 23.1358 33.2039 22.2889 32.0958C21.8368 31.5043 21.3241 31.0416 20.7759 30.7176C21.4209 29.4519 22.592 28.289 23.9675 28.289ZM18.8785 31.1515C20.9178 31.1515 22.6648 33.7582 22.6648 35.8921C22.6648 35.8945 22.6646 35.897 22.6646 35.8995H15.0923C15.0923 35.897 15.0921 35.8945 15.0921 35.8921C15.0922 33.7583 16.8395 31.1515 18.8785 31.1515ZM13.7089 28.289C15.1006 28.289 16.2778 29.4714 16.919 30.7548C16.394 31.0768 15.9029 31.5267 15.468 32.0958C14.6212 33.2038 14.1156 34.6229 14.1156 35.8921C14.1156 35.8945 14.1158 35.897 14.1158 35.8995H13.4243C13.4243 35.897 13.4245 35.8945 13.4245 35.8921C13.4245 34.6231 12.9188 33.2039 12.0718 32.0958C11.6111 31.4932 11.0878 31.0236 10.5277 30.6989C11.1732 29.4419 12.3403 28.289 13.7089 28.289ZM8.66152 31.1515C10.7007 31.1515 12.4479 33.7582 12.4479 35.8921C12.4479 35.8945 12.4477 35.897 12.4477 35.8995H4.87539C4.87539 35.897 4.8752 35.8945 4.8752 35.8921C4.8752 33.7583 6.62236 31.1515 8.66152 31.1515ZM4.8748 41.0202V39.1185H5.48672V41.004C5.48672 42.1139 5.79971 43.1334 6.32012 43.9293C5.44248 43.2609 4.8748 42.2058 4.8748 41.0202ZM13.0895 41.8352C13.1366 41.5705 13.1627 41.2984 13.1627 41.0202V40.7778C13.1627 40.4772 13.4072 40.2327 13.7142 40.2327C14.0147 40.2327 14.2593 40.4772 14.2593 40.7778V41.0338C14.2593 41.3073 14.2845 41.5747 14.3301 41.8352H13.0895ZM23.4529 41.8352C23.4986 41.5747 23.5238 41.3073 23.5238 41.0338V40.7778C23.5238 40.4772 23.7684 40.2327 24.0688 40.2327C24.3694 40.2327 24.614 40.4772 24.614 40.7778V41.0202C24.614 41.2984 24.64 41.5705 24.6872 41.8352H23.4529ZM31.264 41.004C31.264 42.9705 30.1049 44.5752 28.6653 44.6291C26.9248 44.35 25.5906 42.8381 25.5906 41.0202V40.7778C25.5906 39.9387 24.908 39.2561 24.0689 39.2561C23.2299 39.2561 22.5474 39.9387 22.5474 40.7778V41.0338C22.5474 43.0497 20.9074 44.6896 18.8916 44.6896C16.8759 44.6896 15.2359 43.0497 15.2359 41.0338V40.7778C15.2359 39.9387 14.5533 39.2561 13.7078 39.2561C12.8688 39.2561 12.1862 39.9387 12.1862 40.7778V41.0202C12.1862 42.841 10.848 44.3547 9.10352 44.6306C7.64473 44.6064 6.46338 42.9893 6.46338 41.004V39.1185H31.2641V41.004H31.264ZM32.902 41.0202C32.902 42.2498 32.291 43.3387 31.3576 44.0017C31.9072 43.1955 32.2405 42.1483 32.2405 41.004V39.1185H32.902V41.0202ZM3.8998 38.1419C3.55078 38.1419 3.26689 37.858 3.26689 37.5089C3.26689 37.16 3.55078 36.8761 3.8998 36.8761H33.8574C34.2064 36.8761 34.4904 37.16 34.4904 37.5089C34.4904 37.858 34.2064 38.1419 33.8574 38.1419H3.8998ZM9.93994 22.757C9.93994 22.0519 9.36641 21.4783 8.66133 21.4783C7.95625 21.4783 7.38262 22.0519 7.38262 22.757C7.38262 23.4621 7.95625 24.0357 8.66133 24.0357C9.36641 24.0357 9.93994 23.4621 9.93994 22.757ZM8.35928 22.757C8.35928 22.5904 8.49482 22.4548 8.66143 22.4548C8.82793 22.4548 8.96348 22.5904 8.96348 22.757C8.96348 22.9236 8.82793 23.0591 8.66143 23.0591C8.49473 23.0591 8.35928 22.9236 8.35928 22.757ZM29.1153 24.0357C29.8205 24.0357 30.394 23.4621 30.394 22.757C30.394 22.0519 29.8205 21.4783 29.1153 21.4783C28.4104 21.4783 27.8366 22.0519 27.8366 22.757C27.8366 23.4621 28.4104 24.0357 29.1153 24.0357ZM29.1153 22.4548C29.2819 22.4548 29.4175 22.5904 29.4175 22.757C29.4175 22.9236 29.2819 23.0591 29.1153 23.0591C28.9488 23.0591 28.8132 22.9236 28.8132 22.757C28.8132 22.5904 28.9488 22.4548 29.1153 22.4548Z" fill="black"/>
<path d="M26.6699 22.321H24.7612V23.2976H26.6699V22.321Z" fill="black"/>
<path d="M23.6209 22.321H11.1755V23.2976H23.6209V22.321Z" fill="black"/>
<path d="M45.3472 36.5085H44.3706V38.0389H45.3472V36.5085Z" fill="black"/>
<path d="M45.3472 22.6875H44.3706V35.1127H45.3472V22.6875Z" fill="black"/>
</svg>
