<svg width="50" height="50" viewBox="0 0 50 50" fill="none" xmlns="http://www.w3.org/2000/svg">
<circle cx="25" cy="25" r="25" fill="#FF682D"/>
<path d="M20.366 17.366C20.1316 17.6004 20 17.9183 20 18.2497C20 18.5812 20.1316 18.8991 20.366 19.1335L26.5535 25.321L20.366 31.5085C20.1383 31.7442 20.0123 32.06 20.0151 32.3877C20.018 32.7155 20.1494 33.029 20.3812 33.2608C20.613 33.4925 20.9265 33.624 21.2542 33.6268C21.582 33.6297 21.8977 33.5037 22.1335 33.276L29.2047 26.2047C29.4391 25.9703 29.5707 25.6524 29.5707 25.321C29.5707 24.9895 29.4391 24.6716 29.2047 24.4372L22.1335 17.366C21.8991 17.1316 21.5812 17 21.2497 17C20.9183 17 20.6004 17.1316 20.366 17.366Z" fill="white"/>
</svg>
