<svg width="287" height="150" viewBox="0 0 287 150" fill="none" xmlns="http://www.w3.org/2000/svg">
<rect width="287" height="150" rx="10" fill="#FF682D"/>
<path d="M50.03 60.15C50.59 60.15 51.0567 60.3367 51.43 60.71C51.8033 61.0833 51.99 61.55 51.99 62.11C51.99 62.6467 51.8033 63.1017 51.43 63.475C51.0567 63.825 50.59 64 50.03 64H38.13C37.5233 64 37.045 63.8133 36.695 63.44C36.345 63.0667 36.17 62.5883 36.17 62.005C36.17 61.4217 36.38 60.9083 36.8 60.465L44.43 52.31C45.2933 51.3767 45.97 50.42 46.46 49.44C46.9733 48.46 47.23 47.6083 47.23 46.885C47.23 45.7183 46.8917 44.785 46.215 44.085C45.5383 43.3617 44.64 43 43.52 43C43.0767 43 42.6217 43.105 42.155 43.315C41.6883 43.525 41.2333 43.8167 40.79 44.19C40.37 44.5633 39.9733 44.995 39.6 45.485C39.32 45.8583 39.04 46.0917 38.76 46.185C38.48 46.2783 38.2233 46.325 37.99 46.325C37.4767 46.325 36.9983 46.1383 36.555 45.765C36.135 45.3683 35.925 44.9133 35.925 44.4C35.925 44.0033 36.0533 43.6183 36.31 43.245C36.59 42.8717 36.9283 42.4867 37.325 42.09C37.9083 41.5067 38.5617 40.9933 39.285 40.55C40.0083 40.1067 40.755 39.7683 41.525 39.535C42.295 39.2783 43.0417 39.15 43.765 39.15C45.3283 39.15 46.6817 39.465 47.825 40.095C48.9917 40.7017 49.89 41.5767 50.52 42.72C51.15 43.84 51.465 45.17 51.465 46.71C51.465 47.9933 51.08 49.4283 50.31 51.015C49.5633 52.5783 48.5483 54.0483 47.265 55.425L42.54 60.465L42.155 60.15H50.03ZM62.3618 64.35C61.4984 64.35 60.5768 64.2217 59.5968 63.965C58.6168 63.685 57.8118 63.2883 57.1818 62.775C56.8784 62.5183 56.6334 62.1917 56.4468 61.795C56.2834 61.375 56.2018 60.9783 56.2018 60.605C56.2018 60.2083 56.3651 59.835 56.6918 59.485C57.0418 59.135 57.5318 58.96 58.1618 58.96C58.5818 58.96 59.1068 59.1817 59.7368 59.625C60.1101 59.8583 60.5184 60.0683 60.9618 60.255C61.4051 60.4417 61.8601 60.535 62.3268 60.535C63.4468 60.535 64.4151 60.3367 65.2318 59.94C66.0484 59.52 66.6784 58.9483 67.1218 58.225C67.5651 57.5017 67.7868 56.65 67.7868 55.67C67.7868 54.7833 67.5768 54.025 67.1568 53.395C66.7601 52.765 66.2234 52.275 65.5468 51.925C64.8934 51.575 64.1818 51.4 63.4118 51.4C62.6884 51.4 62.0584 51.5167 61.5218 51.75C60.9851 51.9833 60.4951 52.2283 60.0518 52.485C59.6084 52.7183 59.1651 52.835 58.7218 52.835C57.9518 52.835 57.3801 52.6717 57.0068 52.345C56.6334 51.995 56.4001 51.5867 56.3068 51.12C56.2134 50.6533 56.1901 50.2333 56.2368 49.86L57.3218 41.355C57.4151 40.865 57.6484 40.4683 58.0218 40.165C58.4184 39.8383 58.8851 39.675 59.4218 39.675H69.5368C70.0968 39.675 70.5634 39.8617 70.9368 40.235C71.3101 40.6083 71.4968 41.075 71.4968 41.635C71.4968 42.1717 71.3101 42.6267 70.9368 43C70.5634 43.35 70.0968 43.525 69.5368 43.525H60.5068L60.8918 43.21L59.9468 50.315L59.4918 48.985C59.6318 48.7517 59.9351 48.53 60.4018 48.32C60.8684 48.11 61.4051 47.935 62.0118 47.795C62.6184 47.6317 63.2134 47.55 63.7968 47.55C65.3601 47.55 66.7601 47.9117 67.9968 48.635C69.2334 49.335 70.2018 50.3033 70.9018 51.54C71.6251 52.7533 71.9868 54.13 71.9868 55.67C71.9868 57.42 71.5901 58.9483 70.7968 60.255C70.0034 61.5617 68.8834 62.5767 67.4368 63.3C66.0134 64 64.3218 64.35 62.3618 64.35ZM84.8378 64.35C82.8311 64.35 81.1278 63.825 79.7278 62.775C78.3511 61.7017 77.3011 60.22 76.5778 58.33C75.8544 56.4167 75.4928 54.2233 75.4928 51.75C75.4928 49.2533 75.8544 47.06 76.5778 45.17C77.3011 43.28 78.3511 41.81 79.7278 40.76C81.1278 39.6867 82.8311 39.15 84.8378 39.15C86.8444 39.15 88.5361 39.6867 89.9128 40.76C91.3128 41.81 92.3744 43.28 93.0978 45.17C93.8211 47.06 94.1828 49.2533 94.1828 51.75C94.1828 54.2233 93.8211 56.4167 93.0978 58.33C92.3744 60.22 91.3128 61.7017 89.9128 62.775C88.5361 63.825 86.8444 64.35 84.8378 64.35ZM84.8378 60.15C85.8178 60.15 86.6578 59.8467 87.3578 59.24C88.0811 58.61 88.6411 57.6767 89.0378 56.44C89.4344 55.18 89.6328 53.6167 89.6328 51.75C89.6328 49.86 89.4344 48.2967 89.0378 47.06C88.6411 45.8233 88.0811 44.9017 87.3578 44.295C86.6578 43.665 85.8178 43.35 84.8378 43.35C83.8811 43.35 83.0411 43.665 82.3178 44.295C81.5944 44.9017 81.0344 45.8233 80.6378 47.06C80.2411 48.2967 80.0428 49.86 80.0428 51.75C80.0428 53.6167 80.2411 55.18 80.6378 56.44C81.0344 57.6767 81.5944 58.61 82.3178 59.24C83.0411 59.8467 83.8811 60.15 84.8378 60.15ZM106.337 64.35C104.33 64.35 102.627 63.825 101.227 62.775C99.8501 61.7017 98.8001 60.22 98.0768 58.33C97.3535 56.4167 96.9918 54.2233 96.9918 51.75C96.9918 49.2533 97.3535 47.06 98.0768 45.17C98.8001 43.28 99.8501 41.81 101.227 40.76C102.627 39.6867 104.33 39.15 106.337 39.15C108.343 39.15 110.035 39.6867 111.412 40.76C112.812 41.81 113.873 43.28 114.597 45.17C115.32 47.06 115.682 49.2533 115.682 51.75C115.682 54.2233 115.32 56.4167 114.597 58.33C113.873 60.22 112.812 61.7017 111.412 62.775C110.035 63.825 108.343 64.35 106.337 64.35ZM106.337 60.15C107.317 60.15 108.157 59.8467 108.857 59.24C109.58 58.61 110.14 57.6767 110.537 56.44C110.933 55.18 111.132 53.6167 111.132 51.75C111.132 49.86 110.933 48.2967 110.537 47.06C110.14 45.8233 109.58 44.9017 108.857 44.295C108.157 43.665 107.317 43.35 106.337 43.35C105.38 43.35 104.54 43.665 103.817 44.295C103.093 44.9017 102.533 45.8233 102.137 47.06C101.74 48.2967 101.542 49.86 101.542 51.75C101.542 53.6167 101.74 55.18 102.137 56.44C102.533 57.6767 103.093 58.61 103.817 59.24C104.54 59.8467 105.38 60.15 106.337 60.15ZM120.451 54.34C119.891 54.34 119.424 54.1533 119.051 53.78C118.677 53.4067 118.491 52.94 118.491 52.38C118.491 51.82 118.677 51.365 119.051 51.015C119.424 50.665 119.891 50.49 120.451 50.49H134.696C135.256 50.49 135.722 50.6767 136.096 51.05C136.469 51.4 136.656 51.855 136.656 52.415C136.656 52.975 136.469 53.4417 136.096 53.815C135.722 54.165 135.256 54.34 134.696 54.34H120.451ZM127.521 61.165C126.867 61.165 126.319 60.955 125.876 60.535C125.456 60.115 125.246 59.5783 125.246 58.925V45.275C125.246 44.6217 125.467 44.085 125.911 43.665C126.354 43.245 126.902 43.035 127.556 43.035C128.232 43.035 128.769 43.245 129.166 43.665C129.586 44.085 129.796 44.6217 129.796 45.275V58.925C129.796 59.5783 129.586 60.115 129.166 60.535C128.746 60.955 128.197 61.165 127.521 61.165ZM166.91 40.69C167.516 40.9933 167.866 41.4717 167.96 42.125C168.076 42.7783 167.913 43.3733 167.47 43.91C167.166 44.33 166.77 44.5633 166.28 44.61C165.813 44.6567 165.335 44.5633 164.845 44.33C164.285 44.0733 163.69 43.875 163.06 43.735C162.453 43.595 161.811 43.525 161.135 43.525C159.875 43.525 158.743 43.7233 157.74 44.12C156.76 44.5167 155.92 45.0883 155.22 45.835C154.52 46.5583 153.983 47.4217 153.61 48.425C153.26 49.4283 153.085 50.5367 153.085 51.75C153.085 53.1733 153.283 54.41 153.68 55.46C154.1 56.51 154.671 57.385 155.395 58.085C156.118 58.785 156.97 59.31 157.95 59.66C158.93 59.9867 159.991 60.15 161.135 60.15C161.765 60.15 162.395 60.0917 163.025 59.975C163.655 59.8583 164.261 59.6483 164.845 59.345C165.335 59.1117 165.813 59.03 166.28 59.1C166.77 59.17 167.178 59.415 167.505 59.835C167.971 60.4183 168.135 61.025 167.995 61.655C167.878 62.2617 167.528 62.705 166.945 62.985C166.338 63.2883 165.708 63.545 165.055 63.755C164.425 63.9417 163.783 64.0817 163.13 64.175C162.476 64.2917 161.811 64.35 161.135 64.35C159.455 64.35 157.856 64.0817 156.34 63.545C154.846 63.0083 153.505 62.215 152.315 61.165C151.148 60.115 150.226 58.8083 149.55 57.245C148.873 55.6583 148.535 53.8267 148.535 51.75C148.535 49.9533 148.838 48.2967 149.445 46.78C150.075 45.2633 150.95 43.9567 152.07 42.86C153.213 41.74 154.555 40.8767 156.095 40.27C157.635 39.64 159.315 39.325 161.135 39.325C162.161 39.325 163.165 39.4417 164.145 39.675C165.125 39.9083 166.046 40.2467 166.91 40.69ZM175.903 61.865C175.903 62.4717 175.693 62.985 175.273 63.405C174.876 63.8017 174.375 64 173.768 64C173.185 64 172.695 63.8017 172.298 63.405C171.901 62.985 171.703 62.4717 171.703 61.865V40.235C171.703 39.6283 171.901 39.1267 172.298 38.73C172.718 38.31 173.231 38.1 173.838 38.1C174.445 38.1 174.935 38.31 175.308 38.73C175.705 39.1267 175.903 39.6283 175.903 40.235V61.865ZM184.742 61.865C184.742 62.4717 184.543 62.985 184.147 63.405C183.75 63.8017 183.248 64 182.642 64C182.035 64 181.533 63.8017 181.137 63.405C180.74 62.985 180.542 62.4717 180.542 61.865V47.41C180.542 46.8033 180.74 46.3017 181.137 45.905C181.533 45.485 182.035 45.275 182.642 45.275C183.248 45.275 183.75 45.485 184.147 45.905C184.543 46.3017 184.742 46.8033 184.742 47.41V61.865ZM182.607 43C181.813 43 181.253 42.8717 180.927 42.615C180.6 42.3583 180.437 41.9033 180.437 41.25V40.585C180.437 39.9083 180.612 39.4533 180.962 39.22C181.335 38.9633 181.895 38.835 182.642 38.835C183.458 38.835 184.03 38.9633 184.357 39.22C184.683 39.4767 184.847 39.9317 184.847 40.585V41.25C184.847 41.9267 184.672 42.3933 184.322 42.65C183.972 42.8833 183.4 43 182.607 43ZM197.878 64.35C195.895 64.35 194.168 63.9417 192.698 63.125C191.252 62.285 190.132 61.1533 189.338 59.73C188.568 58.3067 188.183 56.6967 188.183 54.9C188.183 52.8 188.603 51.015 189.443 49.545C190.307 48.0517 191.427 46.9083 192.803 46.115C194.18 45.3217 195.638 44.925 197.178 44.925C198.368 44.925 199.488 45.17 200.538 45.66C201.612 46.15 202.557 46.8267 203.373 47.69C204.19 48.53 204.832 49.51 205.298 50.63C205.788 51.75 206.033 52.94 206.033 54.2C206.01 54.76 205.788 55.215 205.368 55.565C204.948 55.915 204.458 56.09 203.898 56.09H190.528L189.478 52.59H202.323L201.553 53.29V52.345C201.507 51.6683 201.262 51.0617 200.818 50.525C200.398 49.9883 199.862 49.5683 199.208 49.265C198.578 48.9383 197.902 48.775 197.178 48.775C196.478 48.775 195.825 48.8683 195.218 49.055C194.612 49.2417 194.087 49.5567 193.643 50C193.2 50.4433 192.85 51.0383 192.593 51.785C192.337 52.5317 192.208 53.4767 192.208 54.62C192.208 55.88 192.465 56.9533 192.978 57.84C193.515 58.7033 194.192 59.3683 195.008 59.835C195.848 60.2783 196.735 60.5 197.668 60.5C198.532 60.5 199.22 60.43 199.733 60.29C200.247 60.15 200.655 59.9867 200.958 59.8C201.285 59.59 201.577 59.415 201.833 59.275C202.253 59.065 202.65 58.96 203.023 58.96C203.537 58.96 203.957 59.135 204.283 59.485C204.633 59.835 204.808 60.2433 204.808 60.71C204.808 61.34 204.482 61.9117 203.828 62.425C203.222 62.9383 202.37 63.3933 201.273 63.79C200.177 64.1633 199.045 64.35 197.878 64.35ZM219.713 44.925C221.439 44.925 222.746 45.2867 223.633 46.01C224.543 46.7333 225.161 47.7017 225.488 48.915C225.838 50.105 226.013 51.435 226.013 52.905V61.865C226.013 62.4717 225.814 62.985 225.418 63.405C225.021 63.8017 224.519 64 223.913 64C223.306 64 222.804 63.8017 222.408 63.405C222.011 62.985 221.813 62.4717 221.813 61.865V52.905C221.813 52.135 221.708 51.4467 221.498 50.84C221.311 50.21 220.961 49.7083 220.448 49.335C219.934 48.9617 219.199 48.775 218.243 48.775C217.309 48.775 216.516 48.9617 215.863 49.335C215.233 49.7083 214.743 50.21 214.393 50.84C214.066 51.4467 213.903 52.135 213.903 52.905V61.865C213.903 62.4717 213.704 62.985 213.308 63.405C212.911 63.8017 212.409 64 211.803 64C211.196 64 210.694 63.8017 210.298 63.405C209.901 62.985 209.703 62.4717 209.703 61.865V47.41C209.703 46.8033 209.901 46.3017 210.298 45.905C210.694 45.485 211.196 45.275 211.803 45.275C212.409 45.275 212.911 45.485 213.308 45.905C213.704 46.3017 213.903 46.8033 213.903 47.41V48.915L213.378 48.81C213.588 48.4133 213.891 47.9933 214.288 47.55C214.684 47.0833 215.151 46.6517 215.688 46.255C216.224 45.8583 216.831 45.5433 217.508 45.31C218.184 45.0533 218.919 44.925 219.713 44.925ZM230.762 45.625H239.057C239.617 45.625 240.084 45.8117 240.457 46.185C240.831 46.5583 241.017 47.025 241.017 47.585C241.017 48.1217 240.831 48.5767 240.457 48.95C240.084 49.3 239.617 49.475 239.057 49.475H230.762C230.202 49.475 229.736 49.2883 229.362 48.915C228.989 48.5417 228.802 48.075 228.802 47.515C228.802 46.9783 228.989 46.535 229.362 46.185C229.736 45.8117 230.202 45.625 230.762 45.625ZM234.507 41.25C235.114 41.25 235.604 41.46 235.977 41.88C236.374 42.2767 236.572 42.7783 236.572 43.385V58.96C236.572 59.2867 236.631 59.555 236.747 59.765C236.887 59.975 237.062 60.1267 237.272 60.22C237.506 60.3133 237.751 60.36 238.007 60.36C238.287 60.36 238.544 60.3133 238.777 60.22C239.011 60.1033 239.279 60.045 239.582 60.045C239.909 60.045 240.201 60.1967 240.457 60.5C240.737 60.8033 240.877 61.2233 240.877 61.76C240.877 62.4133 240.516 62.95 239.792 63.37C239.092 63.79 238.334 64 237.517 64C237.027 64 236.479 63.965 235.872 63.895C235.289 63.8017 234.729 63.6033 234.192 63.3C233.679 62.9733 233.247 62.4833 232.897 61.83C232.547 61.1767 232.372 60.2783 232.372 59.135V43.385C232.372 42.7783 232.571 42.2767 232.967 41.88C233.387 41.46 233.901 41.25 234.507 41.25ZM244.472 61.095C244.239 60.7683 244.134 60.3483 244.157 59.835C244.181 59.3217 244.484 58.8783 245.067 58.505C245.441 58.2717 245.837 58.1783 246.257 58.225C246.677 58.2483 247.086 58.4583 247.482 58.855C248.159 59.5317 248.871 60.0567 249.617 60.43C250.364 60.8033 251.297 60.99 252.417 60.99C252.767 60.9667 253.152 60.92 253.572 60.85C253.992 60.7567 254.354 60.57 254.657 60.29C254.984 59.9867 255.147 59.5317 255.147 58.925C255.147 58.4117 254.972 58.0033 254.622 57.7C254.272 57.3967 253.806 57.14 253.222 56.93C252.662 56.72 252.032 56.5217 251.332 56.335C250.609 56.125 249.862 55.8917 249.092 55.635C248.346 55.3783 247.657 55.0517 247.027 54.655C246.397 54.235 245.884 53.6867 245.487 53.01C245.091 52.3333 244.892 51.4817 244.892 50.455C244.892 49.2883 245.219 48.2967 245.872 47.48C246.526 46.6633 247.366 46.0333 248.392 45.59C249.442 45.1467 250.539 44.925 251.682 44.925C252.406 44.925 253.164 45.0183 253.957 45.205C254.751 45.3683 255.509 45.6483 256.232 46.045C256.956 46.4183 257.562 46.92 258.052 47.55C258.309 47.9 258.461 48.32 258.507 48.81C258.554 49.3 258.332 49.7433 257.842 50.14C257.492 50.42 257.084 50.5483 256.617 50.525C256.151 50.4783 255.766 50.315 255.462 50.035C255.066 49.5217 254.529 49.1133 253.852 48.81C253.199 48.5067 252.441 48.355 251.577 48.355C251.227 48.355 250.842 48.4017 250.422 48.495C250.026 48.565 249.676 48.74 249.372 49.02C249.069 49.2767 248.917 49.6967 248.917 50.28C248.917 50.8167 249.092 51.2483 249.442 51.575C249.792 51.8783 250.259 52.135 250.842 52.345C251.449 52.5317 252.091 52.7183 252.767 52.905C253.467 53.0917 254.179 53.3133 254.902 53.57C255.626 53.8267 256.291 54.165 256.897 54.585C257.504 55.005 257.994 55.5533 258.367 56.23C258.741 56.8833 258.927 57.7233 258.927 58.75C258.927 59.94 258.577 60.955 257.877 61.795C257.177 62.635 256.302 63.2767 255.252 63.72C254.202 64.14 253.129 64.35 252.032 64.35C250.656 64.35 249.279 64.1167 247.902 63.65C246.526 63.16 245.382 62.3083 244.472 61.095ZM44.5 118.35C42.8667 118.35 41.3967 118.152 40.09 117.755C38.7833 117.335 37.535 116.612 36.345 115.585C36.0417 115.328 35.8083 115.037 35.645 114.71C35.4817 114.383 35.4 114.057 35.4 113.73C35.4 113.193 35.5867 112.727 35.96 112.33C36.3567 111.91 36.8467 111.7 37.43 111.7C37.8733 111.7 38.27 111.84 38.62 112.12C39.5067 112.843 40.3817 113.392 41.245 113.765C42.1317 114.138 43.2167 114.325 44.5 114.325C45.3633 114.325 46.1567 114.197 46.88 113.94C47.6033 113.66 48.1867 113.298 48.63 112.855C49.0733 112.388 49.295 111.863 49.295 111.28C49.295 110.58 49.085 109.985 48.665 109.495C48.245 109.005 47.6033 108.597 46.74 108.27C45.8767 107.92 44.78 107.652 43.45 107.465C42.19 107.278 41.0817 106.998 40.125 106.625C39.1683 106.228 38.3633 105.738 37.71 105.155C37.08 104.548 36.6017 103.848 36.275 103.055C35.9483 102.238 35.785 101.328 35.785 100.325C35.785 98.8083 36.17 97.5133 36.94 96.44C37.7333 95.3667 38.795 94.55 40.125 93.99C41.455 93.43 42.925 93.15 44.535 93.15C46.0517 93.15 47.4517 93.3833 48.735 93.85C50.0417 94.2933 51.1033 94.865 51.92 95.565C52.5967 96.1017 52.935 96.72 52.935 97.42C52.935 97.9333 52.7367 98.4 52.34 98.82C51.9433 99.24 51.4767 99.45 50.94 99.45C50.59 99.45 50.275 99.345 49.995 99.135C49.6217 98.8083 49.12 98.505 48.49 98.225C47.86 97.9217 47.195 97.6767 46.495 97.49C45.795 97.28 45.1417 97.175 44.535 97.175C43.5317 97.175 42.68 97.3033 41.98 97.56C41.3033 97.8167 40.79 98.1667 40.44 98.61C40.09 99.0533 39.915 99.5667 39.915 100.15C39.915 100.85 40.1133 101.433 40.51 101.9C40.93 102.343 41.525 102.705 42.295 102.985C43.065 103.242 43.9867 103.475 45.06 103.685C46.46 103.942 47.685 104.245 48.735 104.595C49.8083 104.945 50.695 105.4 51.395 105.96C52.095 106.497 52.62 107.185 52.97 108.025C53.32 108.842 53.495 109.845 53.495 111.035C53.495 112.552 53.075 113.858 52.235 114.955C51.395 116.052 50.2867 116.892 48.91 117.475C47.5567 118.058 46.0867 118.35 44.5 118.35ZM72.4888 98.925C73.0955 98.925 73.5971 99.1233 73.9938 99.52C74.3905 99.9167 74.5888 100.43 74.5888 101.06V115.865C74.5888 116.472 74.3905 116.985 73.9938 117.405C73.5971 117.802 73.0955 118 72.4888 118C71.8821 118 71.3805 117.802 70.9838 117.405C70.5871 116.985 70.3888 116.472 70.3888 115.865V114.15L71.1588 114.465C71.1588 114.768 70.9955 115.142 70.6688 115.585C70.3421 116.005 69.8988 116.425 69.3388 116.845C68.7788 117.265 68.1138 117.627 67.3438 117.93C66.5971 118.21 65.7805 118.35 64.8938 118.35C63.2838 118.35 61.8255 117.942 60.5188 117.125C59.2121 116.285 58.1738 115.142 57.4038 113.695C56.6571 112.225 56.2838 110.545 56.2838 108.655C56.2838 106.742 56.6571 105.062 57.4038 103.615C58.1738 102.145 59.2005 101.002 60.4838 100.185C61.7671 99.345 63.1905 98.925 64.7538 98.925C65.7571 98.925 66.6788 99.0767 67.5188 99.38C68.3588 99.6833 69.0821 100.068 69.6888 100.535C70.3188 101.002 70.7971 101.48 71.1238 101.97C71.4738 102.437 71.6488 102.833 71.6488 103.16L70.3888 103.615V101.06C70.3888 100.453 70.5871 99.9517 70.9838 99.555C71.3805 99.135 71.8821 98.925 72.4888 98.925ZM65.4188 114.5C66.4455 114.5 67.3438 114.243 68.1138 113.73C68.8838 113.217 69.4788 112.517 69.8988 111.63C70.3421 110.743 70.5638 109.752 70.5638 108.655C70.5638 107.535 70.3421 106.532 69.8988 105.645C69.4788 104.758 68.8838 104.058 68.1138 103.545C67.3438 103.032 66.4455 102.775 65.4188 102.775C64.4155 102.775 63.5288 103.032 62.7588 103.545C61.9888 104.058 61.3821 104.758 60.9388 105.645C60.5188 106.532 60.3088 107.535 60.3088 108.655C60.3088 109.752 60.5188 110.743 60.9388 111.63C61.3821 112.517 61.9888 113.217 62.7588 113.73C63.5288 114.243 64.4155 114.5 65.4188 114.5ZM79.3463 99.625H87.6413C88.2013 99.625 88.668 99.8117 89.0413 100.185C89.4147 100.558 89.6013 101.025 89.6013 101.585C89.6013 102.122 89.4147 102.577 89.0413 102.95C88.668 103.3 88.2013 103.475 87.6413 103.475H79.3463C78.7863 103.475 78.3197 103.288 77.9463 102.915C77.573 102.542 77.3863 102.075 77.3863 101.515C77.3863 100.978 77.573 100.535 77.9463 100.185C78.3197 99.8117 78.7863 99.625 79.3463 99.625ZM83.0913 95.25C83.698 95.25 84.188 95.46 84.5613 95.88C84.958 96.2767 85.1563 96.7783 85.1563 97.385V112.96C85.1563 113.287 85.2147 113.555 85.3313 113.765C85.4713 113.975 85.6463 114.127 85.8563 114.22C86.0897 114.313 86.3347 114.36 86.5913 114.36C86.8713 114.36 87.128 114.313 87.3613 114.22C87.5947 114.103 87.863 114.045 88.1663 114.045C88.493 114.045 88.7847 114.197 89.0413 114.5C89.3213 114.803 89.4613 115.223 89.4613 115.76C89.4613 116.413 89.0997 116.95 88.3763 117.37C87.6763 117.79 86.918 118 86.1013 118C85.6113 118 85.063 117.965 84.4563 117.895C83.873 117.802 83.313 117.603 82.7763 117.3C82.263 116.973 81.8313 116.483 81.4813 115.83C81.1313 115.177 80.9563 114.278 80.9563 113.135V97.385C80.9563 96.7783 81.1547 96.2767 81.5513 95.88C81.9713 95.46 82.4847 95.25 83.0913 95.25ZM97.4126 115.865C97.4126 116.472 97.2143 116.985 96.8176 117.405C96.421 117.802 95.9193 118 95.3126 118C94.706 118 94.2043 117.802 93.8076 117.405C93.411 116.985 93.2126 116.472 93.2126 115.865V101.41C93.2126 100.803 93.411 100.302 93.8076 99.905C94.2043 99.485 94.706 99.275 95.3126 99.275C95.9193 99.275 96.421 99.485 96.8176 99.905C97.2143 100.302 97.4126 100.803 97.4126 101.41V115.865ZM95.2776 97C94.4843 97 93.9243 96.8717 93.5976 96.615C93.271 96.3583 93.1076 95.9033 93.1076 95.25V94.585C93.1076 93.9083 93.2826 93.4533 93.6326 93.22C94.006 92.9633 94.566 92.835 95.3126 92.835C96.1293 92.835 96.701 92.9633 97.0276 93.22C97.3543 93.4767 97.5176 93.9317 97.5176 94.585V95.25C97.5176 95.9267 97.3426 96.3933 96.9926 96.65C96.6426 96.8833 96.071 97 95.2776 97ZM100.644 115.095C100.411 114.768 100.306 114.348 100.329 113.835C100.352 113.322 100.656 112.878 101.239 112.505C101.612 112.272 102.009 112.178 102.429 112.225C102.849 112.248 103.257 112.458 103.654 112.855C104.331 113.532 105.042 114.057 105.789 114.43C106.536 114.803 107.469 114.99 108.589 114.99C108.939 114.967 109.324 114.92 109.744 114.85C110.164 114.757 110.526 114.57 110.829 114.29C111.156 113.987 111.319 113.532 111.319 112.925C111.319 112.412 111.144 112.003 110.794 111.7C110.444 111.397 109.977 111.14 109.394 110.93C108.834 110.72 108.204 110.522 107.504 110.335C106.781 110.125 106.034 109.892 105.264 109.635C104.517 109.378 103.829 109.052 103.199 108.655C102.569 108.235 102.056 107.687 101.659 107.01C101.262 106.333 101.064 105.482 101.064 104.455C101.064 103.288 101.391 102.297 102.044 101.48C102.697 100.663 103.537 100.033 104.564 99.59C105.614 99.1467 106.711 98.925 107.854 98.925C108.577 98.925 109.336 99.0183 110.129 99.205C110.922 99.3683 111.681 99.6483 112.404 100.045C113.127 100.418 113.734 100.92 114.224 101.55C114.481 101.9 114.632 102.32 114.679 102.81C114.726 103.3 114.504 103.743 114.014 104.14C113.664 104.42 113.256 104.548 112.789 104.525C112.322 104.478 111.937 104.315 111.634 104.035C111.237 103.522 110.701 103.113 110.024 102.81C109.371 102.507 108.612 102.355 107.749 102.355C107.399 102.355 107.014 102.402 106.594 102.495C106.197 102.565 105.847 102.74 105.544 103.02C105.241 103.277 105.089 103.697 105.089 104.28C105.089 104.817 105.264 105.248 105.614 105.575C105.964 105.878 106.431 106.135 107.014 106.345C107.621 106.532 108.262 106.718 108.939 106.905C109.639 107.092 110.351 107.313 111.074 107.57C111.797 107.827 112.462 108.165 113.069 108.585C113.676 109.005 114.166 109.553 114.539 110.23C114.912 110.883 115.099 111.723 115.099 112.75C115.099 113.94 114.749 114.955 114.049 115.795C113.349 116.635 112.474 117.277 111.424 117.72C110.374 118.14 109.301 118.35 108.204 118.35C106.827 118.35 105.451 118.117 104.074 117.65C102.697 117.16 101.554 116.308 100.644 115.095ZM128.239 92.1C128.752 92.1 129.254 92.17 129.744 92.31C130.234 92.45 130.642 92.6833 130.969 93.01C131.296 93.3133 131.459 93.7217 131.459 94.235C131.459 94.8183 131.284 95.285 130.934 95.635C130.607 95.9617 130.222 96.125 129.779 96.125C129.569 96.125 129.254 96.0783 128.834 95.985C128.414 95.8683 128.006 95.81 127.609 95.81C127.026 95.81 126.571 95.9383 126.244 96.195C125.941 96.4517 125.731 96.755 125.614 97.105C125.497 97.4317 125.439 97.7233 125.439 97.98V115.865C125.439 116.472 125.241 116.985 124.844 117.405C124.447 117.802 123.946 118 123.339 118C122.732 118 122.231 117.802 121.834 117.405C121.437 116.985 121.239 116.472 121.239 115.865V98.015C121.239 96.3583 121.822 94.9583 122.989 93.815C124.156 92.6717 125.906 92.1 128.239 92.1ZM128.624 99.625C129.184 99.625 129.651 99.8117 130.024 100.185C130.397 100.535 130.584 100.99 130.584 101.55C130.584 102.11 130.397 102.577 130.024 102.95C129.651 103.3 129.184 103.475 128.624 103.475H119.349C118.789 103.475 118.322 103.3 117.949 102.95C117.576 102.577 117.389 102.11 117.389 101.55C117.389 100.99 117.576 100.535 117.949 100.185C118.322 99.8117 118.789 99.625 119.349 99.625H128.624ZM137.864 115.865C137.864 116.472 137.666 116.985 137.269 117.405C136.872 117.802 136.371 118 135.764 118C135.157 118 134.656 117.802 134.259 117.405C133.862 116.985 133.664 116.472 133.664 115.865V101.41C133.664 100.803 133.862 100.302 134.259 99.905C134.656 99.485 135.157 99.275 135.764 99.275C136.371 99.275 136.872 99.485 137.269 99.905C137.666 100.302 137.864 100.803 137.864 101.41V115.865ZM135.729 97C134.936 97 134.376 96.8717 134.049 96.615C133.722 96.3583 133.559 95.9033 133.559 95.25V94.585C133.559 93.9083 133.734 93.4533 134.084 93.22C134.457 92.9633 135.017 92.835 135.764 92.835C136.581 92.835 137.152 92.9633 137.479 93.22C137.806 93.4767 137.969 93.9317 137.969 94.585V95.25C137.969 95.9267 137.794 96.3933 137.444 96.65C137.094 96.8833 136.522 97 135.729 97ZM150.984 118.35C149 118.35 147.274 117.942 145.804 117.125C144.357 116.285 143.237 115.153 142.444 113.73C141.674 112.307 141.289 110.697 141.289 108.9C141.289 106.8 141.709 105.015 142.549 103.545C143.412 102.052 144.532 100.908 145.909 100.115C147.285 99.3217 148.744 98.925 150.284 98.925C151.474 98.925 152.594 99.17 153.644 99.66C154.717 100.15 155.662 100.827 156.479 101.69C157.295 102.53 157.937 103.51 158.404 104.63C158.894 105.75 159.139 106.94 159.139 108.2C159.115 108.76 158.894 109.215 158.474 109.565C158.054 109.915 157.564 110.09 157.004 110.09H143.634L142.584 106.59H155.429L154.659 107.29V106.345C154.612 105.668 154.367 105.062 153.924 104.525C153.504 103.988 152.967 103.568 152.314 103.265C151.684 102.938 151.007 102.775 150.284 102.775C149.584 102.775 148.93 102.868 148.324 103.055C147.717 103.242 147.192 103.557 146.749 104C146.305 104.443 145.955 105.038 145.699 105.785C145.442 106.532 145.314 107.477 145.314 108.62C145.314 109.88 145.57 110.953 146.084 111.84C146.62 112.703 147.297 113.368 148.114 113.835C148.954 114.278 149.84 114.5 150.774 114.5C151.637 114.5 152.325 114.43 152.839 114.29C153.352 114.15 153.76 113.987 154.064 113.8C154.39 113.59 154.682 113.415 154.939 113.275C155.359 113.065 155.755 112.96 156.129 112.96C156.642 112.96 157.062 113.135 157.389 113.485C157.739 113.835 157.914 114.243 157.914 114.71C157.914 115.34 157.587 115.912 156.934 116.425C156.327 116.938 155.475 117.393 154.379 117.79C153.282 118.163 152.15 118.35 150.984 118.35ZM178.138 92.1C178.745 92.1 179.247 92.2983 179.643 92.695C180.04 93.0917 180.238 93.605 180.238 94.235V115.865C180.238 116.472 180.04 116.985 179.643 117.405C179.247 117.802 178.745 118 178.138 118C177.532 118 177.03 117.802 176.633 117.405C176.237 116.985 176.038 116.472 176.038 115.865V114.15L176.808 114.465C176.808 114.768 176.645 115.142 176.318 115.585C175.992 116.005 175.548 116.425 174.988 116.845C174.428 117.265 173.763 117.627 172.993 117.93C172.247 118.21 171.43 118.35 170.543 118.35C168.933 118.35 167.475 117.942 166.168 117.125C164.862 116.285 163.823 115.142 163.053 113.695C162.307 112.225 161.933 110.545 161.933 108.655C161.933 106.742 162.307 105.062 163.053 103.615C163.823 102.145 164.85 101.002 166.133 100.185C167.417 99.345 168.84 98.925 170.403 98.925C171.407 98.925 172.328 99.0767 173.168 99.38C174.008 99.6833 174.732 100.068 175.338 100.535C175.968 101.002 176.447 101.48 176.773 101.97C177.123 102.437 177.298 102.833 177.298 103.16L176.038 103.615V94.235C176.038 93.6283 176.237 93.1267 176.633 92.73C177.03 92.31 177.532 92.1 178.138 92.1ZM171.068 114.5C172.095 114.5 172.993 114.243 173.763 113.73C174.533 113.217 175.128 112.517 175.548 111.63C175.992 110.743 176.213 109.752 176.213 108.655C176.213 107.535 175.992 106.532 175.548 105.645C175.128 104.758 174.533 104.058 173.763 103.545C172.993 103.032 172.095 102.775 171.068 102.775C170.065 102.775 169.178 103.032 168.408 103.545C167.638 104.058 167.032 104.758 166.588 105.645C166.168 106.532 165.958 107.535 165.958 108.655C165.958 109.752 166.168 110.743 166.588 111.63C167.032 112.517 167.638 113.217 168.408 113.73C169.178 114.243 170.065 114.5 171.068 114.5Z" fill="white"/>
</svg>
