<svg width="50" height="41" viewBox="0 0 50 50" fill="none" xmlns="http://www.w3.org/2000/svg">
<g clip-path="url(#clip0_43_1477)">
<path d="M49.4792 13.125H38.0209V0.520874H11.9792V13.125H0.520874V43.6459H6.97921V49.4792H43.0209V43.6459H49.4792V13.125ZM14.0625 2.60421H35.9375V41.5625H31.5625V33.2292H18.4375V41.5625H14.0625V2.60421ZM29.4792 41.5625H20.4167V35.3125H29.4792V41.5625ZM2.60421 41.5625V15.2084H11.9792V41.5625H2.60421ZM40.9375 47.3959H9.06254V43.6459H41.0417V47.3959H40.9375ZM47.3959 41.5625H38.0209V15.2084H47.3959V41.5625Z" fill="black"/>
<path d="M23.9583 15.2084H26.0417V12.1875H29.0625V10.1042H26.0417V7.08337H23.9583V10.1042H20.9375V12.1875H23.9583V15.2084ZM6.25 19.2709H8.33333V22.5H6.25V19.2709ZM6.25 26.7709H8.33333V30H6.25V26.7709ZM6.25 34.2709H8.33333V37.5H6.25V34.2709ZM41.6667 19.2709H43.75V22.5H41.6667V19.2709ZM41.6667 26.7709H43.75V30H41.6667V26.7709ZM41.6667 34.2709H43.75V37.5H41.6667V34.2709ZM18.4375 19.2709H20.5208V22.5H18.4375V19.2709ZM18.4375 26.7709H20.5208V30H18.4375V26.7709ZM23.9583 19.2709H26.0417V22.5H23.9583V19.2709ZM23.9583 26.7709H26.0417V30H23.9583V26.7709ZM29.4792 19.2709H31.5625V22.5H29.4792V19.2709ZM29.4792 26.7709H31.5625V30H29.4792V26.7709Z" fill="black"/>
</g>
<defs>
<clipPath id="clip0_43_1477">
<rect width="50" height="50" fill="white"/>
</clipPath>
</defs>
</svg>
