<svg width="50" height="33" viewBox="0 0 50 33" fill="none" xmlns="http://www.w3.org/2000/svg">
<path fill-rule="evenodd" clip-rule="evenodd" d="M0.792014 21.8649C0.688538 21.8635 0.585793 21.8826 0.489769 21.9212C0.393745 21.9598 0.306351 22.0171 0.232659 22.0897C0.158968 22.1624 0.100447 22.249 0.0605062 22.3444C0.0205657 22.4399 0 22.5423 0 22.6458C0 22.7493 0.0205657 22.8518 0.0605062 22.9472C0.100447 23.0427 0.158968 23.1293 0.232659 23.2019C0.306351 23.2746 0.393745 23.3319 0.489769 23.3705C0.585793 23.4091 0.688538 23.4282 0.792014 23.4267H3.91556C4.01903 23.4282 4.12175 23.4091 4.21778 23.3705C4.3138 23.3319 4.4012 23.2746 4.47489 23.2019C4.54858 23.1293 4.6071 23.0427 4.64704 22.9472C4.68698 22.8518 4.70755 22.7493 4.70755 22.6458C4.70755 22.5423 4.68698 22.4399 4.64704 22.3444C4.6071 22.249 4.54858 22.1624 4.47489 22.0897C4.4012 22.0171 4.3138 21.9598 4.21778 21.9212C4.12175 21.8826 4.01903 21.8635 3.91556 21.8649H0.792014Z" fill="black"/>
<path d="M13.2982 24.9882C12.0137 24.9882 10.9556 26.0463 10.9556 27.3308C10.9556 28.6154 12.0137 29.6735 13.2982 29.6735C14.5828 29.6735 15.6409 28.6154 15.6409 27.3308C15.6409 26.0463 14.5828 24.9882 13.2982 24.9882ZM13.2982 26.5499C13.7387 26.5499 14.0791 26.8903 14.0791 27.3308C14.0791 27.7714 13.7387 28.1117 13.2982 28.1117C12.8577 28.1117 12.5173 27.7714 12.5173 27.3308C12.5173 26.8903 12.8577 26.5499 13.2982 26.5499ZM39.0674 24.9882C37.7829 24.9882 36.7248 26.0463 36.7248 27.3308C36.7248 28.6154 37.7829 29.6735 39.0674 29.6735C40.352 29.6735 41.4101 28.6154 41.4101 27.3308C41.4101 26.0463 40.352 24.9882 39.0674 24.9882ZM39.0674 26.5499C39.508 26.5499 39.8483 26.8903 39.8483 27.3308C39.8483 27.7714 39.508 28.1117 39.0674 28.1117C38.6269 28.1117 38.2866 27.7714 38.2866 27.3308C38.2866 26.8903 38.6269 26.5499 39.0674 26.5499ZM46.0954 17.1793C45.8883 17.1793 45.6897 17.2616 45.5433 17.408C45.3968 17.5545 45.3145 17.7531 45.3145 17.9602V21.0837C45.3145 21.2908 45.3968 21.4894 45.5433 21.6359C45.6897 21.7823 45.8883 21.8646 46.0954 21.8646H49.219C49.4261 21.8646 49.6247 21.7823 49.7711 21.6359C49.9175 21.4894 49.9998 21.2908 49.9998 21.0837V17.9602C49.9998 17.7531 49.9175 17.5545 49.7711 17.408C49.6247 17.2616 49.4261 17.1793 49.219 17.1793H46.0954ZM46.8763 18.7411H48.4381V20.3029H46.8763V18.7411Z" fill="black"/>
<path fill-rule="evenodd" clip-rule="evenodd" d="M35.151 16.3987C35.0476 16.3972 34.9448 16.4163 34.8488 16.4549C34.7528 16.4935 34.6654 16.5508 34.5917 16.6235C34.518 16.6961 34.4595 16.7827 34.4195 16.8782C34.3796 16.9736 34.359 17.0761 34.359 17.1796C34.359 17.2831 34.3796 17.3855 34.4195 17.481C34.4595 17.5764 34.518 17.663 34.5917 17.7357C34.6654 17.8083 34.7528 17.8656 34.8488 17.9042C34.9448 17.9428 35.0476 17.9619 35.151 17.9605H36.7342C36.8376 17.9619 36.9404 17.9428 37.0364 17.9042C37.1324 17.8656 37.2198 17.8083 37.2935 17.7357C37.3672 17.663 37.4257 17.5764 37.4657 17.481C37.5056 17.3855 37.5262 17.2831 37.5262 17.1796C37.5262 17.0761 37.5056 16.9736 37.4657 16.8782C37.4257 16.7827 37.3672 16.6961 37.2935 16.6235C37.2198 16.5508 37.1324 16.4935 37.0364 16.4549C36.9404 16.4163 36.8376 16.3972 36.7342 16.3987H35.151ZM4.69651 3.12363C4.59397 3.12523 4.49273 3.14701 4.39861 3.18774C4.30448 3.22846 4.21929 3.28731 4.14791 3.36096C4.07653 3.43461 4.02035 3.52159 3.98259 3.61695C3.94483 3.71231 3.92622 3.81417 3.92783 3.91672V16.3987C3.92637 16.5022 3.94548 16.6049 3.98407 16.7009C4.02266 16.7969 4.07994 16.8843 4.1526 16.958C4.22526 17.0317 4.31184 17.0902 4.4073 17.1302C4.50277 17.1701 4.60523 17.1907 4.70872 17.1907C4.8122 17.1907 4.91466 17.1701 5.01013 17.1302C5.1056 17.0902 5.19217 17.0317 5.26483 16.958C5.33749 16.8843 5.39477 16.7969 5.43336 16.7009C5.47195 16.6049 5.49106 16.5022 5.4896 16.3987V3.91672C5.49124 3.81211 5.47185 3.70827 5.43257 3.6113C5.3933 3.51434 5.33494 3.42624 5.26097 3.35226C5.18699 3.27829 5.09889 3.21993 5.00193 3.18066C4.90497 3.14138 4.80112 3.12199 4.69651 3.12363ZM9.38183 3.12363C9.27928 3.12523 9.17805 3.14701 9.08392 3.18774C8.98979 3.22846 8.9046 3.28731 8.83322 3.36096C8.76184 3.43461 8.70567 3.52159 8.66791 3.61695C8.63015 3.71231 8.61154 3.81417 8.61314 3.91672V16.3987C8.61168 16.5022 8.6308 16.6049 8.66938 16.7009C8.70797 16.7969 8.76526 16.8843 8.83791 16.958C8.91057 17.0317 8.99715 17.0902 9.09262 17.1302C9.18809 17.1701 9.29054 17.1907 9.39403 17.1907C9.49752 17.1907 9.59997 17.1701 9.69544 17.1302C9.79091 17.0902 9.87749 17.0317 9.95014 16.958C10.0228 16.8843 10.0801 16.7969 10.1187 16.7009C10.1573 16.6049 10.1764 16.5022 10.1749 16.3987V3.91672C10.1766 3.81211 10.1572 3.70827 10.1179 3.6113C10.0786 3.51434 10.0203 3.42624 9.94628 3.35226C9.87231 3.27829 9.7842 3.21993 9.68724 3.18066C9.59028 3.14138 9.48643 3.12199 9.38183 3.12363ZM14.0671 3.12363C13.9646 3.12523 13.8634 3.14701 13.7692 3.18774C13.6751 3.22846 13.5899 3.28731 13.5185 3.36096C13.4472 3.43461 13.391 3.52159 13.3532 3.61695C13.3155 3.71231 13.2969 3.81417 13.2985 3.91672V16.3987C13.297 16.5022 13.3161 16.6049 13.3547 16.7009C13.3933 16.7969 13.4506 16.8843 13.5232 16.958C13.5959 17.0317 13.6825 17.0902 13.7779 17.1302C13.8734 17.1701 13.9759 17.1907 14.0793 17.1907C14.1828 17.1907 14.2853 17.1701 14.3808 17.1302C14.4762 17.0902 14.5628 17.0317 14.6355 16.958C14.7081 16.8843 14.7654 16.7969 14.804 16.7009C14.8426 16.6049 14.8617 16.5022 14.8602 16.3987V3.91672C14.8619 3.81211 14.8425 3.70827 14.8032 3.6113C14.7639 3.51434 14.7056 3.42624 14.6316 3.35226C14.5576 3.27829 14.4695 3.21993 14.3726 3.18066C14.2756 3.14138 14.1717 3.12199 14.0671 3.12363ZM18.7525 3.12363C18.6499 3.12523 18.5487 3.14701 18.4545 3.18774C18.3604 3.22846 18.2752 3.28731 18.2038 3.36096C18.1325 3.43461 18.0763 3.52159 18.0385 3.61695C18.0008 3.71231 17.9822 3.81417 17.9838 3.91672V16.3987C17.9823 16.5022 18.0014 16.6049 18.04 16.7009C18.0786 16.7969 18.1359 16.8843 18.2085 16.958C18.2812 17.0317 18.3678 17.0902 18.4632 17.1302C18.5587 17.1701 18.6612 17.1907 18.7647 17.1907C18.8681 17.1907 18.9706 17.1701 19.0661 17.1302C19.1615 17.0902 19.2481 17.0317 19.3208 16.958C19.3934 16.8843 19.4507 16.7969 19.4893 16.7009C19.5279 16.6049 19.547 16.5022 19.5455 16.3987V3.91672C19.5472 3.81211 19.5278 3.70827 19.4885 3.6113C19.4492 3.51434 19.3909 3.42624 19.3169 3.35226C19.2429 3.27829 19.1548 3.21993 19.0579 3.18066C18.9609 3.14138 18.8571 3.12199 18.7525 3.12363ZM23.4378 3.12363C23.3352 3.12523 23.234 3.14701 23.1399 3.18774C23.0457 3.22846 22.9605 3.28731 22.8892 3.36096C22.8178 3.43461 22.7616 3.52159 22.7238 3.61695C22.6861 3.71231 22.6675 3.81417 22.6691 3.91672V16.3987C22.6676 16.5022 22.6867 16.6049 22.7253 16.7009C22.7639 16.7969 22.8212 16.8843 22.8939 16.958C22.9665 17.0317 23.0531 17.0902 23.1486 17.1302C23.244 17.1701 23.3465 17.1907 23.45 17.1907C23.5535 17.1907 23.6559 17.1701 23.7514 17.1302C23.8468 17.0902 23.9334 17.0317 24.0061 16.958C24.0787 16.8843 24.136 16.7969 24.1746 16.7009C24.2132 16.6049 24.2323 16.5022 24.2309 16.3987V3.91672C24.2325 3.81211 24.2131 3.70827 24.1738 3.6113C24.1345 3.51434 24.0762 3.42624 24.0022 3.35226C23.9282 3.27829 23.8401 3.21993 23.7432 3.18066C23.6462 3.14138 23.5424 3.12199 23.4378 3.12363ZM28.1231 3.12363C28.0205 3.12523 27.9193 3.14701 27.8252 3.18774C27.731 3.22846 27.6458 3.28731 27.5745 3.36096C27.5031 3.43461 27.4469 3.52159 27.4092 3.61695C27.3714 3.71231 27.3528 3.81417 27.3544 3.91672V16.3987C27.3529 16.5022 27.372 16.6049 27.4106 16.7009C27.4492 16.7969 27.5065 16.8843 27.5792 16.958C27.6518 17.0317 27.7384 17.0902 27.8339 17.1302C27.9293 17.1701 28.0318 17.1907 28.1353 17.1907C28.2388 17.1907 28.3412 17.1701 28.4367 17.1302C28.5322 17.0902 28.6187 17.0317 28.6914 16.958C28.7641 16.8843 28.8213 16.7969 28.8599 16.7009C28.8985 16.6049 28.9176 16.5022 28.9162 16.3987V3.91672C28.9178 3.81211 28.8984 3.70827 28.8591 3.6113C28.8199 3.51434 28.7615 3.42624 28.6875 3.35226C28.6135 3.27829 28.5255 3.21993 28.4285 3.18066C28.3315 3.14138 28.2277 3.12199 28.1231 3.12363Z" fill="black"/>
<path d="M0.804079 0C0.596981 2.06694e-05 0.398384 0.0822874 0.251945 0.228727C0.105505 0.375167 0.023214 0.573788 0.0231934 0.780885V25.7692C0.023214 25.9763 0.105505 26.1749 0.251945 26.3214C0.398384 26.4678 0.596981 26.5501 0.804079 26.5501H8.70749C8.81097 26.5516 8.91369 26.5325 9.00971 26.4939C9.10574 26.4553 9.19313 26.398 9.26682 26.3253C9.34052 26.2527 9.39904 26.1661 9.43898 26.0706C9.47892 25.9752 9.49948 25.8727 9.49948 25.7692C9.49948 25.6657 9.47892 25.5633 9.43898 25.4678C9.39904 25.3723 9.34052 25.2858 9.26682 25.2131C9.19313 25.1404 9.10574 25.0832 9.00971 25.0446C8.91369 25.006 8.81097 24.9869 8.70749 24.9883H1.58496V1.56177H31.2586V24.9883H22.9678H17.8798C17.7764 24.9869 17.6736 25.006 17.5776 25.0446C17.4816 25.0832 17.3942 25.1404 17.3205 25.2131C17.2468 25.2858 17.1883 25.3723 17.1484 25.4678C17.1084 25.5633 17.0879 25.6657 17.0879 25.7692C17.0879 25.8727 17.1084 25.9752 17.1484 26.0706C17.1883 26.1661 17.2468 26.2527 17.3205 26.3253C17.3942 26.398 17.4816 26.4553 17.5776 26.4939C17.6736 26.5325 17.7764 26.5516 17.8798 26.5501H22.9678H32.0395C32.2466 26.5501 32.4452 26.4678 32.5916 26.3214C32.7381 26.1749 32.8204 25.9763 32.8204 25.7692V0.780885C32.8204 0.573788 32.7381 0.375167 32.5916 0.228727C32.4452 0.0822874 32.2466 2.06694e-05 32.0395 0H0.804079Z" fill="black"/>
<path fill-rule="evenodd" clip-rule="evenodd" d="M0.813231 18.7413C0.709754 18.7398 0.607034 18.7589 0.511009 18.7975C0.414985 18.8361 0.327568 18.8934 0.253876 18.9661C0.180184 19.0387 0.121687 19.1253 0.0817465 19.2208C0.041806 19.3162 0.0212402 19.4187 0.0212402 19.5222C0.0212402 19.6257 0.041806 19.7281 0.0817465 19.8236C0.121687 19.9191 0.180184 20.0056 0.253876 20.0783C0.327568 20.1509 0.414985 20.2082 0.511009 20.2468C0.607034 20.2854 0.709754 20.3045 0.813231 20.3031H31.7711C31.8745 20.3045 31.9773 20.2854 32.0733 20.2468C32.1693 20.2082 32.2567 20.1509 32.3304 20.0783C32.4041 20.0056 32.4626 19.9191 32.5026 19.8236C32.5425 19.7281 32.5631 19.6257 32.5631 19.5222C32.5631 19.4187 32.5425 19.3162 32.5026 19.2208C32.4626 19.1253 32.4041 19.0387 32.3304 18.9661C32.2567 18.8934 32.1693 18.8361 32.0733 18.7975C31.9773 18.7589 31.8745 18.7398 31.7711 18.7413H0.813231Z" fill="black"/>
<path d="M32.0396 3.12361C31.9361 3.12215 31.8334 3.14127 31.7373 3.17985C31.6413 3.21844 31.5539 3.27573 31.4802 3.34838C31.4065 3.42104 31.348 3.50762 31.3081 3.60309C31.2681 3.69856 31.2476 3.80101 31.2476 3.9045C31.2476 4.00799 31.2681 4.11044 31.3081 4.20591C31.348 4.30138 31.4065 4.38796 31.4802 4.46061C31.5539 4.53327 31.6413 4.59056 31.7373 4.62914C31.8334 4.66773 31.9361 4.68685 32.0396 4.68538H40.6293L48.487 13.6656C48.5547 13.7429 48.6369 13.8061 48.7291 13.8516C48.8212 13.8972 48.9214 13.9241 49.0239 13.9309C49.1265 13.9377 49.2293 13.9242 49.3267 13.8913C49.424 13.8583 49.5139 13.8065 49.5912 13.7388C49.6685 13.6711 49.7318 13.5889 49.7773 13.4967C49.8228 13.4046 49.8497 13.3044 49.8565 13.2018C49.8633 13.0993 49.8499 12.9964 49.8169 12.8991C49.7839 12.8018 49.7321 12.7119 49.6644 12.6346L41.5688 3.38899C41.4956 3.30572 41.4055 3.23898 41.3046 3.19322C41.2036 3.14746 41.094 3.12374 40.9831 3.12361H32.0396Z" fill="black"/>
<path d="M32.0397 12.4941C31.8326 12.4942 31.634 12.5764 31.4875 12.7229C31.3411 12.8693 31.2588 13.0679 31.2588 13.275V24.5521V25.7692C31.2588 25.9763 31.3411 26.1749 31.4875 26.3213C31.634 26.4678 31.8326 26.5501 32.0397 26.5501H34.1902C34.2936 26.5515 34.3964 26.5324 34.4924 26.4938C34.5884 26.4553 34.6758 26.398 34.7495 26.3253C34.8232 26.2526 34.8817 26.1661 34.9217 26.0706C34.9616 25.9751 34.9822 25.8727 34.9822 25.7692C34.9822 25.6657 34.9616 25.5633 34.9217 25.4678C34.8817 25.3723 34.8232 25.2857 34.7495 25.2131C34.6758 25.1404 34.5884 25.0831 34.4924 25.0445C34.3964 25.006 34.2936 24.9868 34.1902 24.9883H32.8206V24.5521V14.0559H48.4383V24.9883H43.8231C43.7196 24.9868 43.6169 25.006 43.5209 25.0445C43.4249 25.0831 43.3375 25.1404 43.2638 25.2131C43.1901 25.2857 43.1316 25.3723 43.0916 25.4678C43.0517 25.5633 43.0311 25.6657 43.0311 25.7692C43.0311 25.8727 43.0517 25.9751 43.0916 26.0706C43.1316 26.1661 43.1901 26.2526 43.2638 26.3253C43.3375 26.398 43.4249 26.4553 43.5209 26.4938C43.6169 26.5324 43.7196 26.5515 43.8231 26.5501H49.2192C49.4263 26.5501 49.6249 26.4678 49.7713 26.3213C49.9177 26.1749 50 25.9763 50 25.7692V13.275C50 13.0679 49.9177 12.8693 49.7713 12.7229C49.6249 12.5764 49.4263 12.4942 49.2192 12.4941H32.0397Z" fill="black"/>
<path d="M13.2982 21.8649C10.2886 21.8649 7.83203 24.3214 7.83203 27.3311C7.83203 30.3407 10.2886 32.7973 13.2982 32.7973C16.3079 32.7973 18.7644 30.3407 18.7644 27.3311C18.7644 24.3214 16.3079 21.8649 13.2982 21.8649ZM13.2982 23.4266C15.4638 23.4266 17.2026 25.1655 17.2027 27.3311C17.2027 29.4967 15.4638 31.2355 13.2982 31.2355C11.1326 31.2355 9.3938 29.4967 9.3938 27.3311C9.3938 25.1655 11.1326 23.4266 13.2982 23.4266ZM39.0675 21.8649C36.0578 21.8649 33.6013 24.3214 33.6013 27.3311C33.6013 30.3407 36.0578 32.7973 39.0675 32.7973C42.0771 32.7973 44.5336 30.3407 44.5336 27.3311C44.5336 24.3214 42.0771 21.8649 39.0675 21.8649ZM39.0675 23.4266C41.2331 23.4266 42.9719 25.1655 42.9719 27.3311C42.9719 29.4967 41.2331 31.2355 39.0675 31.2355C36.9018 31.2355 35.163 29.4967 35.163 27.3311C35.163 25.1655 36.9018 23.4266 39.0675 23.4266Z" fill="black"/>
</svg>
