<svg width="50" height="50" viewBox="0 0 50 50" fill="none" xmlns="http://www.w3.org/2000/svg">
<g clip-path="url(#clip0_43_1480)">
<path d="M21.1458 34.6875C21.1458 33.3334 20.625 32.0834 19.6875 31.0417L13.2292 24.5834C12.9167 24.2709 12.3958 24.1667 11.9792 24.2709C11.5625 24.375 11.1458 24.7917 11.0417 25.3125C10.8333 26.3542 10.3125 28.6459 10.8333 30.5209L10.9375 30.7292L13.2292 33.0209L12.5 33.125C11.4583 33.125 10.5208 32.7084 9.79167 31.9792L7.08333 29.2709V22.9167C7.08333 21.0417 5.9375 19.375 4.27083 18.6459C3.4375 18.3334 2.5 18.125 1.66667 18.125H0.625V30.8334C0.625 31.875 1.04167 32.8125 1.77083 33.5417L9.27083 41.0417V41.3542H6.45833V49.2709H23.5417V41.3542H21.1458V34.6875ZM3.125 32.1875C2.8125 31.875 2.60417 31.4584 2.60417 30.9375V20.4167C2.8125 20.5209 3.125 20.5209 3.33333 20.625C4.27083 21.0417 4.89583 21.9792 4.89583 22.9167V30.2084L8.22917 33.5417C9.375 34.6875 10.9375 35.3125 12.5 35.3125L15.1042 34.8959C15.5208 34.7917 15.9375 34.4792 16.0417 34.0625C16.1458 33.6459 16.0417 33.125 15.7292 32.8125L12.6042 29.6875C12.3958 28.8542 12.5 27.9167 12.6042 27.0834L18.0208 32.5C18.6458 33.125 18.9583 33.8542 18.9583 34.6875V41.5625H11.1458V41.25C11.1458 40.625 10.9375 40.1042 10.5208 39.6875L3.125 32.1875ZM21.3542 43.6459V47.3959H8.54167V43.6459H9.16667H21.1458H21.3542ZM45.8333 18.75C44.1667 19.4792 43.0208 21.1459 43.0208 23.0209V29.375L40.3125 32.0834C39.5833 32.8125 38.6458 33.2292 37.6042 33.2292L36.875 33.125L39.1667 30.8334L39.2708 30.625C39.7917 28.6459 39.375 26.4584 39.0625 25.3125C38.9583 24.8959 38.6458 24.4792 38.125 24.375C37.7083 24.2709 37.1875 24.375 36.875 24.6875L30.4167 31.1459C29.4792 32.0834 28.9583 33.4375 28.9583 34.7917V41.6667H26.5625V49.5834H43.6458V41.6667H40.9375V41.25L48.4375 33.75C49.1667 33.0209 49.5833 32.0834 49.5833 31.0417V18.2292H48.5417C47.5 18.2292 46.6667 18.4375 45.8333 18.75ZM41.4583 43.6459V47.3959H28.6458V43.6459H28.9583H40.9375H41.4583ZM47.3958 30.9375C47.3958 31.4584 47.1875 31.875 46.875 32.1875L39.375 39.6875C38.9583 40.1042 38.75 40.625 38.75 41.25V41.5625H30.9375V34.6875C30.9375 33.8542 31.25 33.125 31.875 32.5L37.2917 27.0834C37.3958 27.9167 37.5 28.8542 37.2917 29.6875L34.1667 32.8125C33.8542 33.125 33.75 33.6459 33.8542 34.0625C33.9583 34.4792 34.375 34.7917 34.7917 34.8959L37.2917 35.3125H37.5C39.1667 35.3125 40.625 34.6875 41.7708 33.5417L45.1042 30.2084V23.0209C45.1042 21.9792 45.7292 21.0417 46.6667 20.7292C46.875 20.625 47.1875 20.5209 47.3958 20.5209V30.9375ZM25.3125 7.39588C21.5625 7.18755 18.4375 10.1042 18.2292 13.8542C18.125 15.625 18.75 17.3959 20 18.75C21.25 20.1042 22.9167 20.8334 24.6875 20.9375C24.7917 20.9375 24.8958 20.9375 25 20.9375C28.5417 20.9375 31.5625 18.125 31.7708 14.4792C31.9792 10.7292 29.0625 7.60421 25.3125 7.39588ZM24.7917 18.8542C23.5417 18.75 22.3958 18.2292 21.5625 17.2917C20.7292 16.3542 20.3125 15.2084 20.3125 13.9584C20.4167 11.4584 22.5 9.47921 25 9.47921C25.1042 9.47921 25.2083 9.47921 25.2083 9.47921C27.8125 9.58338 29.7917 11.7709 29.6875 14.375C29.5833 16.9792 27.3958 18.9584 24.7917 18.8542Z" fill="black"/>
<path d="M38.6459 16.3542V11.7709L35.9376 11.1459C35.7292 10.2084 35.3126 9.37504 34.7918 8.43754L36.2501 6.04171L32.9167 2.81254L30.5209 4.27087C29.6876 3.75004 28.7501 3.43754 27.8126 3.22921L27.1876 0.520874H22.6042L21.9792 3.22921C21.0417 3.43754 20.2084 3.85421 19.2709 4.37504L16.8751 2.91671L13.7501 6.25004L15.2084 8.64587C14.6876 9.47921 14.3751 10.4167 14.0626 11.3542L11.3542 11.9792V16.5625L14.0626 17.1875C14.2709 18.125 14.6876 18.9584 15.2084 19.8959L13.7501 22.2917L17.0834 25.5209L19.4792 24.0625C20.3126 24.5834 21.2501 24.8959 22.1876 25.1042L22.8126 27.8125H27.3959L28.0209 25.1042C28.9584 24.8959 29.7917 24.4792 30.7292 23.9584L33.1251 25.4167L36.3543 22.0834L34.8959 19.6875C35.4167 18.8542 35.7292 17.9167 35.9376 16.9792L38.6459 16.3542ZM34.1667 15.3125L34.0626 15.9375C33.8543 17.0834 33.4376 18.125 32.8126 19.1667L32.5001 19.6875L33.7501 21.7709L32.8126 22.7084L30.7292 21.4584L30.2084 21.875C29.2709 22.5 28.1251 23.0209 27.0834 23.2292L26.4584 23.3334L25.9376 25.7292H24.5834L23.9584 23.3334L23.3334 23.2292C22.1876 23.0209 21.1459 22.6042 20.1042 21.9792L19.5834 21.6667L17.5001 22.9167L16.4584 21.875L17.7084 19.7917L17.2917 19.2709C16.6667 18.3334 16.1459 17.1875 15.9376 16.1459L15.8334 15.5209L13.4376 15V13.6459L15.8334 13.0209L15.9376 12.3959C16.1459 11.25 16.5626 10.2084 17.1876 9.16671L17.5001 8.64587L16.2501 6.56254L17.1876 5.62504L19.2709 6.87504L19.7917 6.45837C20.7292 5.83337 21.8751 5.31254 22.9167 5.10421L23.5417 5.00004L24.0626 2.60421H25.4167L26.0417 5.00004L26.6667 5.10421C27.8126 5.31254 28.8542 5.72921 29.8959 6.35421L30.4167 6.66671L32.5001 5.41671L33.4376 6.35421L32.1876 8.43754L32.6042 8.95837C33.2292 9.89587 33.7501 11.0417 33.9584 12.0834L34.0626 12.7084L36.4584 13.2292V14.5834L34.1667 15.3125Z" fill="black"/>
</g>
<defs>
<clipPath id="clip0_43_1480">
<rect width="50" height="50" fill="white"/>
</clipPath>
</defs>
</svg>
