<svg width="50" height="41" viewBox="0 0 50 41" fill="none" xmlns="http://www.w3.org/2000/svg">
<path fill-rule="evenodd" clip-rule="evenodd" d="M29.6875 0V13.9922H23.4375V7.74219H20.3125V6.17969H14.0625V7.74219H10.9375V12.4297H6.40625V3.05469H0V40.5547H1.5625V25.7109H3.04688V28.8359H7.8125V40.625H9.375V21.8047H13.1437V18.6797H16.6984V21.8047H20.3125V20.2422H18.2609V17.1172H11.5813V20.2422H7.8125V27.2734H4.60938V24.1484H1.5625V4.61719H4.84375V13.9922H12.5V9.30469H15.625V7.74219H18.75V9.30469H21.875V15.5547H31.25V1.5625H37.5V17.1172H43.75V6.17969H48.4375V23.3672H44.5312V20.2422H37.5V21.8047H42.9688V24.9297H48.4375V40.5547H50V4.61719H42.1875V15.5547H39.0625V0H29.6875ZM26.5984 17.1141C26.5724 17.1138 26.5463 17.1148 26.5203 17.1172C26.3386 17.1259 26.1657 17.1977 26.0312 17.3203L15.8781 26.6953C15.7613 26.8015 15.6793 26.9407 15.6431 27.0944C15.6069 27.2481 15.6182 27.4092 15.6754 27.5564C15.7326 27.7036 15.833 27.83 15.9635 27.9189C16.094 28.0079 16.2483 28.0552 16.4062 28.0547H17.1875V39.7703C17.1875 39.9775 17.2698 40.1762 17.4163 40.3227C17.5628 40.4693 17.7615 40.5516 17.9688 40.5516H35.1562C35.3634 40.5516 35.5622 40.4693 35.7087 40.3227C35.8552 40.1762 35.9375 39.9775 35.9375 39.7703V28.0547H36.7188C36.8769 28.0559 37.0317 28.009 37.1627 27.9203C37.2937 27.8316 37.3946 27.7052 37.4522 27.5578C37.5098 27.4105 37.5213 27.2492 37.4852 27.0951C37.4491 26.9411 37.3671 26.8017 37.25 26.6953L35.9375 25.4859V21.0328C35.9388 20.9284 35.9191 20.8247 35.8796 20.728C35.8401 20.6313 35.7816 20.5435 35.7076 20.4698C35.6336 20.3961 35.5456 20.338 35.4488 20.2989C35.3519 20.2598 35.2482 20.2405 35.1437 20.2422C34.9371 20.2455 34.7402 20.3305 34.5961 20.4787C34.452 20.6269 34.3725 20.8261 34.375 21.0328V24.0422L27.0938 17.3219C26.9584 17.1962 26.7829 17.1226 26.5984 17.1141ZM26.5625 18.9641L34.7188 26.4922H18.4062L26.5625 18.9641ZM18.75 28.3906H34.375V38.9891H29.6875V33.5203C29.6875 33.3131 29.6052 33.1144 29.4587 32.9679C29.3122 32.8214 29.1135 32.7391 28.9062 32.7391H24.2188C24.0115 32.7391 23.8128 32.8214 23.6663 32.9679C23.5198 33.1144 23.4375 33.3131 23.4375 33.5203V38.9891H18.75V28.3906ZM25 34.3016H28.125V38.9891H25V34.3016Z" fill="black"/>
</svg>
