<svg width="24" height="25" viewBox="0 0 24 25" fill="none" xmlns="http://www.w3.org/2000/svg">
<g id="gridicons:add-image">
<path id="Vector" d="M23 4.5V6.5H20V9.5H18V6.5H15V4.5H18V1.5H20V4.5H23ZM14.5 11.5C14.898 11.4999 15.2796 11.3417 15.5609 11.0602C15.8422 10.7787 16.0001 10.397 16 9.999C15.9999 9.60104 15.8417 9.21944 15.5602 8.93813C15.2787 8.65683 14.897 8.49887 14.499 8.499C14.302 8.49907 14.1068 8.53794 13.9248 8.61341C13.7428 8.68888 13.5774 8.79946 13.4381 8.93884C13.2988 9.07822 13.1884 9.24367 13.113 9.42575C13.0377 9.60782 12.9989 9.80295 12.999 10C12.9991 10.197 13.0379 10.3922 13.1134 10.5742C13.1889 10.7562 13.2995 10.9216 13.4388 11.0609C13.5782 11.2002 13.7437 11.3106 13.9257 11.386C14.1078 11.4613 14.303 11.5001 14.5 11.5ZM18 14.734L17.487 14.164C17.2994 13.9552 17.07 13.7881 16.8136 13.6738C16.5573 13.5595 16.2797 13.5004 15.999 13.5004C15.7183 13.5004 15.4407 13.5595 15.1844 13.6738C14.928 13.7881 14.6986 13.9552 14.511 14.164L13.855 14.895L9 9.5L6 12.833V6.5H13V4.5H6C5.46957 4.5 4.96086 4.71071 4.58579 5.08579C4.21071 5.46086 4 5.96957 4 6.5V18.5C4 19.0304 4.21071 19.5391 4.58579 19.9142C4.96086 20.2893 5.46957 20.5 6 20.5H18C18.5304 20.5 19.0391 20.2893 19.4142 19.9142C19.7893 19.5391 20 19.0304 20 18.5V11.5H18V14.734Z" fill="#CAC4C4"/>
</g>
</svg>
