<svg width="211" height="60" viewBox="0 0 211 60" fill="none" xmlns="http://www.w3.org/2000/svg">
<circle cx="30" cy="30" r="30" fill="#D2C7FE"/>
<path d="M33.827 36.788C34.0137 36.788 34.1727 36.7227 34.304 36.592C34.4347 36.4613 34.5 36.3023 34.5 36.115C34.5 35.9283 34.4347 35.7693 34.304 35.638C34.1733 35.5073 34.0143 35.442 33.827 35.442C33.6403 35.442 33.4813 35.5073 33.35 35.638C33.2193 35.7693 33.154 35.9283 33.154 36.115C33.154 36.3023 33.2193 36.4613 33.35 36.592C33.4807 36.7227 33.6397 36.788 33.827 36.788ZM36 36.788C36.1867 36.788 36.3457 36.7227 36.477 36.592C36.6077 36.4613 36.673 36.3023 36.673 36.115C36.673 35.9283 36.6077 35.7693 36.477 35.638C36.3463 35.5073 36.1873 35.442 36 35.442C35.8133 35.442 35.6543 35.5073 35.523 35.638C35.3923 35.7693 35.327 35.9283 35.327 36.115C35.327 36.3023 35.3923 36.4613 35.523 36.592C35.6537 36.7227 35.8127 36.788 36 36.788ZM38.173 36.788C38.3597 36.788 38.5187 36.7227 38.65 36.592C38.7807 36.4613 38.846 36.3023 38.846 36.115C38.846 35.9283 38.7807 35.7693 38.65 35.638C38.5193 35.5073 38.3603 35.442 38.173 35.442C37.9863 35.442 37.8273 35.5073 37.696 35.638C37.5653 35.7693 37.5 35.9283 37.5 36.115C37.5 36.3023 37.5653 36.4613 37.696 36.592C37.8267 36.7227 37.9857 36.788 38.173 36.788ZM23.615 38C23.1683 38 22.7873 37.8427 22.472 37.528C22.1573 37.2133 22 36.8323 22 36.385V23.615C22 23.1683 22.1573 22.7873 22.472 22.472C22.7867 22.1573 23.1677 22 23.615 22H36.385C36.8317 22 37.2127 22.1573 37.528 22.472C37.8427 22.7867 38 23.1677 38 23.615V29.565C37.8247 29.505 37.6567 29.456 37.496 29.418C37.336 29.3807 37.1707 29.3433 37 29.306V23.616C37 23.462 36.936 23.3207 36.808 23.192C36.6793 23.064 36.5383 23 36.385 23H23.615C23.4617 23 23.3207 23.064 23.192 23.192C23.064 23.3207 23 23.4617 23 23.615V36.385C23 36.5383 23.064 36.6793 23.192 36.808C23.3207 36.936 23.4617 37 23.615 37H29.281C29.305 37.1867 29.336 37.3603 29.374 37.521C29.412 37.681 29.461 37.8407 29.521 38H23.615ZM23 36V37V23V29.306V29.231V36ZM25.5 34.27H29.46C29.4967 34.0987 29.5467 33.933 29.61 33.773L29.81 33.269H25.5V34.27ZM25.5 30.5H32.08C32.4087 30.2693 32.732 30.0737 33.05 29.913C33.3693 29.753 33.7117 29.6277 34.077 29.537V29.5H25.5V30.5ZM25.5 26.73H34.5V25.73H25.5V26.73ZM36 40.116C34.886 40.116 33.9407 39.728 33.164 38.952C32.3873 38.176 31.9993 37.2303 32 36.115C32 35.0017 32.388 34.0567 33.164 33.28C33.94 32.5033 34.8853 32.115 36 32.115C37.114 32.115 38.0593 32.5033 38.836 33.28C39.6127 34.0567 40.0007 35.0017 40 36.115C40 37.2297 39.612 38.175 38.836 38.951C38.0587 39.727 37.1133 40.116 36 40.116Z" fill="#2707A6"/>
<path d="M85.958 22.138H82.066L81.422 24H79.364L82.878 14.214H85.16L88.674 24H86.602L85.958 22.138ZM85.426 20.57L84.012 16.482L82.598 20.57H85.426ZM89.4835 20.094C89.4835 19.31 89.6375 18.6147 89.9455 18.008C90.2628 17.4013 90.6922 16.9347 91.2335 16.608C91.7748 16.2813 92.3768 16.118 93.0395 16.118C93.5435 16.118 94.0242 16.23 94.4815 16.454C94.9388 16.6687 95.3028 16.958 95.5735 17.322V13.64H97.5615V24H95.5735V22.852C95.3308 23.2347 94.9902 23.5427 94.5515 23.776C94.1128 24.0093 93.6042 24.126 93.0255 24.126C92.3722 24.126 91.7748 23.958 91.2335 23.622C90.6922 23.286 90.2628 22.8147 89.9455 22.208C89.6375 21.592 89.4835 20.8873 89.4835 20.094ZM95.5875 20.122C95.5875 19.646 95.4942 19.24 95.3075 18.904C95.1208 18.5587 94.8688 18.2973 94.5515 18.12C94.2342 17.9333 93.8935 17.84 93.5295 17.84C93.1655 17.84 92.8295 17.9287 92.5215 18.106C92.2135 18.2833 91.9615 18.5447 91.7655 18.89C91.5788 19.226 91.4855 19.6273 91.4855 20.094C91.4855 20.5607 91.5788 20.9713 91.7655 21.326C91.9615 21.6713 92.2135 21.9373 92.5215 22.124C92.8388 22.3107 93.1748 22.404 93.5295 22.404C93.8935 22.404 94.2342 22.3153 94.5515 22.138C94.8688 21.9513 95.1208 21.69 95.3075 21.354C95.4942 21.0087 95.5875 20.598 95.5875 20.122ZM109.108 16.132C110.06 16.132 110.825 16.426 111.404 17.014C111.992 17.5927 112.286 18.4047 112.286 19.45V24H110.326V19.716C110.326 19.1093 110.172 18.6473 109.864 18.33C109.556 18.0033 109.136 17.84 108.604 17.84C108.072 17.84 107.647 18.0033 107.33 18.33C107.022 18.6473 106.868 19.1093 106.868 19.716V24H104.908V19.716C104.908 19.1093 104.754 18.6473 104.446 18.33C104.138 18.0033 103.718 17.84 103.186 17.84C102.644 17.84 102.215 18.0033 101.898 18.33C101.59 18.6473 101.436 19.1093 101.436 19.716V24H99.4758V16.244H101.436V17.182C101.688 16.8553 102.01 16.5987 102.402 16.412C102.803 16.2253 103.242 16.132 103.718 16.132C104.324 16.132 104.866 16.2627 105.342 16.524C105.818 16.776 106.186 17.14 106.448 17.616C106.7 17.168 107.064 16.8087 107.54 16.538C108.025 16.2673 108.548 16.132 109.108 16.132ZM115.14 15.32C114.794 15.32 114.505 15.2127 114.272 14.998C114.048 14.774 113.936 14.4987 113.936 14.172C113.936 13.8453 114.048 13.5747 114.272 13.36C114.505 13.136 114.794 13.024 115.14 13.024C115.485 13.024 115.77 13.136 115.994 13.36C116.227 13.5747 116.344 13.8453 116.344 14.172C116.344 14.4987 116.227 14.774 115.994 14.998C115.77 15.2127 115.485 15.32 115.14 15.32ZM116.106 16.244V24H114.146V16.244H116.106ZM121.01 24.126C120.376 24.126 119.806 24.014 119.302 23.79C118.798 23.5567 118.397 23.244 118.098 22.852C117.809 22.46 117.65 22.026 117.622 21.55H119.596C119.634 21.8487 119.778 22.096 120.03 22.292C120.292 22.488 120.614 22.586 120.996 22.586C121.37 22.586 121.659 22.5113 121.864 22.362C122.079 22.2127 122.186 22.0213 122.186 21.788C122.186 21.536 122.056 21.3493 121.794 21.228C121.542 21.0973 121.136 20.9573 120.576 20.808C119.998 20.668 119.522 20.5233 119.148 20.374C118.784 20.2247 118.467 19.996 118.196 19.688C117.935 19.38 117.804 18.9647 117.804 18.442C117.804 18.0127 117.926 17.6207 118.168 17.266C118.42 16.9113 118.775 16.6313 119.232 16.426C119.699 16.2207 120.245 16.118 120.87 16.118C121.794 16.118 122.532 16.3513 123.082 16.818C123.633 17.2753 123.936 17.896 123.992 18.68H122.116C122.088 18.372 121.958 18.1293 121.724 17.952C121.5 17.7653 121.197 17.672 120.814 17.672C120.46 17.672 120.184 17.7373 119.988 17.868C119.802 17.9987 119.708 18.1807 119.708 18.414C119.708 18.6753 119.839 18.876 120.1 19.016C120.362 19.1467 120.768 19.282 121.318 19.422C121.878 19.562 122.34 19.7067 122.704 19.856C123.068 20.0053 123.381 20.2387 123.642 20.556C123.913 20.864 124.053 21.2747 124.062 21.788C124.062 22.236 123.936 22.6373 123.684 22.992C123.442 23.3467 123.087 23.6267 122.62 23.832C122.163 24.028 121.626 24.126 121.01 24.126ZM128.639 24.126C128.004 24.126 127.435 24.014 126.931 23.79C126.427 23.5567 126.026 23.244 125.727 22.852C125.438 22.46 125.279 22.026 125.251 21.55H127.225C127.262 21.8487 127.407 22.096 127.659 22.292C127.92 22.488 128.242 22.586 128.625 22.586C128.998 22.586 129.288 22.5113 129.493 22.362C129.708 22.2127 129.815 22.0213 129.815 21.788C129.815 21.536 129.684 21.3493 129.423 21.228C129.171 21.0973 128.765 20.9573 128.205 20.808C127.626 20.668 127.15 20.5233 126.777 20.374C126.413 20.2247 126.096 19.996 125.825 19.688C125.564 19.38 125.433 18.9647 125.433 18.442C125.433 18.0127 125.554 17.6207 125.797 17.266C126.049 16.9113 126.404 16.6313 126.861 16.426C127.328 16.2207 127.874 16.118 128.499 16.118C129.423 16.118 130.16 16.3513 130.711 16.818C131.262 17.2753 131.565 17.896 131.621 18.68H129.745C129.717 18.372 129.586 18.1293 129.353 17.952C129.129 17.7653 128.826 17.672 128.443 17.672C128.088 17.672 127.813 17.7373 127.617 17.868C127.43 17.9987 127.337 18.1807 127.337 18.414C127.337 18.6753 127.468 18.876 127.729 19.016C127.99 19.1467 128.396 19.282 128.947 19.422C129.507 19.562 129.969 19.7067 130.333 19.856C130.697 20.0053 131.01 20.2387 131.271 20.556C131.542 20.864 131.682 21.2747 131.691 21.788C131.691 22.236 131.565 22.6373 131.313 22.992C131.07 23.3467 130.716 23.6267 130.249 23.832C129.792 24.028 129.255 24.126 128.639 24.126ZM134.294 15.32C133.949 15.32 133.659 15.2127 133.426 14.998C133.202 14.774 133.09 14.4987 133.09 14.172C133.09 13.8453 133.202 13.5747 133.426 13.36C133.659 13.136 133.949 13.024 134.294 13.024C134.639 13.024 134.924 13.136 135.148 13.36C135.381 13.5747 135.498 13.8453 135.498 14.172C135.498 14.4987 135.381 14.774 135.148 14.998C134.924 15.2127 134.639 15.32 134.294 15.32ZM135.26 16.244V24H133.3V16.244H135.26ZM140.64 24.126C139.894 24.126 139.222 23.9627 138.624 23.636C138.027 23.3 137.556 22.8287 137.21 22.222C136.874 21.6153 136.706 20.9153 136.706 20.122C136.706 19.3287 136.879 18.6287 137.224 18.022C137.579 17.4153 138.06 16.9487 138.666 16.622C139.273 16.286 139.95 16.118 140.696 16.118C141.443 16.118 142.12 16.286 142.726 16.622C143.333 16.9487 143.809 17.4153 144.154 18.022C144.509 18.6287 144.686 19.3287 144.686 20.122C144.686 20.9153 144.504 21.6153 144.14 22.222C143.786 22.8287 143.3 23.3 142.684 23.636C142.078 23.9627 141.396 24.126 140.64 24.126ZM140.64 22.418C140.995 22.418 141.326 22.334 141.634 22.166C141.952 21.9887 142.204 21.7273 142.39 21.382C142.577 21.0367 142.67 20.6167 142.67 20.122C142.67 19.3847 142.474 18.82 142.082 18.428C141.7 18.0267 141.228 17.826 140.668 17.826C140.108 17.826 139.637 18.0267 139.254 18.428C138.881 18.82 138.694 19.3847 138.694 20.122C138.694 20.8593 138.876 21.4287 139.24 21.83C139.614 22.222 140.08 22.418 140.64 22.418ZM150.422 16.132C151.346 16.132 152.093 16.426 152.662 17.014C153.232 17.5927 153.516 18.4047 153.516 19.45V24H151.556V19.716C151.556 19.1 151.402 18.6287 151.094 18.302C150.786 17.966 150.366 17.798 149.834 17.798C149.293 17.798 148.864 17.966 148.546 18.302C148.238 18.6287 148.084 19.1 148.084 19.716V24H146.124V16.244H148.084V17.21C148.346 16.874 148.677 16.6127 149.078 16.426C149.489 16.23 149.937 16.132 150.422 16.132ZM81.926 36.81V39.26H85.216V40.814H81.926V43.404H85.636V45H79.966V35.214H85.636V36.81H81.926ZM91.7152 37.132C92.6392 37.132 93.3858 37.426 93.9552 38.014C94.5245 38.5927 94.8092 39.4047 94.8092 40.45V45H92.8492V40.716C92.8492 40.1 92.6952 39.6287 92.3872 39.302C92.0792 38.966 91.6592 38.798 91.1272 38.798C90.5858 38.798 90.1565 38.966 89.8392 39.302C89.5312 39.6287 89.3772 40.1 89.3772 40.716V45H87.4172V37.244H89.3772V38.21C89.6385 37.874 89.9698 37.6127 90.3712 37.426C90.7818 37.23 91.2298 37.132 91.7152 37.132ZM96.169 41.108C96.169 40.3333 96.3277 39.6473 96.645 39.05C96.9717 38.4433 97.4104 37.972 97.961 37.636C98.5117 37.3 99.1184 37.132 99.781 37.132C100.332 37.132 100.817 37.2393 101.237 37.454C101.666 37.6593 102.012 37.9253 102.273 38.252V37.244H104.247V48.696H102.273V43.936C102.012 44.272 101.662 44.552 101.223 44.776C100.784 45 100.29 45.112 99.739 45.112C99.0857 45.112 98.4837 44.944 97.933 44.608C97.3917 44.2627 96.9624 43.7867 96.645 43.18C96.3277 42.5733 96.169 41.8827 96.169 41.108ZM102.273 41.122C102.273 40.646 102.175 40.2353 101.979 39.89C101.783 39.5447 101.526 39.2833 101.209 39.106C100.901 38.9287 100.57 38.84 100.215 38.84C99.8697 38.84 99.5384 38.9287 99.221 39.106C98.913 39.2833 98.661 39.5447 98.465 39.89C98.269 40.226 98.171 40.632 98.171 41.108C98.171 41.584 98.269 41.9993 98.465 42.354C98.661 42.6993 98.913 42.9607 99.221 43.138C99.5384 43.3153 99.8697 43.404 100.215 43.404C100.57 43.404 100.901 43.3153 101.209 43.138C101.526 42.9607 101.783 42.6993 101.979 42.354C102.175 42.0087 102.273 41.598 102.273 41.122ZM113.483 37.244V45H111.509V44.02C111.257 44.356 110.926 44.622 110.515 44.818C110.114 45.0047 109.675 45.098 109.199 45.098C108.593 45.098 108.056 44.972 107.589 44.72C107.123 44.4587 106.754 44.0807 106.483 43.586C106.222 43.082 106.091 42.4847 106.091 41.794V37.244H108.051V41.514C108.051 42.13 108.205 42.606 108.513 42.942C108.821 43.2687 109.241 43.432 109.773 43.432C110.315 43.432 110.739 43.2687 111.047 42.942C111.355 42.606 111.509 42.13 111.509 41.514V37.244H113.483ZM116.411 36.32C116.066 36.32 115.777 36.2127 115.543 35.998C115.319 35.774 115.207 35.4987 115.207 35.172C115.207 34.8453 115.319 34.5747 115.543 34.36C115.777 34.136 116.066 34.024 116.411 34.024C116.757 34.024 117.041 34.136 117.265 34.36C117.499 34.5747 117.615 34.8453 117.615 35.172C117.615 35.4987 117.499 35.774 117.265 35.998C117.041 36.2127 116.757 36.32 116.411 36.32ZM117.377 37.244V45H115.417V37.244H117.377ZM121.274 38.448C121.526 38.0373 121.852 37.7153 122.254 37.482C122.664 37.2487 123.131 37.132 123.654 37.132V39.19H123.136C122.52 39.19 122.053 39.3347 121.736 39.624C121.428 39.9133 121.274 40.4173 121.274 41.136V45H119.314V37.244H121.274V38.448ZM132.394 37.244L127.592 48.668H125.506L127.186 44.804L124.078 37.244H126.276L128.278 42.662L130.308 37.244H132.394Z" fill="#050329"/>
</svg>
