<svg width="211" height="61" viewBox="0 0 211 61" fill="none" xmlns="http://www.w3.org/2000/svg">
<circle cx="30.25" cy="30.5" r="30" fill="#DCD3FE"/>
<path d="M31.81 30.764C32.4503 30.2097 32.9639 29.5242 33.3159 28.754C33.6678 27.9838 33.85 27.1468 33.85 26.3C33.85 24.7087 33.2179 23.1826 32.0926 22.0573C30.9674 20.9321 29.4413 20.3 27.85 20.3C26.2587 20.3 24.7326 20.9321 23.6074 22.0573C22.4821 23.1826 21.85 24.7087 21.85 26.3C21.85 27.1468 22.0322 27.9838 22.3842 28.754C22.7361 29.5242 23.2497 30.2097 23.89 30.764C22.2102 31.5246 20.785 32.753 19.7848 34.3022C18.7846 35.8515 18.2518 37.656 18.25 39.5C18.25 39.8182 18.3764 40.1235 18.6015 40.3485C18.8265 40.5736 19.1317 40.7 19.45 40.7C19.7683 40.7 20.0735 40.5736 20.2985 40.3485C20.5236 40.1235 20.65 39.8182 20.65 39.5C20.65 37.5904 21.4086 35.7591 22.7588 34.4088C24.1091 33.0586 25.9404 32.3 27.85 32.3C29.7596 32.3 31.5909 33.0586 32.9412 34.4088C34.2914 35.7591 35.05 37.5904 35.05 39.5C35.05 39.8182 35.1764 40.1235 35.4015 40.3485C35.6265 40.5736 35.9317 40.7 36.25 40.7C36.5683 40.7 36.8735 40.5736 37.0985 40.3485C37.3236 40.1235 37.45 39.8182 37.45 39.5C37.4482 37.656 36.9154 35.8515 35.9152 34.3022C34.915 32.753 33.4898 31.5246 31.81 30.764ZM27.85 29.9C27.138 29.9 26.442 29.6889 25.8499 29.2933C25.2579 28.8977 24.7965 28.3355 24.524 27.6776C24.2516 27.0198 24.1803 26.296 24.3192 25.5977C24.4581 24.8993 24.8009 24.2579 25.3044 23.7544C25.8079 23.2509 26.4493 22.9081 27.1477 22.7692C27.846 22.6303 28.5698 22.7015 29.2277 22.974C29.8855 23.2465 30.4477 23.7079 30.8433 24.2999C31.2389 24.892 31.45 25.588 31.45 26.3C31.45 27.2548 31.0707 28.1704 30.3956 28.8456C29.7205 29.5207 28.8048 29.9 27.85 29.9ZM41.902 27.056C41.7904 26.9435 41.6577 26.8542 41.5115 26.7933C41.3653 26.7324 41.2084 26.701 41.05 26.701C40.8916 26.701 40.7347 26.7324 40.5885 26.7933C40.4423 26.8542 40.3096 26.9435 40.198 27.056L37.798 29.456L37.054 28.7C36.9424 28.5875 36.8097 28.4982 36.6635 28.4373C36.5173 28.3764 36.3604 28.345 36.202 28.345C36.0436 28.345 35.8867 28.3764 35.7405 28.4373C35.5943 28.4982 35.4616 28.5875 35.35 28.7C35.1265 28.9248 35.001 29.229 35.001 29.546C35.001 29.863 35.1265 30.1672 35.35 30.392L36.958 32C37.1828 32.2235 37.487 32.3489 37.804 32.3489C38.121 32.3489 38.4252 32.2235 38.65 32L41.854 28.796C41.9752 28.6872 42.0729 28.5548 42.1413 28.407C42.2096 28.2592 42.2472 28.0991 42.2517 27.9363C42.2562 27.7735 42.2275 27.6115 42.1674 27.4602C42.1073 27.3088 42.017 27.1713 41.902 27.056Z" fill="#501D95"/>
<path d="M86.208 33.138H82.316L81.672 35H79.614L83.128 25.214H85.41L88.924 35H86.852L86.208 33.138ZM85.676 31.57L84.262 27.482L82.848 31.57H85.676ZM92.5195 28.854V32.606C92.5195 32.8673 92.5802 33.0587 92.7015 33.18C92.8322 33.292 93.0468 33.348 93.3455 33.348H94.2555V35H93.0235C91.3715 35 90.5455 34.1973 90.5455 32.592V28.854H89.6215V27.244H90.5455V25.326H92.5195V27.244H94.2555V28.854H92.5195ZM97.9472 28.854V32.606C97.9472 32.8673 98.0079 33.0587 98.1292 33.18C98.2599 33.292 98.4746 33.348 98.7732 33.348H99.6832V35H98.4512C96.7992 35 95.9732 34.1973 95.9732 32.592V28.854H95.0492V27.244H95.9732V25.326H97.9472V27.244H99.6832V28.854H97.9472ZM108.303 30.954C108.303 31.234 108.284 31.486 108.247 31.71H102.577C102.624 32.27 102.82 32.7087 103.165 33.026C103.51 33.3433 103.935 33.502 104.439 33.502C105.167 33.502 105.685 33.1893 105.993 32.564H108.107C107.883 33.3107 107.454 33.9267 106.819 34.412C106.184 34.888 105.405 35.126 104.481 35.126C103.734 35.126 103.062 34.9627 102.465 34.636C101.877 34.3 101.415 33.8287 101.079 33.222C100.752 32.6153 100.589 31.9153 100.589 31.122C100.589 30.3193 100.752 29.6147 101.079 29.008C101.406 28.4013 101.863 27.9347 102.451 27.608C103.039 27.2813 103.716 27.118 104.481 27.118C105.218 27.118 105.876 27.2767 106.455 27.594C107.043 27.9113 107.496 28.364 107.813 28.952C108.14 29.5307 108.303 30.198 108.303 30.954ZM106.273 30.394C106.264 29.89 106.082 29.4887 105.727 29.19C105.372 28.882 104.938 28.728 104.425 28.728C103.94 28.728 103.529 28.8773 103.193 29.176C102.866 29.4653 102.666 29.8713 102.591 30.394H106.273ZM114.032 27.132C114.956 27.132 115.702 27.426 116.272 28.014C116.841 28.5927 117.126 29.4047 117.126 30.45V35H115.166V30.716C115.166 30.1 115.012 29.6287 114.704 29.302C114.396 28.966 113.976 28.798 113.444 28.798C112.902 28.798 112.473 28.966 112.156 29.302C111.848 29.6287 111.694 30.1 111.694 30.716V35H109.734V27.244H111.694V28.21C111.955 27.874 112.286 27.6127 112.688 27.426C113.098 27.23 113.546 27.132 114.032 27.132ZM118.485 31.094C118.485 30.31 118.639 29.6147 118.947 29.008C119.265 28.4013 119.694 27.9347 120.235 27.608C120.777 27.2813 121.379 27.118 122.041 27.118C122.545 27.118 123.026 27.23 123.483 27.454C123.941 27.6687 124.305 27.958 124.575 28.322V24.64H126.563V35H124.575V33.852C124.333 34.2347 123.992 34.5427 123.553 34.776C123.115 35.0093 122.606 35.126 122.027 35.126C121.374 35.126 120.777 34.958 120.235 34.622C119.694 34.286 119.265 33.8147 118.947 33.208C118.639 32.592 118.485 31.8873 118.485 31.094ZM124.589 31.122C124.589 30.646 124.496 30.24 124.309 29.904C124.123 29.5587 123.871 29.2973 123.553 29.12C123.236 28.9333 122.895 28.84 122.531 28.84C122.167 28.84 121.831 28.9287 121.523 29.106C121.215 29.2833 120.963 29.5447 120.767 29.89C120.581 30.226 120.487 30.6273 120.487 31.094C120.487 31.5607 120.581 31.9713 120.767 32.326C120.963 32.6713 121.215 32.9373 121.523 33.124C121.841 33.3107 122.177 33.404 122.531 33.404C122.895 33.404 123.236 33.3153 123.553 33.138C123.871 32.9513 124.123 32.69 124.309 32.354C124.496 32.0087 124.589 31.598 124.589 31.122ZM127.974 31.094C127.974 30.31 128.128 29.6147 128.436 29.008C128.753 28.4013 129.178 27.9347 129.71 27.608C130.251 27.2813 130.853 27.118 131.516 27.118C132.094 27.118 132.598 27.2347 133.028 27.468C133.466 27.7013 133.816 27.9953 134.078 28.35V27.244H136.052V35H134.078V33.866C133.826 34.23 133.476 34.5333 133.028 34.776C132.589 35.0093 132.08 35.126 131.502 35.126C130.848 35.126 130.251 34.958 129.71 34.622C129.178 34.286 128.753 33.8147 128.436 33.208C128.128 32.592 127.974 31.8873 127.974 31.094ZM134.078 31.122C134.078 30.646 133.984 30.24 133.798 29.904C133.611 29.5587 133.359 29.2973 133.042 29.12C132.724 28.9333 132.384 28.84 132.02 28.84C131.656 28.84 131.32 28.9287 131.012 29.106C130.704 29.2833 130.452 29.5447 130.256 29.89C130.069 30.226 129.976 30.6273 129.976 31.094C129.976 31.5607 130.069 31.9713 130.256 32.326C130.452 32.6713 130.704 32.9373 131.012 33.124C131.329 33.3107 131.665 33.404 132.02 33.404C132.384 33.404 132.724 33.3153 133.042 33.138C133.359 32.9513 133.611 32.69 133.798 32.354C133.984 32.0087 134.078 31.598 134.078 31.122ZM142.264 27.132C143.188 27.132 143.935 27.426 144.504 28.014C145.073 28.5927 145.358 29.4047 145.358 30.45V35H143.398V30.716C143.398 30.1 143.244 29.6287 142.936 29.302C142.628 28.966 142.208 28.798 141.676 28.798C141.135 28.798 140.705 28.966 140.388 29.302C140.08 29.6287 139.926 30.1 139.926 30.716V35H137.966V27.244H139.926V28.21C140.187 27.874 140.519 27.6127 140.92 27.426C141.331 27.23 141.779 27.132 142.264 27.132ZM146.718 31.122C146.718 30.3193 146.881 29.6193 147.208 29.022C147.535 28.4153 147.987 27.9487 148.566 27.622C149.145 27.286 149.807 27.118 150.554 27.118C151.515 27.118 152.309 27.3607 152.934 27.846C153.569 28.322 153.993 28.994 154.208 29.862H152.094C151.982 29.526 151.791 29.2647 151.52 29.078C151.259 28.882 150.932 28.784 150.54 28.784C149.98 28.784 149.537 28.9893 149.21 29.4C148.883 29.8013 148.72 30.3753 148.72 31.122C148.72 31.8593 148.883 32.4333 149.21 32.844C149.537 33.2453 149.98 33.446 150.54 33.446C151.333 33.446 151.851 33.0913 152.094 32.382H154.208C153.993 33.222 153.569 33.8893 152.934 34.384C152.299 34.8787 151.506 35.126 150.554 35.126C149.807 35.126 149.145 34.9627 148.566 34.636C147.987 34.3 147.535 33.8333 147.208 33.236C146.881 32.6293 146.718 31.9247 146.718 31.122ZM162.854 30.954C162.854 31.234 162.835 31.486 162.798 31.71H157.128C157.174 32.27 157.37 32.7087 157.716 33.026C158.061 33.3433 158.486 33.502 158.99 33.502C159.718 33.502 160.236 33.1893 160.544 32.564H162.658C162.434 33.3107 162.004 33.9267 161.37 34.412C160.735 34.888 159.956 35.126 159.032 35.126C158.285 35.126 157.613 34.9627 157.016 34.636C156.428 34.3 155.966 33.8287 155.63 33.222C155.303 32.6153 155.14 31.9153 155.14 31.122C155.14 30.3193 155.303 29.6147 155.63 29.008C155.956 28.4013 156.414 27.9347 157.002 27.608C157.59 27.2813 158.266 27.118 159.032 27.118C159.769 27.118 160.427 27.2767 161.006 27.594C161.594 27.9113 162.046 28.364 162.364 28.952C162.69 29.5307 162.854 30.198 162.854 30.954ZM160.824 30.394C160.814 29.89 160.632 29.4887 160.278 29.19C159.923 28.882 159.489 28.728 158.976 28.728C158.49 28.728 158.08 28.8773 157.744 29.176C157.417 29.4653 157.216 29.8713 157.142 30.394H160.824Z" fill="#050329"/>
</svg>
