<svg width="61" height="60" viewBox="0 0 61 60" fill="none" xmlns="http://www.w3.org/2000/svg">
<circle cx="30.25" cy="30" r="30" fill="#DCD3FE"/>
<path d="M31.81 30.264C32.4503 29.7097 32.9639 29.0242 33.3159 28.254C33.6678 27.4838 33.85 26.6468 33.85 25.8C33.85 24.2087 33.2179 22.6826 32.0926 21.5573C30.9674 20.4321 29.4413 19.8 27.85 19.8C26.2587 19.8 24.7326 20.4321 23.6074 21.5573C22.4821 22.6826 21.85 24.2087 21.85 25.8C21.85 26.6468 22.0322 27.4838 22.3842 28.254C22.7361 29.0242 23.2497 29.7097 23.89 30.264C22.2102 31.0246 20.785 32.253 19.7848 33.8022C18.7846 35.3515 18.2518 37.156 18.25 39C18.25 39.3182 18.3764 39.6235 18.6015 39.8485C18.8265 40.0736 19.1317 40.2 19.45 40.2C19.7683 40.2 20.0735 40.0736 20.2985 39.8485C20.5236 39.6235 20.65 39.3182 20.65 39C20.65 37.0904 21.4086 35.2591 22.7588 33.9088C24.1091 32.5586 25.9404 31.8 27.85 31.8C29.7596 31.8 31.5909 32.5586 32.9412 33.9088C34.2914 35.2591 35.05 37.0904 35.05 39C35.05 39.3182 35.1764 39.6235 35.4015 39.8485C35.6265 40.0736 35.9317 40.2 36.25 40.2C36.5683 40.2 36.8735 40.0736 37.0985 39.8485C37.3236 39.6235 37.45 39.3182 37.45 39C37.4482 37.156 36.9154 35.3515 35.9152 33.8022C34.915 32.253 33.4898 31.0246 31.81 30.264ZM27.85 29.4C27.138 29.4 26.442 29.1889 25.8499 28.7933C25.2579 28.3977 24.7965 27.8355 24.524 27.1776C24.2516 26.5198 24.1803 25.796 24.3192 25.0977C24.4581 24.3993 24.8009 23.7579 25.3044 23.2544C25.8079 22.7509 26.4493 22.4081 27.1477 22.2692C27.846 22.1303 28.5698 22.2015 29.2277 22.474C29.8855 22.7465 30.4477 23.2079 30.8433 23.7999C31.2389 24.392 31.45 25.088 31.45 25.8C31.45 26.7548 31.0707 27.6704 30.3956 28.3456C29.7205 29.0207 28.8048 29.4 27.85 29.4ZM41.902 26.556C41.7904 26.4435 41.6577 26.3542 41.5115 26.2933C41.3653 26.2324 41.2084 26.201 41.05 26.201C40.8916 26.201 40.7347 26.2324 40.5885 26.2933C40.4423 26.3542 40.3096 26.4435 40.198 26.556L37.798 28.956L37.054 28.2C36.9424 28.0875 36.8097 27.9982 36.6635 27.9373C36.5173 27.8764 36.3604 27.845 36.202 27.845C36.0436 27.845 35.8867 27.8764 35.7405 27.9373C35.5943 27.9982 35.4616 28.0875 35.35 28.2C35.1265 28.4248 35.001 28.729 35.001 29.046C35.001 29.363 35.1265 29.6672 35.35 29.892L36.958 31.5C37.1828 31.7235 37.487 31.8489 37.804 31.8489C38.121 31.8489 38.4252 31.7235 38.65 31.5L41.854 28.296C41.9752 28.1872 42.0729 28.0548 42.1413 27.907C42.2096 27.7592 42.2472 27.5991 42.2517 27.4363C42.2562 27.2735 42.2275 27.1115 42.1674 26.9602C42.1073 26.8088 42.017 26.6713 41.902 26.556Z" fill="#501D95"/>
</svg>
