<svg width="211" height="60" viewBox="0 0 211 60" fill="none" xmlns="http://www.w3.org/2000/svg">
<circle cx="30" cy="30" r="30" fill="#D8C7FE"/>
<g clip-path="url(#clip0_570_401)">
<path d="M30.67 20.217L39.17 24.967C39.4195 25.0916 39.6294 25.2833 39.776 25.5205C39.9226 25.7577 40.0002 26.0312 40 26.31V27.75C40 28.44 39.44 29 38.75 29H38V37H39C39.2652 37 39.5196 37.1054 39.7071 37.2929C39.8946 37.4805 40 37.7348 40 38C40 38.2653 39.8946 38.5196 39.7071 38.7071C39.5196 38.8947 39.2652 39 39 39H21C20.7348 39 20.4804 38.8947 20.2929 38.7071C20.1054 38.5196 20 38.2653 20 38C20 37.7348 20.1054 37.4805 20.2929 37.2929C20.4804 37.1054 20.7348 37 21 37H22V29H21.25C20.56 29 20 28.44 20 27.75V26.31C20 25.788 20.27 25.308 20.706 25.036L29.329 20.217C29.5373 20.1128 29.7671 20.0586 30 20.0586C30.2329 20.0586 30.4617 20.1128 30.67 20.217ZM36 29H24V37H27V31H29V37H31V31H33V37H36V29ZM30 22.118L22 26.618V27H38V26.618L30 22.118ZM30 24C30.2652 24 30.5196 24.1054 30.7071 24.2929C30.8946 24.4805 31 24.7348 31 25C31 25.2653 30.8946 25.5196 30.7071 25.7071C30.5196 25.8947 30.2652 26 30 26C29.7348 26 29.4804 25.8947 29.2929 25.7071C29.1054 25.5196 29 25.2653 29 25C29 24.7348 29.1054 24.4805 29.2929 24.2929C29.4804 24.1054 29.7348 24 30 24Z" fill="#2E0A7B"/>
</g>
<path d="M85.51 29.488C86.0607 29.5907 86.5133 29.866 86.868 30.314C87.2227 30.762 87.4 31.2753 87.4 31.854C87.4 32.3767 87.2693 32.8387 87.008 33.24C86.756 33.632 86.3873 33.94 85.902 34.164C85.4167 34.388 84.8427 34.5 84.18 34.5H79.966V24.728H83.998C84.6607 24.728 85.23 24.8353 85.706 25.05C86.1913 25.2647 86.5553 25.5633 86.798 25.946C87.05 26.3287 87.176 26.7627 87.176 27.248C87.176 27.8173 87.022 28.2933 86.714 28.676C86.4153 29.0587 86.014 29.3293 85.51 29.488ZM81.926 28.76H83.718C84.1847 28.76 84.544 28.6573 84.796 28.452C85.048 28.2373 85.174 27.934 85.174 27.542C85.174 27.15 85.048 26.8467 84.796 26.632C84.544 26.4173 84.1847 26.31 83.718 26.31H81.926V28.76ZM83.9 32.904C84.376 32.904 84.7447 32.792 85.006 32.568C85.2767 32.344 85.412 32.0267 85.412 31.616C85.412 31.196 85.272 30.8693 84.992 30.636C84.712 30.3933 84.334 30.272 83.858 30.272H81.926V32.904H83.9ZM88.4581 30.594C88.4581 29.81 88.6121 29.1147 88.9201 28.508C89.2374 27.9013 89.6621 27.4347 90.1941 27.108C90.7354 26.7813 91.3374 26.618 92.0001 26.618C92.5788 26.618 93.0828 26.7347 93.5121 26.968C93.9508 27.2013 94.3008 27.4953 94.5621 27.85V26.744H96.5361V34.5H94.5621V33.366C94.3101 33.73 93.9601 34.0333 93.5121 34.276C93.0734 34.5093 92.5648 34.626 91.9861 34.626C91.3328 34.626 90.7354 34.458 90.1941 34.122C89.6621 33.786 89.2374 33.3147 88.9201 32.708C88.6121 32.092 88.4581 31.3873 88.4581 30.594ZM94.5621 30.622C94.5621 30.146 94.4688 29.74 94.2821 29.404C94.0954 29.0587 93.8434 28.7973 93.5261 28.62C93.2088 28.4333 92.8681 28.34 92.5041 28.34C92.1401 28.34 91.8041 28.4287 91.4961 28.606C91.1881 28.7833 90.9361 29.0447 90.7401 29.39C90.5534 29.726 90.4601 30.1273 90.4601 30.594C90.4601 31.0607 90.5534 31.4713 90.7401 31.826C90.9361 32.1713 91.1881 32.4373 91.4961 32.624C91.8134 32.8107 92.1494 32.904 92.5041 32.904C92.8681 32.904 93.2088 32.8153 93.5261 32.638C93.8434 32.4513 94.0954 32.19 94.2821 31.854C94.4688 31.5087 94.5621 31.098 94.5621 30.622ZM102.748 26.632C103.672 26.632 104.419 26.926 104.988 27.514C105.558 28.0927 105.842 28.9047 105.842 29.95V34.5H103.882V30.216C103.882 29.6 103.728 29.1287 103.42 28.802C103.112 28.466 102.692 28.298 102.16 28.298C101.619 28.298 101.19 28.466 100.872 28.802C100.564 29.1287 100.41 29.6 100.41 30.216V34.5H98.4504V26.744H100.41V27.71C100.672 27.374 101.003 27.1127 101.404 26.926C101.815 26.73 102.263 26.632 102.748 26.632ZM112.298 34.5L109.666 31.196V34.5H107.706V24.14H109.666V30.034L112.27 26.744H114.818L111.402 30.636L114.846 34.5H112.298ZM126.344 27.752C126.344 28.2747 126.218 28.7647 125.966 29.222C125.723 29.6793 125.336 30.048 124.804 30.328C124.281 30.608 123.619 30.748 122.816 30.748H121.178V34.5H119.218V24.728H122.816C123.572 24.728 124.216 24.8587 124.748 25.12C125.28 25.3813 125.677 25.7407 125.938 26.198C126.209 26.6553 126.344 27.1733 126.344 27.752ZM122.732 29.166C123.273 29.166 123.675 29.0447 123.936 28.802C124.197 28.55 124.328 28.2 124.328 27.752C124.328 26.8 123.796 26.324 122.732 26.324H121.178V29.166H122.732ZM127.232 30.594C127.232 29.81 127.386 29.1147 127.694 28.508C128.011 27.9013 128.436 27.4347 128.968 27.108C129.509 26.7813 130.111 26.618 130.774 26.618C131.352 26.618 131.856 26.7347 132.286 26.968C132.724 27.2013 133.074 27.4953 133.336 27.85V26.744H135.31V34.5H133.336V33.366C133.084 33.73 132.734 34.0333 132.286 34.276C131.847 34.5093 131.338 34.626 130.76 34.626C130.106 34.626 129.509 34.458 128.968 34.122C128.436 33.786 128.011 33.3147 127.694 32.708C127.386 32.092 127.232 31.3873 127.232 30.594ZM133.336 30.622C133.336 30.146 133.242 29.74 133.056 29.404C132.869 29.0587 132.617 28.7973 132.3 28.62C131.982 28.4333 131.642 28.34 131.278 28.34C130.914 28.34 130.578 28.4287 130.27 28.606C129.962 28.7833 129.71 29.0447 129.514 29.39C129.327 29.726 129.234 30.1273 129.234 30.594C129.234 31.0607 129.327 31.4713 129.514 31.826C129.71 32.1713 129.962 32.4373 130.27 32.624C130.587 32.8107 130.923 32.904 131.278 32.904C131.642 32.904 131.982 32.8153 132.3 32.638C132.617 32.4513 132.869 32.19 133.056 31.854C133.242 31.5087 133.336 31.098 133.336 30.622ZM144.644 26.744L139.842 38.168H137.756L139.436 34.304L136.328 26.744H138.526L140.528 32.162L142.558 26.744H144.644ZM155.332 26.632C156.284 26.632 157.05 26.926 157.628 27.514C158.216 28.0927 158.51 28.9047 158.51 29.95V34.5H156.55V30.216C156.55 29.6093 156.396 29.1473 156.088 28.83C155.78 28.5033 155.36 28.34 154.828 28.34C154.296 28.34 153.872 28.5033 153.554 28.83C153.246 29.1473 153.092 29.6093 153.092 30.216V34.5H151.132V30.216C151.132 29.6093 150.978 29.1473 150.67 28.83C150.362 28.5033 149.942 28.34 149.41 28.34C148.869 28.34 148.44 28.5033 148.122 28.83C147.814 29.1473 147.66 29.6093 147.66 30.216V34.5H145.7V26.744H147.66V27.682C147.912 27.3553 148.234 27.0987 148.626 26.912C149.028 26.7253 149.466 26.632 149.942 26.632C150.549 26.632 151.09 26.7627 151.566 27.024C152.042 27.276 152.411 27.64 152.672 28.116C152.924 27.668 153.288 27.3087 153.764 27.038C154.25 26.7673 154.772 26.632 155.332 26.632ZM167.58 30.454C167.58 30.734 167.562 30.986 167.524 31.21H161.854C161.901 31.77 162.097 32.2087 162.442 32.526C162.788 32.8433 163.212 33.002 163.716 33.002C164.444 33.002 164.962 32.6893 165.27 32.064H167.384C167.16 32.8107 166.731 33.4267 166.096 33.912C165.462 34.388 164.682 34.626 163.758 34.626C163.012 34.626 162.34 34.4627 161.742 34.136C161.154 33.8 160.692 33.3287 160.356 32.722C160.03 32.1153 159.866 31.4153 159.866 30.622C159.866 29.8193 160.03 29.1147 160.356 28.508C160.683 27.9013 161.14 27.4347 161.728 27.108C162.316 26.7813 162.993 26.618 163.758 26.618C164.496 26.618 165.154 26.7767 165.732 27.094C166.32 27.4113 166.773 27.864 167.09 28.452C167.417 29.0307 167.58 29.698 167.58 30.454ZM165.55 29.894C165.541 29.39 165.359 28.9887 165.004 28.69C164.65 28.382 164.216 28.228 163.702 28.228C163.217 28.228 162.806 28.3773 162.47 28.676C162.144 28.9653 161.943 29.3713 161.868 29.894H165.55ZM173.309 26.632C174.233 26.632 174.98 26.926 175.549 27.514C176.118 28.0927 176.403 28.9047 176.403 29.95V34.5H174.443V30.216C174.443 29.6 174.289 29.1287 173.981 28.802C173.673 28.466 173.253 28.298 172.721 28.298C172.18 28.298 171.75 28.466 171.433 28.802C171.125 29.1287 170.971 29.6 170.971 30.216V34.5H169.011V26.744H170.971V27.71C171.232 27.374 171.564 27.1127 171.965 26.926C172.376 26.73 172.824 26.632 173.309 26.632ZM180.549 28.354V32.106C180.549 32.3673 180.609 32.5587 180.731 32.68C180.861 32.792 181.076 32.848 181.375 32.848H182.285V34.5H181.053C179.401 34.5 178.575 33.6973 178.575 32.092V28.354H177.651V26.744H178.575V24.826H180.549V26.744H182.285V28.354H180.549ZM186.663 34.626C186.028 34.626 185.459 34.514 184.955 34.29C184.451 34.0567 184.049 33.744 183.751 33.352C183.461 32.96 183.303 32.526 183.275 32.05H185.249C185.286 32.3487 185.431 32.596 185.683 32.792C185.944 32.988 186.266 33.086 186.649 33.086C187.022 33.086 187.311 33.0113 187.517 32.862C187.731 32.7127 187.839 32.5213 187.839 32.288C187.839 32.036 187.708 31.8493 187.447 31.728C187.195 31.5973 186.789 31.4573 186.229 31.308C185.65 31.168 185.174 31.0233 184.801 30.874C184.437 30.7247 184.119 30.496 183.849 30.188C183.587 29.88 183.457 29.4647 183.457 28.942C183.457 28.5127 183.578 28.1207 183.821 27.766C184.073 27.4113 184.427 27.1313 184.885 26.926C185.351 26.7207 185.897 26.618 186.523 26.618C187.447 26.618 188.184 26.8513 188.735 27.318C189.285 27.7753 189.589 28.396 189.645 29.18H187.769C187.741 28.872 187.61 28.6293 187.377 28.452C187.153 28.2653 186.849 28.172 186.467 28.172C186.112 28.172 185.837 28.2373 185.641 28.368C185.454 28.4987 185.361 28.6807 185.361 28.914C185.361 29.1753 185.491 29.376 185.753 29.516C186.014 29.6467 186.42 29.782 186.971 29.922C187.531 30.062 187.993 30.2067 188.357 30.356C188.721 30.5053 189.033 30.7387 189.295 31.056C189.565 31.364 189.705 31.7747 189.715 32.288C189.715 32.736 189.589 33.1373 189.337 33.492C189.094 33.8467 188.739 34.1267 188.273 34.332C187.815 34.528 187.279 34.626 186.663 34.626Z" fill="#050329"/>
<defs>
<clipPath id="clip0_570_401">
<rect width="24" height="24" fill="white" transform="translate(18 18)"/>
</clipPath>
</defs>
</svg>
