<svg width="211" height="60" viewBox="0 0 211 60" fill="none" xmlns="http://www.w3.org/2000/svg">
<circle cx="30" cy="30" r="30" fill="#ECC8FD"/>
<path d="M30 40C35.523 40 40 35.523 40 30C40 24.477 35.523 20 30 20C24.477 20 20 24.477 20 30C20 35.523 24.477 40 30 40Z" stroke="#420360" stroke-width="2" stroke-linejoin="round"/>
<path d="M30 40C33.866 40 37 36.866 37 33C37 29.134 33.866 26 30 26C26.134 26 23 29.134 23 33C23 36.866 26.134 40 30 40Z" stroke="#420360" stroke-width="2" stroke-linejoin="round"/>
<path d="M30 40C31.0609 40 32.0783 39.5786 32.8284 38.8284C33.5786 38.0783 34 37.0609 34 36C34 34.9391 33.5786 33.9217 32.8284 33.1716C32.0783 32.4214 31.0609 32 30 32C28.9391 32 27.9217 32.4214 27.1716 33.1716C26.4214 33.9217 26 34.9391 26 36C26 37.0609 26.4214 38.0783 27.1716 38.8284C27.9217 39.5786 28.9391 40 30 40Z" stroke="#420360" stroke-width="2" stroke-linejoin="round"/>
<path d="M79.49 29.6C79.49 28.6387 79.7047 27.78 80.134 27.024C80.5727 26.2587 81.1653 25.666 81.912 25.246C82.668 24.8167 83.5127 24.602 84.446 24.602C85.538 24.602 86.4947 24.882 87.316 25.442C88.1373 26.002 88.7113 26.7767 89.038 27.766H86.784C86.56 27.2993 86.2427 26.9493 85.832 26.716C85.4307 26.4827 84.964 26.366 84.432 26.366C83.8627 26.366 83.354 26.5013 82.906 26.772C82.4673 27.0333 82.122 27.4067 81.87 27.892C81.6273 28.3773 81.506 28.9467 81.506 29.6C81.506 30.244 81.6273 30.8133 81.87 31.308C82.122 31.7933 82.4673 32.1713 82.906 32.442C83.354 32.7033 83.8627 32.834 84.432 32.834C84.964 32.834 85.4307 32.7173 85.832 32.484C86.2427 32.2413 86.56 31.8867 86.784 31.42H89.038C88.7113 32.4187 88.1373 33.198 87.316 33.758C86.504 34.3087 85.5473 34.584 84.446 34.584C83.5127 34.584 82.668 34.374 81.912 33.954C81.1653 33.5247 80.5727 32.932 80.134 32.176C79.7047 31.42 79.49 30.5613 79.49 29.6ZM91.7061 25.82C91.3608 25.82 91.0714 25.7127 90.8381 25.498C90.6141 25.274 90.5021 24.9987 90.5021 24.672C90.5021 24.3453 90.6141 24.0747 90.8381 23.86C91.0714 23.636 91.3608 23.524 91.7061 23.524C92.0514 23.524 92.3361 23.636 92.5601 23.86C92.7934 24.0747 92.9101 24.3453 92.9101 24.672C92.9101 24.9987 92.7934 25.274 92.5601 25.498C92.3361 25.7127 92.0514 25.82 91.7061 25.82ZM92.6721 26.744V34.5H90.7121V26.744H92.6721ZM96.5686 27.948C96.8206 27.5373 97.1472 27.2153 97.5486 26.982C97.9592 26.7487 98.4259 26.632 98.9486 26.632V28.69H98.4306C97.8146 28.69 97.3479 28.8347 97.0306 29.124C96.7226 29.4133 96.5686 29.9173 96.5686 30.636V34.5H94.6086V26.744H96.5686V27.948ZM99.7647 30.622C99.7647 29.8193 99.9281 29.1193 100.255 28.522C100.581 27.9153 101.034 27.4487 101.613 27.122C102.191 26.786 102.854 26.618 103.601 26.618C104.562 26.618 105.355 26.8607 105.981 27.346C106.615 27.822 107.04 28.494 107.255 29.362H105.141C105.029 29.026 104.837 28.7647 104.567 28.578C104.305 28.382 103.979 28.284 103.587 28.284C103.027 28.284 102.583 28.4893 102.257 28.9C101.93 29.3013 101.767 29.8753 101.767 30.622C101.767 31.3593 101.93 31.9333 102.257 32.344C102.583 32.7453 103.027 32.946 103.587 32.946C104.38 32.946 104.898 32.5913 105.141 31.882H107.255C107.04 32.722 106.615 33.3893 105.981 33.884C105.346 34.3787 104.553 34.626 103.601 34.626C102.854 34.626 102.191 34.4627 101.613 34.136C101.034 33.8 100.581 33.3333 100.255 32.736C99.9281 32.1293 99.7647 31.4247 99.7647 30.622ZM116.013 26.744V34.5H114.039V33.52C113.787 33.856 113.455 34.122 113.045 34.318C112.643 34.5047 112.205 34.598 111.729 34.598C111.122 34.598 110.585 34.472 110.119 34.22C109.652 33.9587 109.283 33.5807 109.013 33.086C108.751 32.582 108.621 31.9847 108.621 31.294V26.744H110.581V31.014C110.581 31.63 110.735 32.106 111.043 32.442C111.351 32.7687 111.771 32.932 112.303 32.932C112.844 32.932 113.269 32.7687 113.577 32.442C113.885 32.106 114.039 31.63 114.039 31.014V26.744H116.013ZM119.906 24.14V34.5H117.946V24.14H119.906ZM121.339 30.594C121.339 29.81 121.493 29.1147 121.801 28.508C122.118 27.9013 122.543 27.4347 123.075 27.108C123.616 26.7813 124.218 26.618 124.881 26.618C125.46 26.618 125.964 26.7347 126.393 26.968C126.832 27.2013 127.182 27.4953 127.443 27.85V26.744H129.417V34.5H127.443V33.366C127.191 33.73 126.841 34.0333 126.393 34.276C125.954 34.5093 125.446 34.626 124.867 34.626C124.214 34.626 123.616 34.458 123.075 34.122C122.543 33.786 122.118 33.3147 121.801 32.708C121.493 32.092 121.339 31.3873 121.339 30.594ZM127.443 30.622C127.443 30.146 127.35 29.74 127.163 29.404C126.976 29.0587 126.724 28.7973 126.407 28.62C126.09 28.4333 125.749 28.34 125.385 28.34C125.021 28.34 124.685 28.4287 124.377 28.606C124.069 28.7833 123.817 29.0447 123.621 29.39C123.434 29.726 123.341 30.1273 123.341 30.594C123.341 31.0607 123.434 31.4713 123.621 31.826C123.817 32.1713 124.069 32.4373 124.377 32.624C124.694 32.8107 125.03 32.904 125.385 32.904C125.749 32.904 126.09 32.8153 126.407 32.638C126.724 32.4513 126.976 32.19 127.163 31.854C127.35 31.5087 127.443 31.098 127.443 30.622ZM133.291 27.948C133.543 27.5373 133.87 27.2153 134.271 26.982C134.682 26.7487 135.149 26.632 135.671 26.632V28.69H135.153C134.537 28.69 134.071 28.8347 133.753 29.124C133.445 29.4133 133.291 29.9173 133.291 30.636V34.5H131.331V26.744H133.291V27.948ZM139.959 34.626C139.325 34.626 138.755 34.514 138.251 34.29C137.747 34.0567 137.346 33.744 137.047 33.352C136.758 32.96 136.599 32.526 136.571 32.05H138.545C138.583 32.3487 138.727 32.596 138.979 32.792C139.241 32.988 139.563 33.086 139.945 33.086C140.319 33.086 140.608 33.0113 140.813 32.862C141.028 32.7127 141.135 32.5213 141.135 32.288C141.135 32.036 141.005 31.8493 140.743 31.728C140.491 31.5973 140.085 31.4573 139.525 31.308C138.947 31.168 138.471 31.0233 138.097 30.874C137.733 30.7247 137.416 30.496 137.145 30.188C136.884 29.88 136.753 29.4647 136.753 28.942C136.753 28.5127 136.875 28.1207 137.117 27.766C137.369 27.4113 137.724 27.1313 138.181 26.926C138.648 26.7207 139.194 26.618 139.819 26.618C140.743 26.618 141.481 26.8513 142.031 27.318C142.582 27.7753 142.885 28.396 142.941 29.18H141.065C141.037 28.872 140.907 28.6293 140.673 28.452C140.449 28.2653 140.146 28.172 139.763 28.172C139.409 28.172 139.133 28.2373 138.937 28.368C138.751 28.4987 138.657 28.6807 138.657 28.914C138.657 29.1753 138.788 29.376 139.049 29.516C139.311 29.6467 139.717 29.782 140.267 29.922C140.827 30.062 141.289 30.2067 141.653 30.356C142.017 30.5053 142.33 30.7387 142.591 31.056C142.862 31.364 143.002 31.7747 143.011 32.288C143.011 32.736 142.885 33.1373 142.633 33.492C142.391 33.8467 142.036 34.1267 141.569 34.332C141.112 34.528 140.575 34.626 139.959 34.626Z" fill="#050329"/>
</svg>
