<svg width="211" height="61" viewBox="0 0 211 61" fill="none" xmlns="http://www.w3.org/2000/svg">
<circle cx="30" cy="30.5" r="30" fill="#FDE8FF"/>
<g clip-path="url(#clip0_289_285)">
<path d="M39.75 19H21.75C21.2196 19 20.7109 19.2107 20.3358 19.5858C19.9607 19.9609 19.75 20.4696 19.75 21V24H21.75V21H39.75V35H32.75V37H39.75C40.2804 37 40.7891 36.7893 41.1642 36.4142C41.5393 36.0391 41.75 35.5304 41.75 35V21C41.75 20.4696 41.5393 19.9609 41.1642 19.5858C40.7891 19.2107 40.2804 19 39.75 19ZM19.75 34V37H22.75C22.75 36.2044 22.4339 35.4413 21.8713 34.8787C21.3087 34.3161 20.5456 34 19.75 34ZM19.75 30V32C20.4066 32 21.0568 32.1293 21.6634 32.3806C22.27 32.6319 22.8212 33.0002 23.2855 33.4645C23.7498 33.9288 24.1181 34.48 24.3694 35.0866C24.6207 35.6932 24.75 36.3434 24.75 37H26.75C26.75 35.1435 26.0125 33.363 24.6997 32.0503C23.387 30.7375 21.6065 30 19.75 30ZM19.75 26V28C20.9319 28 22.1022 28.2328 23.1942 28.6851C24.2861 29.1374 25.2782 29.8003 26.114 30.636C26.9497 31.4718 27.6126 32.4639 28.0649 33.5558C28.5172 34.6478 28.75 35.8181 28.75 37H30.75C30.75 30.92 25.82 26 19.75 26ZM29.75 27.09V29.09L33.25 31L36.75 29.09V27.09L33.25 29L29.75 27.09ZM33.25 22L27.75 25L33.25 28L38.75 25L33.25 22Z" fill="#A81919"/>
</g>
<path d="M81.926 26.81V29.26H85.216V30.814H81.926V33.404H85.636V35H79.966V25.214H85.636V26.81H81.926ZM91.7012 35L90.1052 32.592L88.6912 35H86.5912L89.1252 31.108L86.5632 27.244H88.7752L90.3572 29.638L91.7852 27.244H93.8852L91.3372 31.108L93.9132 35H91.7012ZM94.4737 31.094C94.4737 30.31 94.6277 29.6147 94.9357 29.008C95.2531 28.4013 95.6777 27.9347 96.2097 27.608C96.7511 27.2813 97.3531 27.118 98.0157 27.118C98.5944 27.118 99.0984 27.2347 99.5277 27.468C99.9664 27.7013 100.316 27.9953 100.578 28.35V27.244H102.552V35H100.578V33.866C100.326 34.23 99.9757 34.5333 99.5277 34.776C99.0891 35.0093 98.5804 35.126 98.0017 35.126C97.3484 35.126 96.7511 34.958 96.2097 34.622C95.6777 34.286 95.2531 33.8147 94.9357 33.208C94.6277 32.592 94.4737 31.8873 94.4737 31.094ZM100.578 31.122C100.578 30.646 100.484 30.24 100.298 29.904C100.111 29.5587 99.8591 29.2973 99.5417 29.12C99.2244 28.9333 98.8837 28.84 98.5197 28.84C98.1557 28.84 97.8197 28.9287 97.5117 29.106C97.2037 29.2833 96.9517 29.5447 96.7557 29.89C96.5691 30.226 96.4757 30.6273 96.4757 31.094C96.4757 31.5607 96.5691 31.9713 96.7557 32.326C96.9517 32.6713 97.2037 32.9373 97.5117 33.124C97.8291 33.3107 98.1651 33.404 98.5197 33.404C98.8837 33.404 99.2244 33.3153 99.5417 33.138C99.8591 32.9513 100.111 32.69 100.298 32.354C100.484 32.0087 100.578 31.598 100.578 31.122ZM114.098 27.132C115.05 27.132 115.815 27.426 116.394 28.014C116.982 28.5927 117.276 29.4047 117.276 30.45V35H115.316V30.716C115.316 30.1093 115.162 29.6473 114.854 29.33C114.546 29.0033 114.126 28.84 113.594 28.84C113.062 28.84 112.637 29.0033 112.32 29.33C112.012 29.6473 111.858 30.1093 111.858 30.716V35H109.898V30.716C109.898 30.1093 109.744 29.6473 109.436 29.33C109.128 29.0033 108.708 28.84 108.176 28.84C107.635 28.84 107.205 29.0033 106.888 29.33C106.58 29.6473 106.426 30.1093 106.426 30.716V35H104.466V27.244H106.426V28.182C106.678 27.8553 107 27.5987 107.392 27.412C107.793 27.2253 108.232 27.132 108.708 27.132C109.315 27.132 109.856 27.2627 110.332 27.524C110.808 27.776 111.177 28.14 111.438 28.616C111.69 28.168 112.054 27.8087 112.53 27.538C113.015 27.2673 113.538 27.132 114.098 27.132ZM120.13 26.32C119.785 26.32 119.495 26.2127 119.262 25.998C119.038 25.774 118.926 25.4987 118.926 25.172C118.926 24.8453 119.038 24.5747 119.262 24.36C119.495 24.136 119.785 24.024 120.13 24.024C120.475 24.024 120.76 24.136 120.984 24.36C121.217 24.5747 121.334 24.8453 121.334 25.172C121.334 25.4987 121.217 25.774 120.984 25.998C120.76 26.2127 120.475 26.32 120.13 26.32ZM121.096 27.244V35H119.136V27.244H121.096ZM127.33 27.132C128.254 27.132 129.001 27.426 129.57 28.014C130.14 28.5927 130.424 29.4047 130.424 30.45V35H128.464V30.716C128.464 30.1 128.31 29.6287 128.002 29.302C127.694 28.966 127.274 28.798 126.742 28.798C126.201 28.798 125.772 28.966 125.454 29.302C125.146 29.6287 124.992 30.1 124.992 30.716V35H123.032V27.244H124.992V28.21C125.254 27.874 125.585 27.6127 125.986 27.426C126.397 27.23 126.845 27.132 127.33 27.132ZM131.784 31.094C131.784 30.31 131.938 29.6147 132.246 29.008C132.564 28.4013 132.988 27.9347 133.52 27.608C134.062 27.2813 134.664 27.118 135.326 27.118C135.905 27.118 136.409 27.2347 136.838 27.468C137.277 27.7013 137.627 27.9953 137.888 28.35V27.244H139.862V35H137.888V33.866C137.636 34.23 137.286 34.5333 136.838 34.776C136.4 35.0093 135.891 35.126 135.312 35.126C134.659 35.126 134.062 34.958 133.52 34.622C132.988 34.286 132.564 33.8147 132.246 33.208C131.938 32.592 131.784 31.8873 131.784 31.094ZM137.888 31.122C137.888 30.646 137.795 30.24 137.608 29.904C137.422 29.5587 137.17 29.2973 136.852 29.12C136.535 28.9333 136.194 28.84 135.83 28.84C135.466 28.84 135.13 28.9287 134.822 29.106C134.514 29.2833 134.262 29.5447 134.066 29.89C133.88 30.226 133.786 30.6273 133.786 31.094C133.786 31.5607 133.88 31.9713 134.066 32.326C134.262 32.6713 134.514 32.9373 134.822 33.124C135.14 33.3107 135.476 33.404 135.83 33.404C136.194 33.404 136.535 33.3153 136.852 33.138C137.17 32.9513 137.422 32.69 137.608 32.354C137.795 32.0087 137.888 31.598 137.888 31.122ZM144.059 28.854V32.606C144.059 32.8673 144.119 33.0587 144.241 33.18C144.371 33.292 144.586 33.348 144.885 33.348H145.795V35H144.563C142.911 35 142.085 34.1973 142.085 32.592V28.854H141.161V27.244H142.085V25.326H144.059V27.244H145.795V28.854H144.059ZM148.198 26.32C147.853 26.32 147.564 26.2127 147.33 25.998C147.106 25.774 146.994 25.4987 146.994 25.172C146.994 24.8453 147.106 24.5747 147.33 24.36C147.564 24.136 147.853 24.024 148.198 24.024C148.544 24.024 148.828 24.136 149.052 24.36C149.286 24.5747 149.402 24.8453 149.402 25.172C149.402 25.4987 149.286 25.774 149.052 25.998C148.828 26.2127 148.544 26.32 148.198 26.32ZM149.164 27.244V35H147.204V27.244H149.164ZM154.545 35.126C153.798 35.126 153.126 34.9627 152.529 34.636C151.931 34.3 151.46 33.8287 151.115 33.222C150.779 32.6153 150.611 31.9153 150.611 31.122C150.611 30.3287 150.783 29.6287 151.129 29.022C151.483 28.4153 151.964 27.9487 152.571 27.622C153.177 27.286 153.854 27.118 154.601 27.118C155.347 27.118 156.024 27.286 156.631 27.622C157.237 27.9487 157.713 28.4153 158.059 29.022C158.413 29.6287 158.591 30.3287 158.591 31.122C158.591 31.9153 158.409 32.6153 158.045 33.222C157.69 33.8287 157.205 34.3 156.589 34.636C155.982 34.9627 155.301 35.126 154.545 35.126ZM154.545 33.418C154.899 33.418 155.231 33.334 155.539 33.166C155.856 32.9887 156.108 32.7273 156.295 32.382C156.481 32.0367 156.575 31.6167 156.575 31.122C156.575 30.3847 156.379 29.82 155.987 29.428C155.604 29.0267 155.133 28.826 154.573 28.826C154.013 28.826 153.541 29.0267 153.159 29.428C152.785 29.82 152.599 30.3847 152.599 31.122C152.599 31.8593 152.781 32.4287 153.145 32.83C153.518 33.222 153.985 33.418 154.545 33.418ZM164.327 27.132C165.251 27.132 165.997 27.426 166.567 28.014C167.136 28.5927 167.421 29.4047 167.421 30.45V35H165.461V30.716C165.461 30.1 165.307 29.6287 164.999 29.302C164.691 28.966 164.271 28.798 163.739 28.798C163.197 28.798 162.768 28.966 162.451 29.302C162.143 29.6287 161.989 30.1 161.989 30.716V35H160.029V27.244H161.989V28.21C162.25 27.874 162.581 27.6127 162.983 27.426C163.393 27.23 163.841 27.132 164.327 27.132ZM172.252 35.126C171.618 35.126 171.048 35.014 170.544 34.79C170.04 34.5567 169.639 34.244 169.34 33.852C169.051 33.46 168.892 33.026 168.864 32.55H170.838C170.876 32.8487 171.02 33.096 171.272 33.292C171.534 33.488 171.856 33.586 172.238 33.586C172.612 33.586 172.901 33.5113 173.106 33.362C173.321 33.2127 173.428 33.0213 173.428 32.788C173.428 32.536 173.298 32.3493 173.036 32.228C172.784 32.0973 172.378 31.9573 171.818 31.808C171.24 31.668 170.764 31.5233 170.39 31.374C170.026 31.2247 169.709 30.996 169.438 30.688C169.177 30.38 169.046 29.9647 169.046 29.442C169.046 29.0127 169.168 28.6207 169.41 28.266C169.662 27.9113 170.017 27.6313 170.474 27.426C170.941 27.2207 171.487 27.118 172.112 27.118C173.036 27.118 173.774 27.3513 174.324 27.818C174.875 28.2753 175.178 28.896 175.234 29.68H173.358C173.33 29.372 173.2 29.1293 172.966 28.952C172.742 28.7653 172.439 28.672 172.056 28.672C171.702 28.672 171.426 28.7373 171.23 28.868C171.044 28.9987 170.95 29.1807 170.95 29.414C170.95 29.6753 171.081 29.876 171.342 30.016C171.604 30.1467 172.01 30.282 172.56 30.422C173.12 30.562 173.582 30.7067 173.946 30.856C174.31 31.0053 174.623 31.2387 174.884 31.556C175.155 31.864 175.295 32.2747 175.304 32.788C175.304 33.236 175.178 33.6373 174.926 33.992C174.684 34.3467 174.329 34.6267 173.862 34.832C173.405 35.028 172.868 35.126 172.252 35.126Z" fill="#050329"/>
<defs>
<clipPath id="clip0_289_285">
<rect width="24" height="24" fill="white" transform="translate(17.75 19)"/>
</clipPath>
</defs>
</svg>
