<svg width="211" height="60" viewBox="0 0 211 60" fill="none" xmlns="http://www.w3.org/2000/svg">
<circle cx="30" cy="30" r="30" fill="#FCD4D4"/>
<path d="M30.5805 19.0392L27.9593 22.9993L29.3523 23.1743C28.9201 24.5866 28.8322 25.5592 28.9358 27.4924C29.5985 27.3879 30.134 27.3506 30.8383 27.5575C30.3753 25.8307 30.4237 25.2407 30.6095 23.3497L32.1387 23.4564L30.5805 19.0392ZM40.8218 19.1428L35.7425 20.5504L36.7228 21.768C34.402 23.222 32.9573 24.3718 31.8132 27.5413C32.432 27.5342 33.1303 27.6782 33.8838 27.9634C34.1523 25.8697 35.4654 24.3943 37.6011 22.8579L38.5378 24.0211L40.8218 19.1428ZM19.0918 19.2511L22.1799 24.055L23.0744 22.7092C24.741 24.2298 25.8 26.2872 25.7608 27.745C26.6311 27.3374 27.1636 27.2984 28.0921 27.5679C27.7122 26.1053 26.0494 22.4716 23.7965 21.5162L24.5732 20.2957L19.0918 19.251L19.0918 19.2511ZM32.0348 29.3136C31.7873 29.3192 31.5562 29.4268 31.2409 29.7633L30.9331 30.09L30.6138 29.775C30.2675 29.4337 29.9943 29.3395 29.7173 29.3517C29.4404 29.3639 29.1148 29.5095 28.7505 29.8043L28.4591 30.0401L28.1823 29.7882C27.7651 29.4107 27.4095 29.2989 27.069 29.3164C26.8211 29.3293 26.5639 29.4227 26.3073 29.586L28.2275 33.0402C28.952 33.4832 30.4323 33.6498 31.4502 33.1368L33.3062 29.6988C32.9541 29.5553 32.6377 29.4081 32.3643 29.3517C32.2653 29.3312 32.1735 29.3162 32.0845 29.3136C32.068 29.3132 32.0513 29.3132 32.0348 29.3136ZM27.8174 33.8224V33.8225C26.972 34.4198 26.2933 35.4498 26.0303 36.9586C25.7756 38.4209 26.177 39.4086 26.8873 40.0817C27.5977 40.7548 28.664 41.1005 29.7467 41.0865C30.8295 41.0724 31.9093 40.6969 32.6354 40.0113C33.3615 39.3257 33.7721 38.3508 33.5392 36.9557C33.2984 35.514 32.6767 34.5113 31.8897 33.9044C30.5546 34.6102 28.8852 34.4602 27.8174 33.8224H27.8174Z" fill="#700505"/>
<path d="M81.926 26.31V28.76H85.216V30.314H81.926V32.904H85.636V34.5H79.966V24.714H85.636V26.31H81.926ZM91.7012 34.5L90.1052 32.092L88.6912 34.5H86.5912L89.1252 30.608L86.5632 26.744H88.7752L90.3572 29.138L91.7852 26.744H93.8852L91.3372 30.608L93.9132 34.5H91.7012ZM96.9377 27.864C97.1897 27.5093 97.5351 27.2153 97.9737 26.982C98.4217 26.7393 98.9304 26.618 99.4997 26.618C100.162 26.618 100.76 26.7813 101.292 27.108C101.833 27.4347 102.258 27.9013 102.566 28.508C102.883 29.1053 103.042 29.8007 103.042 30.594C103.042 31.3873 102.883 32.092 102.566 32.708C102.258 33.3147 101.833 33.786 101.292 34.122C100.76 34.458 100.162 34.626 99.4997 34.626C98.9304 34.626 98.4264 34.5093 97.9877 34.276C97.5584 34.0427 97.2084 33.7487 96.9377 33.394V38.196H94.9777V26.744H96.9377V27.864ZM101.04 30.594C101.04 30.1273 100.942 29.726 100.746 29.39C100.559 29.0447 100.307 28.7833 99.9897 28.606C99.6817 28.4287 99.3457 28.34 98.9817 28.34C98.6271 28.34 98.2911 28.4333 97.9737 28.62C97.6657 28.7973 97.4137 29.0587 97.2177 29.404C97.0311 29.7493 96.9377 30.1553 96.9377 30.622C96.9377 31.0887 97.0311 31.4947 97.2177 31.84C97.4137 32.1853 97.6657 32.4513 97.9737 32.638C98.2911 32.8153 98.6271 32.904 98.9817 32.904C99.3457 32.904 99.6817 32.8107 99.9897 32.624C100.307 32.4373 100.559 32.1713 100.746 31.826C100.942 31.4807 101.04 31.07 101.04 30.594ZM111.676 30.454C111.676 30.734 111.657 30.986 111.62 31.21H105.95C105.997 31.77 106.193 32.2087 106.538 32.526C106.883 32.8433 107.308 33.002 107.812 33.002C108.54 33.002 109.058 32.6893 109.366 32.064H111.48C111.256 32.8107 110.827 33.4267 110.192 33.912C109.557 34.388 108.778 34.626 107.854 34.626C107.107 34.626 106.435 34.4627 105.838 34.136C105.25 33.8 104.788 33.3287 104.452 32.722C104.125 32.1153 103.962 31.4153 103.962 30.622C103.962 29.8193 104.125 29.1147 104.452 28.508C104.779 27.9013 105.236 27.4347 105.824 27.108C106.412 26.7813 107.089 26.618 107.854 26.618C108.591 26.618 109.249 26.7767 109.828 27.094C110.416 27.4113 110.869 27.864 111.186 28.452C111.513 29.0307 111.676 29.698 111.676 30.454ZM109.646 29.894C109.637 29.39 109.455 28.9887 109.1 28.69C108.745 28.382 108.311 28.228 107.798 28.228C107.313 28.228 106.902 28.3773 106.566 28.676C106.239 28.9653 106.039 29.3713 105.964 29.894H109.646ZM117.405 26.632C118.329 26.632 119.075 26.926 119.645 27.514C120.214 28.0927 120.499 28.9047 120.499 29.95V34.5H118.539V30.216C118.539 29.6 118.385 29.1287 118.077 28.802C117.769 28.466 117.349 28.298 116.817 28.298C116.275 28.298 115.846 28.466 115.529 28.802C115.221 29.1287 115.067 29.6 115.067 30.216V34.5H113.107V26.744H115.067V27.71C115.328 27.374 115.659 27.1127 116.061 26.926C116.471 26.73 116.919 26.632 117.405 26.632ZM125.33 34.626C124.696 34.626 124.126 34.514 123.622 34.29C123.118 34.0567 122.717 33.744 122.418 33.352C122.129 32.96 121.97 32.526 121.942 32.05H123.916C123.954 32.3487 124.098 32.596 124.35 32.792C124.612 32.988 124.934 33.086 125.316 33.086C125.69 33.086 125.979 33.0113 126.184 32.862C126.399 32.7127 126.506 32.5213 126.506 32.288C126.506 32.036 126.376 31.8493 126.114 31.728C125.862 31.5973 125.456 31.4573 124.896 31.308C124.318 31.168 123.842 31.0233 123.468 30.874C123.104 30.7247 122.787 30.496 122.516 30.188C122.255 29.88 122.124 29.4647 122.124 28.942C122.124 28.5127 122.246 28.1207 122.488 27.766C122.74 27.4113 123.095 27.1313 123.552 26.926C124.019 26.7207 124.565 26.618 125.19 26.618C126.114 26.618 126.852 26.8513 127.402 27.318C127.953 27.7753 128.256 28.396 128.312 29.18H126.436C126.408 28.872 126.278 28.6293 126.044 28.452C125.82 28.2653 125.517 28.172 125.134 28.172C124.78 28.172 124.504 28.2373 124.308 28.368C124.122 28.4987 124.028 28.6807 124.028 28.914C124.028 29.1753 124.159 29.376 124.42 29.516C124.682 29.6467 125.088 29.782 125.638 29.922C126.198 30.062 126.66 30.2067 127.024 30.356C127.388 30.5053 127.701 30.7387 127.962 31.056C128.233 31.364 128.373 31.7747 128.382 32.288C128.382 32.736 128.256 33.1373 128.004 33.492C127.762 33.8467 127.407 34.1267 126.94 34.332C126.483 34.528 125.946 34.626 125.33 34.626ZM137.201 30.454C137.201 30.734 137.183 30.986 137.145 31.21H131.475C131.522 31.77 131.718 32.2087 132.063 32.526C132.409 32.8433 132.833 33.002 133.337 33.002C134.065 33.002 134.583 32.6893 134.891 32.064H137.005C136.781 32.8107 136.352 33.4267 135.717 33.912C135.083 34.388 134.303 34.626 133.379 34.626C132.633 34.626 131.961 34.4627 131.363 34.136C130.775 33.8 130.313 33.3287 129.977 32.722C129.651 32.1153 129.487 31.4153 129.487 30.622C129.487 29.8193 129.651 29.1147 129.977 28.508C130.304 27.9013 130.761 27.4347 131.349 27.108C131.937 26.7813 132.614 26.618 133.379 26.618C134.117 26.618 134.775 26.7767 135.353 27.094C135.941 27.4113 136.394 27.864 136.711 28.452C137.038 29.0307 137.201 29.698 137.201 30.454ZM135.171 29.894C135.162 29.39 134.98 28.9887 134.625 28.69C134.271 28.382 133.837 28.228 133.323 28.228C132.838 28.228 132.427 28.3773 132.091 28.676C131.765 28.9653 131.564 29.3713 131.489 29.894H135.171ZM147.008 34.5L144.852 30.692H143.928V34.5H141.968V24.728H145.636C146.392 24.728 147.036 24.8633 147.568 25.134C148.1 25.3953 148.497 25.7547 148.758 26.212C149.029 26.66 149.164 27.164 149.164 27.724C149.164 28.368 148.977 28.9513 148.604 29.474C148.231 29.9873 147.675 30.342 146.938 30.538L149.276 34.5H147.008ZM143.928 29.222H145.566C146.098 29.222 146.495 29.096 146.756 28.844C147.017 28.5827 147.148 28.2233 147.148 27.766C147.148 27.318 147.017 26.9727 146.756 26.73C146.495 26.478 146.098 26.352 145.566 26.352H143.928V29.222ZM158.147 30.454C158.147 30.734 158.128 30.986 158.091 31.21H152.421C152.467 31.77 152.663 32.2087 153.009 32.526C153.354 32.8433 153.779 33.002 154.283 33.002C155.011 33.002 155.529 32.6893 155.837 32.064H157.951C157.727 32.8107 157.297 33.4267 156.663 33.912C156.028 34.388 155.249 34.626 154.325 34.626C153.578 34.626 152.906 34.4627 152.309 34.136C151.721 33.8 151.259 33.3287 150.923 32.722C150.596 32.1153 150.433 31.4153 150.433 30.622C150.433 29.8193 150.596 29.1147 150.923 28.508C151.249 27.9013 151.707 27.4347 152.295 27.108C152.883 26.7813 153.559 26.618 154.325 26.618C155.062 26.618 155.72 26.7767 156.299 27.094C156.887 27.4113 157.339 27.864 157.657 28.452C157.983 29.0307 158.147 29.698 158.147 30.454ZM156.117 29.894C156.107 29.39 155.925 28.9887 155.571 28.69C155.216 28.382 154.782 28.228 154.269 28.228C153.783 28.228 153.373 28.3773 153.037 28.676C152.71 28.9653 152.509 29.3713 152.435 29.894H156.117ZM161.537 27.864C161.789 27.5093 162.135 27.2153 162.573 26.982C163.021 26.7393 163.53 26.618 164.099 26.618C164.762 26.618 165.359 26.7813 165.891 27.108C166.433 27.4347 166.857 27.9013 167.165 28.508C167.483 29.1053 167.641 29.8007 167.641 30.594C167.641 31.3873 167.483 32.092 167.165 32.708C166.857 33.3147 166.433 33.786 165.891 34.122C165.359 34.458 164.762 34.626 164.099 34.626C163.53 34.626 163.026 34.5093 162.587 34.276C162.158 34.0427 161.808 33.7487 161.537 33.394V38.196H159.577V26.744H161.537V27.864ZM165.639 30.594C165.639 30.1273 165.541 29.726 165.345 29.39C165.159 29.0447 164.907 28.7833 164.589 28.606C164.281 28.4287 163.945 28.34 163.581 28.34C163.227 28.34 162.891 28.4333 162.573 28.62C162.265 28.7973 162.013 29.0587 161.817 29.404C161.631 29.7493 161.537 30.1553 161.537 30.622C161.537 31.0887 161.631 31.4947 161.817 31.84C162.013 32.1853 162.265 32.4513 162.573 32.638C162.891 32.8153 163.227 32.904 163.581 32.904C163.945 32.904 164.281 32.8107 164.589 32.624C164.907 32.4373 165.159 32.1713 165.345 31.826C165.541 31.4807 165.639 31.07 165.639 30.594ZM172.51 34.626C171.763 34.626 171.091 34.4627 170.494 34.136C169.896 33.8 169.425 33.3287 169.08 32.722C168.744 32.1153 168.576 31.4153 168.576 30.622C168.576 29.8287 168.748 29.1287 169.094 28.522C169.448 27.9153 169.929 27.4487 170.536 27.122C171.142 26.786 171.819 26.618 172.566 26.618C173.312 26.618 173.989 26.786 174.596 27.122C175.202 27.4487 175.678 27.9153 176.024 28.522C176.378 29.1287 176.556 29.8287 176.556 30.622C176.556 31.4153 176.374 32.1153 176.01 32.722C175.655 33.3287 175.17 33.8 174.554 34.136C173.947 34.4627 173.266 34.626 172.51 34.626ZM172.51 32.918C172.864 32.918 173.196 32.834 173.504 32.666C173.821 32.4887 174.073 32.2273 174.26 31.882C174.446 31.5367 174.54 31.1167 174.54 30.622C174.54 29.8847 174.344 29.32 173.952 28.928C173.569 28.5267 173.098 28.326 172.538 28.326C171.978 28.326 171.506 28.5267 171.124 28.928C170.75 29.32 170.564 29.8847 170.564 30.622C170.564 31.3593 170.746 31.9287 171.11 32.33C171.483 32.722 171.95 32.918 172.51 32.918ZM179.953 27.948C180.205 27.5373 180.532 27.2153 180.933 26.982C181.344 26.7487 181.811 26.632 182.333 26.632V28.69H181.815C181.199 28.69 180.733 28.8347 180.415 29.124C180.107 29.4133 179.953 29.9173 179.953 30.636V34.5H177.993V26.744H179.953V27.948ZM184.522 34.598C184.167 34.598 183.873 34.4907 183.64 34.276C183.416 34.052 183.304 33.7767 183.304 33.45C183.304 33.1233 183.416 32.8527 183.64 32.638C183.873 32.414 184.167 32.302 184.522 32.302C184.867 32.302 185.152 32.414 185.376 32.638C185.6 32.8527 185.712 33.1233 185.712 33.45C185.712 33.7767 185.6 34.052 185.376 34.276C185.152 34.4907 184.867 34.598 184.522 34.598ZM184.522 28.802C184.167 28.802 183.873 28.6947 183.64 28.48C183.416 28.256 183.304 27.9807 183.304 27.654C183.304 27.3273 183.416 27.0567 183.64 26.842C183.873 26.618 184.167 26.506 184.522 26.506C184.867 26.506 185.152 26.618 185.376 26.842C185.6 27.0567 185.712 27.3273 185.712 27.654C185.712 27.9807 185.6 28.256 185.376 28.48C185.152 28.6947 184.867 28.802 184.522 28.802Z" fill="#050329"/>
</svg>
