<svg width="211" height="60" viewBox="0 0 211 60" fill="none" xmlns="http://www.w3.org/2000/svg">
<circle cx="30" cy="30" r="30" fill="#FEF9DB"/>
<path d="M24.528 25.75C24.528 25.9489 24.449 26.1397 24.3083 26.2803C24.1677 26.421 23.9769 26.5 23.778 26.5C23.5791 26.5 23.3883 26.421 23.2477 26.2803C23.107 26.1397 23.028 25.9489 23.028 25.75C23.028 25.5511 23.107 25.3603 23.2477 25.2197C23.3883 25.079 23.5791 25 23.778 25C23.9769 25 24.1677 25.079 24.3083 25.2197C24.449 25.3603 24.528 25.5511 24.528 25.75ZM23.781 33C23.5821 33 23.3913 33.079 23.2507 33.2197C23.11 33.3603 23.031 33.5511 23.031 33.75C23.031 33.9489 23.11 34.1397 23.2507 34.2803C23.3913 34.421 23.5821 34.5 23.781 34.5H28.781C28.9799 34.5 29.1707 34.421 29.3113 34.2803C29.452 34.1397 29.531 33.9489 29.531 33.75C29.531 33.5511 29.452 33.3603 29.3113 33.2197C29.1707 33.079 28.9799 33 28.781 33H23.781ZM23.031 29.75C23.031 29.5511 23.11 29.3603 23.2507 29.2197C23.3913 29.079 23.5821 29 23.781 29H28.781C28.8795 29 28.977 29.0194 29.068 29.0571C29.159 29.0948 29.2417 29.15 29.3113 29.2197C29.381 29.2893 29.4362 29.372 29.4739 29.463C29.5116 29.554 29.531 29.6515 29.531 29.75C29.531 29.8485 29.5116 29.946 29.4739 30.037C29.4362 30.128 29.381 30.2107 29.3113 30.2803C29.2417 30.35 29.159 30.4052 29.068 30.4429C28.977 30.4806 28.8795 30.5 28.781 30.5H23.781C23.5821 30.5 23.3913 30.421 23.2507 30.2803C23.11 30.1397 23.031 29.9489 23.031 29.75ZM33 39C33.4569 38.9969 33.8987 38.8363 34.251 38.5454C34.6033 38.2545 34.8445 37.851 34.934 37.403L35.414 35H38.25C38.7141 35 39.1592 34.8156 39.4874 34.4874C39.8156 34.1592 40 33.7141 40 33.25V27.261C40 26.6632 39.7633 26.0898 39.3417 25.6661C38.92 25.2424 38.3477 25.0029 37.75 25V24.996H32.5V23.25C32.5 22.6533 32.2629 22.081 31.841 21.659C31.419 21.2371 30.8467 21 30.25 21H22.25C21.6533 21 21.081 21.2371 20.659 21.659C20.2371 22.081 20 22.6533 20 23.25V35.75C20 36.612 20.3424 37.4386 20.9519 38.0481C21.5614 38.6576 22.388 39 23.25 39H33ZM21.5 23.25C21.5 23.0511 21.579 22.8603 21.7197 22.7197C21.8603 22.579 22.0511 22.5 22.25 22.5H30.25C30.4489 22.5 30.6397 22.579 30.7803 22.7197C30.921 22.8603 31 23.0511 31 23.25V37.014C31 37.181 31.02 37.344 31.06 37.5H23.25C22.7859 37.5 22.3408 37.3156 22.0126 36.9874C21.6844 36.6592 21.5 36.2141 21.5 35.75V23.25ZM32.5 26.496H35.61C35.5728 26.601 35.5434 26.7086 35.522 26.818L33.463 37.109C33.4398 37.2277 33.3732 37.3335 33.2762 37.4058C33.1792 37.478 33.0587 37.5114 32.9383 37.4996C32.8179 37.4877 32.7063 37.4314 32.6252 37.3416C32.5442 37.2518 32.4995 37.135 32.5 37.014V26.496ZM36.993 27.112C37.0303 26.927 37.135 26.7625 37.2868 26.6503C37.4385 26.5382 37.6266 26.4864 37.8144 26.5051C38.0022 26.5238 38.1763 26.6116 38.303 26.7515C38.4297 26.8913 38.4999 27.0733 38.5 27.262V33.25C38.5 33.3163 38.4737 33.3799 38.4268 33.4268C38.3799 33.4737 38.3163 33.5 38.25 33.5H35.715L36.993 27.112Z" fill="#A01F1F"/>
<path d="M86 24.728V26.31H81.926V28.816H85.048V30.37H81.926V34.5H79.966V24.728H86ZM94.5998 30.454C94.5998 30.734 94.5812 30.986 94.5438 31.21H88.8738C88.9205 31.77 89.1165 32.2087 89.4618 32.526C89.8072 32.8433 90.2318 33.002 90.7358 33.002C91.4638 33.002 91.9818 32.6893 92.2898 32.064H94.4038C94.1798 32.8107 93.7505 33.4267 93.1158 33.912C92.4812 34.388 91.7018 34.626 90.7778 34.626C90.0312 34.626 89.3592 34.4627 88.7618 34.136C88.1738 33.8 87.7118 33.3287 87.3758 32.722C87.0492 32.1153 86.8858 31.4153 86.8858 30.622C86.8858 29.8193 87.0492 29.1147 87.3758 28.508C87.7025 27.9013 88.1598 27.4347 88.7478 27.108C89.3358 26.7813 90.0125 26.618 90.7778 26.618C91.5152 26.618 92.1732 26.7767 92.7518 27.094C93.3398 27.4113 93.7925 27.864 94.1098 28.452C94.4365 29.0307 94.5998 29.698 94.5998 30.454ZM92.5698 29.894C92.5605 29.39 92.3785 28.9887 92.0238 28.69C91.6692 28.382 91.2352 28.228 90.7218 28.228C90.2365 28.228 89.8258 28.3773 89.4898 28.676C89.1632 28.9653 88.9625 29.3713 88.8878 29.894H92.5698ZM103.24 30.454C103.24 30.734 103.222 30.986 103.184 31.21H97.5145C97.5611 31.77 97.7571 32.2087 98.1025 32.526C98.4478 32.8433 98.8725 33.002 99.3765 33.002C100.104 33.002 100.622 32.6893 100.93 32.064H103.044C102.82 32.8107 102.391 33.4267 101.756 33.912C101.122 34.388 100.342 34.626 99.4185 34.626C98.6718 34.626 97.9998 34.4627 97.4025 34.136C96.8145 33.8 96.3525 33.3287 96.0165 32.722C95.6898 32.1153 95.5265 31.4153 95.5265 30.622C95.5265 29.8193 95.6898 29.1147 96.0165 28.508C96.3431 27.9013 96.8005 27.4347 97.3885 27.108C97.9765 26.7813 98.6531 26.618 99.4185 26.618C100.156 26.618 100.814 26.7767 101.392 27.094C101.98 27.4113 102.433 27.864 102.75 28.452C103.077 29.0307 103.24 29.698 103.24 30.454ZM101.21 29.894C101.201 29.39 101.019 28.9887 100.664 28.69C100.31 28.382 99.8758 28.228 99.3625 28.228C98.8771 28.228 98.4665 28.3773 98.1305 28.676C97.8038 28.9653 97.6031 29.3713 97.5285 29.894H101.21ZM118.661 24.728V34.5H116.701V28.144L114.083 34.5H112.599L109.967 28.144V34.5H108.007V24.728H110.233L113.341 31.994L116.449 24.728H118.661ZM120.095 30.594C120.095 29.81 120.249 29.1147 120.557 28.508C120.874 27.9013 121.299 27.4347 121.831 27.108C122.372 26.7813 122.974 26.618 123.637 26.618C124.215 26.618 124.719 26.7347 125.149 26.968C125.587 27.2013 125.937 27.4953 126.199 27.85V26.744H128.173V34.5H126.199V33.366C125.947 33.73 125.597 34.0333 125.149 34.276C124.71 34.5093 124.201 34.626 123.623 34.626C122.969 34.626 122.372 34.458 121.831 34.122C121.299 33.786 120.874 33.3147 120.557 32.708C120.249 32.092 120.095 31.3873 120.095 30.594ZM126.199 30.622C126.199 30.146 126.105 29.74 125.919 29.404C125.732 29.0587 125.48 28.7973 125.163 28.62C124.845 28.4333 124.505 28.34 124.141 28.34C123.777 28.34 123.441 28.4287 123.133 28.606C122.825 28.7833 122.573 29.0447 122.377 29.39C122.19 29.726 122.097 30.1273 122.097 30.594C122.097 31.0607 122.19 31.4713 122.377 31.826C122.573 32.1713 122.825 32.4373 123.133 32.624C123.45 32.8107 123.786 32.904 124.141 32.904C124.505 32.904 124.845 32.8153 125.163 32.638C125.48 32.4513 125.732 32.19 125.919 31.854C126.105 31.5087 126.199 31.098 126.199 30.622ZM134.385 26.632C135.309 26.632 136.056 26.926 136.625 27.514C137.194 28.0927 137.479 28.9047 137.479 29.95V34.5H135.519V30.216C135.519 29.6 135.365 29.1287 135.057 28.802C134.749 28.466 134.329 28.298 133.797 28.298C133.256 28.298 132.826 28.466 132.509 28.802C132.201 29.1287 132.047 29.6 132.047 30.216V34.5H130.087V26.744H132.047V27.71C132.308 27.374 132.64 27.1127 133.041 26.926C133.452 26.73 133.9 26.632 134.385 26.632ZM138.839 30.594C138.839 29.81 138.993 29.1147 139.301 28.508C139.618 27.9013 140.043 27.4347 140.575 27.108C141.116 26.7813 141.718 26.618 142.381 26.618C142.96 26.618 143.464 26.7347 143.893 26.968C144.332 27.2013 144.682 27.4953 144.943 27.85V26.744H146.917V34.5H144.943V33.366C144.691 33.73 144.341 34.0333 143.893 34.276C143.454 34.5093 142.946 34.626 142.367 34.626C141.714 34.626 141.116 34.458 140.575 34.122C140.043 33.786 139.618 33.3147 139.301 32.708C138.993 32.092 138.839 31.3873 138.839 30.594ZM144.943 30.622C144.943 30.146 144.85 29.74 144.663 29.404C144.476 29.0587 144.224 28.7973 143.907 28.62C143.59 28.4333 143.249 28.34 142.885 28.34C142.521 28.34 142.185 28.4287 141.877 28.606C141.569 28.7833 141.317 29.0447 141.121 29.39C140.934 29.726 140.841 30.1273 140.841 30.594C140.841 31.0607 140.934 31.4713 141.121 31.826C141.317 32.1713 141.569 32.4373 141.877 32.624C142.194 32.8107 142.53 32.904 142.885 32.904C143.249 32.904 143.59 32.8153 143.907 32.638C144.224 32.4513 144.476 32.19 144.663 31.854C144.85 31.5087 144.943 31.098 144.943 30.622ZM151.869 26.618C152.448 26.618 152.957 26.7347 153.395 26.968C153.834 27.192 154.179 27.486 154.431 27.85V26.744H156.405V34.556C156.405 35.2747 156.261 35.914 155.971 36.474C155.682 37.0433 155.248 37.4913 154.669 37.818C154.091 38.154 153.391 38.322 152.569 38.322C151.468 38.322 150.563 38.0653 149.853 37.552C149.153 37.0387 148.757 36.3387 148.663 35.452H150.609C150.712 35.8067 150.931 36.0867 151.267 36.292C151.613 36.5067 152.028 36.614 152.513 36.614C153.083 36.614 153.545 36.4413 153.899 36.096C154.254 35.76 154.431 35.2467 154.431 34.556V33.352C154.179 33.716 153.829 34.0193 153.381 34.262C152.943 34.5047 152.439 34.626 151.869 34.626C151.216 34.626 150.619 34.458 150.077 34.122C149.536 33.786 149.107 33.3147 148.789 32.708C148.481 32.092 148.327 31.3873 148.327 30.594C148.327 29.81 148.481 29.1147 148.789 28.508C149.107 27.9013 149.531 27.4347 150.063 27.108C150.605 26.7813 151.207 26.618 151.869 26.618ZM154.431 30.622C154.431 30.146 154.338 29.74 154.151 29.404C153.965 29.0587 153.713 28.7973 153.395 28.62C153.078 28.4333 152.737 28.34 152.373 28.34C152.009 28.34 151.673 28.4287 151.365 28.606C151.057 28.7833 150.805 29.0447 150.609 29.39C150.423 29.726 150.329 30.1273 150.329 30.594C150.329 31.0607 150.423 31.4713 150.609 31.826C150.805 32.1713 151.057 32.4373 151.365 32.624C151.683 32.8107 152.019 32.904 152.373 32.904C152.737 32.904 153.078 32.8153 153.395 32.638C153.713 32.4513 153.965 32.19 154.151 31.854C154.338 31.5087 154.431 31.098 154.431 30.622ZM165.53 30.454C165.53 30.734 165.511 30.986 165.474 31.21H159.804C159.85 31.77 160.046 32.2087 160.392 32.526C160.737 32.8433 161.162 33.002 161.666 33.002C162.394 33.002 162.912 32.6893 163.22 32.064H165.334C165.11 32.8107 164.68 33.4267 164.046 33.912C163.411 34.388 162.632 34.626 161.708 34.626C160.961 34.626 160.289 34.4627 159.692 34.136C159.104 33.8 158.642 33.3287 158.306 32.722C157.979 32.1153 157.816 31.4153 157.816 30.622C157.816 29.8193 157.979 29.1147 158.306 28.508C158.632 27.9013 159.09 27.4347 159.678 27.108C160.266 26.7813 160.942 26.618 161.708 26.618C162.445 26.618 163.103 26.7767 163.682 27.094C164.27 27.4113 164.722 27.864 165.04 28.452C165.366 29.0307 165.53 29.698 165.53 30.454ZM163.5 29.894C163.49 29.39 163.308 28.9887 162.954 28.69C162.599 28.382 162.165 28.228 161.652 28.228C161.166 28.228 160.756 28.3773 160.42 28.676C160.093 28.9653 159.892 29.3713 159.818 29.894H163.5ZM176.592 26.632C177.544 26.632 178.309 26.926 178.888 27.514C179.476 28.0927 179.77 28.9047 179.77 29.95V34.5H177.81V30.216C177.81 29.6093 177.656 29.1473 177.348 28.83C177.04 28.5033 176.62 28.34 176.088 28.34C175.556 28.34 175.131 28.5033 174.814 28.83C174.506 29.1473 174.352 29.6093 174.352 30.216V34.5H172.392V30.216C172.392 29.6093 172.238 29.1473 171.93 28.83C171.622 28.5033 171.202 28.34 170.67 28.34C170.129 28.34 169.699 28.5033 169.382 28.83C169.074 29.1473 168.92 29.6093 168.92 30.216V34.5H166.96V26.744H168.92V27.682C169.172 27.3553 169.494 27.0987 169.886 26.912C170.287 26.7253 170.726 26.632 171.202 26.632C171.809 26.632 172.35 26.7627 172.826 27.024C173.302 27.276 173.671 27.64 173.932 28.116C174.184 27.668 174.548 27.3087 175.024 27.038C175.509 26.7673 176.032 26.632 176.592 26.632ZM188.84 30.454C188.84 30.734 188.821 30.986 188.784 31.21H183.114C183.161 31.77 183.357 32.2087 183.702 32.526C184.047 32.8433 184.472 33.002 184.976 33.002C185.704 33.002 186.222 32.6893 186.53 32.064H188.644C188.42 32.8107 187.991 33.4267 187.356 33.912C186.721 34.388 185.942 34.626 185.018 34.626C184.271 34.626 183.599 34.4627 183.002 34.136C182.414 33.8 181.952 33.3287 181.616 32.722C181.289 32.1153 181.126 31.4153 181.126 30.622C181.126 29.8193 181.289 29.1147 181.616 28.508C181.943 27.9013 182.4 27.4347 182.988 27.108C183.576 26.7813 184.253 26.618 185.018 26.618C185.755 26.618 186.413 26.7767 186.992 27.094C187.58 27.4113 188.033 27.864 188.35 28.452C188.677 29.0307 188.84 29.698 188.84 30.454ZM186.81 29.894C186.801 29.39 186.619 28.9887 186.264 28.69C185.909 28.382 185.475 28.228 184.962 28.228C184.477 28.228 184.066 28.3773 183.73 28.676C183.403 28.9653 183.203 29.3713 183.128 29.894H186.81ZM194.569 26.632C195.493 26.632 196.239 26.926 196.809 27.514C197.378 28.0927 197.663 28.9047 197.663 29.95V34.5H195.703V30.216C195.703 29.6 195.549 29.1287 195.241 28.802C194.933 28.466 194.513 28.298 193.981 28.298C193.439 28.298 193.01 28.466 192.693 28.802C192.385 29.1287 192.231 29.6 192.231 30.216V34.5H190.271V26.744H192.231V27.71C192.492 27.374 192.823 27.1127 193.225 26.926C193.635 26.73 194.083 26.632 194.569 26.632ZM201.809 28.354V32.106C201.809 32.3673 201.869 32.5587 201.991 32.68C202.121 32.792 202.336 32.848 202.635 32.848H203.545V34.5H202.313C200.661 34.5 199.835 33.6973 199.835 32.092V28.354H198.911V26.744H199.835V24.826H201.809V26.744H203.545V28.354H201.809Z" fill="#050329"/>
</svg>
