<svg width="211" height="60" viewBox="0 0 211 60" fill="none" xmlns="http://www.w3.org/2000/svg">
<circle cx="30" cy="30" r="30" fill="#FFCAE1"/>
<g clip-path="url(#clip0_569_223)">
<path d="M38.7188 30C38.7188 30.2238 38.6299 30.4384 38.4716 30.5966C38.3134 30.7549 38.0988 30.8438 37.875 30.8438H36.9328C36.7419 31.644 36.287 32.3567 35.6416 32.8669C34.9962 33.3772 34.1977 33.6552 33.375 33.6563H30.8438V34.7813H32.25C32.9213 34.7813 33.5652 35.0479 34.0399 35.5227C34.5146 35.9974 34.7812 36.6412 34.7812 37.3125C34.7812 37.5363 34.6924 37.7509 34.5341 37.9091C34.3759 38.0674 34.1613 38.1563 33.9375 38.1563C33.7137 38.1563 33.4991 38.0674 33.3409 37.9091C33.1826 37.7509 33.0938 37.5363 33.0938 37.3125C33.0938 37.0887 33.0049 36.8741 32.8466 36.7159C32.6884 36.5577 32.4738 36.4688 32.25 36.4688H30.8438V37.3125C30.8438 37.5363 30.7549 37.7509 30.5966 37.9091C30.4384 38.0674 30.2238 38.1563 30 38.1563C29.7762 38.1563 29.5616 38.0674 29.4034 37.9091C29.2451 37.7509 29.1562 37.5363 29.1562 37.3125V36.4688H27.75C27.5262 36.4688 27.3116 36.5577 27.1534 36.7159C26.9951 36.8741 26.9062 37.0887 26.9062 37.3125C26.9062 37.5363 26.8174 37.7509 26.6591 37.9091C26.5009 38.0674 26.2863 38.1563 26.0625 38.1563C25.8387 38.1563 25.6241 38.0674 25.4659 37.9091C25.3076 37.7509 25.2188 37.5363 25.2188 37.3125C25.2188 36.6412 25.4854 35.9974 25.9601 35.5227C26.4348 35.0479 27.0787 34.7813 27.75 34.7813H29.1562V33.6563H26.625C25.8023 33.6552 25.0038 33.3772 24.3584 32.8669C23.713 32.3567 23.2581 31.644 23.0672 30.8438H22.125C21.9012 30.8438 21.6866 30.7549 21.5284 30.5966C21.3701 30.4384 21.2812 30.2238 21.2812 30C21.2812 29.7762 21.3701 29.5616 21.5284 29.4034C21.6866 29.2452 21.9012 29.1563 22.125 29.1563H23.8125C24.0363 29.1563 24.2509 29.2452 24.4091 29.4034C24.5674 29.5616 24.6562 29.7762 24.6562 30C24.6562 30.5222 24.8637 31.0229 25.2329 31.3921C25.6021 31.7613 26.1029 31.9688 26.625 31.9688H33.375C33.8971 31.9688 34.3979 31.7613 34.7671 31.3921C35.1363 31.0229 35.3438 30.5222 35.3438 30C35.3438 29.7762 35.4326 29.5616 35.5909 29.4034C35.7491 29.2452 35.9637 29.1563 36.1875 29.1563H37.875C38.0988 29.1563 38.3134 29.2452 38.4716 29.4034C38.6299 29.5616 38.7188 29.7762 38.7188 30ZM26.1202 30.3516C25.9887 30.1982 25.8919 30.0184 25.8362 29.8242C25.7805 29.6301 25.7673 29.4263 25.7974 29.2266L26.7516 23.0391C26.8008 22.7057 26.9686 22.4013 27.2242 22.1818C27.4799 21.9622 27.8061 21.8422 28.143 21.8438H31.857C32.1939 21.8422 32.5201 21.9622 32.7758 22.1818C33.0314 22.4013 33.1992 22.7057 33.2484 23.0391L34.2026 29.2266C34.233 29.4268 34.2197 29.6312 34.1638 29.8258C34.1079 30.0204 34.0107 30.2006 33.8787 30.3542C33.7467 30.5077 33.5831 30.631 33.3991 30.7155C33.2151 30.8 33.015 30.8437 32.8125 30.8438H27.1875C26.9846 30.8436 26.7842 30.7995 26.5999 30.7145C26.4157 30.6296 26.252 30.5058 26.1202 30.3516ZM27.5159 29.1563H32.4841L31.6172 23.5313H28.3828L27.5159 29.1563Z" fill="#B10E53"/>
</g>
<path d="M86 24.728V26.31H81.926V28.816H85.048V30.37H81.926V34.5H79.966V24.728H86ZM89.3498 27.948C89.6018 27.5373 89.9285 27.2153 90.3298 26.982C90.7405 26.7487 91.2072 26.632 91.7298 26.632V28.69H91.2118C90.5958 28.69 90.1292 28.8347 89.8118 29.124C89.5038 29.4133 89.3498 29.9173 89.3498 30.636V34.5H87.3898V26.744H89.3498V27.948ZM96.494 34.626C95.7473 34.626 95.0753 34.4627 94.478 34.136C93.8807 33.8 93.4093 33.3287 93.064 32.722C92.728 32.1153 92.56 31.4153 92.56 30.622C92.56 29.8287 92.7327 29.1287 93.078 28.522C93.4327 27.9153 93.9133 27.4487 94.52 27.122C95.1267 26.786 95.8033 26.618 96.55 26.618C97.2967 26.618 97.9733 26.786 98.58 27.122C99.1867 27.4487 99.6627 27.9153 100.008 28.522C100.363 29.1287 100.54 29.8287 100.54 30.622C100.54 31.4153 100.358 32.1153 99.994 32.722C99.6393 33.3287 99.154 33.8 98.538 34.136C97.9313 34.4627 97.25 34.626 96.494 34.626ZM96.494 32.918C96.8487 32.918 97.18 32.834 97.488 32.666C97.8053 32.4887 98.0573 32.2273 98.244 31.882C98.4307 31.5367 98.524 31.1167 98.524 30.622C98.524 29.8847 98.328 29.32 97.936 28.928C97.5533 28.5267 97.082 28.326 96.522 28.326C95.962 28.326 95.4907 28.5267 95.108 28.928C94.7347 29.32 94.548 29.8847 94.548 30.622C94.548 31.3593 94.73 31.9287 95.094 32.33C95.4673 32.722 95.934 32.918 96.494 32.918ZM106.276 26.632C107.2 26.632 107.946 26.926 108.516 27.514C109.085 28.0927 109.37 28.9047 109.37 29.95V34.5H107.41V30.216C107.41 29.6 107.256 29.1287 106.948 28.802C106.64 28.466 106.22 28.298 105.688 28.298C105.146 28.298 104.717 28.466 104.4 28.802C104.092 29.1287 103.938 29.6 103.938 30.216V34.5H101.978V26.744H103.938V27.71C104.199 27.374 104.53 27.1127 104.932 26.926C105.342 26.73 105.79 26.632 106.276 26.632ZM113.516 28.354V32.106C113.516 32.3673 113.576 32.5587 113.698 32.68C113.828 32.792 114.043 32.848 114.342 32.848H115.252V34.5H114.02C112.368 34.5 111.542 33.6973 111.542 32.092V28.354H110.618V26.744H111.542V24.826H113.516V26.744H115.252V28.354H113.516ZM124.533 34.598C123.619 34.598 122.779 34.3833 122.013 33.954C121.248 33.5247 120.641 32.932 120.193 32.176C119.745 31.4107 119.521 30.5473 119.521 29.586C119.521 28.634 119.745 27.78 120.193 27.024C120.641 26.2587 121.248 25.6613 122.013 25.232C122.779 24.8027 123.619 24.588 124.533 24.588C125.457 24.588 126.297 24.8027 127.053 25.232C127.819 25.6613 128.421 26.2587 128.859 27.024C129.307 27.78 129.531 28.634 129.531 29.586C129.531 30.5473 129.307 31.4107 128.859 32.176C128.421 32.932 127.819 33.5247 127.053 33.954C126.288 34.3833 125.448 34.598 124.533 34.598ZM124.533 32.848C125.121 32.848 125.639 32.7173 126.087 32.456C126.535 32.1853 126.885 31.8027 127.137 31.308C127.389 30.8133 127.515 30.2393 127.515 29.586C127.515 28.9327 127.389 28.3633 127.137 27.878C126.885 27.3833 126.535 27.0053 126.087 26.744C125.639 26.4827 125.121 26.352 124.533 26.352C123.945 26.352 123.423 26.4827 122.965 26.744C122.517 27.0053 122.167 27.3833 121.915 27.878C121.663 28.3633 121.537 28.9327 121.537 29.586C121.537 30.2393 121.663 30.8133 121.915 31.308C122.167 31.8027 122.517 32.1853 122.965 32.456C123.423 32.7173 123.945 32.848 124.533 32.848ZM134.545 28.354H133.187V34.5H131.199V28.354H130.317V26.744H131.199V26.352C131.199 25.4 131.47 24.7 132.011 24.252C132.553 23.804 133.369 23.594 134.461 23.622V25.274C133.985 25.2647 133.654 25.344 133.467 25.512C133.281 25.68 133.187 25.9833 133.187 26.422V26.744H134.545V28.354ZM139.372 28.354H138.014V34.5H136.026V28.354H135.144V26.744H136.026V26.352C136.026 25.4 136.296 24.7 136.838 24.252C137.379 23.804 138.196 23.594 139.288 23.622V25.274C138.812 25.2647 138.48 25.344 138.294 25.512C138.107 25.68 138.014 25.9833 138.014 26.422V26.744H139.372V28.354ZM141.636 25.82C141.29 25.82 141.001 25.7127 140.768 25.498C140.544 25.274 140.432 24.9987 140.432 24.672C140.432 24.3453 140.544 24.0747 140.768 23.86C141.001 23.636 141.29 23.524 141.636 23.524C141.981 23.524 142.266 23.636 142.49 23.86C142.723 24.0747 142.84 24.3453 142.84 24.672C142.84 24.9987 142.723 25.274 142.49 25.498C142.266 25.7127 141.981 25.82 141.636 25.82ZM142.602 26.744V34.5H140.642V26.744H142.602ZM144.034 30.622C144.034 29.8193 144.198 29.1193 144.524 28.522C144.851 27.9153 145.304 27.4487 145.882 27.122C146.461 26.786 147.124 26.618 147.87 26.618C148.832 26.618 149.625 26.8607 150.25 27.346C150.885 27.822 151.31 28.494 151.524 29.362H149.41C149.298 29.026 149.107 28.7647 148.836 28.578C148.575 28.382 148.248 28.284 147.856 28.284C147.296 28.284 146.853 28.4893 146.526 28.9C146.2 29.3013 146.036 29.8753 146.036 30.622C146.036 31.3593 146.2 31.9333 146.526 32.344C146.853 32.7453 147.296 32.946 147.856 32.946C148.65 32.946 149.168 32.5913 149.41 31.882H151.524C151.31 32.722 150.885 33.3893 150.25 33.884C149.616 34.3787 148.822 34.626 147.87 34.626C147.124 34.626 146.461 34.4627 145.882 34.136C145.304 33.8 144.851 33.3333 144.524 32.736C144.198 32.1293 144.034 31.4247 144.034 30.622ZM160.17 30.454C160.17 30.734 160.151 30.986 160.114 31.21H154.444C154.491 31.77 154.687 32.2087 155.032 32.526C155.377 32.8433 155.802 33.002 156.306 33.002C157.034 33.002 157.552 32.6893 157.86 32.064H159.974C159.75 32.8107 159.321 33.4267 158.686 33.912C158.051 34.388 157.272 34.626 156.348 34.626C155.601 34.626 154.929 34.4627 154.332 34.136C153.744 33.8 153.282 33.3287 152.946 32.722C152.619 32.1153 152.456 31.4153 152.456 30.622C152.456 29.8193 152.619 29.1147 152.946 28.508C153.273 27.9013 153.73 27.4347 154.318 27.108C154.906 26.7813 155.583 26.618 156.348 26.618C157.085 26.618 157.743 26.7767 158.322 27.094C158.91 27.4113 159.363 27.864 159.68 28.452C160.007 29.0307 160.17 29.698 160.17 30.454ZM158.14 29.894C158.131 29.39 157.949 28.9887 157.594 28.69C157.239 28.382 156.805 28.228 156.292 28.228C155.807 28.228 155.396 28.3773 155.06 28.676C154.733 28.9653 154.533 29.3713 154.458 29.894H158.14Z" fill="#050329"/>
<defs>
<clipPath id="clip0_569_223">
<rect width="18" height="18" fill="white" transform="translate(21 21)"/>
</clipPath>
</defs>
</svg>
