<svg width="212" height="61" viewBox="0 0 212 61" fill="none" xmlns="http://www.w3.org/2000/svg">
<circle cx="30.5" cy="30.5" r="30" fill="#F6FCCB"/>
<path d="M26.4 28.7V29.2H26.9H34.1H34.6V28.7V26.9V26.4H34.1H26.9H26.4V26.9V28.7ZM25.7172 25.7171C25.7922 25.6421 25.8939 25.6 26 25.6H35C35.1061 25.6 35.2078 25.6421 35.2828 25.7171C35.3579 25.7921 35.4 25.8939 35.4 26V29.5999C35.4 29.706 35.3579 29.8078 35.2828 29.8828C35.2078 29.9578 35.1061 30 35 30H26C25.8939 30 25.7922 29.9578 25.7172 29.8828C25.6421 29.8078 25.6 29.706 25.6 29.5999V26C25.6 25.8939 25.6421 25.7921 25.7172 25.7171ZM21.3716 21.3715C22.1217 20.6214 23.1391 20.2 24.2 20.2H36.8C37.8609 20.2 38.8783 20.6214 39.6284 21.3715C40.3786 22.1217 40.8 23.1391 40.8 24.2V36.7999C40.8 37.8608 40.3786 38.8782 39.6284 39.6284C38.8783 40.3785 37.8609 40.7999 36.8 40.7999H24.2C23.1391 40.7999 22.1217 40.3785 21.3716 39.6284C20.6214 38.8782 20.2 37.8608 20.2 36.7999V24.2C20.2 23.1391 20.6214 22.1217 21.3716 21.3715ZM21.9373 21.9372C21.3371 22.5373 21 23.3513 21 24.2V36.7999C21 37.6486 21.3371 38.4626 21.9373 39.0627C22.5374 39.6628 23.3513 39.9999 24.2 39.9999H36.8C37.6487 39.9999 38.4626 39.6628 39.0627 39.0627C39.6629 38.4626 40 37.6486 40 36.7999V24.2C40 23.3513 39.6629 22.5373 39.0627 21.9372C38.4626 21.3371 37.6487 21 36.8 21H24.2C23.3513 21 22.5374 21.3371 21.9373 21.9372Z" fill="#F6FCCB" stroke="#353B0F"/>
<path d="M88.572 25.228V35H86.612V30.842H82.426V35H80.466V25.228H82.426V29.246H86.612V25.228H88.572ZM93.9452 35.126C93.1985 35.126 92.5265 34.9627 91.9292 34.636C91.3318 34.3 90.8605 33.8287 90.5152 33.222C90.1792 32.6153 90.0112 31.9153 90.0112 31.122C90.0112 30.3287 90.1838 29.6287 90.5292 29.022C90.8838 28.4153 91.3645 27.9487 91.9712 27.622C92.5778 27.286 93.2545 27.118 94.0012 27.118C94.7478 27.118 95.4245 27.286 96.0312 27.622C96.6378 27.9487 97.1138 28.4153 97.4592 29.022C97.8138 29.6287 97.9912 30.3287 97.9912 31.122C97.9912 31.9153 97.8092 32.6153 97.4452 33.222C97.0905 33.8287 96.6052 34.3 95.9892 34.636C95.3825 34.9627 94.7012 35.126 93.9452 35.126ZM93.9452 33.418C94.2998 33.418 94.6312 33.334 94.9392 33.166C95.2565 32.9887 95.5085 32.7273 95.6952 32.382C95.8818 32.0367 95.9752 31.6167 95.9752 31.122C95.9752 30.3847 95.7792 29.82 95.3872 29.428C95.0045 29.0267 94.5332 28.826 93.9732 28.826C93.4132 28.826 92.9418 29.0267 92.5592 29.428C92.1858 29.82 91.9992 30.3847 91.9992 31.122C91.9992 31.8593 92.1812 32.4287 92.5452 32.83C92.9185 33.222 93.3852 33.418 93.9452 33.418ZM109.061 27.132C110.013 27.132 110.778 27.426 111.357 28.014C111.945 28.5927 112.239 29.4047 112.239 30.45V35H110.279V30.716C110.279 30.1093 110.125 29.6473 109.817 29.33C109.509 29.0033 109.089 28.84 108.557 28.84C108.025 28.84 107.6 29.0033 107.283 29.33C106.975 29.6473 106.821 30.1093 106.821 30.716V35H104.861V30.716C104.861 30.1093 104.707 29.6473 104.399 29.33C104.091 29.0033 103.671 28.84 103.139 28.84C102.598 28.84 102.168 29.0033 101.851 29.33C101.543 29.6473 101.389 30.1093 101.389 30.716V35H99.4289V27.244H101.389V28.182C101.641 27.8553 101.963 27.5987 102.355 27.412C102.756 27.2253 103.195 27.132 103.671 27.132C104.278 27.132 104.819 27.2627 105.295 27.524C105.771 27.776 106.14 28.14 106.401 28.616C106.653 28.168 107.017 27.8087 107.493 27.538C107.978 27.2673 108.501 27.132 109.061 27.132ZM121.309 30.954C121.309 31.234 121.29 31.486 121.253 31.71H115.583C115.629 32.27 115.825 32.7087 116.171 33.026C116.516 33.3433 116.941 33.502 117.445 33.502C118.173 33.502 118.691 33.1893 118.999 32.564H121.113C120.889 33.3107 120.459 33.9267 119.825 34.412C119.19 34.888 118.411 35.126 117.487 35.126C116.74 35.126 116.068 34.9627 115.471 34.636C114.883 34.3 114.421 33.8287 114.085 33.222C113.758 32.6153 113.595 31.9153 113.595 31.122C113.595 30.3193 113.758 29.6147 114.085 29.008C114.411 28.4013 114.869 27.9347 115.457 27.608C116.045 27.2813 116.721 27.118 117.487 27.118C118.224 27.118 118.882 27.2767 119.461 27.594C120.049 27.9113 120.501 28.364 120.819 28.952C121.145 29.5307 121.309 30.198 121.309 30.954ZM119.279 30.394C119.269 29.89 119.087 29.4887 118.733 29.19C118.378 28.882 117.944 28.728 117.431 28.728C116.945 28.728 116.535 28.8773 116.199 29.176C115.872 29.4653 115.671 29.8713 115.597 30.394H119.279ZM133.491 27.244L131.223 35H129.109L127.695 29.582L126.281 35H124.153L121.871 27.244H123.859L125.231 33.152L126.715 27.244H128.787L130.243 33.138L131.615 27.244H133.491ZM137.996 35.126C137.249 35.126 136.577 34.9627 135.98 34.636C135.383 34.3 134.911 33.8287 134.566 33.222C134.23 32.6153 134.062 31.9153 134.062 31.122C134.062 30.3287 134.235 29.6287 134.58 29.022C134.935 28.4153 135.415 27.9487 136.022 27.622C136.629 27.286 137.305 27.118 138.052 27.118C138.799 27.118 139.475 27.286 140.082 27.622C140.689 27.9487 141.165 28.4153 141.51 29.022C141.865 29.6287 142.042 30.3287 142.042 31.122C142.042 31.9153 141.86 32.6153 141.496 33.222C141.141 33.8287 140.656 34.3 140.04 34.636C139.433 34.9627 138.752 35.126 137.996 35.126ZM137.996 33.418C138.351 33.418 138.682 33.334 138.99 33.166C139.307 32.9887 139.559 32.7273 139.746 32.382C139.933 32.0367 140.026 31.6167 140.026 31.122C140.026 30.3847 139.83 29.82 139.438 29.428C139.055 29.0267 138.584 28.826 138.024 28.826C137.464 28.826 136.993 29.0267 136.61 29.428C136.237 29.82 136.05 30.3847 136.05 31.122C136.05 31.8593 136.232 32.4287 136.596 32.83C136.969 33.222 137.436 33.418 137.996 33.418ZM145.44 28.448C145.692 28.0373 146.018 27.7153 146.42 27.482C146.83 27.2487 147.297 27.132 147.82 27.132V29.19H147.302C146.686 29.19 146.219 29.3347 145.902 29.624C145.594 29.9133 145.44 30.4173 145.44 31.136V35H143.48V27.244H145.44V28.448ZM153.732 35L151.1 31.696V35H149.14V24.64H151.1V30.534L153.704 27.244H156.252L152.836 31.136L156.28 35H153.732Z" fill="#050329"/>
</svg>
