<svg width="60" height="60" viewBox="0 0 60 60" fill="none" xmlns="http://www.w3.org/2000/svg">
<circle cx="30" cy="30" r="30" fill="#F6FCCB"/>
<path d="M25.9 28.2V28.7H26.4H33.5999H34.0999V28.2V26.4V25.9H33.5999H26.4H25.9V26.4V28.2ZM25.2171 25.2171C25.2921 25.1421 25.3939 25.1 25.5 25.1H34.4999C34.606 25.1 34.7078 25.1421 34.7828 25.2171C34.8578 25.2921 34.9 25.3939 34.9 25.5V29.0999C34.9 29.206 34.8578 29.3078 34.7828 29.3828C34.7078 29.4578 34.606 29.5 34.4999 29.5H25.5C25.3939 29.5 25.2921 29.4578 25.2171 29.3828C25.1421 29.3078 25.1 29.206 25.1 29.0999V25.5C25.1 25.3939 25.1421 25.2921 25.2171 25.2171ZM20.8715 20.8715C21.6217 20.1214 22.6391 19.7 23.7 19.7H36.2999C37.3608 19.7 38.3782 20.1214 39.1284 20.8715C39.8785 21.6217 40.2999 22.6391 40.2999 23.7V36.2999C40.2999 37.3608 39.8785 38.3782 39.1284 39.1284C38.3782 39.8785 37.3608 40.2999 36.2999 40.2999H23.7C22.6391 40.2999 21.6217 39.8785 20.8715 39.1284C20.1214 38.3782 19.7 37.3608 19.7 36.2999V23.7C19.7 22.6391 20.1214 21.6217 20.8715 20.8715ZM21.4372 21.4372C20.8371 22.0373 20.5 22.8513 20.5 23.7V36.2999C20.5 37.1486 20.8371 37.9626 21.4372 38.5627C22.0373 39.1628 22.8513 39.4999 23.7 39.4999H36.2999C37.1486 39.4999 37.9626 39.1628 38.5627 38.5627C39.1628 37.9626 39.4999 37.1486 39.4999 36.2999V23.7C39.4999 22.8513 39.1628 22.0373 38.5627 21.4372C37.9626 20.8371 37.1486 20.5 36.2999 20.5H23.7C22.8513 20.5 22.0373 20.8371 21.4372 21.4372Z" fill="#F6FCCB" stroke="#353B0F"/>
</svg>
