<svg width="211" height="60" viewBox="0 0 211 60" fill="none" xmlns="http://www.w3.org/2000/svg">
<circle cx="30" cy="30" r="30" fill="#F6FFD2"/>
<path d="M33.5 35.125L38.45 30.175C38.6333 29.9917 38.8667 29.9 39.15 29.9C39.4333 29.9 39.6667 29.9917 39.85 30.175C40.0333 30.3583 40.125 30.5917 40.125 30.875C40.125 31.1583 40.0333 31.3917 39.85 31.575L34.2 37.225C34 37.425 33.7667 37.525 33.5 37.525C33.2333 37.525 33 37.425 32.8 37.225L29.95 34.375C29.7667 34.1917 29.675 33.9583 29.675 33.675C29.675 33.3917 29.7667 33.1583 29.95 32.975C30.1333 32.7917 30.3667 32.7 30.65 32.7C30.9333 32.7 31.1667 32.7917 31.35 32.975L33.5 35.125ZM23 39C22.45 39 21.9793 38.8043 21.588 38.413C21.1967 38.0217 21.0007 37.5507 21 37V23C21 22.45 21.196 21.9793 21.588 21.588C21.98 21.1967 22.4507 21.0007 23 21H27.175C27.3583 20.4167 27.7167 19.9377 28.25 19.563C28.7833 19.1883 29.3667 19.0007 30 19C30.6667 19 31.2627 19.1877 31.788 19.563C32.3133 19.9383 32.6673 20.4173 32.85 21H37C37.55 21 38.021 21.196 38.413 21.588C38.805 21.98 39.0007 22.4507 39 23V27C39 27.2833 38.904 27.521 38.712 27.713C38.52 27.905 38.2827 28.0007 38 28C37.7167 28 37.4793 27.904 37.288 27.712C37.0967 27.52 37.0007 27.2827 37 27V23H35V25C35 25.2833 34.904 25.521 34.712 25.713C34.52 25.905 34.2827 26.0007 34 26H26C25.7167 26 25.4793 25.904 25.288 25.712C25.0967 25.52 25.0007 25.2827 25 25V23H23V37H28C28.2833 37 28.521 37.096 28.713 37.288C28.905 37.48 29.0007 37.7173 29 38C29 38.2833 28.904 38.521 28.712 38.713C28.52 38.905 28.2827 39.0007 28 39H23ZM30 23C30.2833 23 30.521 22.904 30.713 22.712C30.905 22.52 31.0007 22.2827 31 22C31 21.7167 30.904 21.4793 30.712 21.288C30.52 21.0967 30.2827 21.0007 30 21C29.7167 21 29.4793 21.096 29.288 21.288C29.0967 21.48 29.0007 21.7173 29 22C29 22.2833 29.096 22.521 29.288 22.713C29.48 22.905 29.7173 23.0007 30 23Z" fill="#647C04"/>
<path d="M81.926 24.728V34.5H79.966V24.728H81.926ZM88.1605 26.632C89.0845 26.632 89.8312 26.926 90.4005 27.514C90.9698 28.0927 91.2545 28.9047 91.2545 29.95V34.5H89.2945V30.216C89.2945 29.6 89.1405 29.1287 88.8325 28.802C88.5245 28.466 88.1045 28.298 87.5725 28.298C87.0312 28.298 86.6018 28.466 86.2845 28.802C85.9765 29.1287 85.8225 29.6 85.8225 30.216V34.5H83.8625V26.744H85.8225V27.71C86.0838 27.374 86.4152 27.1127 86.8165 26.926C87.2272 26.73 87.6752 26.632 88.1605 26.632ZM96.3523 32.694L98.3123 26.744H100.398L97.5283 34.5H95.1483L92.2923 26.744H94.3923L96.3523 32.694ZM108.709 30.454C108.709 30.734 108.691 30.986 108.653 31.21H102.983C103.03 31.77 103.226 32.2087 103.571 32.526C103.917 32.8433 104.341 33.002 104.845 33.002C105.573 33.002 106.091 32.6893 106.399 32.064H108.513C108.289 32.8107 107.86 33.4267 107.225 33.912C106.591 34.388 105.811 34.626 104.887 34.626C104.141 34.626 103.469 34.4627 102.871 34.136C102.283 33.8 101.821 33.3287 101.485 32.722C101.159 32.1153 100.995 31.4153 100.995 30.622C100.995 29.8193 101.159 29.1147 101.485 28.508C101.812 27.9013 102.269 27.4347 102.857 27.108C103.445 26.7813 104.122 26.618 104.887 26.618C105.625 26.618 106.283 26.7767 106.861 27.094C107.449 27.4113 107.902 27.864 108.219 28.452C108.546 29.0307 108.709 29.698 108.709 30.454ZM106.679 29.894C106.67 29.39 106.488 28.9887 106.133 28.69C105.779 28.382 105.345 28.228 104.831 28.228C104.346 28.228 103.935 28.3773 103.599 28.676C103.273 28.9653 103.072 29.3713 102.997 29.894H106.679ZM114.438 26.632C115.362 26.632 116.108 26.926 116.678 27.514C117.247 28.0927 117.532 28.9047 117.532 29.95V34.5H115.572V30.216C115.572 29.6 115.418 29.1287 115.11 28.802C114.802 28.466 114.382 28.298 113.85 28.298C113.308 28.298 112.879 28.466 112.562 28.802C112.254 29.1287 112.1 29.6 112.1 30.216V34.5H110.14V26.744H112.1V27.71C112.361 27.374 112.692 27.1127 113.094 26.926C113.504 26.73 113.952 26.632 114.438 26.632ZM121.678 28.354V32.106C121.678 32.3673 121.738 32.5587 121.86 32.68C121.99 32.792 122.205 32.848 122.504 32.848H123.414V34.5H122.182C120.53 34.5 119.704 33.6973 119.704 32.092V28.354H118.78V26.744H119.704V24.826H121.678V26.744H123.414V28.354H121.678ZM128.267 34.626C127.521 34.626 126.849 34.4627 126.251 34.136C125.654 33.8 125.183 33.3287 124.837 32.722C124.501 32.1153 124.333 31.4153 124.333 30.622C124.333 29.8287 124.506 29.1287 124.851 28.522C125.206 27.9153 125.687 27.4487 126.293 27.122C126.9 26.786 127.577 26.618 128.323 26.618C129.07 26.618 129.747 26.786 130.353 27.122C130.96 27.4487 131.436 27.9153 131.781 28.522C132.136 29.1287 132.313 29.8287 132.313 30.622C132.313 31.4153 132.131 32.1153 131.767 32.722C131.413 33.3287 130.927 33.8 130.311 34.136C129.705 34.4627 129.023 34.626 128.267 34.626ZM128.267 32.918C128.622 32.918 128.953 32.834 129.261 32.666C129.579 32.4887 129.831 32.2273 130.017 31.882C130.204 31.5367 130.297 31.1167 130.297 30.622C130.297 29.8847 130.101 29.32 129.709 28.928C129.327 28.5267 128.855 28.326 128.295 28.326C127.735 28.326 127.264 28.5267 126.881 28.928C126.508 29.32 126.321 29.8847 126.321 30.622C126.321 31.3593 126.503 31.9287 126.867 32.33C127.241 32.722 127.707 32.918 128.267 32.918ZM135.711 27.948C135.963 27.5373 136.29 27.2153 136.691 26.982C137.102 26.7487 137.568 26.632 138.091 26.632V28.69H137.573C136.957 28.69 136.49 28.8347 136.173 29.124C135.865 29.4133 135.711 29.9173 135.711 30.636V34.5H133.751V26.744H135.711V27.948ZM146.831 26.744L142.029 38.168H139.943L141.623 34.304L138.515 26.744H140.713L142.715 32.162L144.745 26.744H146.831Z" fill="#050329"/>
</svg>
