<svg width="211" height="60" viewBox="0 0 211 60" fill="none" xmlns="http://www.w3.org/2000/svg">
<circle cx="30" cy="30" r="30" fill="#FEF3C7"/>
<mask id="path-2-inside-1_570_508" fill="white">
<path d="M31.7143 36.2999H30V34.5C29.9993 33.7841 29.7282 33.0977 29.2461 32.5916C28.764 32.0854 28.1103 31.8007 27.4286 31.8H24C23.3182 31.8007 22.6646 32.0854 22.1825 32.5916C21.7004 33.0977 21.4293 33.7841 21.4286 34.5V36.2999H19.7143V34.5C19.7156 33.3069 20.1676 32.1632 20.971 31.3195C21.7745 30.4759 22.8638 30.0014 24 30H27.4286C28.5648 30.0014 29.6541 30.4759 30.4575 31.3195C31.261 32.1632 31.7129 33.3069 31.7143 34.5V36.2999ZM25.7143 21C26.2229 21 26.72 21.1583 27.1429 21.455C27.5658 21.7517 27.8954 22.1733 28.09 22.6667C28.2846 23.1601 28.3355 23.7029 28.2363 24.2267C28.1371 24.7504 27.8922 25.2315 27.5326 25.6091C27.1729 25.9867 26.7148 26.2439 26.2159 26.3481C25.7171 26.4523 25.2001 26.3988 24.7302 26.1944C24.2604 25.9901 23.8588 25.644 23.5762 25.2C23.2937 24.756 23.1429 24.234 23.1429 23.7C23.1429 22.9839 23.4138 22.2971 23.896 21.7908C24.3782 21.2844 25.0323 21 25.7143 21ZM25.7143 19.2C24.8667 19.2 24.0381 19.4639 23.3333 19.9583C22.6285 20.4528 22.0792 21.1556 21.7548 21.9779C21.4304 22.8001 21.3456 23.7049 21.5109 24.5779C21.6763 25.4508 22.0845 26.2526 22.6838 26.8819C23.2832 27.5113 24.0468 27.9399 24.8782 28.1135C25.7095 28.2871 26.5712 28.198 27.3544 27.8574C28.1375 27.5168 28.8068 26.94 29.2777 26.2C29.7486 25.46 30 24.59 30 23.7C30 22.5065 29.5485 21.3619 28.7447 20.518C27.941 19.6741 26.8509 19.2 25.7143 19.2ZM18 39H42V40.7999H18V39ZM35.1429 19.2V21H39.0737L33.4286 26.9274L34.6406 28.2L40.2857 22.2726V26.4H42V19.2H35.1429Z"/>
</mask>
<path d="M31.7143 36.2999H30V34.5C29.9993 33.7841 29.7282 33.0977 29.2461 32.5916C28.764 32.0854 28.1103 31.8007 27.4286 31.8H24C23.3182 31.8007 22.6646 32.0854 22.1825 32.5916C21.7004 33.0977 21.4293 33.7841 21.4286 34.5V36.2999H19.7143V34.5C19.7156 33.3069 20.1676 32.1632 20.971 31.3195C21.7745 30.4759 22.8638 30.0014 24 30H27.4286C28.5648 30.0014 29.6541 30.4759 30.4575 31.3195C31.261 32.1632 31.7129 33.3069 31.7143 34.5V36.2999ZM25.7143 21C26.2229 21 26.72 21.1583 27.1429 21.455C27.5658 21.7517 27.8954 22.1733 28.09 22.6667C28.2846 23.1601 28.3355 23.7029 28.2363 24.2267C28.1371 24.7504 27.8922 25.2315 27.5326 25.6091C27.1729 25.9867 26.7148 26.2439 26.2159 26.3481C25.7171 26.4523 25.2001 26.3988 24.7302 26.1944C24.2604 25.9901 23.8588 25.644 23.5762 25.2C23.2937 24.756 23.1429 24.234 23.1429 23.7C23.1429 22.9839 23.4138 22.2971 23.896 21.7908C24.3782 21.2844 25.0323 21 25.7143 21ZM25.7143 19.2C24.8667 19.2 24.0381 19.4639 23.3333 19.9583C22.6285 20.4528 22.0792 21.1556 21.7548 21.9779C21.4304 22.8001 21.3456 23.7049 21.5109 24.5779C21.6763 25.4508 22.0845 26.2526 22.6838 26.8819C23.2832 27.5113 24.0468 27.9399 24.8782 28.1135C25.7095 28.2871 26.5712 28.198 27.3544 27.8574C28.1375 27.5168 28.8068 26.94 29.2777 26.2C29.7486 25.46 30 24.59 30 23.7C30 22.5065 29.5485 21.3619 28.7447 20.518C27.941 19.6741 26.8509 19.2 25.7143 19.2ZM18 39H42V40.7999H18V39ZM35.1429 19.2V21H39.0737L33.4286 26.9274L34.6406 28.2L40.2857 22.2726V26.4H42V19.2H35.1429Z" fill="#FEF3C7"/>
<path d="M31.7143 36.2999V38.2999H33.7143V36.2999H31.7143ZM30 36.2999H28V38.2999H30V36.2999ZM30 34.5H32L32 34.498L30 34.5ZM27.4286 31.8L27.4307 29.8H27.4286V31.8ZM24 31.8V29.7999L23.9979 29.8L24 31.8ZM21.4286 34.5L19.4286 34.498V34.5H21.4286ZM21.4286 36.2999V38.2999H23.4286V36.2999H21.4286ZM19.7143 36.2999H17.7143V38.2999H19.7143V36.2999ZM19.7143 34.5L17.7143 34.4977V34.5H19.7143ZM24 30L24 27.9999L23.9975 28L24 30ZM27.4286 30L27.4311 28H27.4286V30ZM31.7143 34.5H33.7143L33.7143 34.4977L31.7143 34.5ZM23.1429 23.7H21.1429H23.1429ZM30 23.7H32H30ZM18 39V37H16V39H18ZM42 39H44V37H42V39ZM42 40.7999V42.7999H44V40.7999H42ZM18 40.7999H16V42.7999H18V40.7999ZM35.1429 19.2V17.2H33.1429V19.2H35.1429ZM35.1429 21H33.1429V23H35.1429V21ZM39.0737 21L40.522 22.3793L43.7404 19H39.0737V21ZM33.4286 26.9274L31.9803 25.548L30.6667 26.9274L31.9803 28.3067L33.4286 26.9274ZM34.6406 28.2L33.1923 29.5793L34.6406 31.1L36.0888 29.5793L34.6406 28.2ZM40.2857 22.2726H42.2857V17.2726L38.8374 20.8932L40.2857 22.2726ZM40.2857 26.4H38.2857V28.4H40.2857V26.4ZM42 26.4V28.4H44V26.4H42ZM42 19.2H44V17.2H42V19.2ZM31.7143 34.3H30V38.2999H31.7143V34.3ZM32 36.2999V34.5H28V36.2999H32ZM32 34.498C31.9988 33.283 31.5395 32.0997 30.6944 31.2122L27.7978 33.9709C27.9168 34.0958 27.9998 34.2852 28 34.5019L32 34.498ZM30.6944 31.2122C29.8461 30.3215 28.6745 29.8013 27.4307 29.8L27.4265 33.7999C27.5462 33.8001 27.6819 33.8492 27.7978 33.9709L30.6944 31.2122ZM27.4286 29.8H24V33.8H27.4286V29.8ZM23.9979 29.8C22.7541 29.8013 21.5825 30.3215 20.7342 31.2122L23.6308 33.9709C23.7466 33.8492 23.8824 33.8001 24.0021 33.7999L23.9979 29.8ZM20.7342 31.2122C19.889 32.0997 19.4297 33.283 19.4286 34.498L23.4286 34.5019C23.4288 34.2852 23.5117 34.0958 23.6308 33.9709L20.7342 31.2122ZM19.4286 34.5V36.2999H23.4286V34.5H19.4286ZM21.4286 34.3H19.7143V38.2999H21.4286V34.3ZM21.7143 36.2999V34.5H17.7143V36.2999H21.7143ZM21.7143 34.5022C21.7151 33.8082 21.9789 33.1613 22.4193 32.6989L19.5228 29.9402C18.3564 31.165 17.7162 32.8056 17.7143 34.4977L21.7143 34.5022ZM22.4193 32.6989C22.8566 32.2397 23.4282 32.0007 24.0025 31.9999L23.9975 28C22.2994 28.0021 20.6923 28.7122 19.5228 29.9402L22.4193 32.6989ZM24 32H27.4286V28H24V32ZM27.4261 31.9999C28.0004 32.0007 28.5719 32.2397 29.0093 32.6989L31.9058 29.9402C30.7362 28.7122 29.1292 28.0021 27.4311 28L27.4261 31.9999ZM29.0093 32.6989C29.4497 33.1613 29.7135 33.8082 29.7143 34.5022L33.7143 34.4977C33.7124 32.8056 33.0722 31.165 31.9058 29.9402L29.0093 32.6989ZM29.7143 34.5V36.2999H33.7143V34.5H29.7143ZM25.7143 23C25.8049 23 25.9022 23.0277 25.9942 23.0922L28.2916 19.8177C27.5378 19.2889 26.6408 19 25.7143 19V23ZM25.9942 23.0922C26.0876 23.1577 26.1745 23.2613 26.2295 23.4006L29.9504 21.9328C29.6162 21.0854 29.044 20.3456 28.2916 19.8177L25.9942 23.0922ZM26.2295 23.4006C26.2847 23.5407 26.3005 23.6999 26.2713 23.8544L30.2014 24.599C30.3705 23.706 30.2845 22.7795 29.9504 21.9328L26.2295 23.4006ZM26.2713 23.8544C26.242 24.0087 26.1721 24.1377 26.0843 24.2298L28.9808 26.9885C29.6123 26.3254 30.0321 25.4922 30.2014 24.599L26.2713 23.8544ZM26.0843 24.2298C25.9975 24.321 25.899 24.3711 25.8071 24.3903L26.6248 28.3058C27.5305 28.1167 28.3484 27.6525 28.9808 26.9885L26.0843 24.2298ZM25.8071 24.3903C25.7159 24.4093 25.6203 24.4006 25.5279 24.3604L23.9326 28.0285C24.7799 28.397 25.7183 28.4952 26.6248 28.3058L25.8071 24.3903ZM25.5279 24.3604C25.4342 24.3196 25.3382 24.2435 25.2635 24.1262L21.8889 26.2737C22.3794 27.0445 23.0866 27.6605 23.9326 28.0285L25.5279 24.3604ZM25.2635 24.1262C25.1884 24.0081 25.1429 23.8595 25.1429 23.7H21.1429C21.1429 24.6084 21.399 25.5039 21.8889 26.2737L25.2635 24.1262ZM25.1429 23.7C25.1429 23.4837 25.2256 23.2947 25.3443 23.1701L22.4477 20.4115C21.602 21.2995 21.1429 22.4841 21.1429 23.7H25.1429ZM25.3443 23.1701C25.4598 23.0488 25.5951 23 25.7143 23V19C24.4695 19 23.2967 19.5201 22.4477 20.4115L25.3443 23.1701ZM25.7143 17.2C24.4487 17.2 23.2202 17.5945 22.1846 18.3211L24.4819 21.5956C24.8559 21.3332 25.2846 21.2 25.7143 21.2V17.2ZM22.1846 18.3211C21.1503 19.0468 20.3584 20.0677 19.8943 21.2439L23.6153 22.7118C23.8 22.2435 24.1067 21.8588 24.4819 21.5956L22.1846 18.3211ZM19.8943 21.2439C19.4306 22.4196 19.3106 23.708 19.5459 24.9501L23.476 24.2056C23.3805 23.7019 23.4303 23.1807 23.6153 22.7118L19.8943 21.2439ZM19.5459 24.9501C19.7812 26.1925 20.3644 27.3465 21.2356 28.2612L24.1321 25.5026C23.8046 25.1587 23.5713 24.709 23.476 24.2056L19.5459 24.9501ZM21.2356 28.2612C22.1077 29.177 23.2311 29.8126 24.4693 30.0712L25.2871 26.1557C24.8626 26.0671 24.4586 25.8455 24.1321 25.5026L21.2356 28.2612ZM24.4693 30.0712C25.7083 30.33 26.9915 30.1962 28.152 29.6915L26.5567 26.0234C26.151 26.1998 25.7107 26.2442 25.2871 26.1557L24.4693 30.0712ZM28.152 29.6915C29.3113 29.1873 30.2862 28.3405 30.9651 27.2738L27.5904 25.1263C27.3274 25.5395 26.9637 25.8464 26.5567 26.0234L28.152 29.6915ZM30.9651 27.2738C31.6433 26.2079 32 24.9644 32 23.7H28C28 24.2155 27.854 24.7121 27.5904 25.1263L30.9651 27.2738ZM32 23.7C32 22.0067 31.3603 20.3643 30.193 19.1387L27.2965 21.8973C27.7366 22.3595 28 23.0063 28 23.7H32ZM30.193 19.1387C29.0226 17.9097 27.4137 17.2 25.7143 17.2V21.2C26.2881 21.2 26.8594 21.4384 27.2965 21.8973L30.193 19.1387ZM18 41H42V37H18V41ZM40 39V40.7999H44V39H40ZM42 38.7999H18V42.7999H42V38.7999ZM20 40.7999V39H16V40.7999H20ZM33.1429 19.2V21H37.1429V19.2H33.1429ZM35.1429 23H39.0737V19H35.1429V23ZM37.6254 19.6206L31.9803 25.548L34.8768 28.3067L40.522 22.3793L37.6254 19.6206ZM31.9803 28.3067L33.1923 29.5793L36.0888 26.8206L34.8768 25.548L31.9803 28.3067ZM36.0888 29.5793L41.734 23.6519L38.8374 20.8932L33.1923 26.8206L36.0888 29.5793ZM38.2857 22.2726V26.4H42.2857V22.2726H38.2857ZM40.2857 28.4H42V24.4H40.2857V28.4ZM44 26.4V19.2H40V26.4H44ZM42 17.2H35.1429V21.2H42V17.2Z" fill="#78340F" mask="url(#path-2-inside-1_570_508)"/>
<path d="M81.926 22.446H85.146V24H79.966V14.228H81.926V22.446ZM93.6018 19.954C93.6018 20.234 93.5831 20.486 93.5458 20.71H87.8758C87.9224 21.27 88.1184 21.7087 88.4638 22.026C88.8091 22.3433 89.2338 22.502 89.7378 22.502C90.4658 22.502 90.9838 22.1893 91.2918 21.564H93.4058C93.1818 22.3107 92.7524 22.9267 92.1178 23.412C91.4831 23.888 90.7038 24.126 89.7798 24.126C89.0331 24.126 88.3611 23.9627 87.7638 23.636C87.1758 23.3 86.7138 22.8287 86.3778 22.222C86.0511 21.6153 85.8878 20.9153 85.8878 20.122C85.8878 19.3193 86.0511 18.6147 86.3778 18.008C86.7044 17.4013 87.1618 16.9347 87.7498 16.608C88.3378 16.2813 89.0144 16.118 89.7798 16.118C90.5171 16.118 91.1751 16.2767 91.7538 16.594C92.3418 16.9113 92.7944 17.364 93.1118 17.952C93.4384 18.5307 93.6018 19.198 93.6018 19.954ZM91.5718 19.394C91.5624 18.89 91.3804 18.4887 91.0258 18.19C90.6711 17.882 90.2371 17.728 89.7238 17.728C89.2384 17.728 88.8278 17.8773 88.4918 18.176C88.1651 18.4653 87.9644 18.8713 87.8898 19.394H91.5718ZM94.5284 20.094C94.5284 19.31 94.6824 18.6147 94.9904 18.008C95.3077 17.4013 95.7324 16.9347 96.2644 16.608C96.8057 16.2813 97.4077 16.118 98.0704 16.118C98.6491 16.118 99.1531 16.2347 99.5824 16.468C100.021 16.7013 100.371 16.9953 100.632 17.35V16.244H102.606V24H100.632V22.866C100.38 23.23 100.03 23.5333 99.5824 23.776C99.1437 24.0093 98.6351 24.126 98.0564 24.126C97.4031 24.126 96.8057 23.958 96.2644 23.622C95.7324 23.286 95.3077 22.8147 94.9904 22.208C94.6824 21.592 94.5284 20.8873 94.5284 20.094ZM100.632 20.122C100.632 19.646 100.539 19.24 100.352 18.904C100.166 18.5587 99.9137 18.2973 99.5964 18.12C99.2791 17.9333 98.9384 17.84 98.5744 17.84C98.2104 17.84 97.8744 17.9287 97.5664 18.106C97.2584 18.2833 97.0064 18.5447 96.8104 18.89C96.6237 19.226 96.5304 19.6273 96.5304 20.094C96.5304 20.5607 96.6237 20.9713 96.8104 21.326C97.0064 21.6713 97.2584 21.9373 97.5664 22.124C97.8837 22.3107 98.2197 22.404 98.5744 22.404C98.9384 22.404 99.2791 22.3153 99.5964 22.138C99.9137 21.9513 100.166 21.69 100.352 21.354C100.539 21.0087 100.632 20.598 100.632 20.122ZM107.755 22.194L109.715 16.244H111.801L108.931 24H106.551L103.695 16.244H105.795L107.755 22.194ZM120.112 19.954C120.112 20.234 120.093 20.486 120.056 20.71H114.386C114.432 21.27 114.628 21.7087 114.974 22.026C115.319 22.3433 115.744 22.502 116.248 22.502C116.976 22.502 117.494 22.1893 117.802 21.564H119.916C119.692 22.3107 119.262 22.9267 118.628 23.412C117.993 23.888 117.214 24.126 116.29 24.126C115.543 24.126 114.871 23.9627 114.274 23.636C113.686 23.3 113.224 22.8287 112.888 22.222C112.561 21.6153 112.398 20.9153 112.398 20.122C112.398 19.3193 112.561 18.6147 112.888 18.008C113.214 17.4013 113.672 16.9347 114.26 16.608C114.848 16.2813 115.524 16.118 116.29 16.118C117.027 16.118 117.685 16.2767 118.264 16.594C118.852 16.9113 119.304 17.364 119.622 17.952C119.948 18.5307 120.112 19.198 120.112 19.954ZM118.082 19.394C118.072 18.89 117.89 18.4887 117.536 18.19C117.181 17.882 116.747 17.728 116.234 17.728C115.748 17.728 115.338 17.8773 115.002 18.176C114.675 18.4653 114.474 18.8713 114.4 19.394H118.082ZM132.396 24L131.332 22.95C130.427 23.762 129.321 24.168 128.014 24.168C127.295 24.168 126.661 24.0467 126.11 23.804C125.569 23.552 125.149 23.202 124.85 22.754C124.551 22.2967 124.402 21.7693 124.402 21.172C124.402 20.528 124.584 19.9493 124.948 19.436C125.312 18.9227 125.849 18.5073 126.558 18.19C126.306 17.882 126.124 17.588 126.012 17.308C125.9 17.0187 125.844 16.7107 125.844 16.384C125.844 15.936 125.961 15.5347 126.194 15.18C126.427 14.816 126.759 14.5313 127.188 14.326C127.627 14.1207 128.135 14.018 128.714 14.018C129.302 14.018 129.806 14.13 130.226 14.354C130.646 14.578 130.959 14.8767 131.164 15.25C131.369 15.6233 131.458 16.0387 131.43 16.496H129.526C129.535 16.188 129.461 15.9547 129.302 15.796C129.143 15.628 128.929 15.544 128.658 15.544C128.397 15.544 128.177 15.6233 128 15.782C127.832 15.9313 127.748 16.1273 127.748 16.37C127.748 16.6033 127.818 16.8367 127.958 17.07C128.098 17.294 128.327 17.574 128.644 17.91L131.108 20.346C131.127 20.3273 131.141 20.3087 131.15 20.29C131.159 20.2713 131.169 20.2527 131.178 20.234L131.976 18.904H134.02L133.04 20.626C132.853 20.99 132.653 21.3353 132.438 21.662L134.804 24H132.396ZM128.07 22.544C128.835 22.544 129.512 22.2733 130.1 21.732L127.692 19.352C126.787 19.7533 126.334 20.3227 126.334 21.06C126.334 21.48 126.493 21.8347 126.81 22.124C127.127 22.404 127.547 22.544 128.07 22.544ZM85.958 43.138H82.066L81.422 45H79.364L82.878 35.214H85.16L88.674 45H86.602L85.958 43.138ZM85.426 41.57L84.012 37.482L82.598 41.57H85.426ZM92.2695 38.854V42.606C92.2695 42.8673 92.3302 43.0587 92.4515 43.18C92.5822 43.292 92.7968 43.348 93.0955 43.348H94.0055V45H92.7735C91.1215 45 90.2955 44.1973 90.2955 42.592V38.854H89.3715V37.244H90.2955V35.326H92.2695V37.244H94.0055V38.854H92.2695ZM97.6972 38.854V42.606C97.6972 42.8673 97.7579 43.0587 97.8792 43.18C98.0099 43.292 98.2246 43.348 98.5232 43.348H99.4332V45H98.2012C96.5492 45 95.7232 44.1973 95.7232 42.592V38.854H94.7992V37.244H95.7232V35.326H97.6972V37.244H99.4332V38.854H97.6972ZM108.053 40.954C108.053 41.234 108.034 41.486 107.997 41.71H102.327C102.374 42.27 102.57 42.7087 102.915 43.026C103.26 43.3433 103.685 43.502 104.189 43.502C104.917 43.502 105.435 43.1893 105.743 42.564H107.857C107.633 43.3107 107.204 43.9267 106.569 44.412C105.934 44.888 105.155 45.126 104.231 45.126C103.484 45.126 102.812 44.9627 102.215 44.636C101.627 44.3 101.165 43.8287 100.829 43.222C100.502 42.6153 100.339 41.9153 100.339 41.122C100.339 40.3193 100.502 39.6147 100.829 39.008C101.156 38.4013 101.613 37.9347 102.201 37.608C102.789 37.2813 103.466 37.118 104.231 37.118C104.968 37.118 105.626 37.2767 106.205 37.594C106.793 37.9113 107.246 38.364 107.563 38.952C107.89 39.5307 108.053 40.198 108.053 40.954ZM106.023 40.394C106.014 39.89 105.832 39.4887 105.477 39.19C105.122 38.882 104.688 38.728 104.175 38.728C103.69 38.728 103.279 38.8773 102.943 39.176C102.616 39.4653 102.416 39.8713 102.341 40.394H106.023ZM113.782 37.132C114.706 37.132 115.452 37.426 116.022 38.014C116.591 38.5927 116.876 39.4047 116.876 40.45V45H114.916V40.716C114.916 40.1 114.762 39.6287 114.454 39.302C114.146 38.966 113.726 38.798 113.194 38.798C112.652 38.798 112.223 38.966 111.906 39.302C111.598 39.6287 111.444 40.1 111.444 40.716V45H109.484V37.244H111.444V38.21C111.705 37.874 112.036 37.6127 112.438 37.426C112.848 37.23 113.296 37.132 113.782 37.132ZM118.235 41.094C118.235 40.31 118.389 39.6147 118.697 39.008C119.015 38.4013 119.444 37.9347 119.985 37.608C120.527 37.2813 121.129 37.118 121.791 37.118C122.295 37.118 122.776 37.23 123.233 37.454C123.691 37.6687 124.055 37.958 124.325 38.322V34.64H126.313V45H124.325V43.852C124.083 44.2347 123.742 44.5427 123.303 44.776C122.865 45.0093 122.356 45.126 121.777 45.126C121.124 45.126 120.527 44.958 119.985 44.622C119.444 44.286 119.015 43.8147 118.697 43.208C118.389 42.592 118.235 41.8873 118.235 41.094ZM124.339 41.122C124.339 40.646 124.246 40.24 124.059 39.904C123.873 39.5587 123.621 39.2973 123.303 39.12C122.986 38.9333 122.645 38.84 122.281 38.84C121.917 38.84 121.581 38.9287 121.273 39.106C120.965 39.2833 120.713 39.5447 120.517 39.89C120.331 40.226 120.237 40.6273 120.237 41.094C120.237 41.5607 120.331 41.9713 120.517 42.326C120.713 42.6713 120.965 42.9373 121.273 43.124C121.591 43.3107 121.927 43.404 122.281 43.404C122.645 43.404 122.986 43.3153 123.303 43.138C123.621 42.9513 123.873 42.69 124.059 42.354C124.246 42.0087 124.339 41.598 124.339 41.122ZM127.724 41.094C127.724 40.31 127.878 39.6147 128.186 39.008C128.503 38.4013 128.928 37.9347 129.46 37.608C130.001 37.2813 130.603 37.118 131.266 37.118C131.844 37.118 132.348 37.2347 132.778 37.468C133.216 37.7013 133.566 37.9953 133.828 38.35V37.244H135.802V45H133.828V43.866C133.576 44.23 133.226 44.5333 132.778 44.776C132.339 45.0093 131.83 45.126 131.252 45.126C130.598 45.126 130.001 44.958 129.46 44.622C128.928 44.286 128.503 43.8147 128.186 43.208C127.878 42.592 127.724 41.8873 127.724 41.094ZM133.828 41.122C133.828 40.646 133.734 40.24 133.548 39.904C133.361 39.5587 133.109 39.2973 132.792 39.12C132.474 38.9333 132.134 38.84 131.77 38.84C131.406 38.84 131.07 38.9287 130.762 39.106C130.454 39.2833 130.202 39.5447 130.006 39.89C129.819 40.226 129.726 40.6273 129.726 41.094C129.726 41.5607 129.819 41.9713 130.006 42.326C130.202 42.6713 130.454 42.9373 130.762 43.124C131.079 43.3107 131.415 43.404 131.77 43.404C132.134 43.404 132.474 43.3153 132.792 43.138C133.109 42.9513 133.361 42.69 133.548 42.354C133.734 42.0087 133.828 41.598 133.828 41.122ZM142.014 37.132C142.938 37.132 143.685 37.426 144.254 38.014C144.823 38.5927 145.108 39.4047 145.108 40.45V45H143.148V40.716C143.148 40.1 142.994 39.6287 142.686 39.302C142.378 38.966 141.958 38.798 141.426 38.798C140.885 38.798 140.455 38.966 140.138 39.302C139.83 39.6287 139.676 40.1 139.676 40.716V45H137.716V37.244H139.676V38.21C139.937 37.874 140.269 37.6127 140.67 37.426C141.081 37.23 141.529 37.132 142.014 37.132ZM146.468 41.122C146.468 40.3193 146.631 39.6193 146.958 39.022C147.285 38.4153 147.737 37.9487 148.316 37.622C148.895 37.286 149.557 37.118 150.304 37.118C151.265 37.118 152.059 37.3607 152.684 37.846C153.319 38.322 153.743 38.994 153.958 39.862H151.844C151.732 39.526 151.541 39.2647 151.27 39.078C151.009 38.882 150.682 38.784 150.29 38.784C149.73 38.784 149.287 38.9893 148.96 39.4C148.633 39.8013 148.47 40.3753 148.47 41.122C148.47 41.8593 148.633 42.4333 148.96 42.844C149.287 43.2453 149.73 43.446 150.29 43.446C151.083 43.446 151.601 43.0913 151.844 42.382H153.958C153.743 43.222 153.319 43.8893 152.684 44.384C152.049 44.8787 151.256 45.126 150.304 45.126C149.557 45.126 148.895 44.9627 148.316 44.636C147.737 44.3 147.285 43.8333 146.958 43.236C146.631 42.6293 146.468 41.9247 146.468 41.122ZM162.604 40.954C162.604 41.234 162.585 41.486 162.548 41.71H156.878C156.924 42.27 157.12 42.7087 157.466 43.026C157.811 43.3433 158.236 43.502 158.74 43.502C159.468 43.502 159.986 43.1893 160.294 42.564H162.408C162.184 43.3107 161.754 43.9267 161.12 44.412C160.485 44.888 159.706 45.126 158.782 45.126C158.035 45.126 157.363 44.9627 156.766 44.636C156.178 44.3 155.716 43.8287 155.38 43.222C155.053 42.6153 154.89 41.9153 154.89 41.122C154.89 40.3193 155.053 39.6147 155.38 39.008C155.706 38.4013 156.164 37.9347 156.752 37.608C157.34 37.2813 158.016 37.118 158.782 37.118C159.519 37.118 160.177 37.2767 160.756 37.594C161.344 37.9113 161.796 38.364 162.114 38.952C162.44 39.5307 162.604 40.198 162.604 40.954ZM160.574 40.394C160.564 39.89 160.382 39.4887 160.028 39.19C159.673 38.882 159.239 38.728 158.726 38.728C158.24 38.728 157.83 38.8773 157.494 39.176C157.167 39.4653 156.966 39.8713 156.892 40.394H160.574Z" fill="#050329"/>
</svg>
