<svg width="212" height="61" viewBox="0 0 212 61" fill="none" xmlns="http://www.w3.org/2000/svg">
<circle cx="30.75" cy="30.5" r="30" fill="#E7FFF1"/>
<path d="M30.05 38.5C30.15 38.8333 30.2877 39.1793 30.463 39.538C30.6384 39.8967 30.8174 40.2173 31 40.5H23.75C23.2 40.5 22.7294 40.3043 22.338 39.913C21.9467 39.5217 21.7507 39.0507 21.75 38.5V22.5C21.75 21.95 21.946 21.4793 22.338 21.088C22.73 20.6967 23.2007 20.5007 23.75 20.5H35.75C36.3 20.5 36.771 20.696 37.163 21.088C37.555 21.48 37.7507 21.9507 37.75 22.5V29.6C37.45 29.5667 37.1167 29.55 36.75 29.55C36.3834 29.55 36.05 29.5667 35.75 29.6V22.5H30.75V29.5L28.25 28L25.75 29.5V22.5H23.75V38.5H30.05ZM36.75 41.5C35.3667 41.5 34.1877 41.0123 33.213 40.037C32.2384 39.0617 31.7507 37.8827 31.75 36.5C31.75 35.1167 32.2377 33.9377 33.213 32.963C34.1884 31.9883 35.3674 31.5007 36.75 31.5C38.1334 31.5 39.3127 31.9877 40.288 32.963C41.2634 33.9383 41.7507 35.1173 41.75 36.5C41.75 37.8833 41.2624 39.0627 40.287 40.038C39.3117 41.0133 38.1327 41.5007 36.75 41.5ZM35.5 39L39.5 36.5L35.5 34V39ZM30.05 22.5H23.75H35.75H29.75H30.05Z" fill="#325B43"/>
<path d="M82.676 33.446H85.896V35H80.716V25.228H82.676V33.446ZM94.3518 30.954C94.3518 31.234 94.3331 31.486 94.2958 31.71H88.6258C88.6724 32.27 88.8684 32.7087 89.2138 33.026C89.5591 33.3433 89.9838 33.502 90.4878 33.502C91.2158 33.502 91.7338 33.1893 92.0418 32.564H94.1558C93.9318 33.3107 93.5024 33.9267 92.8678 34.412C92.2331 34.888 91.4538 35.126 90.5298 35.126C89.7831 35.126 89.1111 34.9627 88.5138 34.636C87.9258 34.3 87.4638 33.8287 87.1278 33.222C86.8011 32.6153 86.6378 31.9153 86.6378 31.122C86.6378 30.3193 86.8011 29.6147 87.1278 29.008C87.4544 28.4013 87.9118 27.9347 88.4998 27.608C89.0878 27.2813 89.7644 27.118 90.5298 27.118C91.2671 27.118 91.9251 27.2767 92.5038 27.594C93.0918 27.9113 93.5444 28.364 93.8618 28.952C94.1884 29.5307 94.3518 30.198 94.3518 30.954ZM92.3218 30.394C92.3124 29.89 92.1304 29.4887 91.7758 29.19C91.4211 28.882 90.9871 28.728 90.4738 28.728C89.9884 28.728 89.5778 28.8773 89.2418 29.176C88.9151 29.4653 88.7144 29.8713 88.6398 30.394H92.3218ZM98.7504 35.126C98.1157 35.126 97.5464 35.014 97.0424 34.79C96.5384 34.5567 96.1371 34.244 95.8384 33.852C95.5491 33.46 95.3904 33.026 95.3624 32.55H97.3364C97.3737 32.8487 97.5184 33.096 97.7704 33.292C98.0317 33.488 98.3537 33.586 98.7364 33.586C99.1097 33.586 99.3991 33.5113 99.6044 33.362C99.8191 33.2127 99.9264 33.0213 99.9264 32.788C99.9264 32.536 99.7957 32.3493 99.5344 32.228C99.2824 32.0973 98.8764 31.9573 98.3164 31.808C97.7377 31.668 97.2617 31.5233 96.8884 31.374C96.5244 31.2247 96.2071 30.996 95.9364 30.688C95.6751 30.38 95.5444 29.9647 95.5444 29.442C95.5444 29.0127 95.6657 28.6207 95.9084 28.266C96.1604 27.9113 96.5151 27.6313 96.9724 27.426C97.4391 27.2207 97.9851 27.118 98.6104 27.118C99.5344 27.118 100.272 27.3513 100.822 27.818C101.373 28.2753 101.676 28.896 101.732 29.68H99.8564C99.8284 29.372 99.6977 29.1293 99.4644 28.952C99.2404 28.7653 98.9371 28.672 98.5544 28.672C98.1997 28.672 97.9244 28.7373 97.7284 28.868C97.5417 28.9987 97.4484 29.1807 97.4484 29.414C97.4484 29.6753 97.5791 29.876 97.8404 30.016C98.1017 30.1467 98.5077 30.282 99.0584 30.422C99.6184 30.562 100.08 30.7067 100.444 30.856C100.808 31.0053 101.121 31.2387 101.382 31.556C101.653 31.864 101.793 32.2747 101.802 32.788C101.802 33.236 101.676 33.6373 101.424 33.992C101.182 34.3467 100.827 34.6267 100.36 34.832C99.9031 35.028 99.3664 35.126 98.7504 35.126ZM106.379 35.126C105.745 35.126 105.175 35.014 104.671 34.79C104.167 34.5567 103.766 34.244 103.467 33.852C103.178 33.46 103.019 33.026 102.991 32.55H104.965C105.003 32.8487 105.147 33.096 105.399 33.292C105.661 33.488 105.983 33.586 106.365 33.586C106.739 33.586 107.028 33.5113 107.233 33.362C107.448 33.2127 107.555 33.0213 107.555 32.788C107.555 32.536 107.425 32.3493 107.163 32.228C106.911 32.0973 106.505 31.9573 105.945 31.808C105.367 31.668 104.891 31.5233 104.517 31.374C104.153 31.2247 103.836 30.996 103.565 30.688C103.304 30.38 103.173 29.9647 103.173 29.442C103.173 29.0127 103.295 28.6207 103.537 28.266C103.789 27.9113 104.144 27.6313 104.601 27.426C105.068 27.2207 105.614 27.118 106.239 27.118C107.163 27.118 107.901 27.3513 108.451 27.818C109.002 28.2753 109.305 28.896 109.361 29.68H107.485C107.457 29.372 107.327 29.1293 107.093 28.952C106.869 28.7653 106.566 28.672 106.183 28.672C105.829 28.672 105.553 28.7373 105.357 28.868C105.171 28.9987 105.077 29.1807 105.077 29.414C105.077 29.6753 105.208 29.876 105.469 30.016C105.731 30.1467 106.137 30.282 106.687 30.422C107.247 30.562 107.709 30.7067 108.073 30.856C108.437 31.0053 108.75 31.2387 109.011 31.556C109.282 31.864 109.422 32.2747 109.431 32.788C109.431 33.236 109.305 33.6373 109.053 33.992C108.811 34.3467 108.456 34.6267 107.989 34.832C107.532 35.028 106.995 35.126 106.379 35.126ZM114.484 35.126C113.738 35.126 113.066 34.9627 112.468 34.636C111.871 34.3 111.4 33.8287 111.054 33.222C110.718 32.6153 110.55 31.9153 110.55 31.122C110.55 30.3287 110.723 29.6287 111.068 29.022C111.423 28.4153 111.904 27.9487 112.51 27.622C113.117 27.286 113.794 27.118 114.54 27.118C115.287 27.118 115.964 27.286 116.57 27.622C117.177 27.9487 117.653 28.4153 117.998 29.022C118.353 29.6287 118.53 30.3287 118.53 31.122C118.53 31.9153 118.348 32.6153 117.984 33.222C117.63 33.8287 117.144 34.3 116.528 34.636C115.922 34.9627 115.24 35.126 114.484 35.126ZM114.484 33.418C114.839 33.418 115.17 33.334 115.478 33.166C115.796 32.9887 116.048 32.7273 116.234 32.382C116.421 32.0367 116.514 31.6167 116.514 31.122C116.514 30.3847 116.318 29.82 115.926 29.428C115.544 29.0267 115.072 28.826 114.512 28.826C113.952 28.826 113.481 29.0267 113.098 29.428C112.725 29.82 112.538 30.3847 112.538 31.122C112.538 31.8593 112.72 32.4287 113.084 32.83C113.458 33.222 113.924 33.418 114.484 33.418ZM124.266 27.132C125.19 27.132 125.937 27.426 126.506 28.014C127.075 28.5927 127.36 29.4047 127.36 30.45V35H125.4V30.716C125.4 30.1 125.246 29.6287 124.938 29.302C124.63 28.966 124.21 28.798 123.678 28.798C123.137 28.798 122.707 28.966 122.39 29.302C122.082 29.6287 121.928 30.1 121.928 30.716V35H119.968V27.244H121.928V28.21C122.189 27.874 122.521 27.6127 122.922 27.426C123.333 27.23 123.781 27.132 124.266 27.132ZM139.686 28.252C139.686 28.7747 139.56 29.2647 139.308 29.722C139.065 30.1793 138.678 30.548 138.146 30.828C137.623 31.108 136.96 31.248 136.158 31.248H134.52V35H132.56V25.228H136.158C136.914 25.228 137.558 25.3587 138.09 25.62C138.622 25.8813 139.018 26.2407 139.28 26.698C139.55 27.1553 139.686 27.6733 139.686 28.252ZM136.074 29.666C136.615 29.666 137.016 29.5447 137.278 29.302C137.539 29.05 137.67 28.7 137.67 28.252C137.67 27.3 137.138 26.824 136.074 26.824H134.52V29.666H136.074ZM143.037 24.64V35H141.077V24.64H143.037ZM144.47 31.094C144.47 30.31 144.624 29.6147 144.932 29.008C145.249 28.4013 145.674 27.9347 146.206 27.608C146.747 27.2813 147.349 27.118 148.012 27.118C148.59 27.118 149.094 27.2347 149.524 27.468C149.962 27.7013 150.312 27.9953 150.574 28.35V27.244H152.548V35H150.574V33.866C150.322 34.23 149.972 34.5333 149.524 34.776C149.085 35.0093 148.576 35.126 147.998 35.126C147.344 35.126 146.747 34.958 146.206 34.622C145.674 34.286 145.249 33.8147 144.932 33.208C144.624 32.592 144.47 31.8873 144.47 31.094ZM150.574 31.122C150.574 30.646 150.48 30.24 150.294 29.904C150.107 29.5587 149.855 29.2973 149.538 29.12C149.22 28.9333 148.88 28.84 148.516 28.84C148.152 28.84 147.816 28.9287 147.508 29.106C147.2 29.2833 146.948 29.5447 146.752 29.89C146.565 30.226 146.472 30.6273 146.472 31.094C146.472 31.5607 146.565 31.9713 146.752 32.326C146.948 32.6713 147.2 32.9373 147.508 33.124C147.825 33.3107 148.161 33.404 148.516 33.404C148.88 33.404 149.22 33.3153 149.538 33.138C149.855 32.9513 150.107 32.69 150.294 32.354C150.48 32.0087 150.574 31.598 150.574 31.122ZM158.76 27.132C159.684 27.132 160.431 27.426 161 28.014C161.569 28.5927 161.854 29.4047 161.854 30.45V35H159.894V30.716C159.894 30.1 159.74 29.6287 159.432 29.302C159.124 28.966 158.704 28.798 158.172 28.798C157.631 28.798 157.201 28.966 156.884 29.302C156.576 29.6287 156.422 30.1 156.422 30.716V35H154.462V27.244H156.422V28.21C156.683 27.874 157.015 27.6127 157.416 27.426C157.827 27.23 158.275 27.132 158.76 27.132Z" fill="#050329"/>
</svg>
