<svg width="211" height="60" viewBox="0 0 211 60" fill="none" xmlns="http://www.w3.org/2000/svg">
<circle cx="30" cy="30" r="30" fill="#FDD0D0"/>
<path d="M22 39V27L30 21L38 27V39H22ZM24 37H31V34H24V37ZM33 37H36V34H33V37ZM24 32H27V29.025H24V32ZM29 32H36V29.025H29V32ZM25.3 27.025H34.7L30 23.5L25.3 27.025Z" fill="#CB1F1F"/>
<path d="M90.62 14.228V24H88.66V17.644L86.042 24H84.558L81.926 17.644V24H79.966V14.228H82.192L85.3 21.494L88.408 14.228H90.62ZM99.8798 16.244V24H97.9058V23.02C97.6538 23.356 97.3225 23.622 96.9118 23.818C96.5105 24.0047 96.0718 24.098 95.5958 24.098C94.9891 24.098 94.4525 23.972 93.9858 23.72C93.5191 23.4587 93.1505 23.0807 92.8798 22.586C92.6185 22.082 92.4878 21.4847 92.4878 20.794V16.244H94.4478V20.514C94.4478 21.13 94.6018 21.606 94.9098 21.942C95.2178 22.2687 95.6378 22.432 96.1698 22.432C96.7111 22.432 97.1358 22.2687 97.4438 21.942C97.7518 21.606 97.9058 21.13 97.9058 20.514V16.244H99.8798ZM103.774 13.64V24H101.814V13.64H103.774ZM107.992 17.854V21.606C107.992 21.8673 108.053 22.0587 108.174 22.18C108.305 22.292 108.519 22.348 108.818 22.348H109.728V24H108.496C106.844 24 106.018 23.1973 106.018 21.592V17.854H105.094V16.244H106.018V14.326H107.992V16.244H109.728V17.854H107.992ZM112.132 15.32C111.787 15.32 111.497 15.2127 111.264 14.998C111.04 14.774 110.928 14.4987 110.928 14.172C110.928 13.8453 111.04 13.5747 111.264 13.36C111.497 13.136 111.787 13.024 112.132 13.024C112.477 13.024 112.762 13.136 112.986 13.36C113.219 13.5747 113.336 13.8453 113.336 14.172C113.336 14.4987 113.219 14.774 112.986 14.998C112.762 15.2127 112.477 15.32 112.132 15.32ZM113.098 16.244V24H111.138V16.244H113.098ZM120.998 18.176V19.828H115.062V18.176H120.998ZM128.74 18.988C129.291 19.0907 129.744 19.366 130.098 19.814C130.453 20.262 130.63 20.7753 130.63 21.354C130.63 21.8767 130.5 22.3387 130.238 22.74C129.986 23.132 129.618 23.44 129.132 23.664C128.647 23.888 128.073 24 127.41 24H123.196V14.228H127.228C127.891 14.228 128.46 14.3353 128.936 14.55C129.422 14.7647 129.786 15.0633 130.028 15.446C130.28 15.8287 130.406 16.2627 130.406 16.748C130.406 17.3173 130.252 17.7933 129.944 18.176C129.646 18.5587 129.244 18.8293 128.74 18.988ZM125.156 18.26H126.948C127.415 18.26 127.774 18.1573 128.026 17.952C128.278 17.7373 128.404 17.434 128.404 17.042C128.404 16.65 128.278 16.3467 128.026 16.132C127.774 15.9173 127.415 15.81 126.948 15.81H125.156V18.26ZM127.13 22.404C127.606 22.404 127.975 22.292 128.236 22.068C128.507 21.844 128.642 21.5267 128.642 21.116C128.642 20.696 128.502 20.3693 128.222 20.136C127.942 19.8933 127.564 19.772 127.088 19.772H125.156V22.404H127.13ZM134.153 17.448C134.405 17.0373 134.731 16.7153 135.133 16.482C135.543 16.2487 136.01 16.132 136.533 16.132V18.19H136.015C135.399 18.19 134.932 18.3347 134.615 18.624C134.307 18.9133 134.153 19.4173 134.153 20.136V24H132.193V16.244H134.153V17.448ZM137.349 20.094C137.349 19.31 137.503 18.6147 137.811 18.008C138.128 17.4013 138.553 16.9347 139.085 16.608C139.626 16.2813 140.228 16.118 140.891 16.118C141.469 16.118 141.973 16.2347 142.403 16.468C142.841 16.7013 143.191 16.9953 143.453 17.35V16.244H145.427V24H143.453V22.866C143.201 23.23 142.851 23.5333 142.403 23.776C141.964 24.0093 141.455 24.126 140.877 24.126C140.223 24.126 139.626 23.958 139.085 23.622C138.553 23.286 138.128 22.8147 137.811 22.208C137.503 21.592 137.349 20.8873 137.349 20.094ZM143.453 20.122C143.453 19.646 143.359 19.24 143.173 18.904C142.986 18.5587 142.734 18.2973 142.417 18.12C142.099 17.9333 141.759 17.84 141.395 17.84C141.031 17.84 140.695 17.9287 140.387 18.106C140.079 18.2833 139.827 18.5447 139.631 18.89C139.444 19.226 139.351 19.6273 139.351 20.094C139.351 20.5607 139.444 20.9713 139.631 21.326C139.827 21.6713 140.079 21.9373 140.387 22.124C140.704 22.3107 141.04 22.404 141.395 22.404C141.759 22.404 142.099 22.3153 142.417 22.138C142.734 21.9513 142.986 21.69 143.173 21.354C143.359 21.0087 143.453 20.598 143.453 20.122ZM151.639 16.132C152.563 16.132 153.31 16.426 153.879 17.014C154.448 17.5927 154.733 18.4047 154.733 19.45V24H152.773V19.716C152.773 19.1 152.619 18.6287 152.311 18.302C152.003 17.966 151.583 17.798 151.051 17.798C150.51 17.798 150.08 17.966 149.763 18.302C149.455 18.6287 149.301 19.1 149.301 19.716V24H147.341V16.244H149.301V17.21C149.562 16.874 149.894 16.6127 150.295 16.426C150.706 16.23 151.154 16.132 151.639 16.132ZM156.093 20.122C156.093 19.3193 156.256 18.6193 156.583 18.022C156.91 17.4153 157.362 16.9487 157.941 16.622C158.52 16.286 159.182 16.118 159.929 16.118C160.89 16.118 161.684 16.3607 162.309 16.846C162.944 17.322 163.368 17.994 163.583 18.862H161.469C161.357 18.526 161.166 18.2647 160.895 18.078C160.634 17.882 160.307 17.784 159.915 17.784C159.355 17.784 158.912 17.9893 158.585 18.4C158.258 18.8013 158.095 19.3753 158.095 20.122C158.095 20.8593 158.258 21.4333 158.585 21.844C158.912 22.2453 159.355 22.446 159.915 22.446C160.708 22.446 161.226 22.0913 161.469 21.382H163.583C163.368 22.222 162.944 22.8893 162.309 23.384C161.674 23.8787 160.881 24.126 159.929 24.126C159.182 24.126 158.52 23.9627 157.941 23.636C157.362 23.3 156.91 22.8333 156.583 22.236C156.256 21.6293 156.093 20.9247 156.093 20.122ZM169.387 16.132C169.975 16.132 170.497 16.2627 170.955 16.524C171.412 16.776 171.767 17.154 172.019 17.658C172.28 18.1527 172.411 18.75 172.411 19.45V24H170.451V19.716C170.451 19.1 170.297 18.6287 169.989 18.302C169.681 17.966 169.261 17.798 168.729 17.798C168.187 17.798 167.758 17.966 167.441 18.302C167.133 18.6287 166.979 19.1 166.979 19.716V24H165.019V13.64H166.979V17.21C167.231 16.874 167.567 16.6127 167.987 16.426C168.407 16.23 168.873 16.132 169.387 16.132ZM85.006 45L82.85 41.192H81.926V45H79.966V35.228H83.634C84.39 35.228 85.034 35.3633 85.566 35.634C86.098 35.8953 86.4947 36.2547 86.756 36.712C87.0267 37.16 87.162 37.664 87.162 38.224C87.162 38.868 86.9753 39.4513 86.602 39.974C86.2287 40.4873 85.6733 40.842 84.936 41.038L87.274 45H85.006ZM81.926 39.722H83.564C84.096 39.722 84.4927 39.596 84.754 39.344C85.0153 39.0827 85.146 38.7233 85.146 38.266C85.146 37.818 85.0153 37.4727 84.754 37.23C84.4927 36.978 84.096 36.852 83.564 36.852H81.926V39.722ZM96.1448 40.954C96.1448 41.234 96.1261 41.486 96.0888 41.71H90.4188C90.4654 42.27 90.6614 42.7087 91.0068 43.026C91.3521 43.3433 91.7768 43.502 92.2808 43.502C93.0088 43.502 93.5268 43.1893 93.8348 42.564H95.9488C95.7248 43.3107 95.2954 43.9267 94.6608 44.412C94.0261 44.888 93.2468 45.126 92.3228 45.126C91.5761 45.126 90.9041 44.9627 90.3068 44.636C89.7188 44.3 89.2568 43.8287 88.9208 43.222C88.5941 42.6153 88.4307 41.9153 88.4307 41.122C88.4307 40.3193 88.5941 39.6147 88.9208 39.008C89.2474 38.4013 89.7048 37.9347 90.2928 37.608C90.8808 37.2813 91.5574 37.118 92.3228 37.118C93.0601 37.118 93.7181 37.2767 94.2968 37.594C94.8848 37.9113 95.3374 38.364 95.6548 38.952C95.9814 39.5307 96.1448 40.198 96.1448 40.954ZM94.1148 40.394C94.1054 39.89 93.9234 39.4887 93.5688 39.19C93.2141 38.882 92.7801 38.728 92.2668 38.728C91.7814 38.728 91.3708 38.8773 91.0348 39.176C90.7081 39.4653 90.5074 39.8713 90.4328 40.394H94.1148ZM99.5354 38.364C99.7874 38.0093 100.133 37.7153 100.571 37.482C101.019 37.2393 101.528 37.118 102.097 37.118C102.76 37.118 103.357 37.2813 103.889 37.608C104.431 37.9347 104.855 38.4013 105.163 39.008C105.481 39.6053 105.639 40.3007 105.639 41.094C105.639 41.8873 105.481 42.592 105.163 43.208C104.855 43.8147 104.431 44.286 103.889 44.622C103.357 44.958 102.76 45.126 102.097 45.126C101.528 45.126 101.024 45.0093 100.585 44.776C100.156 44.5427 99.806 44.2487 99.5354 43.894V48.696H97.5754V37.244H99.5354V38.364ZM103.637 41.094C103.637 40.6273 103.539 40.226 103.343 39.89C103.157 39.5447 102.905 39.2833 102.587 39.106C102.279 38.9287 101.943 38.84 101.579 38.84C101.225 38.84 100.889 38.9333 100.571 39.12C100.263 39.2973 100.011 39.5587 99.8154 39.904C99.6287 40.2493 99.5354 40.6553 99.5354 41.122C99.5354 41.5887 99.6287 41.9947 99.8154 42.34C100.011 42.6853 100.263 42.9513 100.571 43.138C100.889 43.3153 101.225 43.404 101.579 43.404C101.943 43.404 102.279 43.3107 102.587 43.124C102.905 42.9373 103.157 42.6713 103.343 42.326C103.539 41.9807 103.637 41.57 103.637 41.094ZM110.508 45.126C109.761 45.126 109.089 44.9627 108.492 44.636C107.894 44.3 107.423 43.8287 107.078 43.222C106.742 42.6153 106.574 41.9153 106.574 41.122C106.574 40.3287 106.746 39.6287 107.092 39.022C107.446 38.4153 107.927 37.9487 108.534 37.622C109.14 37.286 109.817 37.118 110.564 37.118C111.31 37.118 111.987 37.286 112.594 37.622C113.2 37.9487 113.676 38.4153 114.022 39.022C114.376 39.6287 114.554 40.3287 114.554 41.122C114.554 41.9153 114.372 42.6153 114.008 43.222C113.653 43.8287 113.168 44.3 112.552 44.636C111.945 44.9627 111.264 45.126 110.508 45.126ZM110.508 43.418C110.862 43.418 111.194 43.334 111.502 43.166C111.819 42.9887 112.071 42.7273 112.258 42.382C112.444 42.0367 112.538 41.6167 112.538 41.122C112.538 40.3847 112.342 39.82 111.95 39.428C111.567 39.0267 111.096 38.826 110.536 38.826C109.976 38.826 109.504 39.0267 109.122 39.428C108.748 39.82 108.562 40.3847 108.562 41.122C108.562 41.8593 108.744 42.4287 109.108 42.83C109.481 43.222 109.948 43.418 110.508 43.418ZM117.951 38.448C118.203 38.0373 118.53 37.7153 118.931 37.482C119.342 37.2487 119.809 37.132 120.331 37.132V39.19H119.813C119.197 39.19 118.731 39.3347 118.413 39.624C118.105 39.9133 117.951 40.4173 117.951 41.136V45H115.991V37.244H117.951V38.448ZM123.934 38.854V42.606C123.934 42.8673 123.994 43.0587 124.116 43.18C124.246 43.292 124.461 43.348 124.76 43.348H125.67V45H124.438C122.786 45 121.96 44.1973 121.96 42.592V38.854H121.036V37.244H121.96V35.326H123.934V37.244H125.67V38.854H123.934Z" fill="#050329"/>
</svg>
