<svg width="211" height="60" viewBox="0 0 211 60" fill="none" xmlns="http://www.w3.org/2000/svg">
<circle cx="30" cy="30" r="30" fill="#D5FFEB"/>
<g clip-path="url(#clip0_570_470)">
<mask id="path-2-outside-1_570_470" maskUnits="userSpaceOnUse" x="18.9541" y="18.9796" width="22" height="22" fill="black">
<rect fill="white" x="18.9541" y="18.9796" width="22" height="22"/>
<path d="M25.3923 19.9947C25.4255 19.9945 25.4588 19.9944 25.493 19.9942C25.5481 19.9942 25.5481 19.9942 25.6043 19.9942C25.6432 19.9941 25.682 19.9939 25.722 19.9938C25.8531 19.9933 25.9841 19.9932 26.1151 19.9931C26.2087 19.9928 26.3023 19.9925 26.3959 19.9923C26.6774 19.9915 26.9588 19.9911 27.2403 19.9908C27.3728 19.9906 27.5053 19.9904 27.6378 19.9902C28.0782 19.9895 28.5185 19.9889 28.9589 19.9887C29.0732 19.9886 29.1874 19.9885 29.3017 19.9884C29.3302 19.9884 29.3586 19.9884 29.3878 19.9884C29.8482 19.9881 30.3085 19.9871 30.7689 19.9858C31.2413 19.9845 31.7138 19.9838 32.1862 19.9837C32.4516 19.9836 32.7169 19.9832 32.9822 19.9823C33.2318 19.9813 33.4813 19.9812 33.7308 19.9816C33.8225 19.9816 33.9142 19.9813 34.0059 19.9808C34.1309 19.9801 34.2559 19.9804 34.3808 19.9809C34.4173 19.9805 34.4538 19.9801 34.4913 19.9796C34.6558 19.9813 34.7426 19.9856 34.8849 20.0744C35.0142 20.2135 35.0046 20.3028 35.0038 20.4898C35.0037 20.5406 35.0036 20.5915 35.0035 20.6439C35.0031 20.6978 35.0028 20.7517 35.0025 20.8056C35.0023 20.8598 35.0021 20.9141 35.0019 20.9683C35.0015 21.1012 35.0008 21.2342 35 21.3672C35.0583 21.3805 35.0583 21.3805 35.1177 21.3941C35.5634 21.497 36.0055 21.6114 36.4473 21.7297C36.5206 21.7493 36.5938 21.7688 36.6671 21.7883C36.8193 21.829 36.9715 21.8697 37.1237 21.9105C37.3175 21.9624 37.5114 22.0141 37.7053 22.0657C37.8561 22.1059 38.0069 22.1462 38.1577 22.1865C38.2291 22.2056 38.3006 22.2247 38.372 22.2437C39.4772 22.5379 39.4772 22.5379 39.6485 22.7343C39.8092 23.0559 39.5509 23.6491 39.4629 23.977C39.443 24.0525 39.423 24.128 39.4031 24.2034C39.2688 24.7113 39.1314 25.2183 38.9942 25.7254C38.9661 25.8295 38.938 25.9335 38.9099 26.0376C38.8911 26.1073 38.8723 26.1769 38.8534 26.2466C38.8441 26.2811 38.8348 26.3156 38.8252 26.3512C38.7687 26.5601 38.712 26.7689 38.6551 26.9777C38.6192 27.1096 38.5835 27.2415 38.5478 27.3734C38.531 27.4356 38.514 27.4977 38.497 27.5598C38.4736 27.6455 38.4504 27.7312 38.4273 27.817C38.4141 27.8653 38.4009 27.9137 38.3874 27.9635C38.3536 28.0904 38.3536 28.0904 38.3594 28.2422C38.4457 28.3073 38.5273 28.3598 38.6206 28.4131C38.6777 28.4472 38.7346 28.4814 38.7915 28.5157C38.8224 28.5343 38.8533 28.5528 38.8851 28.5719C39.0666 28.6832 39.244 28.8007 39.4214 28.9184C39.4564 28.9413 39.4914 28.9642 39.5275 28.9878C39.5607 29.0099 39.5939 29.032 39.6282 29.0547C39.6575 29.0741 39.6869 29.0935 39.7171 29.1135C39.9868 29.3172 39.9868 29.3172 40.0181 29.4537C40.0251 29.5529 40.0259 29.6505 40.0246 29.75C40.025 29.807 40.025 29.807 40.0254 29.8651C40.0261 29.9925 40.0254 30.1199 40.0247 30.2473C40.0249 30.3386 40.0252 30.43 40.0255 30.5213C40.0262 30.7695 40.0257 31.0176 40.025 31.2658C40.0244 31.4993 40.0246 31.7327 40.0248 31.9662C40.0251 32.4291 40.0245 32.892 40.0233 33.3548C40.0222 33.8034 40.0219 34.2519 40.0225 34.7005C40.0232 35.1892 40.0233 35.678 40.0227 36.1667C40.0223 36.4253 40.0221 36.6839 40.0225 36.9425C40.0228 37.1858 40.0223 37.4292 40.0213 37.6725C40.021 37.7617 40.021 37.8508 40.0213 37.9399C40.0229 38.5241 40.0119 38.995 39.6094 39.4531C39.5898 39.4768 39.5702 39.5004 39.55 39.5248C39.3367 39.7626 39.0264 39.94 38.711 40C38.6139 40.0037 38.5179 40.0054 38.4208 40.0052C38.3914 40.0053 38.3619 40.0054 38.3316 40.0055C38.2323 40.0057 38.133 40.0057 38.0337 40.0057C37.962 40.0058 37.8903 40.006 37.8186 40.0061C37.6211 40.0065 37.4237 40.0067 37.2262 40.0068C37.0134 40.0069 36.8006 40.0073 36.5879 40.0077C36.0737 40.0084 35.5596 40.0088 35.0455 40.0092C34.8035 40.0093 34.5614 40.0096 34.3194 40.0098C33.5149 40.0104 32.7103 40.011 31.9058 40.0113C31.697 40.0113 31.4882 40.0114 31.2793 40.0115C31.2534 40.0115 31.2275 40.0115 31.2007 40.0115C30.3598 40.0118 29.5188 40.0127 28.6779 40.014C27.7887 40.0154 26.8994 40.0161 26.0102 40.0163C25.5255 40.0163 25.0409 40.0167 24.5562 40.0177C24.1434 40.0185 23.7307 40.0188 23.3179 40.0185C23.1074 40.0183 22.8968 40.0184 22.6862 40.0191C22.4933 40.0198 22.3004 40.0198 22.1076 40.0192C22.0379 40.0191 21.9682 40.0192 21.8986 40.0197C21.3738 40.023 20.9536 39.9667 20.5469 39.6093C20.5232 39.5898 20.4996 39.5702 20.4752 39.55C20.2243 39.3249 20.0176 38.9743 19.9948 38.632C19.9946 38.6039 19.9944 38.5757 19.9942 38.5467C19.9939 38.5141 19.9936 38.4815 19.9933 38.4478C19.9932 38.4122 19.9931 38.3765 19.993 38.3398C19.9925 38.2827 19.9925 38.2827 19.9921 38.2245C19.9912 38.0967 19.9906 37.9689 19.99 37.8411C19.9894 37.7496 19.9889 37.6581 19.9883 37.5666C19.9832 36.7319 19.9806 35.8972 19.9786 35.0625C19.9783 34.9508 19.978 34.8392 19.9778 34.7275C19.9777 34.6998 19.9776 34.672 19.9775 34.6434C19.9764 34.1939 19.9738 33.7444 19.9708 33.2949C19.9677 32.8331 19.9659 32.3714 19.9654 31.9097C19.965 31.6505 19.9641 31.3914 19.9617 31.1322C19.9594 30.8884 19.9588 30.6446 19.9595 30.4008C19.9595 30.3114 19.9589 30.2219 19.9576 30.1325C19.9484 29.4571 19.9484 29.4571 20.0758 29.2544C20.1646 29.1735 20.2455 29.1179 20.3516 29.0625C20.401 29.0292 20.4503 28.9956 20.4993 28.9616C20.5475 28.9322 20.5959 28.9032 20.6445 28.8745C20.6983 28.8418 20.752 28.8091 20.8057 28.7764C20.8471 28.7512 20.8471 28.7512 20.8895 28.7255C21.0438 28.6304 21.1957 28.5314 21.3477 28.4326C21.3769 28.4136 21.4061 28.3946 21.4363 28.3751C21.5044 28.3308 21.5725 28.2865 21.6406 28.2422C21.6181 28.0346 21.5833 27.8404 21.5293 27.6382C21.522 27.6108 21.5148 27.5833 21.5073 27.5551C21.4833 27.4648 21.4591 27.3747 21.4348 27.2845C21.4177 27.2204 21.4006 27.1563 21.3836 27.0921C21.3474 26.9564 21.3111 26.8207 21.2747 26.6851C21.2276 26.5094 21.1807 26.3337 21.1339 26.158C20.9658 25.5274 20.7971 24.8971 20.6226 24.2683C20.6057 24.2073 20.6057 24.2073 20.5884 24.145C20.5387 23.9655 20.4886 23.7862 20.4376 23.607C20.4205 23.5457 20.4033 23.4843 20.3862 23.423C20.3786 23.3968 20.3709 23.3706 20.363 23.3436C20.3117 23.1573 20.2914 23.0036 20.3125 22.8125C20.4462 22.6155 20.5429 22.5458 20.7771 22.4809C20.804 22.4732 20.831 22.4655 20.8587 22.4575C20.9499 22.4318 21.0413 22.4073 21.1328 22.3828C21.2001 22.3642 21.2673 22.3455 21.3345 22.3268C21.5626 22.2637 21.7913 22.2026 22.02 22.1415C22.1038 22.1191 22.1877 22.0966 22.2716 22.0741C22.4459 22.0273 22.6202 21.9807 22.7946 21.9341C23.0183 21.8743 23.2421 21.8143 23.4658 21.7543C23.6382 21.708 23.8108 21.6618 23.9833 21.6157C24.0659 21.5936 24.1484 21.5714 24.231 21.5493C24.3457 21.5185 24.4604 21.4879 24.5751 21.4573C24.6093 21.4481 24.6435 21.4389 24.6787 21.4294C24.913 21.3672 24.913 21.3672 25 21.3672C24.9988 21.3172 24.9988 21.3172 24.9975 21.2663C24.9949 21.1421 24.9929 21.018 24.9914 20.8939C24.9907 20.8403 24.9896 20.7867 24.9882 20.7331C24.9863 20.6558 24.9855 20.5785 24.9848 20.5012C24.9835 20.4316 24.9835 20.4316 24.9823 20.3605C25.0035 20.2095 25.0505 20.1466 25.1563 20.039C25.2451 19.9946 25.2937 19.995 25.3923 19.9947ZM25.8594 20.8593C25.8286 22.9319 25.8286 22.9319 25.8079 25.0045C25.8058 25.2844 25.8037 25.5643 25.8015 25.8442C25.8012 25.8793 25.8009 25.9143 25.8006 25.9505C25.796 26.5157 25.7877 27.0807 25.778 27.6459C25.7681 28.2265 25.7623 28.807 25.7602 29.3878C25.7587 29.7457 25.7542 30.1034 25.7456 30.4613C25.74 30.7072 25.7383 30.953 25.7397 31.199C25.7404 31.3407 25.7394 31.4819 25.7337 31.6236C25.703 32.2188 25.703 32.2188 25.9622 32.7305C26.208 32.9474 26.4947 33.1034 26.7848 33.2525C26.9686 33.3489 27.1409 33.4608 27.3145 33.5742C27.3738 33.6115 27.4332 33.6487 27.4927 33.6857C27.667 33.7952 27.8383 33.909 28.0091 34.0238C28.2681 34.1978 28.5297 34.3678 28.7918 34.5372C28.9879 34.6644 29.1821 34.7936 29.3738 34.9275C29.411 34.9532 29.4481 34.9789 29.4864 35.0053C29.5573 35.0545 29.6277 35.1043 29.6978 35.1547C29.7295 35.1766 29.7613 35.1985 29.794 35.2211C29.8355 35.2505 29.8355 35.2505 29.8777 35.2804C29.9627 35.3226 29.9627 35.3226 30.0602 35.2847C30.143 35.2413 30.2204 35.1974 30.2976 35.1448C30.324 35.1269 30.3504 35.1091 30.3777 35.0907C30.4203 35.0615 30.4203 35.0615 30.4639 35.0317C30.5272 34.9889 30.5906 34.9462 30.654 34.9035C30.7042 34.8697 30.7042 34.8697 30.7554 34.8352C30.9323 34.7168 31.1107 34.6008 31.2891 34.4848C31.3656 34.435 31.4421 34.3852 31.5186 34.3354C31.5576 34.31 31.5966 34.2847 31.6368 34.2585C31.8466 34.1218 32.0561 33.9847 32.2656 33.8476C32.5173 33.683 32.769 33.5184 33.021 33.3543C33.0607 33.3284 33.1004 33.3025 33.1413 33.2759C33.2152 33.2278 33.289 33.1797 33.3629 33.1317C33.4292 33.0885 33.4949 33.0444 33.5597 32.9991C33.6719 32.9297 33.6719 32.9297 33.7927 32.8873C33.944 32.8226 34.0551 32.7585 34.1406 32.6172C34.2292 32.2857 34.2011 31.9272 34.195 31.5868C34.193 31.4428 34.1937 31.2988 34.1941 31.1547C34.1943 30.9053 34.1928 30.656 34.1902 30.4066C34.1864 30.0461 34.1852 29.6856 34.1846 29.325C34.1836 28.74 34.1804 28.1551 34.176 27.5701C34.1717 27.002 34.1684 26.4338 34.1664 25.8657C34.1663 25.8303 34.1661 25.7949 34.166 25.7584C34.165 25.4816 34.1641 25.2047 34.1632 24.9279C34.1588 23.5717 34.1494 22.2156 34.1406 20.8593C31.4078 20.8593 28.675 20.8593 25.8594 20.8593ZM35 22.2656C35 22.5363 35 22.807 35 23.0859C35.2194 23.159 35.4315 23.227 35.6539 23.2859C35.709 23.3008 35.7641 23.3158 35.8192 23.3307C35.9044 23.3538 35.9897 23.3767 36.075 23.3991C36.1586 23.4211 36.2419 23.4438 36.3252 23.4666C36.3746 23.4798 36.4239 23.4929 36.4747 23.5065C36.6078 23.557 36.6719 23.5984 36.7578 23.7109C36.7874 23.8636 36.7974 23.9954 36.7945 24.1504C36.7972 24.2693 36.8097 24.3158 36.875 24.414C36.9747 24.4779 36.9747 24.4779 37.0899 24.5312C37.2877 24.627 37.2877 24.627 37.3572 24.7143C37.4497 25.0403 37.3287 25.3654 37.2431 25.6805C37.2285 25.7349 37.214 25.7892 37.1995 25.8436C37.1692 25.957 37.1385 26.0703 37.1077 26.1836C37.0683 26.3285 37.0297 26.4736 36.9914 26.6188C36.9616 26.7309 36.9314 26.8429 36.9011 26.9548C36.8866 27.0083 36.8724 27.0618 36.8583 27.1154C36.8385 27.1902 36.818 27.2648 36.7975 27.3394C36.786 27.3818 36.7746 27.4243 36.7628 27.468C36.7136 27.5909 36.666 27.6526 36.5625 27.7343C36.3607 27.7799 36.2034 27.7981 36.0156 27.6953C35.8475 27.3956 35.997 27.0055 36.0829 26.6974C36.0933 26.6593 36.1036 26.6212 36.1143 26.582C36.1471 26.4615 36.1802 26.3411 36.2134 26.2207C36.2573 26.0614 36.3008 25.9021 36.3442 25.7428C36.3543 25.7064 36.3644 25.6701 36.3749 25.6326C36.3841 25.5986 36.3934 25.5646 36.4029 25.5295C36.4111 25.4998 36.4193 25.47 36.4278 25.4394C36.4473 25.3416 36.4525 25.2557 36.4453 25.1562C36.3819 25.0665 36.3819 25.0665 36.2964 24.9853C36.1168 24.794 36.035 24.6474 35.9912 24.3847C35.9523 24.2572 35.9523 24.2572 35.8696 24.2187C35.7759 24.1867 35.6824 24.1632 35.586 24.1406C35.5103 24.1187 35.4346 24.0967 35.3589 24.0747C35.2282 24.0379 35.1383 24.0234 35 24.0234C35 26.666 35 29.3086 35 32.0312C35.1562 31.9687 35.2662 31.912 35.403 31.8197C35.4426 31.7932 35.4821 31.7667 35.5229 31.7393C35.5638 31.7116 35.6048 31.6838 35.647 31.6552C35.7276 31.601 35.8082 31.5468 35.8888 31.4926C35.9487 31.4522 35.9487 31.4522 36.0097 31.4109C36.0946 31.3538 36.1796 31.297 36.265 31.2407C36.3071 31.2128 36.3493 31.185 36.3927 31.1563C36.4309 31.1311 36.4691 31.106 36.5085 31.0801C36.6786 30.9623 36.7038 30.8735 36.7562 30.6754C36.7635 30.6481 36.7707 30.6209 36.7783 30.5928C36.8027 30.501 36.8268 30.4091 36.8509 30.3172C36.8684 30.2515 36.8858 30.1857 36.9033 30.12C36.9411 29.9781 36.9786 29.8362 37.0161 29.6942C37.0755 29.4689 37.1353 29.2438 37.1951 29.0187C37.2157 28.9415 37.2362 28.8643 37.2567 28.7871C37.267 28.7484 37.2773 28.7097 37.2879 28.6698C37.3197 28.5503 37.3514 28.4307 37.3831 28.3112C37.6066 27.4693 37.8332 26.6282 38.0602 25.7873C38.1006 25.6377 38.1409 25.4881 38.1812 25.3384C38.2195 25.1965 38.2578 25.0546 38.2961 24.9127C38.3136 24.8476 38.3312 24.7825 38.3487 24.7174C38.3651 24.6567 38.3815 24.596 38.3979 24.5353C38.4135 24.4773 38.4292 24.4192 38.4448 24.3612C38.4857 24.2092 38.5282 24.0577 38.5724 23.9066C38.5816 23.8746 38.5909 23.8426 38.6004 23.8096C38.6182 23.7483 38.6363 23.687 38.6547 23.6259C38.6965 23.4812 38.7167 23.3859 38.6719 23.2422C38.1989 23.1148 37.7259 22.9874 37.2529 22.8602C37.0333 22.8011 36.8137 22.742 36.5941 22.6828C36.3824 22.6258 36.1707 22.5688 35.9589 22.5119C35.8779 22.4901 35.797 22.4683 35.716 22.4464C35.603 22.416 35.49 22.3856 35.377 22.3552C35.3263 22.3415 35.3263 22.3415 35.2745 22.3276C35.139 22.2845 35.139 22.2845 35 22.2656ZM24.6693 22.3426C24.6387 22.3508 24.6082 22.359 24.5767 22.3674C24.475 22.3947 24.3733 22.4221 24.2716 22.4495C24.2008 22.4684 24.1301 22.4874 24.0594 22.5064C23.8724 22.5566 23.6854 22.6069 23.4985 22.6571C23.347 22.6978 23.1955 22.7385 23.044 22.7792C22.8624 22.828 22.6807 22.8767 22.4991 22.9255C22.4648 22.9347 22.4306 22.9439 22.3953 22.9534C22.0394 23.049 21.6835 23.1447 21.3281 23.2422C21.2697 23.3956 21.3091 23.5085 21.3516 23.6633C21.3624 23.7033 21.3624 23.7033 21.3735 23.744C21.3978 23.8335 21.4226 23.9229 21.4475 24.0123C21.465 24.0766 21.4826 24.1409 21.5001 24.2052C21.538 24.3442 21.5761 24.4831 21.6144 24.622C21.6753 24.8428 21.7357 25.0637 21.7959 25.2846C21.8167 25.3608 21.8375 25.4369 21.8583 25.513C21.8687 25.5513 21.8791 25.5895 21.8899 25.6289C21.9222 25.7473 21.9546 25.8656 21.987 25.984C22.2241 26.8507 22.4571 27.7184 22.69 28.5863C22.7429 28.783 22.7957 28.9797 22.8486 29.1764C23.0064 29.7639 23.0064 29.7639 23.046 29.9115C23.0624 29.9724 23.0788 30.0332 23.0953 30.094C23.1338 30.2363 23.1711 30.3787 23.2059 30.522C23.2159 30.5624 23.2159 30.5624 23.2261 30.6035C23.2441 30.6758 23.2614 30.7482 23.2788 30.8206C23.3518 31.026 23.4893 31.1055 23.6719 31.2109C23.7186 31.24 23.7653 31.2692 23.8118 31.2986C23.8901 31.348 23.9684 31.3971 24.0473 31.4455C24.2792 31.5879 24.5027 31.7408 24.7245 31.8983C24.8501 31.9972 24.8501 31.9972 25 32.0312C25 29.3886 25 26.7461 25 24.0234C24.7818 24.0507 24.5891 24.0805 24.3799 24.1357C24.354 24.142 24.3281 24.1483 24.3015 24.1548C24.155 24.1932 24.1105 24.2053 24.0235 24.3359C24.0067 24.3958 23.9914 24.4561 23.9771 24.5166C23.9081 24.7583 23.7674 24.973 23.5677 25.1289C23.5052 25.1932 23.5052 25.1932 23.5226 25.2859C23.5327 25.3214 23.5428 25.357 23.5532 25.3937C23.5642 25.4341 23.5753 25.4745 23.5867 25.5162C23.5994 25.5599 23.6121 25.6036 23.6252 25.6486C23.6376 25.6937 23.65 25.7387 23.6628 25.7851C23.7026 25.9297 23.7433 26.074 23.7842 26.2182C23.8248 26.3618 23.8651 26.5054 23.9048 26.6492C23.9295 26.7388 23.9547 26.8283 23.9806 26.9175C24.0463 27.1557 24.0805 27.3358 24.0235 27.5781C23.9433 27.6938 23.8904 27.7266 23.7573 27.771C23.5952 27.7741 23.5 27.7358 23.3594 27.6562C23.2609 27.5181 23.2138 27.3845 23.1709 27.2214C23.1583 27.1739 23.1456 27.1264 23.1326 27.0775C23.1193 27.026 23.106 26.9745 23.0927 26.923C23.0787 26.8698 23.0648 26.8165 23.0509 26.7632C23.0217 26.6517 22.9929 26.5402 22.9642 26.4286C22.9275 26.2862 22.8901 26.144 22.8524 26.0019C22.8234 25.892 22.7949 25.7819 22.7665 25.6718C22.753 25.6194 22.7392 25.567 22.7252 25.5146C22.587 24.9942 22.587 24.9942 22.6563 24.7265C22.7417 24.6386 22.7417 24.6386 22.8516 24.5703C23.0305 24.4572 23.0305 24.4572 23.1641 24.2968C23.1737 24.2133 23.1798 24.1294 23.1836 24.0454C23.1976 23.7386 23.1976 23.7386 23.2813 23.6328C23.4784 23.5387 23.6771 23.4764 23.8877 23.4201C23.9184 23.4117 23.9491 23.4032 23.9808 23.3946C24.078 23.368 24.1752 23.3417 24.2725 23.3154C24.3706 23.2888 24.4686 23.2622 24.5667 23.2354C24.6275 23.2188 24.6883 23.2023 24.7491 23.1859C24.8857 23.1575 24.8857 23.1575 25 23.0859C25.0034 23.0249 25.0042 22.9637 25.0038 22.9026C25.0037 22.8658 25.0036 22.8289 25.0035 22.7909C25.0031 22.7521 25.0028 22.7133 25.0025 22.6733C25.0023 22.6344 25.0021 22.5954 25.0019 22.5553C25.0015 22.4587 25.0008 22.3622 25 22.2656C24.8914 22.2656 24.7745 22.3143 24.6693 22.3426ZM38.0469 29.1015C37.9999 29.2609 37.9537 29.4204 37.9077 29.58C37.8944 29.6253 37.881 29.6706 37.8672 29.7172C37.8548 29.7608 37.8423 29.8043 37.8295 29.8492C37.8178 29.8893 37.8061 29.9294 37.7941 29.9707C37.764 30.0868 37.764 30.0868 37.8125 30.2343C38.1219 30.0281 38.4313 29.8218 38.75 29.6093C38.6015 29.4608 38.4824 29.3579 38.3106 29.2456C38.2693 29.2183 38.228 29.1911 38.1854 29.163C38.0999 29.0981 38.0999 29.0981 38.0469 29.1015ZM21.5772 29.3286C21.5496 29.3462 21.522 29.3639 21.4935 29.3821C21.4675 29.3993 21.4414 29.4166 21.4145 29.4343C21.3905 29.4501 21.3664 29.4658 21.3416 29.4821C21.3243 29.4983 21.3069 29.5145 21.2891 29.5312C21.2891 29.5699 21.2891 29.6086 21.2891 29.6484C21.3741 29.7202 21.3741 29.7202 21.4856 29.788C21.5261 29.8141 21.5667 29.8401 21.6084 29.867C21.6727 29.9074 21.6727 29.9074 21.7383 29.9487C21.7812 29.9761 21.824 30.0035 21.8682 30.0318C21.9744 30.0997 22.0808 30.1672 22.1875 30.2343C22.2385 30.0919 22.2139 30.0005 22.1706 29.8578C22.1581 29.816 22.1457 29.7742 22.1328 29.7311C22.1128 29.666 22.1128 29.666 22.0923 29.5996C22.0791 29.5556 22.0659 29.5116 22.0522 29.4662C22.0196 29.3576 21.9865 29.249 21.9531 29.1406C21.8095 29.1406 21.6939 29.2512 21.5772 29.3286ZM38.9421 30.518C38.9004 30.5454 38.8588 30.5727 38.8158 30.6009C38.7703 30.6309 38.7247 30.6609 38.6792 30.6909C38.6327 30.7214 38.5861 30.752 38.5396 30.7826C38.4689 30.8289 38.3982 30.8753 38.3276 30.9217C38.1254 31.0545 37.9227 31.1866 37.7197 31.3183C37.6886 31.3386 37.6574 31.3588 37.6253 31.3797C37.5629 31.4202 37.5005 31.4607 37.4382 31.5012C37.3405 31.5646 37.2429 31.6281 37.1453 31.6916C36.8136 31.9073 36.4817 32.1227 36.1495 32.3375C35.9053 32.4955 35.6613 32.6538 35.4176 32.8125C35.2447 32.9251 35.0716 33.0372 34.8981 33.1488C34.8624 33.1718 34.8268 33.1948 34.79 33.2184C34.7215 33.2626 34.653 33.3066 34.5843 33.3505C34.5535 33.3705 34.5226 33.3904 34.4908 33.4109C34.4637 33.4283 34.4365 33.4458 34.4086 33.4637C34.3372 33.5147 34.2799 33.5702 34.2188 33.6328C34.2501 33.6613 34.2814 33.6899 34.3137 33.7193C34.6113 33.9916 34.9008 34.2704 35.1852 34.5564C35.2283 34.5995 35.2714 34.6427 35.3146 34.6859C35.4062 34.7776 35.4978 34.8695 35.5893 34.9613C35.734 35.1065 35.8788 35.2516 36.0236 35.3966C36.3303 35.7037 36.6369 36.011 36.9434 36.3183C37.276 36.6518 37.6087 36.9853 37.9415 37.3186C38.0856 37.4629 38.2297 37.6073 38.3736 37.7517C38.4627 37.8411 38.5518 37.9304 38.6409 38.0196C38.6824 38.0611 38.7238 38.1027 38.7652 38.1443C38.8215 38.2008 38.8778 38.2572 38.9342 38.3136C38.9658 38.3452 38.9973 38.3769 39.0299 38.4095C39.09 38.481 39.09 38.481 39.1406 38.4765C39.1855 38.0693 39.185 37.6644 39.1841 37.2553C39.1841 37.1802 39.1841 37.1051 39.1842 37.03C39.1842 36.8274 39.1839 36.6247 39.1837 36.4221C39.1834 36.2099 39.1834 35.9976 39.1834 35.7854C39.1832 35.3841 39.1829 34.9828 39.1825 34.5815C39.1821 34.1243 39.1819 33.6672 39.1817 33.2101C39.1813 32.2702 39.1806 31.3304 39.1797 30.3906C39.0964 30.3906 39.0076 30.4749 38.9421 30.518ZM20.8594 30.4297C20.8594 33.0851 20.8594 35.7406 20.8594 38.4765C21.0357 38.3254 21.1965 38.1817 21.3561 38.0165C21.4295 37.9451 21.504 37.879 21.5819 37.8125C21.7843 37.6358 21.9731 37.4461 22.1626 37.2558C22.2023 37.2161 22.242 37.1765 22.2817 37.1368C22.3885 37.03 22.4953 36.923 22.602 36.816C22.7138 36.7039 22.8258 36.5919 22.9378 36.4799C23.1493 36.2682 23.3608 36.0564 23.5723 35.8446C23.8132 35.6032 24.0542 35.362 24.2953 35.1207C24.7907 34.6249 25.286 34.1289 25.7813 33.6328C25.6373 33.4848 25.4941 33.3719 25.3174 33.2666C25.049 33.1026 24.7846 32.9335 24.5215 32.7612C24.4832 32.7362 24.4449 32.7111 24.4055 32.6853C24.3284 32.6349 24.2513 32.5844 24.1742 32.5339C24.0045 32.423 23.8346 32.3125 23.6646 32.2021C23.6007 32.1606 23.5368 32.1191 23.4729 32.0776C23.4414 32.0572 23.41 32.0367 23.3776 32.0157C23.2791 31.9517 23.1807 31.8877 23.0823 31.8237C22.7512 31.6084 22.4201 31.3931 22.0883 31.179C21.9343 31.0796 21.7809 30.9795 21.6278 30.8787C21.5926 30.8556 21.5574 30.8325 21.5211 30.8087C21.4526 30.7637 21.3842 30.7186 21.3159 30.6733C21.2847 30.6529 21.2535 30.6324 21.2213 30.6114C21.1939 30.5933 21.1664 30.5751 21.1381 30.5564C21.0394 30.4961 21.0394 30.4961 20.8594 30.4297ZM26.3098 34.2662C26.2746 34.3019 26.2746 34.3019 26.2386 34.3383C26.2142 34.3627 26.1898 34.3871 26.1647 34.4123C26.1129 34.4642 26.0612 34.5162 26.0095 34.5684C25.9314 34.6472 25.853 34.7257 25.7745 34.8042C25.7241 34.8548 25.6737 34.9054 25.6233 34.956C25.6002 34.9792 25.5771 35.0024 25.5533 35.0262C25.4408 35.1399 25.3325 35.2553 25.2286 35.3769C25.0682 35.5609 24.8973 35.7329 24.7244 35.905C24.69 35.9394 24.6557 35.9737 24.6203 36.0091C24.5271 36.1023 24.4338 36.1954 24.3405 36.2884C24.2426 36.3861 24.1449 36.4838 24.0471 36.5815C23.8624 36.7661 23.6775 36.9507 23.4927 37.1351C23.282 37.3454 23.0715 37.5557 22.8609 37.766C22.4283 38.1983 21.9954 38.6304 21.5625 39.0625C21.5754 39.0882 21.5883 39.114 21.6016 39.1406C27.1703 39.1406 32.7391 39.1406 38.4766 39.1406C38.2868 38.9181 38.2868 38.9181 38.0873 38.7078C38.0589 38.6794 38.0304 38.651 38.0012 38.6217C37.9708 38.5915 37.9404 38.5613 37.9091 38.5302C37.8765 38.4977 37.8439 38.4651 37.8103 38.4316C37.7398 38.3613 37.6694 38.2911 37.5989 38.2209C37.4873 38.1098 37.3759 37.9986 37.2645 37.8874C37.0282 37.6515 36.7917 37.4158 36.5552 37.1801C36.2994 36.9252 36.0437 36.6703 35.7881 36.4151C35.6596 36.2869 35.531 36.1588 35.4023 36.0307C35.3351 35.9636 35.268 35.8966 35.2008 35.8296C35.1549 35.7839 35.1549 35.7839 35.108 35.7374C35.0799 35.7093 35.0518 35.6812 35.0229 35.6523C34.9985 35.628 34.9742 35.6037 34.9491 35.5787C34.8828 35.5078 34.8828 35.5078 34.8204 35.4206C34.8023 35.3978 34.7842 35.375 34.7656 35.3515C34.7399 35.3515 34.7141 35.3515 34.6875 35.3515C34.6769 35.3282 34.6662 35.3048 34.6553 35.2808C34.6104 35.1972 34.5671 35.1435 34.5001 35.0771C34.4673 35.0443 34.4673 35.0443 34.4338 35.0108C34.4103 34.9877 34.3867 34.9646 34.3625 34.9408C34.3383 34.9167 34.3142 34.8926 34.2893 34.8679C34.2122 34.7913 34.1349 34.715 34.0576 34.6386C34.0053 34.5867 33.9529 34.5347 33.9006 34.4827C33.7725 34.3554 33.6441 34.2284 33.5156 34.1015C33.3394 34.1686 33.1889 34.2591 33.0322 34.3628C33.0035 34.3816 32.9748 34.4004 32.9452 34.4197C32.8822 34.461 32.8193 34.5022 32.7564 34.5436C32.6539 34.6109 32.5513 34.6778 32.4486 34.7447C32.1078 34.9666 31.7673 35.189 31.4271 35.4117C31.2755 35.5109 31.1239 35.6099 30.9722 35.7089C30.8358 35.7979 30.6999 35.8874 30.5647 35.9781C30.5271 36.0031 30.5271 36.0031 30.4886 36.0286C30.4263 36.07 30.3642 36.1117 30.3021 36.1535C30.1812 36.2185 30.0978 36.2394 29.961 36.25C29.4676 36.0895 29.0227 35.7251 28.5986 35.437C28.4573 35.3414 28.3157 35.2459 28.1742 35.1506C28.1228 35.116 28.1228 35.116 28.0705 35.0806C27.8102 34.9058 27.546 34.7383 27.2793 34.5736C27.0985 34.461 26.9225 34.3422 26.7471 34.2213C26.5291 34.0733 26.4975 34.0796 26.3098 34.2662Z"/>
</mask>
<path d="M25.3923 19.9947C25.4255 19.9945 25.4588 19.9944 25.493 19.9942C25.5481 19.9942 25.5481 19.9942 25.6043 19.9942C25.6432 19.9941 25.682 19.9939 25.722 19.9938C25.8531 19.9933 25.9841 19.9932 26.1151 19.9931C26.2087 19.9928 26.3023 19.9925 26.3959 19.9923C26.6774 19.9915 26.9588 19.9911 27.2403 19.9908C27.3728 19.9906 27.5053 19.9904 27.6378 19.9902C28.0782 19.9895 28.5185 19.9889 28.9589 19.9887C29.0732 19.9886 29.1874 19.9885 29.3017 19.9884C29.3302 19.9884 29.3586 19.9884 29.3878 19.9884C29.8482 19.9881 30.3085 19.9871 30.7689 19.9858C31.2413 19.9845 31.7138 19.9838 32.1862 19.9837C32.4516 19.9836 32.7169 19.9832 32.9822 19.9823C33.2318 19.9813 33.4813 19.9812 33.7308 19.9816C33.8225 19.9816 33.9142 19.9813 34.0059 19.9808C34.1309 19.9801 34.2559 19.9804 34.3808 19.9809C34.4173 19.9805 34.4538 19.9801 34.4913 19.9796C34.6558 19.9813 34.7426 19.9856 34.8849 20.0744C35.0142 20.2135 35.0046 20.3028 35.0038 20.4898C35.0037 20.5406 35.0036 20.5915 35.0035 20.6439C35.0031 20.6978 35.0028 20.7517 35.0025 20.8056C35.0023 20.8598 35.0021 20.9141 35.0019 20.9683C35.0015 21.1012 35.0008 21.2342 35 21.3672C35.0583 21.3805 35.0583 21.3805 35.1177 21.3941C35.5634 21.497 36.0055 21.6114 36.4473 21.7297C36.5206 21.7493 36.5938 21.7688 36.6671 21.7883C36.8193 21.829 36.9715 21.8697 37.1237 21.9105C37.3175 21.9624 37.5114 22.0141 37.7053 22.0657C37.8561 22.1059 38.0069 22.1462 38.1577 22.1865C38.2291 22.2056 38.3006 22.2247 38.372 22.2437C39.4772 22.5379 39.4772 22.5379 39.6485 22.7343C39.8092 23.0559 39.5509 23.6491 39.4629 23.977C39.443 24.0525 39.423 24.128 39.4031 24.2034C39.2688 24.7113 39.1314 25.2183 38.9942 25.7254C38.9661 25.8295 38.938 25.9335 38.9099 26.0376C38.8911 26.1073 38.8723 26.1769 38.8534 26.2466C38.8441 26.2811 38.8348 26.3156 38.8252 26.3512C38.7687 26.5601 38.712 26.7689 38.6551 26.9777C38.6192 27.1096 38.5835 27.2415 38.5478 27.3734C38.531 27.4356 38.514 27.4977 38.497 27.5598C38.4736 27.6455 38.4504 27.7312 38.4273 27.817C38.4141 27.8653 38.4009 27.9137 38.3874 27.9635C38.3536 28.0904 38.3536 28.0904 38.3594 28.2422C38.4457 28.3073 38.5273 28.3598 38.6206 28.4131C38.6777 28.4472 38.7346 28.4814 38.7915 28.5157C38.8224 28.5343 38.8533 28.5528 38.8851 28.5719C39.0666 28.6832 39.244 28.8007 39.4214 28.9184C39.4564 28.9413 39.4914 28.9642 39.5275 28.9878C39.5607 29.0099 39.5939 29.032 39.6282 29.0547C39.6575 29.0741 39.6869 29.0935 39.7171 29.1135C39.9868 29.3172 39.9868 29.3172 40.0181 29.4537C40.0251 29.5529 40.0259 29.6505 40.0246 29.75C40.025 29.807 40.025 29.807 40.0254 29.8651C40.0261 29.9925 40.0254 30.1199 40.0247 30.2473C40.0249 30.3386 40.0252 30.43 40.0255 30.5213C40.0262 30.7695 40.0257 31.0176 40.025 31.2658C40.0244 31.4993 40.0246 31.7327 40.0248 31.9662C40.0251 32.4291 40.0245 32.892 40.0233 33.3548C40.0222 33.8034 40.0219 34.2519 40.0225 34.7005C40.0232 35.1892 40.0233 35.678 40.0227 36.1667C40.0223 36.4253 40.0221 36.6839 40.0225 36.9425C40.0228 37.1858 40.0223 37.4292 40.0213 37.6725C40.021 37.7617 40.021 37.8508 40.0213 37.9399C40.0229 38.5241 40.0119 38.995 39.6094 39.4531C39.5898 39.4768 39.5702 39.5004 39.55 39.5248C39.3367 39.7626 39.0264 39.94 38.711 40C38.6139 40.0037 38.5179 40.0054 38.4208 40.0052C38.3914 40.0053 38.3619 40.0054 38.3316 40.0055C38.2323 40.0057 38.133 40.0057 38.0337 40.0057C37.962 40.0058 37.8903 40.006 37.8186 40.0061C37.6211 40.0065 37.4237 40.0067 37.2262 40.0068C37.0134 40.0069 36.8006 40.0073 36.5879 40.0077C36.0737 40.0084 35.5596 40.0088 35.0455 40.0092C34.8035 40.0093 34.5614 40.0096 34.3194 40.0098C33.5149 40.0104 32.7103 40.011 31.9058 40.0113C31.697 40.0113 31.4882 40.0114 31.2793 40.0115C31.2534 40.0115 31.2275 40.0115 31.2007 40.0115C30.3598 40.0118 29.5188 40.0127 28.6779 40.014C27.7887 40.0154 26.8994 40.0161 26.0102 40.0163C25.5255 40.0163 25.0409 40.0167 24.5562 40.0177C24.1434 40.0185 23.7307 40.0188 23.3179 40.0185C23.1074 40.0183 22.8968 40.0184 22.6862 40.0191C22.4933 40.0198 22.3004 40.0198 22.1076 40.0192C22.0379 40.0191 21.9682 40.0192 21.8986 40.0197C21.3738 40.023 20.9536 39.9667 20.5469 39.6093C20.5232 39.5898 20.4996 39.5702 20.4752 39.55C20.2243 39.3249 20.0176 38.9743 19.9948 38.632C19.9946 38.6039 19.9944 38.5757 19.9942 38.5467C19.9939 38.5141 19.9936 38.4815 19.9933 38.4478C19.9932 38.4122 19.9931 38.3765 19.993 38.3398C19.9925 38.2827 19.9925 38.2827 19.9921 38.2245C19.9912 38.0967 19.9906 37.9689 19.99 37.8411C19.9894 37.7496 19.9889 37.6581 19.9883 37.5666C19.9832 36.7319 19.9806 35.8972 19.9786 35.0625C19.9783 34.9508 19.978 34.8392 19.9778 34.7275C19.9777 34.6998 19.9776 34.672 19.9775 34.6434C19.9764 34.1939 19.9738 33.7444 19.9708 33.2949C19.9677 32.8331 19.9659 32.3714 19.9654 31.9097C19.965 31.6505 19.9641 31.3914 19.9617 31.1322C19.9594 30.8884 19.9588 30.6446 19.9595 30.4008C19.9595 30.3114 19.9589 30.2219 19.9576 30.1325C19.9484 29.4571 19.9484 29.4571 20.0758 29.2544C20.1646 29.1735 20.2455 29.1179 20.3516 29.0625C20.401 29.0292 20.4503 28.9956 20.4993 28.9616C20.5475 28.9322 20.5959 28.9032 20.6445 28.8745C20.6983 28.8418 20.752 28.8091 20.8057 28.7764C20.8471 28.7512 20.8471 28.7512 20.8895 28.7255C21.0438 28.6304 21.1957 28.5314 21.3477 28.4326C21.3769 28.4136 21.4061 28.3946 21.4363 28.3751C21.5044 28.3308 21.5725 28.2865 21.6406 28.2422C21.6181 28.0346 21.5833 27.8404 21.5293 27.6382C21.522 27.6108 21.5148 27.5833 21.5073 27.5551C21.4833 27.4648 21.4591 27.3747 21.4348 27.2845C21.4177 27.2204 21.4006 27.1563 21.3836 27.0921C21.3474 26.9564 21.3111 26.8207 21.2747 26.6851C21.2276 26.5094 21.1807 26.3337 21.1339 26.158C20.9658 25.5274 20.7971 24.8971 20.6226 24.2683C20.6057 24.2073 20.6057 24.2073 20.5884 24.145C20.5387 23.9655 20.4886 23.7862 20.4376 23.607C20.4205 23.5457 20.4033 23.4843 20.3862 23.423C20.3786 23.3968 20.3709 23.3706 20.363 23.3436C20.3117 23.1573 20.2914 23.0036 20.3125 22.8125C20.4462 22.6155 20.5429 22.5458 20.7771 22.4809C20.804 22.4732 20.831 22.4655 20.8587 22.4575C20.9499 22.4318 21.0413 22.4073 21.1328 22.3828C21.2001 22.3642 21.2673 22.3455 21.3345 22.3268C21.5626 22.2637 21.7913 22.2026 22.02 22.1415C22.1038 22.1191 22.1877 22.0966 22.2716 22.0741C22.4459 22.0273 22.6202 21.9807 22.7946 21.9341C23.0183 21.8743 23.2421 21.8143 23.4658 21.7543C23.6382 21.708 23.8108 21.6618 23.9833 21.6157C24.0659 21.5936 24.1484 21.5714 24.231 21.5493C24.3457 21.5185 24.4604 21.4879 24.5751 21.4573C24.6093 21.4481 24.6435 21.4389 24.6787 21.4294C24.913 21.3672 24.913 21.3672 25 21.3672C24.9988 21.3172 24.9988 21.3172 24.9975 21.2663C24.9949 21.1421 24.9929 21.018 24.9914 20.8939C24.9907 20.8403 24.9896 20.7867 24.9882 20.7331C24.9863 20.6558 24.9855 20.5785 24.9848 20.5012C24.9835 20.4316 24.9835 20.4316 24.9823 20.3605C25.0035 20.2095 25.0505 20.1466 25.1563 20.039C25.2451 19.9946 25.2937 19.995 25.3923 19.9947ZM25.8594 20.8593C25.8286 22.9319 25.8286 22.9319 25.8079 25.0045C25.8058 25.2844 25.8037 25.5643 25.8015 25.8442C25.8012 25.8793 25.8009 25.9143 25.8006 25.9505C25.796 26.5157 25.7877 27.0807 25.778 27.6459C25.7681 28.2265 25.7623 28.807 25.7602 29.3878C25.7587 29.7457 25.7542 30.1034 25.7456 30.4613C25.74 30.7072 25.7383 30.953 25.7397 31.199C25.7404 31.3407 25.7394 31.4819 25.7337 31.6236C25.703 32.2188 25.703 32.2188 25.9622 32.7305C26.208 32.9474 26.4947 33.1034 26.7848 33.2525C26.9686 33.3489 27.1409 33.4608 27.3145 33.5742C27.3738 33.6115 27.4332 33.6487 27.4927 33.6857C27.667 33.7952 27.8383 33.909 28.0091 34.0238C28.2681 34.1978 28.5297 34.3678 28.7918 34.5372C28.9879 34.6644 29.1821 34.7936 29.3738 34.9275C29.411 34.9532 29.4481 34.9789 29.4864 35.0053C29.5573 35.0545 29.6277 35.1043 29.6978 35.1547C29.7295 35.1766 29.7613 35.1985 29.794 35.2211C29.8355 35.2505 29.8355 35.2505 29.8777 35.2804C29.9627 35.3226 29.9627 35.3226 30.0602 35.2847C30.143 35.2413 30.2204 35.1974 30.2976 35.1448C30.324 35.1269 30.3504 35.1091 30.3777 35.0907C30.4203 35.0615 30.4203 35.0615 30.4639 35.0317C30.5272 34.9889 30.5906 34.9462 30.654 34.9035C30.7042 34.8697 30.7042 34.8697 30.7554 34.8352C30.9323 34.7168 31.1107 34.6008 31.2891 34.4848C31.3656 34.435 31.4421 34.3852 31.5186 34.3354C31.5576 34.31 31.5966 34.2847 31.6368 34.2585C31.8466 34.1218 32.0561 33.9847 32.2656 33.8476C32.5173 33.683 32.769 33.5184 33.021 33.3543C33.0607 33.3284 33.1004 33.3025 33.1413 33.2759C33.2152 33.2278 33.289 33.1797 33.3629 33.1317C33.4292 33.0885 33.4949 33.0444 33.5597 32.9991C33.6719 32.9297 33.6719 32.9297 33.7927 32.8873C33.944 32.8226 34.0551 32.7585 34.1406 32.6172C34.2292 32.2857 34.2011 31.9272 34.195 31.5868C34.193 31.4428 34.1937 31.2988 34.1941 31.1547C34.1943 30.9053 34.1928 30.656 34.1902 30.4066C34.1864 30.0461 34.1852 29.6856 34.1846 29.325C34.1836 28.74 34.1804 28.1551 34.176 27.5701C34.1717 27.002 34.1684 26.4338 34.1664 25.8657C34.1663 25.8303 34.1661 25.7949 34.166 25.7584C34.165 25.4816 34.1641 25.2047 34.1632 24.9279C34.1588 23.5717 34.1494 22.2156 34.1406 20.8593C31.4078 20.8593 28.675 20.8593 25.8594 20.8593ZM35 22.2656C35 22.5363 35 22.807 35 23.0859C35.2194 23.159 35.4315 23.227 35.6539 23.2859C35.709 23.3008 35.7641 23.3158 35.8192 23.3307C35.9044 23.3538 35.9897 23.3767 36.075 23.3991C36.1586 23.4211 36.2419 23.4438 36.3252 23.4666C36.3746 23.4798 36.4239 23.4929 36.4747 23.5065C36.6078 23.557 36.6719 23.5984 36.7578 23.7109C36.7874 23.8636 36.7974 23.9954 36.7945 24.1504C36.7972 24.2693 36.8097 24.3158 36.875 24.414C36.9747 24.4779 36.9747 24.4779 37.0899 24.5312C37.2877 24.627 37.2877 24.627 37.3572 24.7143C37.4497 25.0403 37.3287 25.3654 37.2431 25.6805C37.2285 25.7349 37.214 25.7892 37.1995 25.8436C37.1692 25.957 37.1385 26.0703 37.1077 26.1836C37.0683 26.3285 37.0297 26.4736 36.9914 26.6188C36.9616 26.7309 36.9314 26.8429 36.9011 26.9548C36.8866 27.0083 36.8724 27.0618 36.8583 27.1154C36.8385 27.1902 36.818 27.2648 36.7975 27.3394C36.786 27.3818 36.7746 27.4243 36.7628 27.468C36.7136 27.5909 36.666 27.6526 36.5625 27.7343C36.3607 27.7799 36.2034 27.7981 36.0156 27.6953C35.8475 27.3956 35.997 27.0055 36.0829 26.6974C36.0933 26.6593 36.1036 26.6212 36.1143 26.582C36.1471 26.4615 36.1802 26.3411 36.2134 26.2207C36.2573 26.0614 36.3008 25.9021 36.3442 25.7428C36.3543 25.7064 36.3644 25.6701 36.3749 25.6326C36.3841 25.5986 36.3934 25.5646 36.4029 25.5295C36.4111 25.4998 36.4193 25.47 36.4278 25.4394C36.4473 25.3416 36.4525 25.2557 36.4453 25.1562C36.3819 25.0665 36.3819 25.0665 36.2964 24.9853C36.1168 24.794 36.035 24.6474 35.9912 24.3847C35.9523 24.2572 35.9523 24.2572 35.8696 24.2187C35.7759 24.1867 35.6824 24.1632 35.586 24.1406C35.5103 24.1187 35.4346 24.0967 35.3589 24.0747C35.2282 24.0379 35.1383 24.0234 35 24.0234C35 26.666 35 29.3086 35 32.0312C35.1562 31.9687 35.2662 31.912 35.403 31.8197C35.4426 31.7932 35.4821 31.7667 35.5229 31.7393C35.5638 31.7116 35.6048 31.6838 35.647 31.6552C35.7276 31.601 35.8082 31.5468 35.8888 31.4926C35.9487 31.4522 35.9487 31.4522 36.0097 31.4109C36.0946 31.3538 36.1796 31.297 36.265 31.2407C36.3071 31.2128 36.3493 31.185 36.3927 31.1563C36.4309 31.1311 36.4691 31.106 36.5085 31.0801C36.6786 30.9623 36.7038 30.8735 36.7562 30.6754C36.7635 30.6481 36.7707 30.6209 36.7783 30.5928C36.8027 30.501 36.8268 30.4091 36.8509 30.3172C36.8684 30.2515 36.8858 30.1857 36.9033 30.12C36.9411 29.9781 36.9786 29.8362 37.0161 29.6942C37.0755 29.4689 37.1353 29.2438 37.1951 29.0187C37.2157 28.9415 37.2362 28.8643 37.2567 28.7871C37.267 28.7484 37.2773 28.7097 37.2879 28.6698C37.3197 28.5503 37.3514 28.4307 37.3831 28.3112C37.6066 27.4693 37.8332 26.6282 38.0602 25.7873C38.1006 25.6377 38.1409 25.4881 38.1812 25.3384C38.2195 25.1965 38.2578 25.0546 38.2961 24.9127C38.3136 24.8476 38.3312 24.7825 38.3487 24.7174C38.3651 24.6567 38.3815 24.596 38.3979 24.5353C38.4135 24.4773 38.4292 24.4192 38.4448 24.3612C38.4857 24.2092 38.5282 24.0577 38.5724 23.9066C38.5816 23.8746 38.5909 23.8426 38.6004 23.8096C38.6182 23.7483 38.6363 23.687 38.6547 23.6259C38.6965 23.4812 38.7167 23.3859 38.6719 23.2422C38.1989 23.1148 37.7259 22.9874 37.2529 22.8602C37.0333 22.8011 36.8137 22.742 36.5941 22.6828C36.3824 22.6258 36.1707 22.5688 35.9589 22.5119C35.8779 22.4901 35.797 22.4683 35.716 22.4464C35.603 22.416 35.49 22.3856 35.377 22.3552C35.3263 22.3415 35.3263 22.3415 35.2745 22.3276C35.139 22.2845 35.139 22.2845 35 22.2656ZM24.6693 22.3426C24.6387 22.3508 24.6082 22.359 24.5767 22.3674C24.475 22.3947 24.3733 22.4221 24.2716 22.4495C24.2008 22.4684 24.1301 22.4874 24.0594 22.5064C23.8724 22.5566 23.6854 22.6069 23.4985 22.6571C23.347 22.6978 23.1955 22.7385 23.044 22.7792C22.8624 22.828 22.6807 22.8767 22.4991 22.9255C22.4648 22.9347 22.4306 22.9439 22.3953 22.9534C22.0394 23.049 21.6835 23.1447 21.3281 23.2422C21.2697 23.3956 21.3091 23.5085 21.3516 23.6633C21.3624 23.7033 21.3624 23.7033 21.3735 23.744C21.3978 23.8335 21.4226 23.9229 21.4475 24.0123C21.465 24.0766 21.4826 24.1409 21.5001 24.2052C21.538 24.3442 21.5761 24.4831 21.6144 24.622C21.6753 24.8428 21.7357 25.0637 21.7959 25.2846C21.8167 25.3608 21.8375 25.4369 21.8583 25.513C21.8687 25.5513 21.8791 25.5895 21.8899 25.6289C21.9222 25.7473 21.9546 25.8656 21.987 25.984C22.2241 26.8507 22.4571 27.7184 22.69 28.5863C22.7429 28.783 22.7957 28.9797 22.8486 29.1764C23.0064 29.7639 23.0064 29.7639 23.046 29.9115C23.0624 29.9724 23.0788 30.0332 23.0953 30.094C23.1338 30.2363 23.1711 30.3787 23.2059 30.522C23.2159 30.5624 23.2159 30.5624 23.2261 30.6035C23.2441 30.6758 23.2614 30.7482 23.2788 30.8206C23.3518 31.026 23.4893 31.1055 23.6719 31.2109C23.7186 31.24 23.7653 31.2692 23.8118 31.2986C23.8901 31.348 23.9684 31.3971 24.0473 31.4455C24.2792 31.5879 24.5027 31.7408 24.7245 31.8983C24.8501 31.9972 24.8501 31.9972 25 32.0312C25 29.3886 25 26.7461 25 24.0234C24.7818 24.0507 24.5891 24.0805 24.3799 24.1357C24.354 24.142 24.3281 24.1483 24.3015 24.1548C24.155 24.1932 24.1105 24.2053 24.0235 24.3359C24.0067 24.3958 23.9914 24.4561 23.9771 24.5166C23.9081 24.7583 23.7674 24.973 23.5677 25.1289C23.5052 25.1932 23.5052 25.1932 23.5226 25.2859C23.5327 25.3214 23.5428 25.357 23.5532 25.3937C23.5642 25.4341 23.5753 25.4745 23.5867 25.5162C23.5994 25.5599 23.6121 25.6036 23.6252 25.6486C23.6376 25.6937 23.65 25.7387 23.6628 25.7851C23.7026 25.9297 23.7433 26.074 23.7842 26.2182C23.8248 26.3618 23.8651 26.5054 23.9048 26.6492C23.9295 26.7388 23.9547 26.8283 23.9806 26.9175C24.0463 27.1557 24.0805 27.3358 24.0235 27.5781C23.9433 27.6938 23.8904 27.7266 23.7573 27.771C23.5952 27.7741 23.5 27.7358 23.3594 27.6562C23.2609 27.5181 23.2138 27.3845 23.1709 27.2214C23.1583 27.1739 23.1456 27.1264 23.1326 27.0775C23.1193 27.026 23.106 26.9745 23.0927 26.923C23.0787 26.8698 23.0648 26.8165 23.0509 26.7632C23.0217 26.6517 22.9929 26.5402 22.9642 26.4286C22.9275 26.2862 22.8901 26.144 22.8524 26.0019C22.8234 25.892 22.7949 25.7819 22.7665 25.6718C22.753 25.6194 22.7392 25.567 22.7252 25.5146C22.587 24.9942 22.587 24.9942 22.6563 24.7265C22.7417 24.6386 22.7417 24.6386 22.8516 24.5703C23.0305 24.4572 23.0305 24.4572 23.1641 24.2968C23.1737 24.2133 23.1798 24.1294 23.1836 24.0454C23.1976 23.7386 23.1976 23.7386 23.2813 23.6328C23.4784 23.5387 23.6771 23.4764 23.8877 23.4201C23.9184 23.4117 23.9491 23.4032 23.9808 23.3946C24.078 23.368 24.1752 23.3417 24.2725 23.3154C24.3706 23.2888 24.4686 23.2622 24.5667 23.2354C24.6275 23.2188 24.6883 23.2023 24.7491 23.1859C24.8857 23.1575 24.8857 23.1575 25 23.0859C25.0034 23.0249 25.0042 22.9637 25.0038 22.9026C25.0037 22.8658 25.0036 22.8289 25.0035 22.7909C25.0031 22.7521 25.0028 22.7133 25.0025 22.6733C25.0023 22.6344 25.0021 22.5954 25.0019 22.5553C25.0015 22.4587 25.0008 22.3622 25 22.2656C24.8914 22.2656 24.7745 22.3143 24.6693 22.3426ZM38.0469 29.1015C37.9999 29.2609 37.9537 29.4204 37.9077 29.58C37.8944 29.6253 37.881 29.6706 37.8672 29.7172C37.8548 29.7608 37.8423 29.8043 37.8295 29.8492C37.8178 29.8893 37.8061 29.9294 37.7941 29.9707C37.764 30.0868 37.764 30.0868 37.8125 30.2343C38.1219 30.0281 38.4313 29.8218 38.75 29.6093C38.6015 29.4608 38.4824 29.3579 38.3106 29.2456C38.2693 29.2183 38.228 29.1911 38.1854 29.163C38.0999 29.0981 38.0999 29.0981 38.0469 29.1015ZM21.5772 29.3286C21.5496 29.3462 21.522 29.3639 21.4935 29.3821C21.4675 29.3993 21.4414 29.4166 21.4145 29.4343C21.3905 29.4501 21.3664 29.4658 21.3416 29.4821C21.3243 29.4983 21.3069 29.5145 21.2891 29.5312C21.2891 29.5699 21.2891 29.6086 21.2891 29.6484C21.3741 29.7202 21.3741 29.7202 21.4856 29.788C21.5261 29.8141 21.5667 29.8401 21.6084 29.867C21.6727 29.9074 21.6727 29.9074 21.7383 29.9487C21.7812 29.9761 21.824 30.0035 21.8682 30.0318C21.9744 30.0997 22.0808 30.1672 22.1875 30.2343C22.2385 30.0919 22.2139 30.0005 22.1706 29.8578C22.1581 29.816 22.1457 29.7742 22.1328 29.7311C22.1128 29.666 22.1128 29.666 22.0923 29.5996C22.0791 29.5556 22.0659 29.5116 22.0522 29.4662C22.0196 29.3576 21.9865 29.249 21.9531 29.1406C21.8095 29.1406 21.6939 29.2512 21.5772 29.3286ZM38.9421 30.518C38.9004 30.5454 38.8588 30.5727 38.8158 30.6009C38.7703 30.6309 38.7247 30.6609 38.6792 30.6909C38.6327 30.7214 38.5861 30.752 38.5396 30.7826C38.4689 30.8289 38.3982 30.8753 38.3276 30.9217C38.1254 31.0545 37.9227 31.1866 37.7197 31.3183C37.6886 31.3386 37.6574 31.3588 37.6253 31.3797C37.5629 31.4202 37.5005 31.4607 37.4382 31.5012C37.3405 31.5646 37.2429 31.6281 37.1453 31.6916C36.8136 31.9073 36.4817 32.1227 36.1495 32.3375C35.9053 32.4955 35.6613 32.6538 35.4176 32.8125C35.2447 32.9251 35.0716 33.0372 34.8981 33.1488C34.8624 33.1718 34.8268 33.1948 34.79 33.2184C34.7215 33.2626 34.653 33.3066 34.5843 33.3505C34.5535 33.3705 34.5226 33.3904 34.4908 33.4109C34.4637 33.4283 34.4365 33.4458 34.4086 33.4637C34.3372 33.5147 34.2799 33.5702 34.2188 33.6328C34.2501 33.6613 34.2814 33.6899 34.3137 33.7193C34.6113 33.9916 34.9008 34.2704 35.1852 34.5564C35.2283 34.5995 35.2714 34.6427 35.3146 34.6859C35.4062 34.7776 35.4978 34.8695 35.5893 34.9613C35.734 35.1065 35.8788 35.2516 36.0236 35.3966C36.3303 35.7037 36.6369 36.011 36.9434 36.3183C37.276 36.6518 37.6087 36.9853 37.9415 37.3186C38.0856 37.4629 38.2297 37.6073 38.3736 37.7517C38.4627 37.8411 38.5518 37.9304 38.6409 38.0196C38.6824 38.0611 38.7238 38.1027 38.7652 38.1443C38.8215 38.2008 38.8778 38.2572 38.9342 38.3136C38.9658 38.3452 38.9973 38.3769 39.0299 38.4095C39.09 38.481 39.09 38.481 39.1406 38.4765C39.1855 38.0693 39.185 37.6644 39.1841 37.2553C39.1841 37.1802 39.1841 37.1051 39.1842 37.03C39.1842 36.8274 39.1839 36.6247 39.1837 36.4221C39.1834 36.2099 39.1834 35.9976 39.1834 35.7854C39.1832 35.3841 39.1829 34.9828 39.1825 34.5815C39.1821 34.1243 39.1819 33.6672 39.1817 33.2101C39.1813 32.2702 39.1806 31.3304 39.1797 30.3906C39.0964 30.3906 39.0076 30.4749 38.9421 30.518ZM20.8594 30.4297C20.8594 33.0851 20.8594 35.7406 20.8594 38.4765C21.0357 38.3254 21.1965 38.1817 21.3561 38.0165C21.4295 37.9451 21.504 37.879 21.5819 37.8125C21.7843 37.6358 21.9731 37.4461 22.1626 37.2558C22.2023 37.2161 22.242 37.1765 22.2817 37.1368C22.3885 37.03 22.4953 36.923 22.602 36.816C22.7138 36.7039 22.8258 36.5919 22.9378 36.4799C23.1493 36.2682 23.3608 36.0564 23.5723 35.8446C23.8132 35.6032 24.0542 35.362 24.2953 35.1207C24.7907 34.6249 25.286 34.1289 25.7813 33.6328C25.6373 33.4848 25.4941 33.3719 25.3174 33.2666C25.049 33.1026 24.7846 32.9335 24.5215 32.7612C24.4832 32.7362 24.4449 32.7111 24.4055 32.6853C24.3284 32.6349 24.2513 32.5844 24.1742 32.5339C24.0045 32.423 23.8346 32.3125 23.6646 32.2021C23.6007 32.1606 23.5368 32.1191 23.4729 32.0776C23.4414 32.0572 23.41 32.0367 23.3776 32.0157C23.2791 31.9517 23.1807 31.8877 23.0823 31.8237C22.7512 31.6084 22.4201 31.3931 22.0883 31.179C21.9343 31.0796 21.7809 30.9795 21.6278 30.8787C21.5926 30.8556 21.5574 30.8325 21.5211 30.8087C21.4526 30.7637 21.3842 30.7186 21.3159 30.6733C21.2847 30.6529 21.2535 30.6324 21.2213 30.6114C21.1939 30.5933 21.1664 30.5751 21.1381 30.5564C21.0394 30.4961 21.0394 30.4961 20.8594 30.4297ZM26.3098 34.2662C26.2746 34.3019 26.2746 34.3019 26.2386 34.3383C26.2142 34.3627 26.1898 34.3871 26.1647 34.4123C26.1129 34.4642 26.0612 34.5162 26.0095 34.5684C25.9314 34.6472 25.853 34.7257 25.7745 34.8042C25.7241 34.8548 25.6737 34.9054 25.6233 34.956C25.6002 34.9792 25.5771 35.0024 25.5533 35.0262C25.4408 35.1399 25.3325 35.2553 25.2286 35.3769C25.0682 35.5609 24.8973 35.7329 24.7244 35.905C24.69 35.9394 24.6557 35.9737 24.6203 36.0091C24.5271 36.1023 24.4338 36.1954 24.3405 36.2884C24.2426 36.3861 24.1449 36.4838 24.0471 36.5815C23.8624 36.7661 23.6775 36.9507 23.4927 37.1351C23.282 37.3454 23.0715 37.5557 22.8609 37.766C22.4283 38.1983 21.9954 38.6304 21.5625 39.0625C21.5754 39.0882 21.5883 39.114 21.6016 39.1406C27.1703 39.1406 32.7391 39.1406 38.4766 39.1406C38.2868 38.9181 38.2868 38.9181 38.0873 38.7078C38.0589 38.6794 38.0304 38.651 38.0012 38.6217C37.9708 38.5915 37.9404 38.5613 37.9091 38.5302C37.8765 38.4977 37.8439 38.4651 37.8103 38.4316C37.7398 38.3613 37.6694 38.2911 37.5989 38.2209C37.4873 38.1098 37.3759 37.9986 37.2645 37.8874C37.0282 37.6515 36.7917 37.4158 36.5552 37.1801C36.2994 36.9252 36.0437 36.6703 35.7881 36.4151C35.6596 36.2869 35.531 36.1588 35.4023 36.0307C35.3351 35.9636 35.268 35.8966 35.2008 35.8296C35.1549 35.7839 35.1549 35.7839 35.108 35.7374C35.0799 35.7093 35.0518 35.6812 35.0229 35.6523C34.9985 35.628 34.9742 35.6037 34.9491 35.5787C34.8828 35.5078 34.8828 35.5078 34.8204 35.4206C34.8023 35.3978 34.7842 35.375 34.7656 35.3515C34.7399 35.3515 34.7141 35.3515 34.6875 35.3515C34.6769 35.3282 34.6662 35.3048 34.6553 35.2808C34.6104 35.1972 34.5671 35.1435 34.5001 35.0771C34.4673 35.0443 34.4673 35.0443 34.4338 35.0108C34.4103 34.9877 34.3867 34.9646 34.3625 34.9408C34.3383 34.9167 34.3142 34.8926 34.2893 34.8679C34.2122 34.7913 34.1349 34.715 34.0576 34.6386C34.0053 34.5867 33.9529 34.5347 33.9006 34.4827C33.7725 34.3554 33.6441 34.2284 33.5156 34.1015C33.3394 34.1686 33.1889 34.2591 33.0322 34.3628C33.0035 34.3816 32.9748 34.4004 32.9452 34.4197C32.8822 34.461 32.8193 34.5022 32.7564 34.5436C32.6539 34.6109 32.5513 34.6778 32.4486 34.7447C32.1078 34.9666 31.7673 35.189 31.4271 35.4117C31.2755 35.5109 31.1239 35.6099 30.9722 35.7089C30.8358 35.7979 30.6999 35.8874 30.5647 35.9781C30.5271 36.0031 30.5271 36.0031 30.4886 36.0286C30.4263 36.07 30.3642 36.1117 30.3021 36.1535C30.1812 36.2185 30.0978 36.2394 29.961 36.25C29.4676 36.0895 29.0227 35.7251 28.5986 35.437C28.4573 35.3414 28.3157 35.2459 28.1742 35.1506C28.1228 35.116 28.1228 35.116 28.0705 35.0806C27.8102 34.9058 27.546 34.7383 27.2793 34.5736C27.0985 34.461 26.9225 34.3422 26.7471 34.2213C26.5291 34.0733 26.4975 34.0796 26.3098 34.2662Z" fill="#054A29"/>
<path d="M25.3923 19.9947C25.4255 19.9945 25.4588 19.9944 25.493 19.9942C25.5481 19.9942 25.5481 19.9942 25.6043 19.9942C25.6432 19.9941 25.682 19.9939 25.722 19.9938C25.8531 19.9933 25.9841 19.9932 26.1151 19.9931C26.2087 19.9928 26.3023 19.9925 26.3959 19.9923C26.6774 19.9915 26.9588 19.9911 27.2403 19.9908C27.3728 19.9906 27.5053 19.9904 27.6378 19.9902C28.0782 19.9895 28.5185 19.9889 28.9589 19.9887C29.0732 19.9886 29.1874 19.9885 29.3017 19.9884C29.3302 19.9884 29.3586 19.9884 29.3878 19.9884C29.8482 19.9881 30.3085 19.9871 30.7689 19.9858C31.2413 19.9845 31.7138 19.9838 32.1862 19.9837C32.4516 19.9836 32.7169 19.9832 32.9822 19.9823C33.2318 19.9813 33.4813 19.9812 33.7308 19.9816C33.8225 19.9816 33.9142 19.9813 34.0059 19.9808C34.1309 19.9801 34.2559 19.9804 34.3808 19.9809C34.4173 19.9805 34.4538 19.9801 34.4913 19.9796C34.6558 19.9813 34.7426 19.9856 34.8849 20.0744C35.0142 20.2135 35.0046 20.3028 35.0038 20.4898C35.0037 20.5406 35.0036 20.5915 35.0035 20.6439C35.0031 20.6978 35.0028 20.7517 35.0025 20.8056C35.0023 20.8598 35.0021 20.9141 35.0019 20.9683C35.0015 21.1012 35.0008 21.2342 35 21.3672C35.0583 21.3805 35.0583 21.3805 35.1177 21.3941C35.5634 21.497 36.0055 21.6114 36.4473 21.7297C36.5206 21.7493 36.5938 21.7688 36.6671 21.7883C36.8193 21.829 36.9715 21.8697 37.1237 21.9105C37.3175 21.9624 37.5114 22.0141 37.7053 22.0657C37.8561 22.1059 38.0069 22.1462 38.1577 22.1865C38.2291 22.2056 38.3006 22.2247 38.372 22.2437C39.4772 22.5379 39.4772 22.5379 39.6485 22.7343C39.8092 23.0559 39.5509 23.6491 39.4629 23.977C39.443 24.0525 39.423 24.128 39.4031 24.2034C39.2688 24.7113 39.1314 25.2183 38.9942 25.7254C38.9661 25.8295 38.938 25.9335 38.9099 26.0376C38.8911 26.1073 38.8723 26.1769 38.8534 26.2466C38.8441 26.2811 38.8348 26.3156 38.8252 26.3512C38.7687 26.5601 38.712 26.7689 38.6551 26.9777C38.6192 27.1096 38.5835 27.2415 38.5478 27.3734C38.531 27.4356 38.514 27.4977 38.497 27.5598C38.4736 27.6455 38.4504 27.7312 38.4273 27.817C38.4141 27.8653 38.4009 27.9137 38.3874 27.9635C38.3536 28.0904 38.3536 28.0904 38.3594 28.2422C38.4457 28.3073 38.5273 28.3598 38.6206 28.4131C38.6777 28.4472 38.7346 28.4814 38.7915 28.5157C38.8224 28.5343 38.8533 28.5528 38.8851 28.5719C39.0666 28.6832 39.244 28.8007 39.4214 28.9184C39.4564 28.9413 39.4914 28.9642 39.5275 28.9878C39.5607 29.0099 39.5939 29.032 39.6282 29.0547C39.6575 29.0741 39.6869 29.0935 39.7171 29.1135C39.9868 29.3172 39.9868 29.3172 40.0181 29.4537C40.0251 29.5529 40.0259 29.6505 40.0246 29.75C40.025 29.807 40.025 29.807 40.0254 29.8651C40.0261 29.9925 40.0254 30.1199 40.0247 30.2473C40.0249 30.3386 40.0252 30.43 40.0255 30.5213C40.0262 30.7695 40.0257 31.0176 40.025 31.2658C40.0244 31.4993 40.0246 31.7327 40.0248 31.9662C40.0251 32.4291 40.0245 32.892 40.0233 33.3548C40.0222 33.8034 40.0219 34.2519 40.0225 34.7005C40.0232 35.1892 40.0233 35.678 40.0227 36.1667C40.0223 36.4253 40.0221 36.6839 40.0225 36.9425C40.0228 37.1858 40.0223 37.4292 40.0213 37.6725C40.021 37.7617 40.021 37.8508 40.0213 37.9399C40.0229 38.5241 40.0119 38.995 39.6094 39.4531C39.5898 39.4768 39.5702 39.5004 39.55 39.5248C39.3367 39.7626 39.0264 39.94 38.711 40C38.6139 40.0037 38.5179 40.0054 38.4208 40.0052C38.3914 40.0053 38.3619 40.0054 38.3316 40.0055C38.2323 40.0057 38.133 40.0057 38.0337 40.0057C37.962 40.0058 37.8903 40.006 37.8186 40.0061C37.6211 40.0065 37.4237 40.0067 37.2262 40.0068C37.0134 40.0069 36.8006 40.0073 36.5879 40.0077C36.0737 40.0084 35.5596 40.0088 35.0455 40.0092C34.8035 40.0093 34.5614 40.0096 34.3194 40.0098C33.5149 40.0104 32.7103 40.011 31.9058 40.0113C31.697 40.0113 31.4882 40.0114 31.2793 40.0115C31.2534 40.0115 31.2275 40.0115 31.2007 40.0115C30.3598 40.0118 29.5188 40.0127 28.6779 40.014C27.7887 40.0154 26.8994 40.0161 26.0102 40.0163C25.5255 40.0163 25.0409 40.0167 24.5562 40.0177C24.1434 40.0185 23.7307 40.0188 23.3179 40.0185C23.1074 40.0183 22.8968 40.0184 22.6862 40.0191C22.4933 40.0198 22.3004 40.0198 22.1076 40.0192C22.0379 40.0191 21.9682 40.0192 21.8986 40.0197C21.3738 40.023 20.9536 39.9667 20.5469 39.6093C20.5232 39.5898 20.4996 39.5702 20.4752 39.55C20.2243 39.3249 20.0176 38.9743 19.9948 38.632C19.9946 38.6039 19.9944 38.5757 19.9942 38.5467C19.9939 38.5141 19.9936 38.4815 19.9933 38.4478C19.9932 38.4122 19.9931 38.3765 19.993 38.3398C19.9925 38.2827 19.9925 38.2827 19.9921 38.2245C19.9912 38.0967 19.9906 37.9689 19.99 37.8411C19.9894 37.7496 19.9889 37.6581 19.9883 37.5666C19.9832 36.7319 19.9806 35.8972 19.9786 35.0625C19.9783 34.9508 19.978 34.8392 19.9778 34.7275C19.9777 34.6998 19.9776 34.672 19.9775 34.6434C19.9764 34.1939 19.9738 33.7444 19.9708 33.2949C19.9677 32.8331 19.9659 32.3714 19.9654 31.9097C19.965 31.6505 19.9641 31.3914 19.9617 31.1322C19.9594 30.8884 19.9588 30.6446 19.9595 30.4008C19.9595 30.3114 19.9589 30.2219 19.9576 30.1325C19.9484 29.4571 19.9484 29.4571 20.0758 29.2544C20.1646 29.1735 20.2455 29.1179 20.3516 29.0625C20.401 29.0292 20.4503 28.9956 20.4993 28.9616C20.5475 28.9322 20.5959 28.9032 20.6445 28.8745C20.6983 28.8418 20.752 28.8091 20.8057 28.7764C20.8471 28.7512 20.8471 28.7512 20.8895 28.7255C21.0438 28.6304 21.1957 28.5314 21.3477 28.4326C21.3769 28.4136 21.4061 28.3946 21.4363 28.3751C21.5044 28.3308 21.5725 28.2865 21.6406 28.2422C21.6181 28.0346 21.5833 27.8404 21.5293 27.6382C21.522 27.6108 21.5148 27.5833 21.5073 27.5551C21.4833 27.4648 21.4591 27.3747 21.4348 27.2845C21.4177 27.2204 21.4006 27.1563 21.3836 27.0921C21.3474 26.9564 21.3111 26.8207 21.2747 26.6851C21.2276 26.5094 21.1807 26.3337 21.1339 26.158C20.9658 25.5274 20.7971 24.8971 20.6226 24.2683C20.6057 24.2073 20.6057 24.2073 20.5884 24.145C20.5387 23.9655 20.4886 23.7862 20.4376 23.607C20.4205 23.5457 20.4033 23.4843 20.3862 23.423C20.3786 23.3968 20.3709 23.3706 20.363 23.3436C20.3117 23.1573 20.2914 23.0036 20.3125 22.8125C20.4462 22.6155 20.5429 22.5458 20.7771 22.4809C20.804 22.4732 20.831 22.4655 20.8587 22.4575C20.9499 22.4318 21.0413 22.4073 21.1328 22.3828C21.2001 22.3642 21.2673 22.3455 21.3345 22.3268C21.5626 22.2637 21.7913 22.2026 22.02 22.1415C22.1038 22.1191 22.1877 22.0966 22.2716 22.0741C22.4459 22.0273 22.6202 21.9807 22.7946 21.9341C23.0183 21.8743 23.2421 21.8143 23.4658 21.7543C23.6382 21.708 23.8108 21.6618 23.9833 21.6157C24.0659 21.5936 24.1484 21.5714 24.231 21.5493C24.3457 21.5185 24.4604 21.4879 24.5751 21.4573C24.6093 21.4481 24.6435 21.4389 24.6787 21.4294C24.913 21.3672 24.913 21.3672 25 21.3672C24.9988 21.3172 24.9988 21.3172 24.9975 21.2663C24.9949 21.1421 24.9929 21.018 24.9914 20.8939C24.9907 20.8403 24.9896 20.7867 24.9882 20.7331C24.9863 20.6558 24.9855 20.5785 24.9848 20.5012C24.9835 20.4316 24.9835 20.4316 24.9823 20.3605C25.0035 20.2095 25.0505 20.1466 25.1563 20.039C25.2451 19.9946 25.2937 19.995 25.3923 19.9947ZM25.8594 20.8593C25.8286 22.9319 25.8286 22.9319 25.8079 25.0045C25.8058 25.2844 25.8037 25.5643 25.8015 25.8442C25.8012 25.8793 25.8009 25.9143 25.8006 25.9505C25.796 26.5157 25.7877 27.0807 25.778 27.6459C25.7681 28.2265 25.7623 28.807 25.7602 29.3878C25.7587 29.7457 25.7542 30.1034 25.7456 30.4613C25.74 30.7072 25.7383 30.953 25.7397 31.199C25.7404 31.3407 25.7394 31.4819 25.7337 31.6236C25.703 32.2188 25.703 32.2188 25.9622 32.7305C26.208 32.9474 26.4947 33.1034 26.7848 33.2525C26.9686 33.3489 27.1409 33.4608 27.3145 33.5742C27.3738 33.6115 27.4332 33.6487 27.4927 33.6857C27.667 33.7952 27.8383 33.909 28.0091 34.0238C28.2681 34.1978 28.5297 34.3678 28.7918 34.5372C28.9879 34.6644 29.1821 34.7936 29.3738 34.9275C29.411 34.9532 29.4481 34.9789 29.4864 35.0053C29.5573 35.0545 29.6277 35.1043 29.6978 35.1547C29.7295 35.1766 29.7613 35.1985 29.794 35.2211C29.8355 35.2505 29.8355 35.2505 29.8777 35.2804C29.9627 35.3226 29.9627 35.3226 30.0602 35.2847C30.143 35.2413 30.2204 35.1974 30.2976 35.1448C30.324 35.1269 30.3504 35.1091 30.3777 35.0907C30.4203 35.0615 30.4203 35.0615 30.4639 35.0317C30.5272 34.9889 30.5906 34.9462 30.654 34.9035C30.7042 34.8697 30.7042 34.8697 30.7554 34.8352C30.9323 34.7168 31.1107 34.6008 31.2891 34.4848C31.3656 34.435 31.4421 34.3852 31.5186 34.3354C31.5576 34.31 31.5966 34.2847 31.6368 34.2585C31.8466 34.1218 32.0561 33.9847 32.2656 33.8476C32.5173 33.683 32.769 33.5184 33.021 33.3543C33.0607 33.3284 33.1004 33.3025 33.1413 33.2759C33.2152 33.2278 33.289 33.1797 33.3629 33.1317C33.4292 33.0885 33.4949 33.0444 33.5597 32.9991C33.6719 32.9297 33.6719 32.9297 33.7927 32.8873C33.944 32.8226 34.0551 32.7585 34.1406 32.6172C34.2292 32.2857 34.2011 31.9272 34.195 31.5868C34.193 31.4428 34.1937 31.2988 34.1941 31.1547C34.1943 30.9053 34.1928 30.656 34.1902 30.4066C34.1864 30.0461 34.1852 29.6856 34.1846 29.325C34.1836 28.74 34.1804 28.1551 34.176 27.5701C34.1717 27.002 34.1684 26.4338 34.1664 25.8657C34.1663 25.8303 34.1661 25.7949 34.166 25.7584C34.165 25.4816 34.1641 25.2047 34.1632 24.9279C34.1588 23.5717 34.1494 22.2156 34.1406 20.8593C31.4078 20.8593 28.675 20.8593 25.8594 20.8593ZM35 22.2656C35 22.5363 35 22.807 35 23.0859C35.2194 23.159 35.4315 23.227 35.6539 23.2859C35.709 23.3008 35.7641 23.3158 35.8192 23.3307C35.9044 23.3538 35.9897 23.3767 36.075 23.3991C36.1586 23.4211 36.2419 23.4438 36.3252 23.4666C36.3746 23.4798 36.4239 23.4929 36.4747 23.5065C36.6078 23.557 36.6719 23.5984 36.7578 23.7109C36.7874 23.8636 36.7974 23.9954 36.7945 24.1504C36.7972 24.2693 36.8097 24.3158 36.875 24.414C36.9747 24.4779 36.9747 24.4779 37.0899 24.5312C37.2877 24.627 37.2877 24.627 37.3572 24.7143C37.4497 25.0403 37.3287 25.3654 37.2431 25.6805C37.2285 25.7349 37.214 25.7892 37.1995 25.8436C37.1692 25.957 37.1385 26.0703 37.1077 26.1836C37.0683 26.3285 37.0297 26.4736 36.9914 26.6188C36.9616 26.7309 36.9314 26.8429 36.9011 26.9548C36.8866 27.0083 36.8724 27.0618 36.8583 27.1154C36.8385 27.1902 36.818 27.2648 36.7975 27.3394C36.786 27.3818 36.7746 27.4243 36.7628 27.468C36.7136 27.5909 36.666 27.6526 36.5625 27.7343C36.3607 27.7799 36.2034 27.7981 36.0156 27.6953C35.8475 27.3956 35.997 27.0055 36.0829 26.6974C36.0933 26.6593 36.1036 26.6212 36.1143 26.582C36.1471 26.4615 36.1802 26.3411 36.2134 26.2207C36.2573 26.0614 36.3008 25.9021 36.3442 25.7428C36.3543 25.7064 36.3644 25.6701 36.3749 25.6326C36.3841 25.5986 36.3934 25.5646 36.4029 25.5295C36.4111 25.4998 36.4193 25.47 36.4278 25.4394C36.4473 25.3416 36.4525 25.2557 36.4453 25.1562C36.3819 25.0665 36.3819 25.0665 36.2964 24.9853C36.1168 24.794 36.035 24.6474 35.9912 24.3847C35.9523 24.2572 35.9523 24.2572 35.8696 24.2187C35.7759 24.1867 35.6824 24.1632 35.586 24.1406C35.5103 24.1187 35.4346 24.0967 35.3589 24.0747C35.2282 24.0379 35.1383 24.0234 35 24.0234C35 26.666 35 29.3086 35 32.0312C35.1562 31.9687 35.2662 31.912 35.403 31.8197C35.4426 31.7932 35.4821 31.7667 35.5229 31.7393C35.5638 31.7116 35.6048 31.6838 35.647 31.6552C35.7276 31.601 35.8082 31.5468 35.8888 31.4926C35.9487 31.4522 35.9487 31.4522 36.0097 31.4109C36.0946 31.3538 36.1796 31.297 36.265 31.2407C36.3071 31.2128 36.3493 31.185 36.3927 31.1563C36.4309 31.1311 36.4691 31.106 36.5085 31.0801C36.6786 30.9623 36.7038 30.8735 36.7562 30.6754C36.7635 30.6481 36.7707 30.6209 36.7783 30.5928C36.8027 30.501 36.8268 30.4091 36.8509 30.3172C36.8684 30.2515 36.8858 30.1857 36.9033 30.12C36.9411 29.9781 36.9786 29.8362 37.0161 29.6942C37.0755 29.4689 37.1353 29.2438 37.1951 29.0187C37.2157 28.9415 37.2362 28.8643 37.2567 28.7871C37.267 28.7484 37.2773 28.7097 37.2879 28.6698C37.3197 28.5503 37.3514 28.4307 37.3831 28.3112C37.6066 27.4693 37.8332 26.6282 38.0602 25.7873C38.1006 25.6377 38.1409 25.4881 38.1812 25.3384C38.2195 25.1965 38.2578 25.0546 38.2961 24.9127C38.3136 24.8476 38.3312 24.7825 38.3487 24.7174C38.3651 24.6567 38.3815 24.596 38.3979 24.5353C38.4135 24.4773 38.4292 24.4192 38.4448 24.3612C38.4857 24.2092 38.5282 24.0577 38.5724 23.9066C38.5816 23.8746 38.5909 23.8426 38.6004 23.8096C38.6182 23.7483 38.6363 23.687 38.6547 23.6259C38.6965 23.4812 38.7167 23.3859 38.6719 23.2422C38.1989 23.1148 37.7259 22.9874 37.2529 22.8602C37.0333 22.8011 36.8137 22.742 36.5941 22.6828C36.3824 22.6258 36.1707 22.5688 35.9589 22.5119C35.8779 22.4901 35.797 22.4683 35.716 22.4464C35.603 22.416 35.49 22.3856 35.377 22.3552C35.3263 22.3415 35.3263 22.3415 35.2745 22.3276C35.139 22.2845 35.139 22.2845 35 22.2656ZM24.6693 22.3426C24.6387 22.3508 24.6082 22.359 24.5767 22.3674C24.475 22.3947 24.3733 22.4221 24.2716 22.4495C24.2008 22.4684 24.1301 22.4874 24.0594 22.5064C23.8724 22.5566 23.6854 22.6069 23.4985 22.6571C23.347 22.6978 23.1955 22.7385 23.044 22.7792C22.8624 22.828 22.6807 22.8767 22.4991 22.9255C22.4648 22.9347 22.4306 22.9439 22.3953 22.9534C22.0394 23.049 21.6835 23.1447 21.3281 23.2422C21.2697 23.3956 21.3091 23.5085 21.3516 23.6633C21.3624 23.7033 21.3624 23.7033 21.3735 23.744C21.3978 23.8335 21.4226 23.9229 21.4475 24.0123C21.465 24.0766 21.4826 24.1409 21.5001 24.2052C21.538 24.3442 21.5761 24.4831 21.6144 24.622C21.6753 24.8428 21.7357 25.0637 21.7959 25.2846C21.8167 25.3608 21.8375 25.4369 21.8583 25.513C21.8687 25.5513 21.8791 25.5895 21.8899 25.6289C21.9222 25.7473 21.9546 25.8656 21.987 25.984C22.2241 26.8507 22.4571 27.7184 22.69 28.5863C22.7429 28.783 22.7957 28.9797 22.8486 29.1764C23.0064 29.7639 23.0064 29.7639 23.046 29.9115C23.0624 29.9724 23.0788 30.0332 23.0953 30.094C23.1338 30.2363 23.1711 30.3787 23.2059 30.522C23.2159 30.5624 23.2159 30.5624 23.2261 30.6035C23.2441 30.6758 23.2614 30.7482 23.2788 30.8206C23.3518 31.026 23.4893 31.1055 23.6719 31.2109C23.7186 31.24 23.7653 31.2692 23.8118 31.2986C23.8901 31.348 23.9684 31.3971 24.0473 31.4455C24.2792 31.5879 24.5027 31.7408 24.7245 31.8983C24.8501 31.9972 24.8501 31.9972 25 32.0312C25 29.3886 25 26.7461 25 24.0234C24.7818 24.0507 24.5891 24.0805 24.3799 24.1357C24.354 24.142 24.3281 24.1483 24.3015 24.1548C24.155 24.1932 24.1105 24.2053 24.0235 24.3359C24.0067 24.3958 23.9914 24.4561 23.9771 24.5166C23.9081 24.7583 23.7674 24.973 23.5677 25.1289C23.5052 25.1932 23.5052 25.1932 23.5226 25.2859C23.5327 25.3214 23.5428 25.357 23.5532 25.3937C23.5642 25.4341 23.5753 25.4745 23.5867 25.5162C23.5994 25.5599 23.6121 25.6036 23.6252 25.6486C23.6376 25.6937 23.65 25.7387 23.6628 25.7851C23.7026 25.9297 23.7433 26.074 23.7842 26.2182C23.8248 26.3618 23.8651 26.5054 23.9048 26.6492C23.9295 26.7388 23.9547 26.8283 23.9806 26.9175C24.0463 27.1557 24.0805 27.3358 24.0235 27.5781C23.9433 27.6938 23.8904 27.7266 23.7573 27.771C23.5952 27.7741 23.5 27.7358 23.3594 27.6562C23.2609 27.5181 23.2138 27.3845 23.1709 27.2214C23.1583 27.1739 23.1456 27.1264 23.1326 27.0775C23.1193 27.026 23.106 26.9745 23.0927 26.923C23.0787 26.8698 23.0648 26.8165 23.0509 26.7632C23.0217 26.6517 22.9929 26.5402 22.9642 26.4286C22.9275 26.2862 22.8901 26.144 22.8524 26.0019C22.8234 25.892 22.7949 25.7819 22.7665 25.6718C22.753 25.6194 22.7392 25.567 22.7252 25.5146C22.587 24.9942 22.587 24.9942 22.6563 24.7265C22.7417 24.6386 22.7417 24.6386 22.8516 24.5703C23.0305 24.4572 23.0305 24.4572 23.1641 24.2968C23.1737 24.2133 23.1798 24.1294 23.1836 24.0454C23.1976 23.7386 23.1976 23.7386 23.2813 23.6328C23.4784 23.5387 23.6771 23.4764 23.8877 23.4201C23.9184 23.4117 23.9491 23.4032 23.9808 23.3946C24.078 23.368 24.1752 23.3417 24.2725 23.3154C24.3706 23.2888 24.4686 23.2622 24.5667 23.2354C24.6275 23.2188 24.6883 23.2023 24.7491 23.1859C24.8857 23.1575 24.8857 23.1575 25 23.0859C25.0034 23.0249 25.0042 22.9637 25.0038 22.9026C25.0037 22.8658 25.0036 22.8289 25.0035 22.7909C25.0031 22.7521 25.0028 22.7133 25.0025 22.6733C25.0023 22.6344 25.0021 22.5954 25.0019 22.5553C25.0015 22.4587 25.0008 22.3622 25 22.2656C24.8914 22.2656 24.7745 22.3143 24.6693 22.3426ZM38.0469 29.1015C37.9999 29.2609 37.9537 29.4204 37.9077 29.58C37.8944 29.6253 37.881 29.6706 37.8672 29.7172C37.8548 29.7608 37.8423 29.8043 37.8295 29.8492C37.8178 29.8893 37.8061 29.9294 37.7941 29.9707C37.764 30.0868 37.764 30.0868 37.8125 30.2343C38.1219 30.0281 38.4313 29.8218 38.75 29.6093C38.6015 29.4608 38.4824 29.3579 38.3106 29.2456C38.2693 29.2183 38.228 29.1911 38.1854 29.163C38.0999 29.0981 38.0999 29.0981 38.0469 29.1015ZM21.5772 29.3286C21.5496 29.3462 21.522 29.3639 21.4935 29.3821C21.4675 29.3993 21.4414 29.4166 21.4145 29.4343C21.3905 29.4501 21.3664 29.4658 21.3416 29.4821C21.3243 29.4983 21.3069 29.5145 21.2891 29.5312C21.2891 29.5699 21.2891 29.6086 21.2891 29.6484C21.3741 29.7202 21.3741 29.7202 21.4856 29.788C21.5261 29.8141 21.5667 29.8401 21.6084 29.867C21.6727 29.9074 21.6727 29.9074 21.7383 29.9487C21.7812 29.9761 21.824 30.0035 21.8682 30.0318C21.9744 30.0997 22.0808 30.1672 22.1875 30.2343C22.2385 30.0919 22.2139 30.0005 22.1706 29.8578C22.1581 29.816 22.1457 29.7742 22.1328 29.7311C22.1128 29.666 22.1128 29.666 22.0923 29.5996C22.0791 29.5556 22.0659 29.5116 22.0522 29.4662C22.0196 29.3576 21.9865 29.249 21.9531 29.1406C21.8095 29.1406 21.6939 29.2512 21.5772 29.3286ZM38.9421 30.518C38.9004 30.5454 38.8588 30.5727 38.8158 30.6009C38.7703 30.6309 38.7247 30.6609 38.6792 30.6909C38.6327 30.7214 38.5861 30.752 38.5396 30.7826C38.4689 30.8289 38.3982 30.8753 38.3276 30.9217C38.1254 31.0545 37.9227 31.1866 37.7197 31.3183C37.6886 31.3386 37.6574 31.3588 37.6253 31.3797C37.5629 31.4202 37.5005 31.4607 37.4382 31.5012C37.3405 31.5646 37.2429 31.6281 37.1453 31.6916C36.8136 31.9073 36.4817 32.1227 36.1495 32.3375C35.9053 32.4955 35.6613 32.6538 35.4176 32.8125C35.2447 32.9251 35.0716 33.0372 34.8981 33.1488C34.8624 33.1718 34.8268 33.1948 34.79 33.2184C34.7215 33.2626 34.653 33.3066 34.5843 33.3505C34.5535 33.3705 34.5226 33.3904 34.4908 33.4109C34.4637 33.4283 34.4365 33.4458 34.4086 33.4637C34.3372 33.5147 34.2799 33.5702 34.2188 33.6328C34.2501 33.6613 34.2814 33.6899 34.3137 33.7193C34.6113 33.9916 34.9008 34.2704 35.1852 34.5564C35.2283 34.5995 35.2714 34.6427 35.3146 34.6859C35.4062 34.7776 35.4978 34.8695 35.5893 34.9613C35.734 35.1065 35.8788 35.2516 36.0236 35.3966C36.3303 35.7037 36.6369 36.011 36.9434 36.3183C37.276 36.6518 37.6087 36.9853 37.9415 37.3186C38.0856 37.4629 38.2297 37.6073 38.3736 37.7517C38.4627 37.8411 38.5518 37.9304 38.6409 38.0196C38.6824 38.0611 38.7238 38.1027 38.7652 38.1443C38.8215 38.2008 38.8778 38.2572 38.9342 38.3136C38.9658 38.3452 38.9973 38.3769 39.0299 38.4095C39.09 38.481 39.09 38.481 39.1406 38.4765C39.1855 38.0693 39.185 37.6644 39.1841 37.2553C39.1841 37.1802 39.1841 37.1051 39.1842 37.03C39.1842 36.8274 39.1839 36.6247 39.1837 36.4221C39.1834 36.2099 39.1834 35.9976 39.1834 35.7854C39.1832 35.3841 39.1829 34.9828 39.1825 34.5815C39.1821 34.1243 39.1819 33.6672 39.1817 33.2101C39.1813 32.2702 39.1806 31.3304 39.1797 30.3906C39.0964 30.3906 39.0076 30.4749 38.9421 30.518ZM20.8594 30.4297C20.8594 33.0851 20.8594 35.7406 20.8594 38.4765C21.0357 38.3254 21.1965 38.1817 21.3561 38.0165C21.4295 37.9451 21.504 37.879 21.5819 37.8125C21.7843 37.6358 21.9731 37.4461 22.1626 37.2558C22.2023 37.2161 22.242 37.1765 22.2817 37.1368C22.3885 37.03 22.4953 36.923 22.602 36.816C22.7138 36.7039 22.8258 36.5919 22.9378 36.4799C23.1493 36.2682 23.3608 36.0564 23.5723 35.8446C23.8132 35.6032 24.0542 35.362 24.2953 35.1207C24.7907 34.6249 25.286 34.1289 25.7813 33.6328C25.6373 33.4848 25.4941 33.3719 25.3174 33.2666C25.049 33.1026 24.7846 32.9335 24.5215 32.7612C24.4832 32.7362 24.4449 32.7111 24.4055 32.6853C24.3284 32.6349 24.2513 32.5844 24.1742 32.5339C24.0045 32.423 23.8346 32.3125 23.6646 32.2021C23.6007 32.1606 23.5368 32.1191 23.4729 32.0776C23.4414 32.0572 23.41 32.0367 23.3776 32.0157C23.2791 31.9517 23.1807 31.8877 23.0823 31.8237C22.7512 31.6084 22.4201 31.3931 22.0883 31.179C21.9343 31.0796 21.7809 30.9795 21.6278 30.8787C21.5926 30.8556 21.5574 30.8325 21.5211 30.8087C21.4526 30.7637 21.3842 30.7186 21.3159 30.6733C21.2847 30.6529 21.2535 30.6324 21.2213 30.6114C21.1939 30.5933 21.1664 30.5751 21.1381 30.5564C21.0394 30.4961 21.0394 30.4961 20.8594 30.4297ZM26.3098 34.2662C26.2746 34.3019 26.2746 34.3019 26.2386 34.3383C26.2142 34.3627 26.1898 34.3871 26.1647 34.4123C26.1129 34.4642 26.0612 34.5162 26.0095 34.5684C25.9314 34.6472 25.853 34.7257 25.7745 34.8042C25.7241 34.8548 25.6737 34.9054 25.6233 34.956C25.6002 34.9792 25.5771 35.0024 25.5533 35.0262C25.4408 35.1399 25.3325 35.2553 25.2286 35.3769C25.0682 35.5609 24.8973 35.7329 24.7244 35.905C24.69 35.9394 24.6557 35.9737 24.6203 36.0091C24.5271 36.1023 24.4338 36.1954 24.3405 36.2884C24.2426 36.3861 24.1449 36.4838 24.0471 36.5815C23.8624 36.7661 23.6775 36.9507 23.4927 37.1351C23.282 37.3454 23.0715 37.5557 22.8609 37.766C22.4283 38.1983 21.9954 38.6304 21.5625 39.0625C21.5754 39.0882 21.5883 39.114 21.6016 39.1406C27.1703 39.1406 32.7391 39.1406 38.4766 39.1406C38.2868 38.9181 38.2868 38.9181 38.0873 38.7078C38.0589 38.6794 38.0304 38.651 38.0012 38.6217C37.9708 38.5915 37.9404 38.5613 37.9091 38.5302C37.8765 38.4977 37.8439 38.4651 37.8103 38.4316C37.7398 38.3613 37.6694 38.2911 37.5989 38.2209C37.4873 38.1098 37.3759 37.9986 37.2645 37.8874C37.0282 37.6515 36.7917 37.4158 36.5552 37.1801C36.2994 36.9252 36.0437 36.6703 35.7881 36.4151C35.6596 36.2869 35.531 36.1588 35.4023 36.0307C35.3351 35.9636 35.268 35.8966 35.2008 35.8296C35.1549 35.7839 35.1549 35.7839 35.108 35.7374C35.0799 35.7093 35.0518 35.6812 35.0229 35.6523C34.9985 35.628 34.9742 35.6037 34.9491 35.5787C34.8828 35.5078 34.8828 35.5078 34.8204 35.4206C34.8023 35.3978 34.7842 35.375 34.7656 35.3515C34.7399 35.3515 34.7141 35.3515 34.6875 35.3515C34.6769 35.3282 34.6662 35.3048 34.6553 35.2808C34.6104 35.1972 34.5671 35.1435 34.5001 35.0771C34.4673 35.0443 34.4673 35.0443 34.4338 35.0108C34.4103 34.9877 34.3867 34.9646 34.3625 34.9408C34.3383 34.9167 34.3142 34.8926 34.2893 34.8679C34.2122 34.7913 34.1349 34.715 34.0576 34.6386C34.0053 34.5867 33.9529 34.5347 33.9006 34.4827C33.7725 34.3554 33.6441 34.2284 33.5156 34.1015C33.3394 34.1686 33.1889 34.2591 33.0322 34.3628C33.0035 34.3816 32.9748 34.4004 32.9452 34.4197C32.8822 34.461 32.8193 34.5022 32.7564 34.5436C32.6539 34.6109 32.5513 34.6778 32.4486 34.7447C32.1078 34.9666 31.7673 35.189 31.4271 35.4117C31.2755 35.5109 31.1239 35.6099 30.9722 35.7089C30.8358 35.7979 30.6999 35.8874 30.5647 35.9781C30.5271 36.0031 30.5271 36.0031 30.4886 36.0286C30.4263 36.07 30.3642 36.1117 30.3021 36.1535C30.1812 36.2185 30.0978 36.2394 29.961 36.25C29.4676 36.0895 29.0227 35.7251 28.5986 35.437C28.4573 35.3414 28.3157 35.2459 28.1742 35.1506C28.1228 35.116 28.1228 35.116 28.0705 35.0806C27.8102 34.9058 27.546 34.7383 27.2793 34.5736C27.0985 34.461 26.9225 34.3422 26.7471 34.2213C26.5291 34.0733 26.4975 34.0796 26.3098 34.2662Z" stroke="#054A29" mask="url(#path-2-outside-1_570_470)"/>
<path d="M32.244 26.317L32.244 26.317L32.239 26.313C31.3831 25.6406 30.2807 25.4207 29.2334 25.6186L29.2253 25.6201L29.2174 25.6221C28.2289 25.8766 27.4024 26.4404 26.8644 27.3333L26.8643 27.3333L26.8613 27.3385C26.3697 28.2004 26.2648 29.2196 26.5137 30.1652L26.5135 30.1653L26.5168 30.1759C26.7954 31.0703 27.3504 31.8514 28.2064 32.3118L28.2064 32.3119L28.2123 32.3149L28.3229 32.3706C29.0091 32.7324 29.676 32.7933 30.4031 32.7584L30.4031 32.7585L30.4098 32.758C31.2989 32.6915 32.1541 32.2116 32.7315 31.5654L32.7316 31.5654L32.736 31.5602C33.3816 30.797 33.6675 29.8329 33.6089 28.8523L33.6085 28.8451L33.6076 28.838C33.4895 27.8329 33.0239 26.9628 32.244 26.317ZM28.2031 27.4609L28.1283 27.5334L30 26.665C29.3023 26.689 28.6847 26.957 28.2031 27.4609Z" fill="#054A29" stroke="#054A29" stroke-width="0.5"/>
<path d="M26.6265 23.5145C26.6264 23.6397 26.6264 23.7648 26.627 23.89C26.6279 24.0525 26.6285 24.215 26.6283 24.3776L26.8103 22.5499C26.7103 22.6782 26.6451 22.7738 26.626 22.9387L26.6261 23.0832M26.6265 23.5145C26.6265 23.4546 26.6263 23.3947 26.6259 23.3348C26.6254 23.2509 26.6257 23.1671 26.6261 23.0832M26.6265 23.5145L26.3765 23.5146C26.3765 23.4552 26.3763 23.3958 26.3759 23.3364L26.3759 23.3362C26.3754 23.2512 26.3757 23.1665 26.3761 23.0826M26.6265 23.5145L26.3765 23.5143C26.3764 23.6396 26.3764 23.7653 26.377 23.8912L26.377 23.8914C26.3779 24.0537 26.3785 24.2155 26.3783 24.3772L26.3761 23.0826M26.6261 23.0832L26.3761 23.0819C26.3761 23.0821 26.3761 23.0823 26.3761 23.0826M26.6261 23.0832L26.3761 23.0833L26.3761 23.0826M26.3761 23.0826L26.376 22.9389L26.376 22.9244L26.3777 22.91C26.405 22.6743 26.5062 22.5333 26.6132 22.3961L26.6326 22.3712L26.6576 22.3519C26.7504 22.2804 26.8484 22.244 26.933 22.2213C26.9841 22.2076 27.0475 22.1954 27.0972 22.1858C27.1105 22.1832 27.1229 22.1808 27.1338 22.1787C27.1558 22.17 27.1644 22.1649 27.1668 22.1633C27.1676 22.1625 27.1735 22.1563 27.189 22.1302C27.1948 22.1087 27.1968 22.1006 27.1983 22.0927C27.2005 22.0818 27.2021 22.0699 27.208 22.0225L27.2091 22.0138L27.2107 22.0051C27.232 21.8966 27.2651 21.7982 27.3256 21.7058C27.3847 21.6154 27.4601 21.5462 27.5415 21.4826L27.5754 21.4561L27.6163 21.4425C27.7594 21.3948 27.8564 21.3856 27.9902 21.3851L27.9899 21.3851L27.9914 21.6351L27.9905 21.3851L28.1011 21.3845L28.1023 21.3845V21.3845L28.2232 21.3843L28.2241 21.3843L28.3516 21.3837L28.3517 21.3837C28.4925 21.3832 28.6332 21.3829 28.7737 21.3827C28.7737 21.3827 28.7737 21.3827 28.7737 21.3827L29.0659 21.382L29.066 21.382C29.2444 21.3817 29.4228 21.3814 29.6012 21.3813C29.8372 21.3811 30.0731 21.3807 30.3089 21.3796L30.309 21.3796C30.5627 21.3786 30.8165 21.3781 31.0702 21.378L31.0703 21.628M26.3761 23.0826L33.6171 23.1506L33.6171 23.1504L33.6163 23.0711C33.6163 23.071 33.6163 23.0709 33.6163 23.0709C33.6163 23.0665 33.6162 23.0622 33.6162 23.0578C33.6152 22.9235 33.6141 22.7861 33.5575 22.6163L33.5439 22.5754L33.5174 22.5415C33.4538 22.46 33.3846 22.3847 33.2942 22.3255C33.2018 22.2651 33.1034 22.232 32.9949 22.2107L32.9863 22.209L32.9775 22.208C32.9301 22.2021 32.9183 22.2005 32.9073 22.1983C32.8995 22.1968 32.8913 22.1948 32.8698 22.189C32.8436 22.1734 32.8375 22.1676 32.8368 22.1668C32.8351 22.1644 32.83 22.1558 32.8213 22.1338C32.8192 22.1229 32.8168 22.1105 32.8142 22.0971C32.8046 22.0475 32.7924 21.984 32.7787 21.933C32.7561 21.8483 32.7196 21.7504 32.6481 21.6576L32.6288 21.6326L32.6039 21.6132L32.5382 21.5619C32.3094 21.3779 32.0941 21.3767 31.9001 21.3757C31.8962 21.3757 31.8923 21.3756 31.8884 21.3756L31.8846 21.3756L31.7647 21.3767C31.6298 21.3764 31.4945 21.3764 31.359 21.377L31.3589 21.377C31.2626 21.3776 31.1663 21.3779 31.07 21.378L31.0703 21.628M31.0703 21.628C31.1669 21.6279 31.2636 21.6276 31.3602 21.627L28.7741 21.6327L29.0665 21.632C29.2448 21.6317 29.4231 21.6314 29.6014 21.6313C29.8376 21.6311 30.0738 21.6307 30.31 21.6296C30.5634 21.6286 30.8168 21.6281 31.0703 21.628ZM33.6209 23.9761C33.6206 23.8184 33.62 23.6606 33.6192 23.5028V23.5027L33.6187 23.4127L33.3757 24.8396L33.6257 24.8394C33.6257 24.8393 33.6257 24.8393 33.6257 24.8393C33.6256 24.7139 33.6253 24.5881 33.6242 24.4621L33.6242 24.4618C33.6227 24.2995 33.6214 24.1377 33.6209 23.9761ZM33.6209 23.9761L33.3709 23.9767L33.6209 23.9761C33.6209 23.9761 33.6209 23.9761 33.6209 23.9761ZM27.7528 23.4745C28.0352 23.3294 28.2359 23.1141 28.4052 22.8816L28.4281 22.8502L28.4403 22.8134L28.4615 22.75H28.4659H28.4727H28.4795H28.4864H28.4932H28.5H28.5068H28.5137H28.5205H28.5273H28.5341H28.5409H28.5478H28.5546H28.5614H28.5682H28.575H28.5818H28.5887H28.5955H28.6023H28.6091H28.6159H28.6227H28.6295H28.6363H28.6432H28.65H28.6568H28.6636H28.6704H28.6772H28.684H28.6908H28.6976H28.7044H28.7112H28.718H28.7248H28.7316H28.7384H28.7452H28.752H28.7588H28.7656H28.7724H28.7792H28.786H28.7928H28.7996H28.8064H28.8132H28.8199H28.8267H28.8335H28.8403H28.8471H28.8539H28.8607H28.8675H28.8743H28.881H28.8878H28.8946H28.9014H28.9082H28.915H28.9217H28.9285H28.9353H28.9421H28.9489H28.9556H28.9624H28.9692H28.976H28.9827H28.9895H28.9963H29.0031H29.0098H29.0166H29.0234H29.0301H29.0369H29.0437H29.0505H29.0572H29.064H29.0708H29.0775H29.0843H29.0911H29.0978H29.1046H29.1114H29.1181H29.1249H29.1316H29.1384H29.1452H29.1519H29.1587H29.1654H29.1722H29.179H29.1857H29.1925H29.1992H29.206H29.2127H29.2195H29.2263H29.233H29.2398H29.2465H29.2533H29.26H29.2668H29.2735H29.2803H29.287H29.2938H29.3005H29.3073H29.314H29.3207H29.3275H29.3342H29.341H29.3477H29.3545H29.3612H29.368H29.3747H29.3814H29.3882H29.3949H29.4017H29.4084H29.4151H29.4219H29.4286H29.4353H29.4421H29.4488H29.4556H29.4623H29.469H29.4758H29.4825H29.4892H29.496H29.5027H29.5094H29.5161H29.5229H29.5296H29.5363H29.5431H29.5498H29.5565H29.5632H29.57H29.5767H29.5834H29.5902H29.5969H29.6036H29.6103H29.617H29.6238H29.6305H29.6372H29.6439H29.6507H29.6574H29.6641H29.6708H29.6775H29.6843H29.691H29.6977H29.7044H29.7111H29.7178H29.7246H29.7313H29.738H29.7447H29.7514H29.7581H29.7648H29.7715H29.7783H29.785H29.7917H29.7984H29.8051H29.8118H29.8185H29.8252H29.8319H29.8386H29.8454H29.8521H29.8588H29.8655H29.8722H29.8789H29.8856H29.8923H29.899H29.9057H29.9124H29.9191H29.9258H29.9325H29.9392H29.9459H29.9526H29.9593H29.966H29.9727H29.9794H29.9861H29.9928H29.9995H30.0062H30.0129H30.0196H30.0263H30.033H30.0397H30.0464H30.0531H30.0598H30.0665H30.0732H30.0799H30.0866H30.0932H30.0999H30.1066H30.1133H30.12H30.1267H30.1334H30.1401H30.1468H30.1535H30.1602H30.1668H30.1735H30.1802H30.1869H30.1936H30.2003H30.207H30.2137H30.2203H30.227H30.2337H30.2404H30.2471H30.2538H30.2604H30.2671H30.2738H30.2805H30.2872H30.2939H30.3005H30.3072H30.3139H30.3206H30.3273H30.3339H30.3406H30.3473H30.354H30.3607H30.3673H30.374H30.3807H30.3874H30.3941H30.4007H30.4074H30.4141H30.4208H30.4274H30.4341H30.4408H30.4475H30.4541H30.4608H30.4675H30.4742H30.4808H30.4875H30.4942H30.5008H30.5075H30.5142H30.5209H30.5275H30.5342H30.5409H30.5476H30.5542H30.5609H30.5676H30.5742H30.5809H30.5876H30.5942H30.6009H30.6076H30.6142H30.6209H30.6276H30.6342H30.6409H30.6476H30.6542H30.6609H30.6676H30.6742H30.6809H30.6876H30.6942H30.7009H30.7076H30.7142H30.7209H30.7276H30.7342H30.7409H30.7476H30.7542H30.7609H30.7675H30.7742H30.7809H30.7875H30.7942H30.8008H30.8075H30.8142H30.8208H30.8275H30.8342H30.8408H30.8475H30.8541H30.8608H30.8675H30.8741H30.8808H30.8874H30.8941H30.9007H30.9074H30.9141H30.9207H30.9274H30.934H30.9407H30.9474H30.954H30.9607H30.9673H30.974H30.9806H30.9873H30.9939H31.0006H31.0073H31.0139H31.0206H31.0272H31.0339H31.0405H31.0472H31.0538H31.0605H31.0672H31.0738H31.0805H31.0871H31.0938H31.1004H31.1071H31.1137H31.1204H31.127H31.1337H31.1403H31.147H31.1536H31.1603H31.1669H31.1736H31.1802H31.1869H31.1936H31.2002H31.2069H31.2135H31.2202H31.2268H31.2335H31.2401H31.2468H31.2534H31.2601H31.2667H31.2734H31.28H31.2867H31.2933H31.3H31.3066H31.3133H31.3199H31.3266H31.3332H31.3399H31.3465H31.3532H31.3598H31.3665H31.3731H31.3798H31.3864H31.3931H31.3997H31.4063H31.413H31.4196H31.4263H31.4329H31.4396H31.4462H31.4529H31.4595H31.4662H31.4728H31.4795H31.4861H31.4928H31.4994H31.5061H31.5127H31.5194H31.522C31.5275 22.7625 31.5331 22.775 31.5387 22.7874C31.5406 22.7916 31.5425 22.7959 31.5444 22.8002L31.55 22.8127L31.557 22.8245C31.7037 23.0739 31.9463 23.3332 32.2474 23.4599C32.2445 23.6742 32.2421 23.8885 32.2405 24.1029L32.2405 24.1031L32.2403 24.1361C32.2394 24.2652 32.2385 24.3932 32.2366 24.5212C32.2345 24.6585 32.2325 24.7966 32.2318 24.9351L32.2318 24.9355L32.231 25.09C32.2308 25.1001 32.2305 25.1103 32.2303 25.1205C32.2269 25.2857 32.2229 25.4731 32.2531 25.664L32.2599 25.7075L32.2813 25.746C32.3291 25.8325 32.388 25.9059 32.4659 25.9656C32.5418 26.0238 32.6243 26.0602 32.7063 26.0877L32.7364 26.0978L32.768 26.1L32.8529 26.1061C32.9284 26.1132 33.011 26.1161 33.0978 26.098C33.1897 26.0789 33.2694 26.04 33.3464 25.9862L33.3764 25.9652L33.3992 25.9364C33.5088 25.7979 33.5938 25.6721 33.6259 25.4516L33.6285 25.4331L33.6284 25.4145L33.6278 25.2709M27.7528 23.4745L33.6278 25.2709M27.7528 23.4745C27.756 23.7117 27.7585 23.9489 27.7601 24.1861C27.7611 24.326 27.7625 24.4656 27.7647 24.605L27.7647 24.605L27.7528 23.4745ZM33.6278 25.2709L33.6278 25.2699L33.3778 25.2711L33.6278 25.2719C33.6278 25.2716 33.6278 25.2712 33.6278 25.2709ZM27.7722 25.2455H27.7721C27.7722 25.2575 27.7722 25.2693 27.7722 25.2809C27.7723 25.4401 27.7725 25.5637 27.7516 25.6555C27.7215 25.7879 27.6491 25.8628 27.5956 25.918C27.5926 25.9211 27.5897 25.9241 27.5869 25.9271L27.5671 25.9476L27.5432 25.9632C27.4481 26.0253 27.352 26.0698 27.2449 26.0938C27.139 26.1174 27.0356 26.118 26.9304 26.1083L26.8844 26.1041L26.843 26.0838C26.757 26.0416 26.667 25.9918 26.5887 25.9178C26.5061 25.8398 26.4488 25.7471 26.4066 25.6348L26.3944 25.6024L26.3915 25.5678C26.3807 25.4389 26.3805 25.432 26.3799 25.2826L26.3799 25.2831L26.6299 25.2812L26.3799 25.2822L26.3793 25.2032L26.3793 25.2028C26.3788 25.115 26.3788 25.0274 26.3789 24.9406C26.3789 24.9404 26.3789 24.9402 26.3789 24.9401L26.3784 24.7593L26.3784 24.7591C26.3781 24.6317 26.3781 24.5044 26.3783 24.3772L27.7722 25.2455ZM27.7722 25.2455L27.7721 25.2405M27.7722 25.2455L27.7721 25.2405M27.7721 25.2405C27.7706 25.1637 27.7691 25.0888 27.7685 25.0141L27.7721 25.2405Z" fill="#054A29" stroke="#054A29" stroke-width="0.5"/>
<path d="M30.3485 23.5525L30.2963 23.512L30.231 23.5026C30.1202 23.4865 29.9835 23.4699 29.8482 23.494C29.6992 23.5205 29.5638 23.5936 29.4511 23.7296L29.4356 23.7482L29.424 23.7695C29.3693 23.8698 29.3309 23.9628 29.3159 24.0696C29.3016 24.1705 29.311 24.268 29.3218 24.364L29.327 24.4095L29.3479 24.4501C29.4525 24.654 29.6022 24.764 29.7873 24.8404L29.8236 24.8555L29.8628 24.8586C29.9753 24.8676 30.0881 24.8669 30.2025 24.8348C30.3196 24.802 30.4187 24.742 30.5144 24.662L30.5493 24.6327L30.5717 24.593C30.6291 24.4913 30.6676 24.3974 30.6827 24.2899C30.6967 24.1897 30.6878 24.0922 30.6784 23.9986L30.6738 23.9528L30.6532 23.9116C30.5698 23.7449 30.4787 23.6534 30.3485 23.5525Z" fill="#054A29" stroke="#054A29" stroke-width="0.5"/>
</g>
<path d="M87.092 17.252C87.092 17.7747 86.966 18.2647 86.714 18.722C86.4713 19.1793 86.084 19.548 85.552 19.828C85.0293 20.108 84.3667 20.248 83.564 20.248H81.926V24H79.966V14.228H83.564C84.32 14.228 84.964 14.3587 85.496 14.62C86.028 14.8813 86.4247 15.2407 86.686 15.698C86.9567 16.1553 87.092 16.6733 87.092 17.252ZM83.48 18.666C84.0213 18.666 84.4227 18.5447 84.684 18.302C84.9453 18.05 85.076 17.7 85.076 17.252C85.076 16.3 84.544 15.824 83.48 15.824H81.926V18.666H83.48ZM87.9796 20.094C87.9796 19.31 88.1336 18.6147 88.4416 18.008C88.7589 17.4013 89.1836 16.9347 89.7156 16.608C90.2569 16.2813 90.8589 16.118 91.5216 16.118C92.1002 16.118 92.6042 16.2347 93.0336 16.468C93.4722 16.7013 93.8222 16.9953 94.0836 17.35V16.244H96.0576V24H94.0836V22.866C93.8316 23.23 93.4816 23.5333 93.0336 23.776C92.5949 24.0093 92.0862 24.126 91.5076 24.126C90.8542 24.126 90.2569 23.958 89.7156 23.622C89.1836 23.286 88.7589 22.8147 88.4416 22.208C88.1336 21.592 87.9796 20.8873 87.9796 20.094ZM94.0836 20.122C94.0836 19.646 93.9902 19.24 93.8036 18.904C93.6169 18.5587 93.3649 18.2973 93.0476 18.12C92.7302 17.9333 92.3896 17.84 92.0256 17.84C91.6616 17.84 91.3256 17.9287 91.0176 18.106C90.7096 18.2833 90.4576 18.5447 90.2616 18.89C90.0749 19.226 89.9816 19.6273 89.9816 20.094C89.9816 20.5607 90.0749 20.9713 90.2616 21.326C90.4576 21.6713 90.7096 21.9373 91.0176 22.124C91.3349 22.3107 91.6709 22.404 92.0256 22.404C92.3896 22.404 92.7302 22.3153 93.0476 22.138C93.3649 21.9513 93.6169 21.69 93.8036 21.354C93.9902 21.0087 94.0836 20.598 94.0836 20.122ZM105.392 16.244L100.59 27.668H98.5039L100.184 23.804L97.0759 16.244H99.2739L101.276 21.662L103.306 16.244H105.392ZM108.408 17.448C108.66 17.0373 108.987 16.7153 109.388 16.482C109.799 16.2487 110.266 16.132 110.788 16.132V18.19H110.27C109.654 18.19 109.188 18.3347 108.87 18.624C108.562 18.9133 108.408 19.4173 108.408 20.136V24H106.448V16.244H108.408V17.448ZM115.553 24.126C114.806 24.126 114.134 23.9627 113.537 23.636C112.939 23.3 112.468 22.8287 112.123 22.222C111.787 21.6153 111.619 20.9153 111.619 20.122C111.619 19.3287 111.791 18.6287 112.137 18.022C112.491 17.4153 112.972 16.9487 113.579 16.622C114.185 16.286 114.862 16.118 115.609 16.118C116.355 16.118 117.032 16.286 117.639 16.622C118.245 16.9487 118.721 17.4153 119.067 18.022C119.421 18.6287 119.599 19.3287 119.599 20.122C119.599 20.9153 119.417 21.6153 119.053 22.222C118.698 22.8287 118.213 23.3 117.597 23.636C116.99 23.9627 116.309 24.126 115.553 24.126ZM115.553 22.418C115.907 22.418 116.239 22.334 116.547 22.166C116.864 21.9887 117.116 21.7273 117.303 21.382C117.489 21.0367 117.583 20.6167 117.583 20.122C117.583 19.3847 117.387 18.82 116.995 18.428C116.612 18.0267 116.141 17.826 115.581 17.826C115.021 17.826 114.549 18.0267 114.167 18.428C113.793 18.82 113.607 19.3847 113.607 20.122C113.607 20.8593 113.789 21.4287 114.153 21.83C114.526 22.222 114.993 22.418 115.553 22.418ZM122.996 13.64V24H121.036V13.64H122.996ZM126.893 13.64V24H124.933V13.64H126.893ZM90.62 35.228V45H88.66V38.644L86.042 45H84.558L81.926 38.644V45H79.966V35.228H82.192L85.3 42.494L88.408 35.228H90.62ZM92.0538 41.094C92.0538 40.31 92.2078 39.6147 92.5158 39.008C92.8331 38.4013 93.2578 37.9347 93.7898 37.608C94.3311 37.2813 94.9331 37.118 95.5958 37.118C96.1745 37.118 96.6785 37.2347 97.1078 37.468C97.5465 37.7013 97.8965 37.9953 98.1578 38.35V37.244H100.132V45H98.1578V43.866C97.9058 44.23 97.5558 44.5333 97.1078 44.776C96.6691 45.0093 96.1605 45.126 95.5818 45.126C94.9285 45.126 94.3311 44.958 93.7898 44.622C93.2578 44.286 92.8331 43.8147 92.5158 43.208C92.2078 42.592 92.0538 41.8873 92.0538 41.094ZM98.1578 41.122C98.1578 40.646 98.0645 40.24 97.8778 39.904C97.6911 39.5587 97.4391 39.2973 97.1218 39.12C96.8045 38.9333 96.4638 38.84 96.0998 38.84C95.7358 38.84 95.3998 38.9287 95.0918 39.106C94.7838 39.2833 94.5318 39.5447 94.3358 39.89C94.1491 40.226 94.0558 40.6273 94.0558 41.094C94.0558 41.5607 94.1491 41.9713 94.3358 42.326C94.5318 42.6713 94.7838 42.9373 95.0918 43.124C95.4091 43.3107 95.7451 43.404 96.0998 43.404C96.4638 43.404 96.8045 43.3153 97.1218 43.138C97.4391 42.9513 97.6911 42.69 97.8778 42.354C98.0645 42.0087 98.1578 41.598 98.1578 41.122ZM106.344 37.132C107.268 37.132 108.015 37.426 108.584 38.014C109.153 38.5927 109.438 39.4047 109.438 40.45V45H107.478V40.716C107.478 40.1 107.324 39.6287 107.016 39.302C106.708 38.966 106.288 38.798 105.756 38.798C105.215 38.798 104.785 38.966 104.468 39.302C104.16 39.6287 104.006 40.1 104.006 40.716V45H102.046V37.244H104.006V38.21C104.267 37.874 104.599 37.6127 105 37.426C105.411 37.23 105.859 37.132 106.344 37.132ZM110.798 41.094C110.798 40.31 110.952 39.6147 111.26 39.008C111.577 38.4013 112.002 37.9347 112.534 37.608C113.075 37.2813 113.677 37.118 114.34 37.118C114.919 37.118 115.423 37.2347 115.852 37.468C116.291 37.7013 116.641 37.9953 116.902 38.35V37.244H118.876V45H116.902V43.866C116.65 44.23 116.3 44.5333 115.852 44.776C115.413 45.0093 114.905 45.126 114.326 45.126C113.673 45.126 113.075 44.958 112.534 44.622C112.002 44.286 111.577 43.8147 111.26 43.208C110.952 42.592 110.798 41.8873 110.798 41.094ZM116.902 41.122C116.902 40.646 116.809 40.24 116.622 39.904C116.435 39.5587 116.183 39.2973 115.866 39.12C115.549 38.9333 115.208 38.84 114.844 38.84C114.48 38.84 114.144 38.9287 113.836 39.106C113.528 39.2833 113.276 39.5447 113.08 39.89C112.893 40.226 112.8 40.6273 112.8 41.094C112.8 41.5607 112.893 41.9713 113.08 42.326C113.276 42.6713 113.528 42.9373 113.836 43.124C114.153 43.3107 114.489 43.404 114.844 43.404C115.208 43.404 115.549 43.3153 115.866 43.138C116.183 42.9513 116.435 42.69 116.622 42.354C116.809 42.0087 116.902 41.598 116.902 41.122ZM123.828 37.118C124.407 37.118 124.916 37.2347 125.354 37.468C125.793 37.692 126.138 37.986 126.39 38.35V37.244H128.364V45.056C128.364 45.7747 128.22 46.414 127.93 46.974C127.641 47.5433 127.207 47.9913 126.628 48.318C126.05 48.654 125.35 48.822 124.528 48.822C123.427 48.822 122.522 48.5653 121.812 48.052C121.112 47.5387 120.716 46.8387 120.622 45.952H122.568C122.671 46.3067 122.89 46.5867 123.226 46.792C123.572 47.0067 123.987 47.114 124.472 47.114C125.042 47.114 125.504 46.9413 125.858 46.596C126.213 46.26 126.39 45.7467 126.39 45.056V43.852C126.138 44.216 125.788 44.5193 125.34 44.762C124.902 45.0047 124.398 45.126 123.828 45.126C123.175 45.126 122.578 44.958 122.036 44.622C121.495 44.286 121.066 43.8147 120.748 43.208C120.44 42.592 120.286 41.8873 120.286 41.094C120.286 40.31 120.44 39.6147 120.748 39.008C121.066 38.4013 121.49 37.9347 122.022 37.608C122.564 37.2813 123.166 37.118 123.828 37.118ZM126.39 41.122C126.39 40.646 126.297 40.24 126.11 39.904C125.924 39.5587 125.672 39.2973 125.354 39.12C125.037 38.9333 124.696 38.84 124.332 38.84C123.968 38.84 123.632 38.9287 123.324 39.106C123.016 39.2833 122.764 39.5447 122.568 39.89C122.382 40.226 122.288 40.6273 122.288 41.094C122.288 41.5607 122.382 41.9713 122.568 42.326C122.764 42.6713 123.016 42.9373 123.324 43.124C123.642 43.3107 123.978 43.404 124.332 43.404C124.696 43.404 125.037 43.3153 125.354 43.138C125.672 42.9513 125.924 42.69 126.11 42.354C126.297 42.0087 126.39 41.598 126.39 41.122ZM137.489 40.954C137.489 41.234 137.47 41.486 137.433 41.71H131.763C131.809 42.27 132.005 42.7087 132.351 43.026C132.696 43.3433 133.121 43.502 133.625 43.502C134.353 43.502 134.871 43.1893 135.179 42.564H137.293C137.069 43.3107 136.639 43.9267 136.005 44.412C135.37 44.888 134.591 45.126 133.667 45.126C132.92 45.126 132.248 44.9627 131.651 44.636C131.063 44.3 130.601 43.8287 130.265 43.222C129.938 42.6153 129.774 41.9153 129.774 41.122C129.774 40.3193 129.938 39.6147 130.265 39.008C130.591 38.4013 131.049 37.9347 131.637 37.608C132.225 37.2813 132.901 37.118 133.667 37.118C134.404 37.118 135.062 37.2767 135.641 37.594C136.229 37.9113 136.681 38.364 136.999 38.952C137.325 39.5307 137.489 40.198 137.489 40.954ZM135.459 40.394C135.449 39.89 135.267 39.4887 134.913 39.19C134.558 38.882 134.124 38.728 133.611 38.728C133.125 38.728 132.715 38.8773 132.379 39.176C132.052 39.4653 131.851 39.8713 131.777 40.394H135.459ZM148.551 37.132C149.503 37.132 150.268 37.426 150.847 38.014C151.435 38.5927 151.729 39.4047 151.729 40.45V45H149.769V40.716C149.769 40.1093 149.615 39.6473 149.307 39.33C148.999 39.0033 148.579 38.84 148.047 38.84C147.515 38.84 147.09 39.0033 146.773 39.33C146.465 39.6473 146.311 40.1093 146.311 40.716V45H144.351V40.716C144.351 40.1093 144.197 39.6473 143.889 39.33C143.581 39.0033 143.161 38.84 142.629 38.84C142.088 38.84 141.658 39.0033 141.341 39.33C141.033 39.6473 140.879 40.1093 140.879 40.716V45H138.919V37.244H140.879V38.182C141.131 37.8553 141.453 37.5987 141.845 37.412C142.246 37.2253 142.685 37.132 143.161 37.132C143.768 37.132 144.309 37.2627 144.785 37.524C145.261 37.776 145.63 38.14 145.891 38.616C146.143 38.168 146.507 37.8087 146.983 37.538C147.468 37.2673 147.991 37.132 148.551 37.132ZM160.799 40.954C160.799 41.234 160.78 41.486 160.743 41.71H155.073C155.12 42.27 155.316 42.7087 155.661 43.026C156.006 43.3433 156.431 43.502 156.935 43.502C157.663 43.502 158.181 43.1893 158.489 42.564H160.603C160.379 43.3107 159.95 43.9267 159.315 44.412C158.68 44.888 157.901 45.126 156.977 45.126C156.23 45.126 155.558 44.9627 154.961 44.636C154.373 44.3 153.911 43.8287 153.575 43.222C153.248 42.6153 153.085 41.9153 153.085 41.122C153.085 40.3193 153.248 39.6147 153.575 39.008C153.902 38.4013 154.359 37.9347 154.947 37.608C155.535 37.2813 156.212 37.118 156.977 37.118C157.714 37.118 158.372 37.2767 158.951 37.594C159.539 37.9113 159.992 38.364 160.309 38.952C160.636 39.5307 160.799 40.198 160.799 40.954ZM158.769 40.394C158.76 39.89 158.578 39.4887 158.223 39.19C157.868 38.882 157.434 38.728 156.921 38.728C156.436 38.728 156.025 38.8773 155.689 39.176C155.362 39.4653 155.162 39.8713 155.087 40.394H158.769ZM166.528 37.132C167.452 37.132 168.198 37.426 168.768 38.014C169.337 38.5927 169.622 39.4047 169.622 40.45V45H167.662V40.716C167.662 40.1 167.508 39.6287 167.2 39.302C166.892 38.966 166.472 38.798 165.94 38.798C165.398 38.798 164.969 38.966 164.652 39.302C164.344 39.6287 164.19 40.1 164.19 40.716V45H162.23V37.244H164.19V38.21C164.451 37.874 164.782 37.6127 165.184 37.426C165.594 37.23 166.042 37.132 166.528 37.132ZM173.768 38.854V42.606C173.768 42.8673 173.828 43.0587 173.95 43.18C174.08 43.292 174.295 43.348 174.594 43.348H175.504V45H174.272C172.62 45 171.794 44.1973 171.794 42.592V38.854H170.87V37.244H171.794V35.326H173.768V37.244H175.504V38.854H173.768Z" fill="#050329"/>
<defs>
<clipPath id="clip0_570_470">
<rect width="20" height="20" fill="white" transform="translate(20 20)"/>
</clipPath>
</defs>
</svg>
