<svg width="211" height="60" viewBox="0 0 211 60" fill="none" xmlns="http://www.w3.org/2000/svg">
<circle cx="30" cy="30" r="30" fill="#EAFED6"/>
<path fill-rule="evenodd" clip-rule="evenodd" d="M22.5 21.75C22.3011 21.75 22.1103 21.829 21.9697 21.9697C21.829 22.1103 21.75 22.3011 21.75 22.5V37.5C21.75 37.6989 21.829 37.8897 21.9697 38.0303C22.1103 38.171 22.3011 38.25 22.5 38.25H30.375C30.6734 38.25 30.9595 38.3685 31.1705 38.5795C31.3815 38.7905 31.5 39.0766 31.5 39.375C31.5 39.6734 31.3815 39.9595 31.1705 40.1705C30.9595 40.3815 30.6734 40.5 30.375 40.5H22.5C21.7044 40.5 20.9413 40.1839 20.3787 39.6213C19.8161 39.0587 19.5 38.2956 19.5 37.5V22.5C19.5 21.7044 19.8161 20.9413 20.3787 20.3787C20.9413 19.8161 21.7044 19.5 22.5 19.5H37.5C38.2956 19.5 39.0587 19.8161 39.6213 20.3787C40.1839 20.9413 40.5 21.7044 40.5 22.5V31.875C40.5 32.1734 40.3815 32.4595 40.1705 32.6705C39.9595 32.8815 39.6734 33 39.375 33C39.0766 33 38.7905 32.8815 38.5795 32.6705C38.3685 32.4595 38.25 32.1734 38.25 31.875V22.5C38.25 22.3011 38.171 22.1103 38.0303 21.9697C37.8897 21.829 37.6989 21.75 37.5 21.75H22.5ZM40.92 34.83C41.1307 35.0409 41.249 35.3269 41.249 35.625C41.249 35.9231 41.1307 36.2091 40.92 36.42L37.17 40.17C36.9591 40.3807 36.6731 40.499 36.375 40.499C36.0769 40.499 35.7909 40.3807 35.58 40.17L34.08 38.67C33.9695 38.567 33.8808 38.4428 33.8193 38.3048C33.7578 38.1668 33.7248 38.0178 33.7221 37.8668C33.7194 37.7157 33.7472 37.5657 33.8038 37.4256C33.8604 37.2855 33.9446 37.1583 34.0514 37.0514C34.1583 36.9446 34.2855 36.8604 34.4256 36.8038C34.5657 36.7472 34.7157 36.7194 34.8668 36.7221C35.0178 36.7248 35.1668 36.7578 35.3048 36.8193C35.4428 36.8808 35.567 36.9695 35.67 37.08L36.375 37.785L39.33 34.83C39.5409 34.6193 39.8269 34.501 40.125 34.501C40.4231 34.501 40.7091 34.6193 40.92 34.83ZM25.125 24C24.8266 24 24.5405 24.1185 24.3295 24.3295C24.1185 24.5405 24 24.8266 24 25.125C24 25.4234 24.1185 25.7095 24.3295 25.9205C24.5405 26.1315 24.8266 26.25 25.125 26.25H34.875C35.1734 26.25 35.4595 26.1315 35.6705 25.9205C35.8815 25.7095 36 25.4234 36 25.125C36 24.8266 35.8815 24.5405 35.6705 24.3295C35.4595 24.1185 35.1734 24 34.875 24H25.125ZM24 30C24 29.7016 24.1185 29.4155 24.3295 29.2045C24.5405 28.9935 24.8266 28.875 25.125 28.875H34.875C35.1734 28.875 35.4595 28.9935 35.6705 29.2045C35.8815 29.4155 36 29.7016 36 30C36 30.2984 35.8815 30.5845 35.6705 30.7955C35.4595 31.0065 35.1734 31.125 34.875 31.125H25.125C24.8266 31.125 24.5405 31.0065 24.3295 30.7955C24.1185 30.5845 24 30.2984 24 30ZM25.125 33.75C24.8266 33.75 24.5405 33.8685 24.3295 34.0795C24.1185 34.2905 24 34.5766 24 34.875C24 35.1734 24.1185 35.4595 24.3295 35.6705C24.5405 35.8815 24.8266 36 25.125 36H30.375C30.6734 36 30.9595 35.8815 31.1705 35.6705C31.3815 35.4595 31.5 35.1734 31.5 34.875C31.5 34.5766 31.3815 34.2905 31.1705 34.0795C30.9595 33.8685 30.6734 33.75 30.375 33.75H25.125Z" fill="#478707"/>
<path d="M85.006 34.5L82.85 30.692H81.926V34.5H79.966V24.728H83.634C84.39 24.728 85.034 24.8633 85.566 25.134C86.098 25.3953 86.4947 25.7547 86.756 26.212C87.0267 26.66 87.162 27.164 87.162 27.724C87.162 28.368 86.9753 28.9513 86.602 29.474C86.2287 29.9873 85.6733 30.342 84.936 30.538L87.274 34.5H85.006ZM81.926 29.222H83.564C84.096 29.222 84.4927 29.096 84.754 28.844C85.0153 28.5827 85.146 28.2233 85.146 27.766C85.146 27.318 85.0153 26.9727 84.754 26.73C84.4927 26.478 84.096 26.352 83.564 26.352H81.926V29.222ZM96.1448 30.454C96.1448 30.734 96.1261 30.986 96.0888 31.21H90.4188C90.4654 31.77 90.6614 32.2087 91.0068 32.526C91.3521 32.8433 91.7768 33.002 92.2808 33.002C93.0088 33.002 93.5268 32.6893 93.8348 32.064H95.9488C95.7248 32.8107 95.2954 33.4267 94.6608 33.912C94.0261 34.388 93.2468 34.626 92.3228 34.626C91.5761 34.626 90.9041 34.4627 90.3068 34.136C89.7188 33.8 89.2568 33.3287 88.9208 32.722C88.5941 32.1153 88.4307 31.4153 88.4307 30.622C88.4307 29.8193 88.5941 29.1147 88.9208 28.508C89.2474 27.9013 89.7048 27.4347 90.2928 27.108C90.8808 26.7813 91.5574 26.618 92.3228 26.618C93.0601 26.618 93.7181 26.7767 94.2968 27.094C94.8848 27.4113 95.3374 27.864 95.6548 28.452C95.9814 29.0307 96.1448 29.698 96.1448 30.454ZM94.1148 29.894C94.1054 29.39 93.9234 28.9887 93.5688 28.69C93.2141 28.382 92.7801 28.228 92.2668 28.228C91.7814 28.228 91.3708 28.3773 91.0348 28.676C90.7081 28.9653 90.5074 29.3713 90.4328 29.894H94.1148ZM97.0714 30.622C97.0714 29.8193 97.2347 29.1193 97.5614 28.522C97.888 27.9153 98.3407 27.4487 98.9194 27.122C99.498 26.786 100.161 26.618 100.907 26.618C101.869 26.618 102.662 26.8607 103.287 27.346C103.922 27.822 104.347 28.494 104.561 29.362H102.447C102.335 29.026 102.144 28.7647 101.873 28.578C101.612 28.382 101.285 28.284 100.893 28.284C100.333 28.284 99.89 28.4893 99.5634 28.9C99.2367 29.3013 99.0734 29.8753 99.0734 30.622C99.0734 31.3593 99.2367 31.9333 99.5634 32.344C99.89 32.7453 100.333 32.946 100.893 32.946C101.687 32.946 102.205 32.5913 102.447 31.882H104.561C104.347 32.722 103.922 33.3893 103.287 33.884C102.653 34.3787 101.859 34.626 100.907 34.626C100.161 34.626 99.498 34.4627 98.9194 34.136C98.3407 33.8 97.888 33.3333 97.5614 32.736C97.2347 32.1293 97.0714 31.4247 97.0714 30.622ZM107.957 27.948C108.209 27.5373 108.536 27.2153 108.937 26.982C109.348 26.7487 109.815 26.632 110.337 26.632V28.69H109.819C109.203 28.69 108.737 28.8347 108.419 29.124C108.111 29.4133 107.957 29.9173 107.957 30.636V34.5H105.997V26.744H107.957V27.948ZM118.979 26.744V34.5H117.005V33.52C116.753 33.856 116.422 34.122 116.011 34.318C115.61 34.5047 115.171 34.598 114.695 34.598C114.089 34.598 113.552 34.472 113.085 34.22C112.619 33.9587 112.25 33.5807 111.979 33.086C111.718 32.582 111.587 31.9847 111.587 31.294V26.744H113.547V31.014C113.547 31.63 113.701 32.106 114.009 32.442C114.317 32.7687 114.737 32.932 115.269 32.932C115.811 32.932 116.235 32.7687 116.543 32.442C116.851 32.106 117.005 31.63 117.005 31.014V26.744H118.979ZM121.907 25.82C121.562 25.82 121.273 25.7127 121.039 25.498C120.815 25.274 120.703 24.9987 120.703 24.672C120.703 24.3453 120.815 24.0747 121.039 23.86C121.273 23.636 121.562 23.524 121.907 23.524C122.253 23.524 122.537 23.636 122.761 23.86C122.995 24.0747 123.111 24.3453 123.111 24.672C123.111 24.9987 122.995 25.274 122.761 25.498C122.537 25.7127 122.253 25.82 121.907 25.82ZM122.873 26.744V34.5H120.913V26.744H122.873ZM127.092 28.354V32.106C127.092 32.3673 127.152 32.5587 127.274 32.68C127.404 32.792 127.619 32.848 127.918 32.848H128.828V34.5H127.596C125.944 34.5 125.118 33.6973 125.118 32.092V28.354H124.194V26.744H125.118V24.826H127.092V26.744H128.828V28.354H127.092ZM139.869 26.632C140.821 26.632 141.587 26.926 142.165 27.514C142.753 28.0927 143.047 28.9047 143.047 29.95V34.5H141.087V30.216C141.087 29.6093 140.933 29.1473 140.625 28.83C140.317 28.5033 139.897 28.34 139.365 28.34C138.833 28.34 138.409 28.5033 138.091 28.83C137.783 29.1473 137.629 29.6093 137.629 30.216V34.5H135.669V30.216C135.669 29.6093 135.515 29.1473 135.207 28.83C134.899 28.5033 134.479 28.34 133.947 28.34C133.406 28.34 132.977 28.5033 132.659 28.83C132.351 29.1473 132.197 29.6093 132.197 30.216V34.5H130.237V26.744H132.197V27.682C132.449 27.3553 132.771 27.0987 133.163 26.912C133.565 26.7253 134.003 26.632 134.479 26.632C135.086 26.632 135.627 26.7627 136.103 27.024C136.579 27.276 136.948 27.64 137.209 28.116C137.461 27.668 137.825 27.3087 138.301 27.038C138.787 26.7673 139.309 26.632 139.869 26.632ZM152.117 30.454C152.117 30.734 152.099 30.986 152.061 31.21H146.391C146.438 31.77 146.634 32.2087 146.979 32.526C147.325 32.8433 147.749 33.002 148.253 33.002C148.981 33.002 149.499 32.6893 149.807 32.064H151.921C151.697 32.8107 151.268 33.4267 150.633 33.912C149.999 34.388 149.219 34.626 148.295 34.626C147.549 34.626 146.877 34.4627 146.279 34.136C145.691 33.8 145.229 33.3287 144.893 32.722C144.567 32.1153 144.403 31.4153 144.403 30.622C144.403 29.8193 144.567 29.1147 144.893 28.508C145.22 27.9013 145.677 27.4347 146.265 27.108C146.853 26.7813 147.53 26.618 148.295 26.618C149.033 26.618 149.691 26.7767 150.269 27.094C150.857 27.4113 151.31 27.864 151.627 28.452C151.954 29.0307 152.117 29.698 152.117 30.454ZM150.087 29.894C150.078 29.39 149.896 28.9887 149.541 28.69C149.187 28.382 148.753 28.228 148.239 28.228C147.754 28.228 147.343 28.3773 147.007 28.676C146.681 28.9653 146.48 29.3713 146.405 29.894H150.087ZM157.846 26.632C158.77 26.632 159.517 26.926 160.086 27.514C160.655 28.0927 160.94 28.9047 160.94 29.95V34.5H158.98V30.216C158.98 29.6 158.826 29.1287 158.518 28.802C158.21 28.466 157.79 28.298 157.258 28.298C156.717 28.298 156.287 28.466 155.97 28.802C155.662 29.1287 155.508 29.6 155.508 30.216V34.5H153.548V26.744H155.508V27.71C155.769 27.374 156.101 27.1127 156.502 26.926C156.913 26.73 157.361 26.632 157.846 26.632ZM165.086 28.354V32.106C165.086 32.3673 165.147 32.5587 165.268 32.68C165.399 32.792 165.613 32.848 165.912 32.848H166.822V34.5H165.59C163.938 34.5 163.112 33.6973 163.112 32.092V28.354H162.188V26.744H163.112V24.826H165.086V26.744H166.822V28.354H165.086Z" fill="#050329"/>
</svg>
