<svg width="211" height="60" viewBox="0 0 211 60" fill="none" xmlns="http://www.w3.org/2000/svg">
<circle cx="30" cy="30" r="30" fill="#C9E3FC"/>
<mask id="mask0_570_552" style="mask-type:luminance" maskUnits="userSpaceOnUse" x="21" y="19" width="19" height="22">
<path d="M38 29.5V25L33.5 20H23C22.7348 20 22.4804 20.1054 22.2929 20.2929C22.1054 20.4804 22 20.7348 22 21V39C22 39.2652 22.1054 39.5196 22.2929 39.7071C22.4804 39.8946 22.7348 40 23 40H28" stroke="white" stroke-width="2" stroke-linecap="round" stroke-linejoin="round"/>
<path d="M35 36C36.1046 36 37 35.1046 37 34C37 32.8954 36.1046 32 35 32C33.8954 32 33 32.8954 33 34C33 35.1046 33.8954 36 35 36Z" fill="#555555" stroke="white" stroke-width="2" stroke-linecap="round" stroke-linejoin="round"/>
<path d="M39 40C39 38.9391 38.5786 37.9217 37.8284 37.1716C37.0783 36.4214 36.0609 36 35 36C33.9391 36 32.9217 36.4214 32.1716 37.1716C31.4214 37.9217 31 38.9391 31 40M33 20V25H38" stroke="white" stroke-width="2" stroke-linecap="round" stroke-linejoin="round"/>
</mask>
<g mask="url(#mask0_570_552)">
<path d="M18 18H42V42H18V18Z" fill="#072C4E"/>
</g>
<path d="M83.34 34.598C82.6587 34.598 82.0427 34.4813 81.492 34.248C80.9507 34.0147 80.5213 33.6787 80.204 33.24C79.8867 32.8013 79.7233 32.2833 79.714 31.686H81.814C81.842 32.0873 81.982 32.4047 82.234 32.638C82.4953 32.8713 82.85 32.988 83.298 32.988C83.7553 32.988 84.1147 32.8807 84.376 32.666C84.6373 32.442 84.768 32.1527 84.768 31.798C84.768 31.5087 84.6793 31.2707 84.502 31.084C84.3247 30.8973 84.1007 30.7527 83.83 30.65C83.5687 30.538 83.2047 30.4167 82.738 30.286C82.1033 30.0993 81.5853 29.9173 81.184 29.74C80.792 29.5533 80.4513 29.278 80.162 28.914C79.882 28.5407 79.742 28.046 79.742 27.43C79.742 26.8513 79.8867 26.3473 80.176 25.918C80.4653 25.4887 80.8713 25.162 81.394 24.938C81.9167 24.7047 82.514 24.588 83.186 24.588C84.194 24.588 85.0107 24.8353 85.636 25.33C86.2707 25.8153 86.6207 26.4967 86.686 27.374H84.53C84.5113 27.038 84.3667 26.7627 84.096 26.548C83.8347 26.324 83.4847 26.212 83.046 26.212C82.6633 26.212 82.3553 26.31 82.122 26.506C81.898 26.702 81.786 26.9867 81.786 27.36C81.786 27.6213 81.87 27.8407 82.038 28.018C82.2153 28.186 82.43 28.326 82.682 28.438C82.9433 28.5407 83.3073 28.662 83.774 28.802C84.4087 28.9887 84.9267 29.1753 85.328 29.362C85.7293 29.5487 86.0747 29.8287 86.364 30.202C86.6533 30.5753 86.798 31.0653 86.798 31.672C86.798 32.1947 86.6627 32.68 86.392 33.128C86.1213 33.576 85.7247 33.9353 85.202 34.206C84.6793 34.4673 84.0587 34.598 83.34 34.598ZM90.7793 28.354V32.106C90.7793 32.3673 90.8399 32.5587 90.9613 32.68C91.0919 32.792 91.3066 32.848 91.6053 32.848H92.5153V34.5H91.2833C89.6313 34.5 88.8053 33.6973 88.8053 32.092V28.354H87.8813V26.744H88.8053V24.826H90.7793V26.744H92.5153V28.354H90.7793ZM93.421 30.594C93.421 29.81 93.575 29.1147 93.883 28.508C94.2003 27.9013 94.625 27.4347 95.157 27.108C95.6983 26.7813 96.3003 26.618 96.963 26.618C97.5417 26.618 98.0457 26.7347 98.475 26.968C98.9137 27.2013 99.2637 27.4953 99.525 27.85V26.744H101.499V34.5H99.525V33.366C99.273 33.73 98.923 34.0333 98.475 34.276C98.0363 34.5093 97.5277 34.626 96.949 34.626C96.2957 34.626 95.6983 34.458 95.157 34.122C94.625 33.786 94.2003 33.3147 93.883 32.708C93.575 32.092 93.421 31.3873 93.421 30.594ZM99.525 30.622C99.525 30.146 99.4317 29.74 99.245 29.404C99.0583 29.0587 98.8063 28.7973 98.489 28.62C98.1717 28.4333 97.831 28.34 97.467 28.34C97.103 28.34 96.767 28.4287 96.459 28.606C96.151 28.7833 95.899 29.0447 95.703 29.39C95.5163 29.726 95.423 30.1273 95.423 30.594C95.423 31.0607 95.5163 31.4713 95.703 31.826C95.899 32.1713 96.151 32.4373 96.459 32.624C96.7763 32.8107 97.1123 32.904 97.467 32.904C97.831 32.904 98.1717 32.8153 98.489 32.638C98.8063 32.4513 99.0583 32.19 99.245 31.854C99.4317 31.5087 99.525 31.098 99.525 30.622ZM106.969 28.354H105.611V34.5H103.623V28.354H102.741V26.744H103.623V26.352C103.623 25.4 103.894 24.7 104.435 24.252C104.977 23.804 105.793 23.594 106.885 23.622V25.274C106.409 25.2647 106.078 25.344 105.891 25.512C105.705 25.68 105.611 25.9833 105.611 26.422V26.744H106.969V28.354ZM111.795 28.354H110.437V34.5H108.449V28.354H107.567V26.744H108.449V26.352C108.449 25.4 108.72 24.7 109.261 24.252C109.803 23.804 110.619 23.594 111.711 23.622V25.274C111.235 25.2647 110.904 25.344 110.717 25.512C110.531 25.68 110.437 25.9833 110.437 26.422V26.744H111.795V28.354ZM119.818 24.728C120.844 24.728 121.745 24.9287 122.52 25.33C123.304 25.7313 123.906 26.3053 124.326 27.052C124.755 27.7893 124.97 28.648 124.97 29.628C124.97 30.608 124.755 31.4667 124.326 32.204C123.906 32.932 123.304 33.4967 122.52 33.898C121.745 34.2993 120.844 34.5 119.818 34.5H116.402V24.728H119.818ZM119.748 32.834C120.774 32.834 121.568 32.554 122.128 31.994C122.688 31.434 122.968 30.6453 122.968 29.628C122.968 28.6107 122.688 27.8173 122.128 27.248C121.568 26.6693 120.774 26.38 119.748 26.38H118.362V32.834H119.748ZM127.431 25.82C127.085 25.82 126.796 25.7127 126.563 25.498C126.339 25.274 126.227 24.9987 126.227 24.672C126.227 24.3453 126.339 24.0747 126.563 23.86C126.796 23.636 127.085 23.524 127.431 23.524C127.776 23.524 128.061 23.636 128.285 23.86C128.518 24.0747 128.635 24.3453 128.635 24.672C128.635 24.9987 128.518 25.274 128.285 25.498C128.061 25.7127 127.776 25.82 127.431 25.82ZM128.397 26.744V34.5H126.437V26.744H128.397ZM132.293 27.948C132.545 27.5373 132.872 27.2153 133.273 26.982C133.684 26.7487 134.151 26.632 134.673 26.632V28.69H134.155C133.539 28.69 133.073 28.8347 132.755 29.124C132.447 29.4133 132.293 29.9173 132.293 30.636V34.5H130.333V26.744H132.293V27.948ZM143.203 30.454C143.203 30.734 143.185 30.986 143.147 31.21H137.477C137.524 31.77 137.72 32.2087 138.065 32.526C138.411 32.8433 138.835 33.002 139.339 33.002C140.067 33.002 140.585 32.6893 140.893 32.064H143.007C142.783 32.8107 142.354 33.4267 141.719 33.912C141.085 34.388 140.305 34.626 139.381 34.626C138.635 34.626 137.963 34.4627 137.365 34.136C136.777 33.8 136.315 33.3287 135.979 32.722C135.653 32.1153 135.489 31.4153 135.489 30.622C135.489 29.8193 135.653 29.1147 135.979 28.508C136.306 27.9013 136.763 27.4347 137.351 27.108C137.939 26.7813 138.616 26.618 139.381 26.618C140.119 26.618 140.777 26.7767 141.355 27.094C141.943 27.4113 142.396 27.864 142.713 28.452C143.04 29.0307 143.203 29.698 143.203 30.454ZM141.173 29.894C141.164 29.39 140.982 28.9887 140.627 28.69C140.273 28.382 139.839 28.228 139.325 28.228C138.84 28.228 138.429 28.3773 138.093 28.676C137.767 28.9653 137.566 29.3713 137.491 29.894H141.173ZM144.13 30.622C144.13 29.8193 144.293 29.1193 144.62 28.522C144.947 27.9153 145.399 27.4487 145.978 27.122C146.557 26.786 147.219 26.618 147.966 26.618C148.927 26.618 149.721 26.8607 150.346 27.346C150.981 27.822 151.405 28.494 151.62 29.362H149.506C149.394 29.026 149.203 28.7647 148.932 28.578C148.671 28.382 148.344 28.284 147.952 28.284C147.392 28.284 146.949 28.4893 146.622 28.9C146.295 29.3013 146.132 29.8753 146.132 30.622C146.132 31.3593 146.295 31.9333 146.622 32.344C146.949 32.7453 147.392 32.946 147.952 32.946C148.745 32.946 149.263 32.5913 149.506 31.882H151.62C151.405 32.722 150.981 33.3893 150.346 33.884C149.711 34.3787 148.918 34.626 147.966 34.626C147.219 34.626 146.557 34.4627 145.978 34.136C145.399 33.8 144.947 33.3333 144.62 32.736C144.293 32.1293 144.13 31.4247 144.13 30.622ZM155.338 28.354V32.106C155.338 32.3673 155.399 32.5587 155.52 32.68C155.651 32.792 155.865 32.848 156.164 32.848H157.074V34.5H155.842C154.19 34.5 153.364 33.6973 153.364 32.092V28.354H152.44V26.744H153.364V24.826H155.338V26.744H157.074V28.354H155.338ZM161.928 34.626C161.181 34.626 160.509 34.4627 159.912 34.136C159.314 33.8 158.843 33.3287 158.498 32.722C158.162 32.1153 157.994 31.4153 157.994 30.622C157.994 29.8287 158.166 29.1287 158.512 28.522C158.866 27.9153 159.347 27.4487 159.954 27.122C160.56 26.786 161.237 26.618 161.984 26.618C162.73 26.618 163.407 26.786 164.014 27.122C164.62 27.4487 165.096 27.9153 165.442 28.522C165.796 29.1287 165.974 29.8287 165.974 30.622C165.974 31.4153 165.792 32.1153 165.428 32.722C165.073 33.3287 164.588 33.8 163.972 34.136C163.365 34.4627 162.684 34.626 161.928 34.626ZM161.928 32.918C162.282 32.918 162.614 32.834 162.922 32.666C163.239 32.4887 163.491 32.2273 163.678 31.882C163.864 31.5367 163.958 31.1167 163.958 30.622C163.958 29.8847 163.762 29.32 163.37 28.928C162.987 28.5267 162.516 28.326 161.956 28.326C161.396 28.326 160.924 28.5267 160.542 28.928C160.168 29.32 159.982 29.8847 159.982 30.622C159.982 31.3593 160.164 31.9287 160.528 32.33C160.901 32.722 161.368 32.918 161.928 32.918ZM169.371 27.948C169.623 27.5373 169.95 27.2153 170.351 26.982C170.762 26.7487 171.229 26.632 171.751 26.632V28.69H171.233C170.617 28.69 170.151 28.8347 169.833 29.124C169.525 29.4133 169.371 29.9173 169.371 30.636V34.5H167.411V26.744H169.371V27.948ZM180.491 26.744L175.689 38.168H173.603L175.283 34.304L172.175 26.744H174.373L176.375 32.162L178.405 26.744H180.491Z" fill="#050329"/>
</svg>
