<svg width="211" height="60" viewBox="0 0 211 60" fill="none" xmlns="http://www.w3.org/2000/svg">
<circle cx="30" cy="30" r="30" fill="#DCFFC6"/>
<g clip-path="url(#clip0_569_132)">
<path d="M33.7298 26.5504V28.3041M33.7285 24.4226C33.7075 24.4226 33.6866 24.4184 33.6672 24.4103C33.6478 24.4022 33.6302 24.3904 33.6153 24.3754C33.6005 24.3605 33.5888 24.3427 33.5809 24.3233C33.5729 24.3038 33.5689 24.2829 33.5691 24.2618C33.5691 24.1718 33.6411 24.1011 33.7285 24.1011M33.7311 24.4226C33.7735 24.4222 33.814 24.4051 33.8439 24.375C33.8738 24.3449 33.8905 24.3043 33.8905 24.2618C33.8907 24.2408 33.8867 24.2199 33.8788 24.2004C33.8708 24.181 33.8591 24.1632 33.8443 24.1483C33.8295 24.1333 33.8118 24.1215 33.7924 24.1134C33.773 24.1053 33.7521 24.1011 33.7311 24.1011M22.1018 37.5394H37.5394M23.5572 29.7801C23.5572 30.1075 23.6217 30.4317 23.747 30.7342C23.8723 31.0366 24.0559 31.3115 24.2874 31.543C24.5189 31.7744 24.7937 31.9581 25.0962 32.0834C25.3987 32.2087 25.7228 32.2731 26.0502 32.2731C26.3776 32.2731 26.7018 32.2087 27.0043 32.0834C27.3067 31.9581 27.5816 31.7744 27.8131 31.543C28.0445 31.3115 28.2282 31.0366 28.3535 30.7342C28.4788 30.4317 28.5432 30.1075 28.5432 29.7801C28.5432 29.4528 28.4788 29.1286 28.3535 28.8261C28.2282 28.5236 28.0445 28.2488 27.8131 28.0173C27.5816 27.7858 27.3067 27.6022 27.0043 27.4769C26.7018 27.3516 26.3776 27.2871 26.0502 27.2871C25.7228 27.2871 25.3987 27.3516 25.0962 27.4769C24.7937 27.6022 24.5189 27.7858 24.2874 28.0173C24.0559 28.2488 23.8723 28.5236 23.747 28.8261C23.6217 29.1286 23.5572 29.4528 23.5572 29.7801Z" stroke="#3B850E" stroke-width="1.5" stroke-linecap="round" stroke-linejoin="round"/>
<path d="M22.0992 37.5407V36.2242C22.0992 35.1765 22.5154 34.1717 23.2563 33.4308C23.9971 32.69 25.0019 32.2738 26.0496 32.2738C27.0973 32.2738 28.1021 32.69 28.8429 33.4308C29.5838 34.1717 30 35.1765 30 36.2242V37.5407M30.5065 29.6349C31.2537 30.366 32.2289 30.8188 33.2695 30.9178C34.3101 31.0168 35.3533 30.7561 36.2249 30.179C37.0965 29.6019 37.7439 28.7435 38.0591 27.7468C38.3743 26.7501 38.3383 25.6755 37.957 24.7022C37.5757 23.7289 36.8722 22.9157 35.9638 22.3984C35.0555 21.881 33.9973 21.6907 32.9656 21.8593C31.934 22.0278 30.9913 22.545 30.2948 23.3245C29.5984 24.1041 29.1902 25.0988 29.1385 26.1429" stroke="#3B850E" stroke-width="1.5" stroke-linecap="round" stroke-linejoin="round"/>
</g>
<path d="M83.34 24.098C82.6587 24.098 82.0427 23.9813 81.492 23.748C80.9507 23.5147 80.5213 23.1787 80.204 22.74C79.8867 22.3013 79.7233 21.7833 79.714 21.186H81.814C81.842 21.5873 81.982 21.9047 82.234 22.138C82.4953 22.3713 82.85 22.488 83.298 22.488C83.7553 22.488 84.1147 22.3807 84.376 22.166C84.6373 21.942 84.768 21.6527 84.768 21.298C84.768 21.0087 84.6793 20.7707 84.502 20.584C84.3247 20.3973 84.1007 20.2527 83.83 20.15C83.5687 20.038 83.2047 19.9167 82.738 19.786C82.1033 19.5993 81.5853 19.4173 81.184 19.24C80.792 19.0533 80.4513 18.778 80.162 18.414C79.882 18.0407 79.742 17.546 79.742 16.93C79.742 16.3513 79.8867 15.8473 80.176 15.418C80.4653 14.9887 80.8713 14.662 81.394 14.438C81.9167 14.2047 82.514 14.088 83.186 14.088C84.194 14.088 85.0107 14.3353 85.636 14.83C86.2707 15.3153 86.6207 15.9967 86.686 16.874H84.53C84.5113 16.538 84.3667 16.2627 84.096 16.048C83.8347 15.824 83.4847 15.712 83.046 15.712C82.6633 15.712 82.3553 15.81 82.122 16.006C81.898 16.202 81.786 16.4867 81.786 16.86C81.786 17.1213 81.87 17.3407 82.038 17.518C82.2153 17.686 82.43 17.826 82.682 17.938C82.9433 18.0407 83.3073 18.162 83.774 18.302C84.4087 18.4887 84.9267 18.6753 85.328 18.862C85.7293 19.0487 86.0747 19.3287 86.364 19.702C86.6533 20.0753 86.798 20.5653 86.798 21.172C86.798 21.6947 86.6627 22.18 86.392 22.628C86.1213 23.076 85.7247 23.4353 85.202 23.706C84.6793 23.9673 84.0587 24.098 83.34 24.098ZM90.7793 17.854V21.606C90.7793 21.8673 90.8399 22.0587 90.9613 22.18C91.0919 22.292 91.3066 22.348 91.6053 22.348H92.5153V24H91.2833C89.6313 24 88.8053 23.1973 88.8053 21.592V17.854H87.8813V16.244H88.8053V14.326H90.7793V16.244H92.5153V17.854H90.7793ZM101.247 16.244V24H99.273V23.02C99.021 23.356 98.6897 23.622 98.279 23.818C97.8777 24.0047 97.439 24.098 96.963 24.098C96.3563 24.098 95.8197 23.972 95.353 23.72C94.8863 23.4587 94.5177 23.0807 94.247 22.586C93.9857 22.082 93.855 21.4847 93.855 20.794V16.244H95.815V20.514C95.815 21.13 95.969 21.606 96.277 21.942C96.585 22.2687 97.005 22.432 97.537 22.432C98.0783 22.432 98.503 22.2687 98.811 21.942C99.119 21.606 99.273 21.13 99.273 20.514V16.244H101.247ZM102.677 20.094C102.677 19.31 102.831 18.6147 103.139 18.008C103.456 17.4013 103.886 16.9347 104.427 16.608C104.968 16.2813 105.57 16.118 106.233 16.118C106.737 16.118 107.218 16.23 107.675 16.454C108.132 16.6687 108.496 16.958 108.767 17.322V13.64H110.755V24H108.767V22.852C108.524 23.2347 108.184 23.5427 107.745 23.776C107.306 24.0093 106.798 24.126 106.219 24.126C105.566 24.126 104.968 23.958 104.427 23.622C103.886 23.286 103.456 22.8147 103.139 22.208C102.831 21.592 102.677 20.8873 102.677 20.094ZM108.781 20.122C108.781 19.646 108.688 19.24 108.501 18.904C108.314 18.5587 108.062 18.2973 107.745 18.12C107.428 17.9333 107.087 17.84 106.723 17.84C106.359 17.84 106.023 17.9287 105.715 18.106C105.407 18.2833 105.155 18.5447 104.959 18.89C104.772 19.226 104.679 19.6273 104.679 20.094C104.679 20.5607 104.772 20.9713 104.959 21.326C105.155 21.6713 105.407 21.9373 105.715 22.124C106.032 22.3107 106.368 22.404 106.723 22.404C107.087 22.404 107.428 22.3153 107.745 22.138C108.062 21.9513 108.314 21.69 108.501 21.354C108.688 21.0087 108.781 20.598 108.781 20.122ZM119.879 19.954C119.879 20.234 119.86 20.486 119.823 20.71H114.153C114.2 21.27 114.396 21.7087 114.741 22.026C115.086 22.3433 115.511 22.502 116.015 22.502C116.743 22.502 117.261 22.1893 117.569 21.564H119.683C119.459 22.3107 119.03 22.9267 118.395 23.412C117.76 23.888 116.981 24.126 116.057 24.126C115.31 24.126 114.638 23.9627 114.041 23.636C113.453 23.3 112.991 22.8287 112.655 22.222C112.328 21.6153 112.165 20.9153 112.165 20.122C112.165 19.3193 112.328 18.6147 112.655 18.008C112.982 17.4013 113.439 16.9347 114.027 16.608C114.615 16.2813 115.292 16.118 116.057 16.118C116.794 16.118 117.452 16.2767 118.031 16.594C118.619 16.9113 119.072 17.364 119.389 17.952C119.716 18.5307 119.879 19.198 119.879 19.954ZM117.849 19.394C117.84 18.89 117.658 18.4887 117.303 18.19C116.948 17.882 116.514 17.728 116.001 17.728C115.516 17.728 115.105 17.8773 114.769 18.176C114.442 18.4653 114.242 18.8713 114.167 19.394H117.849ZM125.608 16.132C126.532 16.132 127.278 16.426 127.848 17.014C128.417 17.5927 128.702 18.4047 128.702 19.45V24H126.742V19.716C126.742 19.1 126.588 18.6287 126.28 18.302C125.972 17.966 125.552 17.798 125.02 17.798C124.478 17.798 124.049 17.966 123.732 18.302C123.424 18.6287 123.27 19.1 123.27 19.716V24H121.31V16.244H123.27V17.21C123.531 16.874 123.862 16.6127 124.264 16.426C124.674 16.23 125.122 16.132 125.608 16.132ZM132.848 17.854V21.606C132.848 21.8673 132.908 22.0587 133.03 22.18C133.16 22.292 133.375 22.348 133.674 22.348H134.584V24H133.352C131.7 24 130.874 23.1973 130.874 21.592V17.854H129.95V16.244H130.874V14.326H132.848V16.244H134.584V17.854H132.848ZM81.926 35.228V45H79.966V35.228H81.926ZM88.1605 37.132C89.0845 37.132 89.8312 37.426 90.4005 38.014C90.9698 38.5927 91.2545 39.4047 91.2545 40.45V45H89.2945V40.716C89.2945 40.1 89.1405 39.6287 88.8325 39.302C88.5245 38.966 88.1045 38.798 87.5725 38.798C87.0312 38.798 86.6018 38.966 86.2845 39.302C85.9765 39.6287 85.8225 40.1 85.8225 40.716V45H83.8625V37.244H85.8225V38.21C86.0838 37.874 86.4152 37.6127 86.8165 37.426C87.2272 37.23 87.6752 37.132 88.1605 37.132ZM96.6743 38.854H95.3163V45H93.3283V38.854H92.4463V37.244H93.3283V36.852C93.3283 35.9 93.599 35.2 94.1403 34.752C94.6817 34.304 95.4983 34.094 96.5903 34.122V35.774C96.1143 35.7647 95.783 35.844 95.5963 36.012C95.4097 36.18 95.3163 36.4833 95.3163 36.922V37.244H96.6743V38.854ZM101.389 45.126C100.642 45.126 99.9698 44.9627 99.3725 44.636C98.7752 44.3 98.3038 43.8287 97.9585 43.222C97.6225 42.6153 97.4545 41.9153 97.4545 41.122C97.4545 40.3287 97.6272 39.6287 97.9725 39.022C98.3272 38.4153 98.8078 37.9487 99.4145 37.622C100.021 37.286 100.698 37.118 101.445 37.118C102.191 37.118 102.868 37.286 103.475 37.622C104.081 37.9487 104.557 38.4153 104.903 39.022C105.257 39.6287 105.435 40.3287 105.435 41.122C105.435 41.9153 105.253 42.6153 104.889 43.222C104.534 43.8287 104.049 44.3 103.433 44.636C102.826 44.9627 102.145 45.126 101.389 45.126ZM101.389 43.418C101.743 43.418 102.075 43.334 102.383 43.166C102.7 42.9887 102.952 42.7273 103.139 42.382C103.325 42.0367 103.419 41.6167 103.419 41.122C103.419 40.3847 103.223 39.82 102.831 39.428C102.448 39.0267 101.977 38.826 101.417 38.826C100.857 38.826 100.385 39.0267 100.003 39.428C99.6292 39.82 99.4425 40.3847 99.4425 41.122C99.4425 41.8593 99.6245 42.4287 99.9885 42.83C100.362 43.222 100.829 43.418 101.389 43.418ZM108.832 38.448C109.084 38.0373 109.411 37.7153 109.812 37.482C110.223 37.2487 110.69 37.132 111.212 37.132V39.19H110.694C110.078 39.19 109.612 39.3347 109.294 39.624C108.986 39.9133 108.832 40.4173 108.832 41.136V45H106.872V37.244H108.832V38.448ZM122.164 37.132C123.116 37.132 123.882 37.426 124.46 38.014C125.048 38.5927 125.342 39.4047 125.342 40.45V45H123.382V40.716C123.382 40.1093 123.228 39.6473 122.92 39.33C122.612 39.0033 122.192 38.84 121.66 38.84C121.128 38.84 120.704 39.0033 120.386 39.33C120.078 39.6473 119.924 40.1093 119.924 40.716V45H117.964V40.716C117.964 40.1093 117.81 39.6473 117.502 39.33C117.194 39.0033 116.774 38.84 116.242 38.84C115.701 38.84 115.272 39.0033 114.954 39.33C114.646 39.6473 114.492 40.1093 114.492 40.716V45H112.532V37.244H114.492V38.182C114.744 37.8553 115.066 37.5987 115.458 37.412C115.86 37.2253 116.298 37.132 116.774 37.132C117.381 37.132 117.922 37.2627 118.398 37.524C118.874 37.776 119.243 38.14 119.504 38.616C119.756 38.168 120.12 37.8087 120.596 37.538C121.082 37.2673 121.604 37.132 122.164 37.132ZM126.698 41.094C126.698 40.31 126.852 39.6147 127.16 39.008C127.478 38.4013 127.902 37.9347 128.434 37.608C128.976 37.2813 129.578 37.118 130.24 37.118C130.819 37.118 131.323 37.2347 131.752 37.468C132.191 37.7013 132.541 37.9953 132.802 38.35V37.244H134.776V45H132.802V43.866C132.55 44.23 132.2 44.5333 131.752 44.776C131.314 45.0093 130.805 45.126 130.226 45.126C129.573 45.126 128.976 44.958 128.434 44.622C127.902 44.286 127.478 43.8147 127.16 43.208C126.852 42.592 126.698 41.8873 126.698 41.094ZM132.802 41.122C132.802 40.646 132.709 40.24 132.522 39.904C132.336 39.5587 132.084 39.2973 131.766 39.12C131.449 38.9333 131.108 38.84 130.744 38.84C130.38 38.84 130.044 38.9287 129.736 39.106C129.428 39.2833 129.176 39.5447 128.98 39.89C128.794 40.226 128.7 40.6273 128.7 41.094C128.7 41.5607 128.794 41.9713 128.98 42.326C129.176 42.6713 129.428 42.9373 129.736 43.124C130.054 43.3107 130.39 43.404 130.744 43.404C131.108 43.404 131.449 43.3153 131.766 43.138C132.084 42.9513 132.336 42.69 132.522 42.354C132.709 42.0087 132.802 41.598 132.802 41.122ZM138.973 38.854V42.606C138.973 42.8673 139.033 43.0587 139.155 43.18C139.285 43.292 139.5 43.348 139.799 43.348H140.709V45H139.477C137.825 45 136.999 44.1973 136.999 42.592V38.854H136.075V37.244H136.999V35.326H138.973V37.244H140.709V38.854H138.973ZM143.112 36.32C142.767 36.32 142.478 36.2127 142.244 35.998C142.02 35.774 141.908 35.4987 141.908 35.172C141.908 34.8453 142.02 34.5747 142.244 34.36C142.478 34.136 142.767 34.024 143.112 34.024C143.458 34.024 143.742 34.136 143.966 34.36C144.2 34.5747 144.316 34.8453 144.316 35.172C144.316 35.4987 144.2 35.774 143.966 35.998C143.742 36.2127 143.458 36.32 143.112 36.32ZM144.078 37.244V45H142.118V37.244H144.078ZM149.459 45.126C148.712 45.126 148.04 44.9627 147.443 44.636C146.845 44.3 146.374 43.8287 146.029 43.222C145.693 42.6153 145.525 41.9153 145.525 41.122C145.525 40.3287 145.697 39.6287 146.043 39.022C146.397 38.4153 146.878 37.9487 147.485 37.622C148.091 37.286 148.768 37.118 149.515 37.118C150.261 37.118 150.938 37.286 151.545 37.622C152.151 37.9487 152.627 38.4153 152.973 39.022C153.327 39.6287 153.505 40.3287 153.505 41.122C153.505 41.9153 153.323 42.6153 152.959 43.222C152.604 43.8287 152.119 44.3 151.503 44.636C150.896 44.9627 150.215 45.126 149.459 45.126ZM149.459 43.418C149.813 43.418 150.145 43.334 150.453 43.166C150.77 42.9887 151.022 42.7273 151.209 42.382C151.395 42.0367 151.489 41.6167 151.489 41.122C151.489 40.3847 151.293 39.82 150.901 39.428C150.518 39.0267 150.047 38.826 149.487 38.826C148.927 38.826 148.455 39.0267 148.073 39.428C147.699 39.82 147.513 40.3847 147.513 41.122C147.513 41.8593 147.695 42.4287 148.059 42.83C148.432 43.222 148.899 43.418 149.459 43.418ZM159.241 37.132C160.165 37.132 160.911 37.426 161.481 38.014C162.05 38.5927 162.335 39.4047 162.335 40.45V45H160.375V40.716C160.375 40.1 160.221 39.6287 159.913 39.302C159.605 38.966 159.185 38.798 158.653 38.798C158.111 38.798 157.682 38.966 157.365 39.302C157.057 39.6287 156.903 40.1 156.903 40.716V45H154.943V37.244H156.903V38.21C157.164 37.874 157.495 37.6127 157.897 37.426C158.307 37.23 158.755 37.132 159.241 37.132Z" fill="#050329"/>
<defs>
<clipPath id="clip0_569_132">
<rect width="18" height="18" fill="white" transform="translate(21 21)"/>
</clipPath>
</defs>
</svg>
