<svg width="61" height="60" viewBox="0 0 61 60" fill="none" xmlns="http://www.w3.org/2000/svg">
<circle cx="30.75" cy="30" r="30" fill="#FDE8FF"/>
<g clip-path="url(#clip0_219_200)">
<g filter="url(#filter0_d_219_200)">
<path d="M20.7 38.5846V26.0423H40.8V38.5846C40.8 39.3706 40.1311 40.05 39.2763 40.05H22.2237C21.3689 40.05 20.7 39.3706 20.7 38.5846Z" stroke="#741B6D" stroke-width="1.5"/>
<path d="M41.55 23.077V26.4H19.95V23.077C19.95 21.8585 20.9732 20.8616 22.2237 20.8616H39.2763C40.5268 20.8616 41.55 21.8585 41.55 23.077Z" fill="#03091E"/>
<path d="M35.8658 24.7384C36.8076 24.7384 37.571 23.9945 37.571 23.0769C37.571 22.1592 36.8076 21.4153 35.8658 21.4153C34.924 21.4153 34.1605 22.1592 34.1605 23.0769C34.1605 23.9945 34.924 24.7384 35.8658 24.7384Z" fill="#03091E"/>
<path d="M25.6342 24.7384C26.576 24.7384 27.3395 23.9945 27.3395 23.0769C27.3395 22.1592 26.576 21.4153 25.6342 21.4153C24.6924 21.4153 23.929 22.1592 23.929 23.0769C23.929 23.9945 24.6924 24.7384 25.6342 24.7384Z" fill="#03091E"/>
<path d="M35.8658 19.2C35.2405 19.2 34.7289 19.6985 34.7289 20.3077V23.0769C34.7289 23.6862 35.2405 24.1846 35.8658 24.1846C36.491 24.1846 37.0026 23.6862 37.0026 23.0769V20.3077C37.0026 19.6985 36.491 19.2 35.8658 19.2ZM25.6342 19.2C25.0089 19.2 24.4974 19.6985 24.4974 20.3077V23.0769C24.4974 23.6862 25.0089 24.1846 25.6342 24.1846C26.2595 24.1846 26.771 23.6862 26.771 23.0769V20.3077C26.771 19.6985 26.2595 19.2 25.6342 19.2Z" fill="#BDBDBD"/>
<path d="M33.7815 30.8308L30.75 33.7847L29.2342 32.3077" stroke="#741B6D" stroke-width="1.5" stroke-linecap="round" stroke-linejoin="round"/>
</g>
</g>
<defs>
<filter id="filter0_d_219_200" x="-6.05" y="-6.79999" width="81.6" height="81.6" filterUnits="userSpaceOnUse" color-interpolation-filters="sRGB">
<feFlood flood-opacity="0" result="BackgroundImageFix"/>
<feColorMatrix in="SourceAlpha" type="matrix" values="0 0 0 0 0 0 0 0 0 0 0 0 0 0 0 0 0 0 127 0" result="hardAlpha"/>
<feOffset dx="4" dy="4"/>
<feGaussianBlur stdDeviation="15"/>
<feComposite in2="hardAlpha" operator="out"/>
<feColorMatrix type="matrix" values="0 0 0 0 0.852676 0 0 0 0 0.852676 0 0 0 0 0.852676 0 0 0 1 0"/>
<feBlend mode="normal" in2="BackgroundImageFix" result="effect1_dropShadow_219_200"/>
<feBlend mode="normal" in="SourceGraphic" in2="effect1_dropShadow_219_200" result="shape"/>
</filter>
<clipPath id="clip0_219_200">
<rect width="28.8" height="28.8" fill="white" transform="translate(16.35 15.6)"/>
</clipPath>
</defs>
</svg>
