<svg width="211" height="60" viewBox="0 0 211 60" fill="none" xmlns="http://www.w3.org/2000/svg">
<circle cx="30" cy="30" r="30" fill="#E6F2FD"/>
<path d="M25.2 21.6H20.4C19.7372 21.6 19.2 22.1372 19.2 22.8V27.6C19.2 28.2627 19.7372 28.8 20.4 28.8H25.2C25.8627 28.8 26.4 28.2627 26.4 27.6V22.8C26.4 22.1372 25.8627 21.6 25.2 21.6Z" stroke="#14293C" stroke-width="2" stroke-linecap="round" stroke-linejoin="round"/>
<path d="M19.2 35.9999L21.6 38.3999L26.4 33.5999M31.2 22.7999H40.8M31.2 29.9999H40.8M31.2 37.1999H40.8" stroke="#14293C" stroke-width="2" stroke-linecap="round" stroke-linejoin="round"/>
<path d="M86.616 14.228V15.81H84.012V24H82.052V15.81H79.448V14.228H86.616ZM87.5421 20.094C87.5421 19.31 87.6961 18.6147 88.0041 18.008C88.3214 17.4013 88.7461 16.9347 89.2781 16.608C89.8194 16.2813 90.4214 16.118 91.0841 16.118C91.6627 16.118 92.1667 16.2347 92.5961 16.468C93.0347 16.7013 93.3847 16.9953 93.6461 17.35V16.244H95.6201V24H93.6461V22.866C93.3941 23.23 93.0441 23.5333 92.5961 23.776C92.1574 24.0093 91.6487 24.126 91.0701 24.126C90.4167 24.126 89.8194 23.958 89.2781 23.622C88.7461 23.286 88.3214 22.8147 88.0041 22.208C87.6961 21.592 87.5421 20.8873 87.5421 20.094ZM93.6461 20.122C93.6461 19.646 93.5527 19.24 93.3661 18.904C93.1794 18.5587 92.9274 18.2973 92.6101 18.12C92.2927 17.9333 91.9521 17.84 91.5881 17.84C91.2241 17.84 90.8881 17.9287 90.5801 18.106C90.2721 18.2833 90.0201 18.5447 89.8241 18.89C89.6374 19.226 89.5441 19.6273 89.5441 20.094C89.5441 20.5607 89.6374 20.9713 89.8241 21.326C90.0201 21.6713 90.2721 21.9373 90.5801 22.124C90.8974 22.3107 91.2334 22.404 91.5881 22.404C91.9521 22.404 92.2927 22.3153 92.6101 22.138C92.9274 21.9513 93.1794 21.69 93.3661 21.354C93.5527 21.0087 93.6461 20.598 93.6461 20.122ZM100.502 24.126C99.8677 24.126 99.2984 24.014 98.7944 23.79C98.2904 23.5567 97.889 23.244 97.5904 22.852C97.301 22.46 97.1424 22.026 97.1144 21.55H99.0884C99.1257 21.8487 99.2704 22.096 99.5224 22.292C99.7837 22.488 100.106 22.586 100.488 22.586C100.862 22.586 101.151 22.5113 101.356 22.362C101.571 22.2127 101.678 22.0213 101.678 21.788C101.678 21.536 101.548 21.3493 101.286 21.228C101.034 21.0973 100.628 20.9573 100.068 20.808C99.4897 20.668 99.0137 20.5233 98.6404 20.374C98.2764 20.2247 97.959 19.996 97.6884 19.688C97.427 19.38 97.2964 18.9647 97.2964 18.442C97.2964 18.0127 97.4177 17.6207 97.6604 17.266C97.9124 16.9113 98.267 16.6313 98.7244 16.426C99.191 16.2207 99.737 16.118 100.362 16.118C101.286 16.118 102.024 16.3513 102.574 16.818C103.125 17.2753 103.428 17.896 103.484 18.68H101.608C101.58 18.372 101.45 18.1293 101.216 17.952C100.992 17.7653 100.689 17.672 100.306 17.672C99.9517 17.672 99.6764 17.7373 99.4804 17.868C99.2937 17.9987 99.2004 18.1807 99.2004 18.414C99.2004 18.6753 99.331 18.876 99.5924 19.016C99.8537 19.1467 100.26 19.282 100.81 19.422C101.37 19.562 101.832 19.7067 102.196 19.856C102.56 20.0053 102.873 20.2387 103.134 20.556C103.405 20.864 103.545 21.2747 103.554 21.788C103.554 22.236 103.428 22.6373 103.176 22.992C102.934 23.3467 102.579 23.6267 102.112 23.832C101.655 24.028 101.118 24.126 100.502 24.126ZM109.755 24L107.123 20.696V24H105.163V13.64H107.123V19.534L109.727 16.244H112.275L108.859 20.136L112.303 24H109.755ZM90.62 35.228V45H88.66V38.644L86.042 45H84.558L81.926 38.644V45H79.966V35.228H82.192L85.3 42.494L88.408 35.228H90.62ZM92.0538 41.094C92.0538 40.31 92.2078 39.6147 92.5158 39.008C92.8331 38.4013 93.2578 37.9347 93.7898 37.608C94.3311 37.2813 94.9331 37.118 95.5958 37.118C96.1745 37.118 96.6785 37.2347 97.1078 37.468C97.5465 37.7013 97.8965 37.9953 98.1578 38.35V37.244H100.132V45H98.1578V43.866C97.9058 44.23 97.5558 44.5333 97.1078 44.776C96.6691 45.0093 96.1605 45.126 95.5818 45.126C94.9285 45.126 94.3311 44.958 93.7898 44.622C93.2578 44.286 92.8331 43.8147 92.5158 43.208C92.2078 42.592 92.0538 41.8873 92.0538 41.094ZM98.1578 41.122C98.1578 40.646 98.0645 40.24 97.8778 39.904C97.6911 39.5587 97.4391 39.2973 97.1218 39.12C96.8045 38.9333 96.4638 38.84 96.0998 38.84C95.7358 38.84 95.3998 38.9287 95.0918 39.106C94.7838 39.2833 94.5318 39.5447 94.3358 39.89C94.1491 40.226 94.0558 40.6273 94.0558 41.094C94.0558 41.5607 94.1491 41.9713 94.3358 42.326C94.5318 42.6713 94.7838 42.9373 95.0918 43.124C95.4091 43.3107 95.7451 43.404 96.0998 43.404C96.4638 43.404 96.8045 43.3153 97.1218 43.138C97.4391 42.9513 97.6911 42.69 97.8778 42.354C98.0645 42.0087 98.1578 41.598 98.1578 41.122ZM106.344 37.132C107.268 37.132 108.015 37.426 108.584 38.014C109.153 38.5927 109.438 39.4047 109.438 40.45V45H107.478V40.716C107.478 40.1 107.324 39.6287 107.016 39.302C106.708 38.966 106.288 38.798 105.756 38.798C105.215 38.798 104.785 38.966 104.468 39.302C104.16 39.6287 104.006 40.1 104.006 40.716V45H102.046V37.244H104.006V38.21C104.267 37.874 104.599 37.6127 105 37.426C105.411 37.23 105.859 37.132 106.344 37.132ZM110.798 41.094C110.798 40.31 110.952 39.6147 111.26 39.008C111.577 38.4013 112.002 37.9347 112.534 37.608C113.075 37.2813 113.677 37.118 114.34 37.118C114.919 37.118 115.423 37.2347 115.852 37.468C116.291 37.7013 116.641 37.9953 116.902 38.35V37.244H118.876V45H116.902V43.866C116.65 44.23 116.3 44.5333 115.852 44.776C115.413 45.0093 114.905 45.126 114.326 45.126C113.673 45.126 113.075 44.958 112.534 44.622C112.002 44.286 111.577 43.8147 111.26 43.208C110.952 42.592 110.798 41.8873 110.798 41.094ZM116.902 41.122C116.902 40.646 116.809 40.24 116.622 39.904C116.435 39.5587 116.183 39.2973 115.866 39.12C115.549 38.9333 115.208 38.84 114.844 38.84C114.48 38.84 114.144 38.9287 113.836 39.106C113.528 39.2833 113.276 39.5447 113.08 39.89C112.893 40.226 112.8 40.6273 112.8 41.094C112.8 41.5607 112.893 41.9713 113.08 42.326C113.276 42.6713 113.528 42.9373 113.836 43.124C114.153 43.3107 114.489 43.404 114.844 43.404C115.208 43.404 115.549 43.3153 115.866 43.138C116.183 42.9513 116.435 42.69 116.622 42.354C116.809 42.0087 116.902 41.598 116.902 41.122ZM123.828 37.118C124.407 37.118 124.916 37.2347 125.354 37.468C125.793 37.692 126.138 37.986 126.39 38.35V37.244H128.364V45.056C128.364 45.7747 128.22 46.414 127.93 46.974C127.641 47.5433 127.207 47.9913 126.628 48.318C126.05 48.654 125.35 48.822 124.528 48.822C123.427 48.822 122.522 48.5653 121.812 48.052C121.112 47.5387 120.716 46.8387 120.622 45.952H122.568C122.671 46.3067 122.89 46.5867 123.226 46.792C123.572 47.0067 123.987 47.114 124.472 47.114C125.042 47.114 125.504 46.9413 125.858 46.596C126.213 46.26 126.39 45.7467 126.39 45.056V43.852C126.138 44.216 125.788 44.5193 125.34 44.762C124.902 45.0047 124.398 45.126 123.828 45.126C123.175 45.126 122.578 44.958 122.036 44.622C121.495 44.286 121.066 43.8147 120.748 43.208C120.44 42.592 120.286 41.8873 120.286 41.094C120.286 40.31 120.44 39.6147 120.748 39.008C121.066 38.4013 121.49 37.9347 122.022 37.608C122.564 37.2813 123.166 37.118 123.828 37.118ZM126.39 41.122C126.39 40.646 126.297 40.24 126.11 39.904C125.924 39.5587 125.672 39.2973 125.354 39.12C125.037 38.9333 124.696 38.84 124.332 38.84C123.968 38.84 123.632 38.9287 123.324 39.106C123.016 39.2833 122.764 39.5447 122.568 39.89C122.382 40.226 122.288 40.6273 122.288 41.094C122.288 41.5607 122.382 41.9713 122.568 42.326C122.764 42.6713 123.016 42.9373 123.324 43.124C123.642 43.3107 123.978 43.404 124.332 43.404C124.696 43.404 125.037 43.3153 125.354 43.138C125.672 42.9513 125.924 42.69 126.11 42.354C126.297 42.0087 126.39 41.598 126.39 41.122ZM137.489 40.954C137.489 41.234 137.47 41.486 137.433 41.71H131.763C131.809 42.27 132.005 42.7087 132.351 43.026C132.696 43.3433 133.121 43.502 133.625 43.502C134.353 43.502 134.871 43.1893 135.179 42.564H137.293C137.069 43.3107 136.639 43.9267 136.005 44.412C135.37 44.888 134.591 45.126 133.667 45.126C132.92 45.126 132.248 44.9627 131.651 44.636C131.063 44.3 130.601 43.8287 130.265 43.222C129.938 42.6153 129.774 41.9153 129.774 41.122C129.774 40.3193 129.938 39.6147 130.265 39.008C130.591 38.4013 131.049 37.9347 131.637 37.608C132.225 37.2813 132.901 37.118 133.667 37.118C134.404 37.118 135.062 37.2767 135.641 37.594C136.229 37.9113 136.681 38.364 136.999 38.952C137.325 39.5307 137.489 40.198 137.489 40.954ZM135.459 40.394C135.449 39.89 135.267 39.4887 134.913 39.19C134.558 38.882 134.124 38.728 133.611 38.728C133.125 38.728 132.715 38.8773 132.379 39.176C132.052 39.4653 131.851 39.8713 131.777 40.394H135.459ZM148.551 37.132C149.503 37.132 150.268 37.426 150.847 38.014C151.435 38.5927 151.729 39.4047 151.729 40.45V45H149.769V40.716C149.769 40.1093 149.615 39.6473 149.307 39.33C148.999 39.0033 148.579 38.84 148.047 38.84C147.515 38.84 147.09 39.0033 146.773 39.33C146.465 39.6473 146.311 40.1093 146.311 40.716V45H144.351V40.716C144.351 40.1093 144.197 39.6473 143.889 39.33C143.581 39.0033 143.161 38.84 142.629 38.84C142.088 38.84 141.658 39.0033 141.341 39.33C141.033 39.6473 140.879 40.1093 140.879 40.716V45H138.919V37.244H140.879V38.182C141.131 37.8553 141.453 37.5987 141.845 37.412C142.246 37.2253 142.685 37.132 143.161 37.132C143.768 37.132 144.309 37.2627 144.785 37.524C145.261 37.776 145.63 38.14 145.891 38.616C146.143 38.168 146.507 37.8087 146.983 37.538C147.468 37.2673 147.991 37.132 148.551 37.132ZM160.799 40.954C160.799 41.234 160.78 41.486 160.743 41.71H155.073C155.12 42.27 155.316 42.7087 155.661 43.026C156.006 43.3433 156.431 43.502 156.935 43.502C157.663 43.502 158.181 43.1893 158.489 42.564H160.603C160.379 43.3107 159.95 43.9267 159.315 44.412C158.68 44.888 157.901 45.126 156.977 45.126C156.23 45.126 155.558 44.9627 154.961 44.636C154.373 44.3 153.911 43.8287 153.575 43.222C153.248 42.6153 153.085 41.9153 153.085 41.122C153.085 40.3193 153.248 39.6147 153.575 39.008C153.902 38.4013 154.359 37.9347 154.947 37.608C155.535 37.2813 156.212 37.118 156.977 37.118C157.714 37.118 158.372 37.2767 158.951 37.594C159.539 37.9113 159.992 38.364 160.309 38.952C160.636 39.5307 160.799 40.198 160.799 40.954ZM158.769 40.394C158.76 39.89 158.578 39.4887 158.223 39.19C157.868 38.882 157.434 38.728 156.921 38.728C156.436 38.728 156.025 38.8773 155.689 39.176C155.362 39.4653 155.162 39.8713 155.087 40.394H158.769ZM166.528 37.132C167.452 37.132 168.198 37.426 168.768 38.014C169.337 38.5927 169.622 39.4047 169.622 40.45V45H167.662V40.716C167.662 40.1 167.508 39.6287 167.2 39.302C166.892 38.966 166.472 38.798 165.94 38.798C165.398 38.798 164.969 38.966 164.652 39.302C164.344 39.6287 164.19 40.1 164.19 40.716V45H162.23V37.244H164.19V38.21C164.451 37.874 164.782 37.6127 165.184 37.426C165.594 37.23 166.042 37.132 166.528 37.132ZM173.768 38.854V42.606C173.768 42.8673 173.828 43.0587 173.95 43.18C174.08 43.292 174.295 43.348 174.594 43.348H175.504V45H174.272C172.62 45 171.794 44.1973 171.794 42.592V38.854H170.87V37.244H171.794V35.326H173.768V37.244H175.504V38.854H173.768Z" fill="#050329"/>
</svg>
