<svg width="61" height="60" viewBox="0 0 61 60" fill="none" xmlns="http://www.w3.org/2000/svg">
<circle cx="30.5" cy="30" r="30" fill="#D3FCCB"/>
<path d="M33.16 33.6964V30.5H33.78V33.0456V33.3342L34.0298 33.4785L36.2324 34.7513L35.9219 35.2895L33.16 33.6964ZM38.64 27.948V28.1528L38.7836 28.2987C40.0337 29.569 40.8 31.3126 40.8 33.24C40.8 35.1124 40.0562 36.9082 38.7322 38.2322C37.4082 39.5562 35.6124 40.3 33.74 40.3C31.8126 40.3 30.069 39.5337 28.7987 38.2836L28.6528 38.14H28.448H21.86C21.4197 38.14 20.9975 37.9651 20.6862 37.6538C20.3749 37.3425 20.2 36.9203 20.2 36.48V21.36C20.2 20.9198 20.3749 20.4975 20.6862 20.1862C20.9975 19.8749 21.4197 19.7 21.86 19.7H36.98C37.4203 19.7 37.8425 19.8749 38.1538 20.1862C38.4651 20.4975 38.64 20.9198 38.64 21.36V27.948ZM21.86 32.74H21.36V33.24V36.48V36.98H21.86H26.9036H27.6929L27.3557 36.2664C26.9223 35.3492 26.68 34.3204 26.68 33.24V32.74H26.18H21.86ZM21.36 25.68V26.18H21.86H28.34H28.84V25.68V22.44V21.94H28.34H21.86H21.36V22.44V25.68ZM36.98 26.18H37.48V25.68V22.44V21.94H36.98H30.5H30V22.44V25.68V26.18H30.5H36.98ZM21.36 31.08V31.58H21.86H26.4932H26.8668L26.9727 31.2218C27.3153 30.063 27.9502 29.0247 28.7973 28.1978L29.676 27.34H28.448H21.86H21.36V27.84V31.08ZM33.74 27.502C32.2182 27.502 30.7587 28.1065 29.6826 29.1826C28.6065 30.2587 28.002 31.7182 28.002 33.24C28.002 36.4106 30.5695 38.978 33.74 38.978C34.4935 38.978 35.2397 38.8296 35.9358 38.5412C36.632 38.2529 37.2646 37.8302 37.7974 37.2974C38.3302 36.7646 38.7529 36.132 39.0412 35.4359C39.3296 34.7397 39.478 33.9935 39.478 33.24C39.478 30.0695 36.9105 27.502 33.74 27.502Z" stroke="#1F4119"/>
</svg>
