<svg width="211" height="60" viewBox="0 0 211 60" fill="none" xmlns="http://www.w3.org/2000/svg">
<circle cx="30" cy="30" r="30" fill="#FFE8CE"/>
<path d="M26 24V30M33 24V30M20 30H39.6M36 36H39C39 36 39.5 34.3 39.8 33.2C39.9 32.8 40 32.4 40 32C40 31.6 39.9 31.2 39.8 30.8L38.4 25.8C38.1 24.8 37.1 24 36 24H22C21.4696 24 20.9609 24.2107 20.5858 24.5858C20.2107 24.9609 20 25.4696 20 26V36H23" stroke="#854B06" stroke-width="2" stroke-linecap="round" stroke-linejoin="round"/>
<path d="M25 38C26.1046 38 27 37.1046 27 36C27 34.8954 26.1046 34 25 34C23.8954 34 23 34.8954 23 36C23 37.1046 23.8954 38 25 38Z" stroke="#854B06" stroke-width="2" stroke-linecap="round" stroke-linejoin="round"/>
<path d="M27 36H32" stroke="#854B06" stroke-width="2" stroke-linecap="round" stroke-linejoin="round"/>
<path d="M34 38C35.1046 38 36 37.1046 36 36C36 34.8954 35.1046 34 34 34C32.8954 34 32 34.8954 32 36C32 37.1046 32.8954 38 34 38Z" stroke="#854B06" stroke-width="2" stroke-linecap="round" stroke-linejoin="round"/>
<path d="M86.616 24.728V26.31H84.012V34.5H82.052V26.31H79.448V24.728H86.616ZM90.0061 27.948C90.2581 27.5373 90.5847 27.2153 90.9861 26.982C91.3967 26.7487 91.8634 26.632 92.3861 26.632V28.69H91.8681C91.2521 28.69 90.7854 28.8347 90.4681 29.124C90.1601 29.4133 90.0061 29.9173 90.0061 30.636V34.5H88.0461V26.744H90.0061V27.948ZM93.2022 30.594C93.2022 29.81 93.3562 29.1147 93.6642 28.508C93.9816 27.9013 94.4062 27.4347 94.9382 27.108C95.4796 26.7813 96.0816 26.618 96.7442 26.618C97.3229 26.618 97.8269 26.7347 98.2562 26.968C98.6949 27.2013 99.0449 27.4953 99.3062 27.85V26.744H101.28V34.5H99.3062V33.366C99.0542 33.73 98.7042 34.0333 98.2562 34.276C97.8176 34.5093 97.3089 34.626 96.7302 34.626C96.0769 34.626 95.4796 34.458 94.9382 34.122C94.4062 33.786 93.9816 33.3147 93.6642 32.708C93.3562 32.092 93.2022 31.3873 93.2022 30.594ZM99.3062 30.622C99.3062 30.146 99.2129 29.74 99.0262 29.404C98.8396 29.0587 98.5876 28.7973 98.2702 28.62C97.9529 28.4333 97.6122 28.34 97.2482 28.34C96.8842 28.34 96.5482 28.4287 96.2402 28.606C95.9322 28.7833 95.6802 29.0447 95.4842 29.39C95.2976 29.726 95.2042 30.1273 95.2042 30.594C95.2042 31.0607 95.2976 31.4713 95.4842 31.826C95.6802 32.1713 95.9322 32.4373 96.2402 32.624C96.5576 32.8107 96.8936 32.904 97.2482 32.904C97.6122 32.904 97.9529 32.8153 98.2702 32.638C98.5876 32.4513 98.8396 32.19 99.0262 31.854C99.2129 31.5087 99.3062 31.098 99.3062 30.622ZM107.493 26.632C108.417 26.632 109.163 26.926 109.733 27.514C110.302 28.0927 110.587 28.9047 110.587 29.95V34.5H108.627V30.216C108.627 29.6 108.473 29.1287 108.165 28.802C107.857 28.466 107.437 28.298 106.905 28.298C106.363 28.298 105.934 28.466 105.617 28.802C105.309 29.1287 105.155 29.6 105.155 30.216V34.5H103.195V26.744H105.155V27.71C105.416 27.374 105.747 27.1127 106.149 26.926C106.559 26.73 107.007 26.632 107.493 26.632ZM115.418 34.626C114.784 34.626 114.214 34.514 113.71 34.29C113.206 34.0567 112.805 33.744 112.506 33.352C112.217 32.96 112.058 32.526 112.03 32.05H114.004C114.042 32.3487 114.186 32.596 114.438 32.792C114.7 32.988 115.022 33.086 115.404 33.086C115.778 33.086 116.067 33.0113 116.272 32.862C116.487 32.7127 116.594 32.5213 116.594 32.288C116.594 32.036 116.464 31.8493 116.202 31.728C115.95 31.5973 115.544 31.4573 114.984 31.308C114.406 31.168 113.93 31.0233 113.556 30.874C113.192 30.7247 112.875 30.496 112.604 30.188C112.343 29.88 112.212 29.4647 112.212 28.942C112.212 28.5127 112.334 28.1207 112.576 27.766C112.828 27.4113 113.183 27.1313 113.64 26.926C114.107 26.7207 114.653 26.618 115.278 26.618C116.202 26.618 116.94 26.8513 117.49 27.318C118.041 27.7753 118.344 28.396 118.4 29.18H116.524C116.496 28.872 116.366 28.6293 116.132 28.452C115.908 28.2653 115.605 28.172 115.222 28.172C114.868 28.172 114.592 28.2373 114.396 28.368C114.21 28.4987 114.116 28.6807 114.116 28.914C114.116 29.1753 114.247 29.376 114.508 29.516C114.77 29.6467 115.176 29.782 115.726 29.922C116.286 30.062 116.748 30.2067 117.112 30.356C117.476 30.5053 117.789 30.7387 118.05 31.056C118.321 31.364 118.461 31.7747 118.47 32.288C118.47 32.736 118.344 33.1373 118.092 33.492C117.85 33.8467 117.495 34.1267 117.028 34.332C116.571 34.528 116.034 34.626 115.418 34.626ZM122.039 27.864C122.291 27.5093 122.637 27.2153 123.075 26.982C123.523 26.7393 124.032 26.618 124.601 26.618C125.264 26.618 125.861 26.7813 126.393 27.108C126.935 27.4347 127.359 27.9013 127.667 28.508C127.985 29.1053 128.143 29.8007 128.143 30.594C128.143 31.3873 127.985 32.092 127.667 32.708C127.359 33.3147 126.935 33.786 126.393 34.122C125.861 34.458 125.264 34.626 124.601 34.626C124.032 34.626 123.528 34.5093 123.089 34.276C122.66 34.0427 122.31 33.7487 122.039 33.394V38.196H120.079V26.744H122.039V27.864ZM126.141 30.594C126.141 30.1273 126.043 29.726 125.847 29.39C125.661 29.0447 125.409 28.7833 125.091 28.606C124.783 28.4287 124.447 28.34 124.083 28.34C123.729 28.34 123.393 28.4333 123.075 28.62C122.767 28.7973 122.515 29.0587 122.319 29.404C122.133 29.7493 122.039 30.1553 122.039 30.622C122.039 31.0887 122.133 31.4947 122.319 31.84C122.515 32.1853 122.767 32.4513 123.075 32.638C123.393 32.8153 123.729 32.904 124.083 32.904C124.447 32.904 124.783 32.8107 125.091 32.624C125.409 32.4373 125.661 32.1713 125.847 31.826C126.043 31.4807 126.141 31.07 126.141 30.594ZM133.012 34.626C132.265 34.626 131.593 34.4627 130.996 34.136C130.398 33.8 129.927 33.3287 129.582 32.722C129.246 32.1153 129.078 31.4153 129.078 30.622C129.078 29.8287 129.25 29.1287 129.596 28.522C129.95 27.9153 130.431 27.4487 131.038 27.122C131.644 26.786 132.321 26.618 133.068 26.618C133.814 26.618 134.491 26.786 135.098 27.122C135.704 27.4487 136.18 27.9153 136.526 28.522C136.88 29.1287 137.058 29.8287 137.058 30.622C137.058 31.4153 136.876 32.1153 136.512 32.722C136.157 33.3287 135.672 33.8 135.056 34.136C134.449 34.4627 133.768 34.626 133.012 34.626ZM133.012 32.918C133.366 32.918 133.698 32.834 134.006 32.666C134.323 32.4887 134.575 32.2273 134.762 31.882C134.948 31.5367 135.042 31.1167 135.042 30.622C135.042 29.8847 134.846 29.32 134.454 28.928C134.071 28.5267 133.6 28.326 133.04 28.326C132.48 28.326 132.008 28.5267 131.626 28.928C131.252 29.32 131.066 29.8847 131.066 30.622C131.066 31.3593 131.248 31.9287 131.612 32.33C131.985 32.722 132.452 32.918 133.012 32.918ZM140.455 27.948C140.707 27.5373 141.034 27.2153 141.435 26.982C141.846 26.7487 142.313 26.632 142.835 26.632V28.69H142.317C141.701 28.69 141.235 28.8347 140.917 29.124C140.609 29.4133 140.455 29.9173 140.455 30.636V34.5H138.495V26.744H140.455V27.948ZM146.437 28.354V32.106C146.437 32.3673 146.498 32.5587 146.619 32.68C146.75 32.792 146.965 32.848 147.263 32.848H148.173V34.5H146.941C145.289 34.5 144.463 33.6973 144.463 32.092V28.354H143.539V26.744H144.463V24.826H146.437V26.744H148.173V28.354H146.437Z" fill="#050329"/>
</svg>
