<svg width="211" height="60" viewBox="0 0 211 60" fill="none" xmlns="http://www.w3.org/2000/svg">
<circle cx="30" cy="30" r="30" fill="#D4EEFD"/>
<path d="M30 21C31.1342 21 32.0714 21.3845 32.8434 22.1566C33.6155 22.9286 34 23.8658 34 25C34 23.866 33.6008 22.8989 32.8013 22.1354C32.0146 21.3841 31.0731 21 30 21ZM30 21C28.8658 21 27.9286 21.3845 27.1566 22.1566C26.3845 22.9286 26 23.8658 26 25C26 23.866 26.3992 22.8989 27.1987 22.1354C27.9854 21.3841 28.9269 21 30 21ZM35.288 34.2129L35.2871 34.212C35.0952 34.0205 35 33.794 35 33.5C35 33.206 35.0952 32.9795 35.2871 32.788L35.288 32.7871C35.4795 32.5952 35.706 32.5 36 32.5C36.294 32.5 36.5205 32.5952 36.712 32.7871L36.7129 32.788C36.9048 32.9795 37 33.206 37 33.5C37 33.794 36.9048 34.0205 36.7129 34.212L36.712 34.2129C36.5205 34.4048 36.294 34.5 36 34.5C35.706 34.5 35.4795 34.4048 35.288 34.2129ZM35.9997 37.5H36C36.9803 37.5 37.7307 37.6708 38.2834 37.9758C38.8314 38.2781 39 38.5984 39 38.925V39H33V38.925C33 38.5975 33.1689 38.277 33.7166 37.9748C34.2691 37.6699 35.0195 37.4994 35.9997 37.5ZM26 35C26 36.0805 26.4054 37.0246 27.1904 37.8096C27.8519 38.471 28.6262 38.863 29.5 38.97V38.9737C28.5868 38.8752 27.8121 38.499 27.1566 37.8434C26.3845 37.0714 26 36.1342 26 35ZM30.9774 26.9774C30.701 27.2539 30.3842 27.385 30 27.385C29.6158 27.385 29.299 27.2539 29.0226 26.9774C28.7461 26.701 28.615 26.3842 28.615 26C28.615 25.6158 28.7461 25.299 29.0226 25.0226C29.299 24.7461 29.6158 24.615 30 24.615C30.3842 24.615 30.701 24.7461 30.9774 25.0226C31.2539 25.299 31.385 25.6158 31.385 26C31.385 26.3842 31.2539 26.701 30.9774 26.9774Z" fill="#04334E" stroke="#04334E"/>
<path d="M88.744 24.728L85.16 34.5H82.78L79.196 24.728H81.296L83.984 32.498L86.658 24.728H88.744ZM90.9131 25.82C90.5678 25.82 90.2785 25.7127 90.0451 25.498C89.8211 25.274 89.7091 24.9987 89.7091 24.672C89.7091 24.3453 89.8211 24.0747 90.0451 23.86C90.2785 23.636 90.5678 23.524 90.9131 23.524C91.2585 23.524 91.5431 23.636 91.7671 23.86C92.0005 24.0747 92.1171 24.3453 92.1171 24.672C92.1171 24.9987 92.0005 25.274 91.7671 25.498C91.5431 25.7127 91.2585 25.82 90.9131 25.82ZM91.8791 26.744V34.5H89.9191V26.744H91.8791ZM96.7836 34.626C96.1489 34.626 95.5796 34.514 95.0756 34.29C94.5716 34.0567 94.1703 33.744 93.8716 33.352C93.5823 32.96 93.4236 32.526 93.3956 32.05H95.3696C95.4069 32.3487 95.5516 32.596 95.8036 32.792C96.0649 32.988 96.3869 33.086 96.7696 33.086C97.1429 33.086 97.4323 33.0113 97.6376 32.862C97.8523 32.7127 97.9596 32.5213 97.9596 32.288C97.9596 32.036 97.8289 31.8493 97.5676 31.728C97.3156 31.5973 96.9096 31.4573 96.3496 31.308C95.7709 31.168 95.2949 31.0233 94.9216 30.874C94.5576 30.7247 94.2403 30.496 93.9696 30.188C93.7083 29.88 93.5776 29.4647 93.5776 28.942C93.5776 28.5127 93.6989 28.1207 93.9416 27.766C94.1936 27.4113 94.5483 27.1313 95.0056 26.926C95.4723 26.7207 96.0183 26.618 96.6436 26.618C97.5676 26.618 98.3049 26.8513 98.8556 27.318C99.4063 27.7753 99.7096 28.396 99.7656 29.18H97.8896C97.8616 28.872 97.7309 28.6293 97.4976 28.452C97.2736 28.2653 96.9703 28.172 96.5876 28.172C96.2329 28.172 95.9576 28.2373 95.7616 28.368C95.5749 28.4987 95.4816 28.6807 95.4816 28.914C95.4816 29.1753 95.6123 29.376 95.8736 29.516C96.1349 29.6467 96.5409 29.782 97.0916 29.922C97.6516 30.062 98.1136 30.2067 98.4776 30.356C98.8416 30.5053 99.1543 30.7387 99.4156 31.056C99.6863 31.364 99.8263 31.7747 99.8356 32.288C99.8356 32.736 99.7096 33.1373 99.4576 33.492C99.2149 33.8467 98.8603 34.1267 98.3936 34.332C97.9363 34.528 97.3996 34.626 96.7836 34.626ZM102.439 25.82C102.093 25.82 101.804 25.7127 101.571 25.498C101.347 25.274 101.235 24.9987 101.235 24.672C101.235 24.3453 101.347 24.0747 101.571 23.86C101.804 23.636 102.093 23.524 102.439 23.524C102.784 23.524 103.069 23.636 103.293 23.86C103.526 24.0747 103.643 24.3453 103.643 24.672C103.643 24.9987 103.526 25.274 103.293 25.498C103.069 25.7127 102.784 25.82 102.439 25.82ZM103.405 26.744V34.5H101.445V26.744H103.405ZM107.623 28.354V32.106C107.623 32.3673 107.684 32.5587 107.805 32.68C107.936 32.792 108.15 32.848 108.449 32.848H109.359V34.5H108.127C106.475 34.5 105.649 33.6973 105.649 32.092V28.354H104.725V26.744H105.649V24.826H107.623V26.744H109.359V28.354H107.623ZM114.213 34.626C113.466 34.626 112.794 34.4627 112.197 34.136C111.599 33.8 111.128 33.3287 110.783 32.722C110.447 32.1153 110.279 31.4153 110.279 30.622C110.279 29.8287 110.451 29.1287 110.797 28.522C111.151 27.9153 111.632 27.4487 112.239 27.122C112.845 26.786 113.522 26.618 114.269 26.618C115.015 26.618 115.692 26.786 116.299 27.122C116.905 27.4487 117.381 27.9153 117.727 28.522C118.081 29.1287 118.259 29.8287 118.259 30.622C118.259 31.4153 118.077 32.1153 117.713 32.722C117.358 33.3287 116.873 33.8 116.257 34.136C115.65 34.4627 114.969 34.626 114.213 34.626ZM114.213 32.918C114.567 32.918 114.899 32.834 115.207 32.666C115.524 32.4887 115.776 32.2273 115.963 31.882C116.149 31.5367 116.243 31.1167 116.243 30.622C116.243 29.8847 116.047 29.32 115.655 28.928C115.272 28.5267 114.801 28.326 114.241 28.326C113.681 28.326 113.209 28.5267 112.827 28.928C112.453 29.32 112.267 29.8847 112.267 30.622C112.267 31.3593 112.449 31.9287 112.813 32.33C113.186 32.722 113.653 32.918 114.213 32.918ZM121.656 27.948C121.908 27.5373 122.235 27.2153 122.636 26.982C123.047 26.7487 123.514 26.632 124.036 26.632V28.69H123.518C122.902 28.69 122.436 28.8347 122.118 29.124C121.81 29.4133 121.656 29.9173 121.656 30.636V34.5H119.696V26.744H121.656V27.948ZM134.237 29.488C134.787 29.5907 135.24 29.866 135.595 30.314C135.949 30.762 136.127 31.2753 136.127 31.854C136.127 32.3767 135.996 32.8387 135.735 33.24C135.483 33.632 135.114 33.94 134.629 34.164C134.143 34.388 133.569 34.5 132.907 34.5H128.693V24.728H132.725C133.387 24.728 133.957 24.8353 134.433 25.05C134.918 25.2647 135.282 25.5633 135.525 25.946C135.777 26.3287 135.903 26.7627 135.903 27.248C135.903 27.8173 135.749 28.2933 135.441 28.676C135.142 29.0587 134.741 29.3293 134.237 29.488ZM130.653 28.76H132.445C132.911 28.76 133.271 28.6573 133.523 28.452C133.775 28.2373 133.901 27.934 133.901 27.542C133.901 27.15 133.775 26.8467 133.523 26.632C133.271 26.4173 132.911 26.31 132.445 26.31H130.653V28.76ZM132.627 32.904C133.103 32.904 133.471 32.792 133.733 32.568C134.003 32.344 134.139 32.0267 134.139 31.616C134.139 31.196 133.999 30.8693 133.719 30.636C133.439 30.3933 133.061 30.272 132.585 30.272H130.653V32.904H132.627ZM141.133 34.626C140.386 34.626 139.714 34.4627 139.117 34.136C138.519 33.8 138.048 33.3287 137.703 32.722C137.367 32.1153 137.199 31.4153 137.199 30.622C137.199 29.8287 137.371 29.1287 137.717 28.522C138.071 27.9153 138.552 27.4487 139.159 27.122C139.765 26.786 140.442 26.618 141.189 26.618C141.935 26.618 142.612 26.786 143.219 27.122C143.825 27.4487 144.301 27.9153 144.647 28.522C145.001 29.1287 145.179 29.8287 145.179 30.622C145.179 31.4153 144.997 32.1153 144.633 32.722C144.278 33.3287 143.793 33.8 143.177 34.136C142.57 34.4627 141.889 34.626 141.133 34.626ZM141.133 32.918C141.487 32.918 141.819 32.834 142.127 32.666C142.444 32.4887 142.696 32.2273 142.883 31.882C143.069 31.5367 143.163 31.1167 143.163 30.622C143.163 29.8847 142.967 29.32 142.575 28.928C142.192 28.5267 141.721 28.326 141.161 28.326C140.601 28.326 140.129 28.5267 139.747 28.928C139.373 29.32 139.187 29.8847 139.187 30.622C139.187 31.3593 139.369 31.9287 139.733 32.33C140.106 32.722 140.573 32.918 141.133 32.918ZM150.06 34.626C149.314 34.626 148.642 34.4627 148.044 34.136C147.447 33.8 146.976 33.3287 146.63 32.722C146.294 32.1153 146.126 31.4153 146.126 30.622C146.126 29.8287 146.299 29.1287 146.644 28.522C146.999 27.9153 147.48 27.4487 148.086 27.122C148.693 26.786 149.37 26.618 150.116 26.618C150.863 26.618 151.54 26.786 152.146 27.122C152.753 27.4487 153.229 27.9153 153.574 28.522C153.929 29.1287 154.106 29.8287 154.106 30.622C154.106 31.4153 153.924 32.1153 153.56 32.722C153.206 33.3287 152.72 33.8 152.104 34.136C151.498 34.4627 150.816 34.626 150.06 34.626ZM150.06 32.918C150.415 32.918 150.746 32.834 151.054 32.666C151.372 32.4887 151.624 32.2273 151.81 31.882C151.997 31.5367 152.09 31.1167 152.09 30.622C152.09 29.8847 151.894 29.32 151.502 28.928C151.12 28.5267 150.648 28.326 150.088 28.326C149.528 28.326 149.057 28.5267 148.674 28.928C148.301 29.32 148.114 29.8847 148.114 30.622C148.114 31.3593 148.296 31.9287 148.66 32.33C149.034 32.722 149.5 32.918 150.06 32.918ZM160.136 34.5L157.504 31.196V34.5H155.544V24.14H157.504V30.034L160.108 26.744H162.656L159.24 30.636L162.684 34.5H160.136Z" fill="#050329"/>
</svg>
